<svg width="300" height="300" viewBox="0 0 300 300" fill="none" xmlns="http://www.w3.org/2000/svg">
<g opacity="0.2">
<path d="M127.801 273.475C159.034 273.475 184.353 269.475 184.353 264.542C184.353 259.609 159.034 255.61 127.801 255.61C96.5685 255.61 71.2495 259.609 71.2495 264.542C71.2495 269.475 96.5685 273.475 127.801 273.475Z" fill="#371A45"/>
</g>
<path d="M130.33 131.908C130.33 131.908 146.502 131.543 160.134 133.891C165.18 134.76 173.522 135.594 173.522 135.594C173.522 135.594 194.316 119.595 202.049 118.237C208.195 117.157 216.656 118.741 223.85 124.071C230.577 129.053 227.901 133.164 224.389 133.891C224.389 133.891 228.657 140.378 224.223 142.445C219.611 144.593 215.721 137.834 215.721 137.834C215.721 137.834 202.204 153.591 195.696 158.264C183.788 166.809 167.633 173.37 143.451 158.048" fill="white"/>
<path d="M130.329 131.907L141.455 154.077L143.449 158.048C167.633 173.373 183.787 166.811 195.696 158.264C202.208 153.594 215.721 137.839 215.721 137.839C215.721 137.839 219.613 144.597 224.224 142.447C228.654 140.379 224.39 133.894 224.39 133.894C226.658 133.424 228.575 131.543 227.84 128.93C227.436 127.495 226.235 125.841 223.851 124.072C216.657 118.74 208.193 117.157 202.048 118.24C194.313 119.598 173.523 135.595 173.523 135.595C173.523 135.595 165.18 134.762 160.133 133.894C146.503 131.544 130.329 131.907 130.329 131.907Z" fill="white"/>
<path d="M130.329 131.907L137.793 146.776C144.715 143.513 150.365 138.736 154.007 133.022C142.092 131.644 130.329 131.907 130.329 131.907Z" fill="#E8E8E8"/>
<path d="M84.2175 140.114C88.3822 143.849 93.5825 146.849 99.4615 148.824L101.656 133.806C101.656 133.806 92.4718 134.797 84.2175 140.114Z" fill="#E8E8E8"/>
<path d="M89.3757 144.019C96.6703 148.697 105.962 151.496 116.08 151.496C129.81 151.496 142.015 146.343 149.775 138.346L139.231 123.341C111.822 74.8677 91.2463 114.426 91.2463 114.426C91.2463 114.426 89.7955 127.547 89.3757 144.019Z" fill="#E8E8E8"/>
<path d="M141.456 154.076L143.449 158.048C167.633 173.373 183.787 166.811 195.696 158.264C202.208 153.594 215.721 137.839 215.721 137.839C215.721 137.839 219.613 144.597 224.224 142.447C228.654 140.379 224.391 133.893 224.391 133.893C226.658 133.424 228.576 131.543 227.84 128.93C227.297 129.892 225.805 131.094 221.72 130.281C213.835 128.717 209.522 121.785 207.274 122.788C192.449 129.413 193.395 155.337 178.257 158.87C163.119 162.402 156.431 142.713 148.357 140.772C144.528 139.851 142.517 146.659 141.456 154.076Z" fill="#E8E8E8"/>
<path d="M170.807 168.595C161.934 168.595 152.71 165.495 142.739 159.175C142.591 159.082 142.463 158.96 142.362 158.817C142.261 158.673 142.19 158.512 142.151 158.341C142.113 158.17 142.109 157.993 142.139 157.821C142.168 157.648 142.232 157.483 142.326 157.336C142.419 157.188 142.541 157.06 142.685 156.959C142.828 156.858 142.989 156.786 143.16 156.748C143.331 156.71 143.508 156.705 143.68 156.735C143.853 156.765 144.018 156.829 144.166 156.923C168.226 172.167 183.928 165.068 194.921 157.181C201.229 152.655 214.577 137.122 214.712 136.966C214.85 136.804 215.026 136.678 215.223 136.598C215.421 136.518 215.634 136.487 215.847 136.507C216.059 136.526 216.263 136.597 216.442 136.712C216.621 136.827 216.77 136.984 216.877 137.168C216.908 137.223 220.22 142.841 223.662 141.235C224.285 140.945 224.649 140.548 224.809 139.985C225.3 138.266 223.833 135.465 223.277 134.618C223.158 134.437 223.085 134.229 223.065 134.012C223.045 133.796 223.078 133.578 223.161 133.378C223.244 133.177 223.375 133 223.542 132.862C223.71 132.723 223.908 132.628 224.121 132.584C225.42 132.315 226.401 131.5 226.619 130.506C226.948 129.014 225.65 127.057 223.058 125.138C215.624 119.629 207.45 118.637 202.281 119.545C194.955 120.832 174.54 136.488 174.335 136.646C174.067 136.853 173.729 136.95 173.391 136.915C173.048 136.882 164.945 136.068 159.909 135.2C146.566 132.902 130.52 133.234 130.36 133.237H130.33C129.982 133.233 129.649 133.093 129.402 132.847C129.155 132.601 129.015 132.268 129.011 131.919C129.007 131.571 129.14 131.235 129.381 130.983C129.622 130.731 129.952 130.584 130.3 130.573C130.463 130.568 146.759 130.232 160.361 132.575C164.584 133.302 171.234 134.014 173.134 134.211C176.225 131.859 194.385 118.226 201.82 116.921C207.533 115.917 216.529 116.986 224.643 122.997C229.16 126.342 229.625 129.238 229.223 131.078C228.892 132.579 227.816 133.856 226.329 134.612C227.08 136.14 227.981 138.582 227.38 140.708C227.009 142.016 226.115 143.035 224.794 143.648C220.685 145.563 217.248 142.142 215.607 140.007C212.19 143.921 202.008 155.378 196.48 159.344C188.805 164.852 181.762 167.738 174.307 168.431C173.144 168.54 171.977 168.595 170.807 168.595Z" fill="#371A45"/>
<path d="M212.959 131.444C212.959 131.444 219.355 141.487 212.97 145.793C208.325 148.926 203.44 147.096 203.004 141.822C203.004 141.822 200.376 138.542 202.304 134.306C204.232 130.07 212.959 131.444 212.959 131.444Z" fill="#E8E8E8"/>
<path d="M208.411 148.654C207.399 148.662 206.398 148.442 205.483 148.01C203.393 147.006 202.032 144.94 201.712 142.303C201.008 141.237 199.205 137.884 201.089 133.752C203.374 128.74 212.167 129.97 213.163 130.127C213.35 130.156 213.528 130.225 213.686 130.329C213.844 130.432 213.978 130.568 214.079 130.728C214.369 131.178 221.088 141.921 213.712 146.895C211.995 148.057 210.144 148.654 208.411 148.654ZM209.93 132.565C207.43 132.565 204.356 133.016 203.515 134.858C201.943 138.308 204.022 140.962 204.041 140.989C204.207 141.196 204.307 141.448 204.329 141.712C204.484 143.585 205.305 144.969 206.635 145.609C208.181 146.35 210.27 146.006 212.224 144.688C216.719 141.657 213.241 134.649 212.138 132.681C211.405 132.603 210.668 132.565 209.93 132.565V132.565Z" fill="#371A45"/>
<path d="M206.609 143.198C204.686 143.198 202.839 142.628 201.4 141.494C201.123 141.275 200.944 140.955 200.903 140.604C200.861 140.253 200.961 139.9 201.18 139.622C201.399 139.345 201.72 139.166 202.071 139.125C202.422 139.083 202.775 139.183 203.052 139.402C205.235 141.123 208.534 140.679 210.665 139.358C211.584 138.787 213.66 137.175 213.102 134.532C213.066 134.361 213.064 134.184 213.096 134.012C213.128 133.84 213.194 133.676 213.289 133.53C213.482 133.234 213.784 133.027 214.13 132.954C214.475 132.881 214.836 132.948 215.132 133.141C215.428 133.333 215.635 133.636 215.708 133.981C216.337 136.96 214.977 139.815 212.071 141.621C210.432 142.643 208.541 143.189 206.609 143.198V143.198Z" fill="#371A45"/>
<path d="M224.389 133.891C218.804 133.891 213.635 129.022 211.268 127.932Z" fill="white"/>
<path d="M224.389 135.223C219.895 135.223 215.738 132.418 212.987 130.562C212.053 129.932 211.248 129.389 210.711 129.142C210.39 128.994 210.14 128.725 210.018 128.393C209.895 128.062 209.909 127.695 210.057 127.374C210.205 127.053 210.474 126.804 210.805 126.681C211.137 126.559 211.503 126.573 211.824 126.721C212.558 127.058 213.447 127.658 214.477 128.352C217.105 130.127 220.709 132.558 224.389 132.558C224.737 132.566 225.067 132.71 225.31 132.959C225.553 133.207 225.69 133.542 225.69 133.889C225.69 134.237 225.553 134.571 225.31 134.82C225.067 135.069 224.737 135.213 224.389 135.221V135.223Z" fill="#371A45"/>
<path d="M239.651 229.685C239.434 229.684 239.224 229.614 239.051 229.483C238.878 229.353 238.752 229.17 238.692 228.961L206.852 118.266C206.779 118.011 206.81 117.738 206.938 117.506C207.067 117.274 207.282 117.103 207.536 117.03C207.791 116.957 208.064 116.987 208.296 117.116C208.528 117.244 208.699 117.459 208.772 117.714L240.612 228.409C240.685 228.664 240.654 228.937 240.526 229.169C240.398 229.401 240.183 229.572 239.929 229.645C239.839 229.671 239.745 229.684 239.651 229.685V229.685Z" fill="#371A45"/>
<path d="M128.179 222.952C128.179 222.952 122.547 223.172 114.976 222.861C113.491 222.797 111.937 222.718 110.336 222.611C98.3877 221.822 83.8578 219.59 78.2212 213.595C69.789 204.63 67.3544 159.93 74.2683 142.021C75.4315 138.995 78.4796 136.539 82.4678 134.569C89.2893 131.189 98.8743 129.197 106.505 128.066C107.857 127.864 109.148 127.69 110.346 127.54C115.416 126.907 118.93 126.7 118.93 126.7L119.756 135.374L119.822 136.05L120.283 140.814L128.179 222.952Z" fill="white"/>
<path d="M119.76 135.375C101.802 139.956 88.7636 137.752 82.4678 134.569C89.2893 131.189 98.8742 129.197 106.505 128.066C107.857 127.864 109.148 127.69 110.346 127.54C115.416 126.907 118.93 126.7 118.93 126.7L119.76 135.375Z" fill="#D8D8D8"/>
<path d="M119.826 136.05L120.285 140.813L126.554 206.031L128.18 222.951L127.839 222.962C127.776 222.962 127.7 222.962 127.619 222.968L127.413 222.973C127.358 222.973 127.303 222.973 127.248 222.979C127.227 222.979 127.203 222.979 127.182 222.979C127.08 222.979 126.966 222.985 126.847 222.985C126.821 222.986 126.794 222.986 126.768 222.985C126.671 222.985 126.57 222.985 126.46 222.991C126.31 222.995 126.16 222.996 126 222.998C125.885 222.998 125.763 223.003 125.641 223.003L125.256 223.008C125.091 223.008 124.917 223.008 124.74 223.015C124.381 223.015 124.001 223.02 123.598 223.018C123.244 223.024 122.871 223.018 122.481 223.018C122.03 223.018 121.562 223.018 121.075 223.01C119.273 222.991 117.21 222.946 114.974 222.854C114.54 222.836 114.097 222.816 113.65 222.795C113.339 222.781 113.019 222.764 112.699 222.747C111.927 222.705 111.133 222.659 110.334 222.605C98.3861 221.817 83.8593 219.584 78.2235 213.588C71.2788 206.206 68.399 174.596 71.4651 153.663C71.2833 171.809 74.2037 191.128 79.4385 196.692C82.0262 199.443 91.4768 188.917 91.0435 183.121C89.9276 168.178 91.4445 148.803 104.711 136.72C105.053 136.408 113.158 137.064 119.826 136.05Z" fill="#E8E8E8"/>
<path d="M122.827 224.369C111.45 224.369 85.5722 223.359 77.2503 214.508C68.4509 205.152 65.8436 160.14 73.0218 141.539C75.2746 135.701 83.7474 131.207 98.2045 128.183C108.718 125.983 118.75 125.377 118.85 125.372L120.131 125.297L120.253 126.573L129.64 224.227L128.231 224.282C127.886 224.296 125.877 224.369 122.827 224.369ZM117.727 128.114C106.099 128.958 79.2215 132.871 75.5067 142.498C72.37 150.627 70.9575 165.413 71.8188 181.088C72.6614 196.416 75.5547 208.818 79.19 212.683C87.8566 221.9 119.623 221.801 126.72 221.658L117.727 128.114Z" fill="#371A45"/>
<path d="M73.6654 179.934L89.8856 180.34C90.5893 180.357 91.2676 180.607 91.814 181.051C92.3604 181.495 92.7439 182.108 92.9044 182.793C94.1059 187.959 96.2678 200.035 91.398 204.302C87.3557 207.843 80.5026 207.793 76.3289 204.602C71.6604 201.035 70.6271 189.137 70.4048 183.232C70.3886 182.798 70.4616 182.365 70.6193 181.96C70.7769 181.555 71.0159 181.187 71.3214 180.878C71.627 180.569 71.9926 180.326 72.3957 180.163C72.7988 180.001 73.2309 179.923 73.6654 179.934V179.934Z" fill="white"/>
<path d="M92.9029 182.795C94.1097 187.959 96.2671 200.036 91.3966 204.301C87.3535 207.844 80.502 207.793 76.326 204.601C73.4567 202.405 71.9608 197.059 71.1836 191.897C72.0412 194.45 73.2862 196.501 74.7791 197.81C83.3195 205.32 88.9335 195.684 88.9335 195.684C88.9335 195.684 90.1012 197.897 90.949 197.982C94.4919 198.343 93.2153 187.372 92.4223 181.71C92.6519 182.037 92.8151 182.406 92.9029 182.795Z" fill="#E8E8E8"/>
<path d="M83.7303 208.32C80.8016 208.32 77.8445 207.439 75.5203 205.662C70.5003 201.826 69.3266 189.995 69.0743 183.284C69.051 182.668 69.1542 182.053 69.3777 181.479C69.6011 180.904 69.94 180.381 70.3734 179.942C70.8068 179.504 71.3256 179.158 71.8976 178.928C72.4696 178.698 73.0828 178.587 73.6993 178.603L89.9195 179.009C90.9177 179.034 91.8795 179.389 92.6541 180.019C93.4287 180.649 93.9724 181.518 94.1999 182.49C95.7265 189.042 97.504 200.719 92.2737 205.302C89.9871 207.308 86.8707 208.319 83.7303 208.32ZM73.5836 181.266C73.3349 181.265 73.0887 181.315 72.8597 181.413C72.6308 181.51 72.4238 181.652 72.2513 181.832C72.0787 182.011 71.9441 182.223 71.8555 182.455C71.7669 182.688 71.7261 182.936 71.7356 183.184C72.1298 193.651 74.1491 201.262 77.1371 203.547C80.9308 206.445 87.0592 206.333 90.5203 203.3C93.5338 200.66 93.94 193.107 91.6069 183.096C91.5139 182.697 91.2911 182.34 90.9734 182.082C90.6557 181.824 90.2612 181.679 89.8519 181.669L73.6317 181.263L73.5836 181.266Z" fill="#371A45"/>
<path d="M82.9184 205.95C86.797 203.447 88.1854 198.505 88.3386 194.091C88.3784 191.629 88.4062 189.056 87.7431 186.675C87.7249 186.633 87.7153 186.587 87.7147 186.541C87.7142 186.495 87.7227 186.449 87.7399 186.406C87.757 186.363 87.7824 186.324 87.8147 186.291C87.847 186.258 87.8854 186.232 87.9279 186.214C87.9703 186.195 88.0159 186.186 88.0621 186.185C88.1083 186.185 88.1542 186.193 88.197 186.21C88.2399 186.227 88.279 186.253 88.3121 186.285C88.3451 186.317 88.3715 186.356 88.3897 186.398C88.571 186.851 88.7176 187.316 88.8282 187.791C89.269 189.625 89.4613 191.504 89.5717 193.38C89.9389 198.666 88.6488 204.747 84.0718 207.999C82.6668 208.825 81.4773 206.722 82.9184 205.95Z" fill="#371A45"/>
<path d="M98.5951 140.237C94.6527 140.153 90.675 140.209 86.7386 140.442C82.8765 140.689 78.8935 141.042 75.1944 142.063C73.4935 142.495 72.7801 140.035 74.4645 139.501C80.4908 138.224 86.5846 138.359 92.68 138.525C94.6812 138.6 96.6697 138.706 98.6732 138.865C99.5488 138.953 99.4872 140.247 98.5981 140.235L98.5951 140.237Z" fill="#371A45"/>
<path d="M110.356 180.327C110.356 180.327 122.691 199.585 125.871 208.712C130.125 220.926 125.4 254.425 128.669 260.565C130.096 263.237 133.511 265.746 146.376 265.746C155.295 265.746 163.748 265.286 163.996 258.638C164.194 253.341 157.221 250.919 157.221 250.919L165.018 192.889" fill="white"/>
<path d="M125.871 208.713C130.126 220.928 125.398 254.427 128.671 260.566C130.092 263.239 133.512 265.748 146.376 265.748C155.295 265.748 163.748 265.288 163.998 258.64C164.012 258.261 163.988 257.882 163.928 257.508C163.199 252.997 157.219 250.923 157.219 250.923L162.986 208.002L165.013 192.89L110.354 180.329C110.354 180.329 122.692 199.584 125.871 208.713Z" fill="white"/>
<path d="M125.871 208.713C130.126 220.928 125.398 254.427 128.671 260.566C130.092 263.239 133.512 265.748 146.376 265.748C155.295 265.748 163.748 265.288 163.998 258.64C164.012 258.261 163.988 257.882 163.928 257.508C163.928 257.508 160.718 260.684 147.095 260.77C134.058 260.851 130.441 257.825 130.95 246.387C131.444 235.187 131.707 228.703 136.816 226.369C143.134 223.483 157.57 218.989 162.989 208.002L165.017 192.89L110.358 180.329C110.358 180.329 122.692 199.584 125.871 208.713Z" fill="#E8E8E8"/>
<path d="M111.477 179.609C114.523 184.415 117.453 189.268 120.251 194.224C122.681 198.599 125.123 203.015 126.922 207.714C128.208 211.163 128.574 214.938 128.835 218.497C129.368 227.017 128.956 235.576 128.811 244.062C128.76 246.882 128.726 249.698 128.805 252.484C128.848 253.874 128.917 255.262 129.07 256.605C129.239 257.846 129.356 259.072 129.965 260.156C132.336 264.089 140.063 264.196 144.433 264.394C147.196 264.439 150.036 264.429 152.79 264.243C155.364 264.038 158.183 263.712 160.375 262.441C161.936 261.554 162.718 260.028 162.661 258.323C162.55 255.294 159.582 253.315 156.781 252.177C156.492 252.076 156.245 251.878 156.085 251.617C155.924 251.356 155.858 251.047 155.898 250.742L163.695 192.711C163.718 192.538 163.775 192.371 163.863 192.22C163.951 192.069 164.067 191.936 164.206 191.83C164.345 191.724 164.504 191.646 164.673 191.601C164.842 191.557 165.018 191.546 165.192 191.569C165.365 191.592 165.532 191.649 165.683 191.737C165.834 191.825 165.967 191.942 166.073 192.081C166.179 192.22 166.257 192.378 166.301 192.547C166.346 192.716 166.357 192.893 166.334 193.066L158.538 251.097L157.659 249.662C158.393 249.937 159.106 250.266 159.79 250.647C162.982 252.33 165.911 255.61 165.253 259.533C164.107 266.962 154.463 266.872 148.667 267.065C142.885 267.044 133.982 267.313 129.3 263.461C127.318 261.848 126.652 259.335 126.426 256.91C125.975 252.606 126.094 248.299 126.15 244.015C126.294 235.539 126.704 227.107 126.179 218.677C125.987 215.905 125.693 213.128 125.028 210.535C123.437 205.226 120.57 200.393 117.932 195.533C115.165 190.631 112.24 185.789 109.228 181.04C108.348 179.599 110.437 178.111 111.481 179.613L111.477 179.609Z" fill="#371A45"/>
<path d="M141.391 236.119C133.79 236.119 127.842 234.234 127.407 234.091C127.157 234.007 126.951 233.829 126.832 233.594C126.714 233.358 126.693 233.086 126.774 232.836C126.856 232.585 127.032 232.377 127.266 232.257C127.5 232.136 127.772 232.112 128.023 232.191C128.205 232.251 146.334 237.973 159.478 229.145C159.698 229.001 159.966 228.949 160.223 229.002C160.481 229.054 160.707 229.205 160.854 229.424C161 229.642 161.055 229.909 161.006 230.167C160.957 230.425 160.808 230.654 160.592 230.803C154.43 234.943 147.395 236.119 141.391 236.119Z" fill="#371A45"/>
<path d="M139.23 123.336C111.826 74.8654 91.2455 114.421 91.2455 114.421C91.2455 114.421 88.4723 139.485 89.48 163.791C90.1957 181.043 91.5158 187.586 93.095 197.341C99.2107 230.657 156.04 228.11 164.017 199.362C168.532 183.093 162.891 159.986 152.487 142.205" fill="white"/>
<path d="M139.23 123.336C111.826 74.8654 91.2455 114.421 91.2455 114.421C91.2455 114.421 88.4723 139.485 89.48 163.791C90.1957 181.043 91.5158 187.586 93.095 197.341C99.2107 230.657 156.04 228.11 164.017 199.362C168.532 183.093 162.891 159.986 152.487 142.205L139.23 123.336Z" fill="white"/>
<path d="M89.4823 163.791C90.195 181.043 91.5166 187.586 93.0943 197.34C93.4573 199.347 94.0364 201.308 94.8215 203.19C106.148 230.234 156.539 226.305 164.017 199.365C164.551 197.417 164.943 195.433 165.189 193.429C167.153 177.791 161.68 157.918 152.487 142.204L139.231 123.341C111.822 74.8677 91.2463 114.426 91.2463 114.426C91.2463 114.426 88.4738 139.487 89.4823 163.791Z" fill="white"/>
<path d="M163.559 183.83L154.408 189.38L155.15 192.901C155.308 193.648 155.313 194.419 155.165 195.168C155.016 195.916 154.719 196.627 154.289 197.258C153.859 197.888 153.306 198.426 152.663 198.837C152.02 199.249 151.301 199.526 150.549 199.652L119.975 204.783C119.24 204.907 118.488 204.884 117.762 204.716C117.035 204.548 116.349 204.238 115.743 203.804C115.137 203.371 114.623 202.821 114.229 202.188C113.836 201.555 113.572 200.85 113.452 200.115L112.361 193.456L88.9748 190.389L84.9475 174.865L95.9157 173.128C95.9157 173.128 93.5788 182.672 104.137 185.237C114.695 187.801 163.348 178.754 163.348 178.754L163.559 183.83Z" fill="#E8E8E8"/>
<path d="M94.8223 203.19C106.149 230.234 156.54 226.305 164.017 199.365C164.552 197.417 164.943 195.433 165.19 193.429C165.19 193.438 165.19 193.445 165.183 193.455C161.358 207.534 123.98 221.128 94.8223 203.19Z" fill="#E8E8E8"/>
<path d="M92.3591 201.589C92.5844 204.502 92.7616 207.032 92.845 208.583C93.1611 214.406 93.4007 221.235 93.6004 228.02L126.977 230.125C127.209 226.652 127.352 223.003 127.363 219.304L119.879 211.48C110.617 210.59 101.055 207.581 92.3591 201.589Z" fill="#E8E8E8"/>
<path d="M89.3757 144.019C96.6703 148.697 105.962 151.496 116.08 151.496C129.81 151.496 142.015 146.343 149.775 138.346L139.231 123.341C111.822 74.8677 91.2463 114.426 91.2463 114.426C91.2463 114.426 89.7955 127.547 89.3757 144.019Z" fill="#E8E8E8"/>
<path d="M160.797 205.165C167.07 189.953 163.755 172.669 158.4 157.637C156.538 152.498 154.34 147.482 151.912 142.543C151.838 142.391 151.824 142.217 151.873 142.056C151.922 141.895 152.03 141.758 152.176 141.673C152.322 141.588 152.494 141.561 152.659 141.598C152.823 141.635 152.967 141.733 153.063 141.872C159.339 151.16 163.401 161.859 165.595 172.84C167.216 181.467 167.679 190.578 165.445 199.173C165.19 200.225 164.676 201.224 164.21 202.192C163.557 203.475 162.798 204.701 161.94 205.857C161.84 205.989 161.695 206.08 161.532 206.112C161.369 206.143 161.201 206.114 161.059 206.028C160.917 205.942 160.812 205.807 160.764 205.648C160.716 205.489 160.729 205.319 160.8 205.169L160.797 205.165Z" fill="#371A45"/>
<path d="M138.071 123.992C129.135 108.039 113.612 89.5905 96.8995 108.667C95.2174 110.614 93.6652 112.787 92.4276 115.035L92.5703 114.567C91.9418 120.748 91.5077 126.992 91.1826 133.218C90.0502 154.941 90.6171 176.891 94.7991 198.283C98.2804 214.058 114.946 220.929 129.805 220.211C135.945 219.976 141.857 218.465 147.698 216.551C147.854 216.498 148.024 216.503 148.176 216.566C148.328 216.629 148.451 216.746 148.523 216.894C148.594 217.043 148.609 217.212 148.563 217.37C148.518 217.529 148.416 217.665 148.277 217.753C142.846 221.252 136.308 222.608 129.926 222.944C113.545 223.881 95.7528 216.277 91.9223 198.946C91.6219 197.62 91.3215 195.601 91.0962 194.233C86.6026 167.834 87.3153 140.841 89.9263 114.279L89.954 114.025L90.0689 113.81C91.4326 111.32 93.0494 109.072 94.8907 106.926C100.569 100.229 108.99 95.6776 117.803 98.9877C128.18 102.968 135.025 113.512 140.393 122.685C141.219 124.262 138.975 125.501 138.075 123.996L138.071 123.992Z" fill="#371A45"/>
<g opacity="0.7">
<path d="M101.793 111.949C103.596 111.861 104.976 110.11 104.875 108.038C104.774 105.966 103.231 104.357 101.428 104.445C99.625 104.533 98.2454 106.284 98.3464 108.356C98.4474 110.428 99.9907 112.036 101.793 111.949Z" fill="white"/>
</g>
<path d="M127.362 219.311C127.33 237.687 123.801 254.872 123.801 254.872C123.801 254.872 127.511 259.672 123.862 264.088C121.641 266.775 116.174 266.78 116.174 266.78H100.746C100.746 266.78 96.5299 266.375 94.9086 261.713C94.1073 259.41 93.9174 228.264 92.845 208.582C92.5109 202.44 90.6846 180.969 90.6846 180.969L127.362 219.311Z" fill="white"/>
<path d="M127.362 219.311C127.33 237.687 123.801 254.872 123.801 254.872C123.801 254.872 127.511 259.672 123.862 264.088C121.641 266.775 116.174 266.78 116.174 266.78H100.746C100.746 266.78 96.5299 266.375 94.9086 261.713C94.1073 259.41 93.9174 228.264 92.845 208.582C92.5109 202.44 90.6846 180.969 90.6846 180.969L127.362 219.311Z" fill="white"/>
<path d="M94.51 257.543C94.6264 259.79 94.7563 261.272 94.9095 261.707C96.5308 266.372 100.745 266.775 100.745 266.775H116.173C116.173 266.775 121.64 266.775 123.86 264.085C125.528 262.071 125.663 259.977 125.312 258.292C125.087 258.687 124.827 259.061 124.536 259.41C122.216 262.22 118.078 262.227 110.823 262.227C103.569 262.227 96.3408 261.837 94.51 257.543Z" fill="#E8E8E8"/>
<path d="M92.3591 201.589C92.5844 204.502 92.7616 207.032 92.845 208.583C93.0838 212.977 93.2783 217.943 93.4457 223.031C98.0602 225.614 110.844 228.813 127.178 226.624C127.291 224.234 127.358 221.783 127.363 219.31L119.879 211.486C110.617 210.59 101.055 207.581 92.3591 201.589Z" fill="#E8E8E8"/>
<path d="M128.028 219.311C128.854 228.293 127.953 237.355 126.61 246.24C126.16 249.212 125.694 252.159 125.108 255.139L124.858 254.057C127.401 257.496 127.599 262.407 124.368 265.487C122.001 267.601 118.518 268.108 115.515 268.115C111.706 268.115 104.627 268.115 100.749 268.115C99.5743 268.012 98.472 267.564 97.4657 266.974C95.552 265.806 94.1543 263.953 93.5563 261.792C93.3566 260.774 93.331 259.833 93.2499 258.825C92.499 243.644 92.3728 223.907 91.5228 208.773C90.9401 199.543 90.1178 190.305 89.3586 181.079C89.2549 179.392 91.7758 179.041 92.0124 180.854C92.7746 190.11 93.5969 199.349 94.1826 208.628C95.0837 224.252 95.1002 244.367 96.0066 260.008C96.0569 262.5 98.0184 264.739 100.404 265.355C100.543 265.387 100.755 265.44 100.875 265.452L100.747 265.446H115.513C116.168 265.458 116.823 265.429 117.474 265.359C119.699 265.072 122.123 264.561 123.317 262.573C124.358 260.991 124.34 258.949 123.59 257.222C123.417 256.803 123.209 256.398 122.969 256.013C122.654 255.575 122.374 255.132 122.497 254.602C123.058 251.729 123.549 248.786 123.951 245.855C124.746 240.079 125.292 233.987 125.847 228.18C126.147 225.225 126.363 222.267 126.698 219.295C126.778 218.537 127.945 218.488 128.029 219.31L128.028 219.311Z" fill="#371A45"/>
<path d="M126.398 236.441C126.398 236.441 116.117 241.139 94.4084 235.834Z" fill="white"/>
<path d="M113.542 239.371C108.552 239.371 102.118 238.747 94.1674 236.803C94.0401 236.772 93.9201 236.716 93.8143 236.639C93.7086 236.561 93.6191 236.464 93.5511 236.352C93.483 236.24 93.4377 236.115 93.4177 235.986C93.3977 235.856 93.4034 235.724 93.4345 235.597C93.4656 235.469 93.5215 235.349 93.599 235.244C93.6765 235.138 93.7741 235.048 93.8861 234.98C93.9982 234.912 94.1225 234.867 94.2521 234.847C94.3817 234.827 94.5139 234.833 94.6413 234.864C115.674 240.003 125.88 235.577 125.982 235.531C126.222 235.429 126.492 235.425 126.735 235.52C126.978 235.614 127.174 235.8 127.282 236.037C127.39 236.275 127.401 236.545 127.312 236.79C127.224 237.035 127.043 237.236 126.808 237.349C126.538 237.475 122.234 239.371 113.542 239.371Z" fill="#371A45"/>
<path d="M100.324 253.423C100.324 253.423 109.507 250.205 120.707 253.51Z" fill="white"/>
<path d="M100.104 252.795C106.704 250.338 114.31 250.475 120.895 252.87C121.672 253.157 121.328 254.329 120.52 254.147C115.573 253.124 110.518 252.72 105.49 253.257C103.815 253.432 102.105 253.681 100.503 254.061C99.7145 254.242 99.3473 253.099 100.105 252.795L100.104 252.795Z" fill="#371A45"/>
<path d="M157.221 250.92C157.221 250.92 149.445 252.48 142.908 252.002Z" fill="white"/>
<path d="M157.418 251.902C152.63 252.844 147.718 253.128 142.861 252.668C142.025 252.575 142.097 251.33 142.941 251.34C145.296 251.402 147.663 251.245 150.019 250.983C152.07 250.766 154.975 250.268 157.04 249.94C158.304 249.765 158.658 251.592 157.415 251.902H157.418Z" fill="#371A45"/>
<path d="M101.661 133.811C101.661 133.811 90.9685 134.955 82.287 141.448C75.7929 146.306 57.8935 163.05 55.8157 171.496C53.3128 181.667 61.275 191.763 74.2437 189.218C87.7035 186.58 95.9127 173.128 95.9127 173.128L101.661 133.811Z" fill="white"/>
<path d="M74.2482 189.22C87.4985 186.624 95.6582 173.546 95.9083 173.14C95.9098 173.136 95.9121 173.133 95.915 173.13L101.661 133.812C101.661 133.812 90.9671 134.957 82.2915 141.449C75.7959 146.306 57.8981 163.049 55.8173 171.495C55.6941 171.991 55.5965 172.487 55.5244 172.984C54.1051 182.622 61.9096 191.641 74.2482 189.22Z" fill="white"/>
<path d="M84.2175 140.114C88.3822 143.849 93.5825 146.849 99.4615 148.824L101.656 133.806C101.656 133.806 92.4718 134.797 84.2175 140.114Z" fill="#E8E8E8"/>
<path d="M74.2482 189.22C87.4985 186.624 95.6582 173.546 95.9083 173.14C95.6447 173.436 87.7981 182.179 80.231 180.328C76.2119 179.346 82.8592 171.402 80.4172 167.703C78.2327 164.384 59.8415 164.953 55.5244 172.984C54.1051 182.622 61.9096 191.641 74.2482 189.22Z" fill="#E8E8E8"/>
<path d="M101.803 135.135C95.8414 135.988 89.9638 138.033 84.88 141.275C81.8214 143.303 79.0798 145.781 76.3471 148.254C70.9141 153.29 65.65 158.595 61.2172 164.52C59.1259 167.441 57.1164 170.344 56.849 173.906C56.047 182.722 63.1847 188.977 71.8115 188.158C81.6224 187.243 89.297 180.084 95.3473 172.786C95.8242 172.139 96.8409 172.764 96.4842 173.48C94.7083 176.934 92.2459 179.93 89.4465 182.595C82.8607 188.686 73.07 193.141 64.0453 189.954C56.4405 187.23 52.4298 178.821 54.4566 171.115C56.8355 162.988 68.237 152.108 74.5208 146.255C77.3556 143.709 80.2174 141.145 83.4322 139.039C86.6898 136.943 90.2657 135.34 93.9536 134.195C96.4384 133.423 98.9255 132.823 101.519 132.487C103.279 132.342 103.577 134.895 101.803 135.135V135.135Z" fill="#371A45"/>
<path d="M171.923 97.1336C170.049 106.562 165.765 115.344 159.489 122.626C158.166 124.164 156.763 125.63 155.284 127.019C154.559 127.704 153.803 128.371 153.031 129.033C146.455 134.593 138.711 138.6 130.375 140.758C129.315 141.029 128.252 141.271 127.185 141.485C107.642 145.357 86.6432 139 72.7944 123.042C52.3832 99.5366 55.227 64.1149 79.1308 43.92C83.6191 40.1238 88.6659 37.0423 94.0932 34.7841C94.7105 34.5213 95.3383 34.275 95.9706 34.0422C97.6557 33.4074 99.3601 32.8554 101.084 32.3864C109.005 30.2427 117.291 29.8033 125.395 31.097C126.673 31.3013 127.944 31.5481 129.208 31.8374C140.917 34.5289 151.474 40.8555 159.369 49.9117C171.108 63.4308 175.15 80.8924 171.923 97.1336Z" fill="white"/>
<path d="M115.948 142.722C99.4811 142.722 83.5912 135.693 72.6884 123.13C62.8346 111.781 58.0451 97.3124 59.1978 82.389C60.361 67.3455 67.4093 53.6477 79.0443 43.8172C83.5432 40.0122 88.6019 36.9237 94.042 34.6602C94.6323 34.4087 95.248 34.1654 95.9231 33.9161C97.603 33.2838 99.3279 32.7251 101.048 32.2572C108.988 30.1086 117.293 29.6682 125.415 30.9649C126.706 31.1706 127.992 31.4207 129.238 31.7068C131.141 32.145 133.021 32.6801 134.87 33.3101C144.389 36.5367 152.879 42.2363 159.47 49.8247C170.843 62.9225 175.429 80.1753 172.055 97.1607C170.167 106.609 165.873 115.41 159.589 122.714C158.262 124.256 156.854 125.726 155.37 127.118C154.702 127.749 153.963 128.41 153.112 129.136C146.521 134.709 138.759 138.726 130.402 140.889C129.351 141.158 128.272 141.403 127.205 141.617C123.498 142.352 119.728 142.722 115.948 142.722V142.722ZM116.249 30.5046C115.236 30.5046 114.225 30.5313 113.216 30.5849C109.125 30.7962 105.068 31.4434 101.114 32.5156C99.403 32.9819 97.6863 33.5376 96.0132 34.1676C95.3374 34.4154 94.7291 34.6572 94.1419 34.9073C88.7268 37.1602 83.6914 40.2346 79.2133 44.0222C67.6338 53.8054 60.6186 67.4386 59.4636 82.4093C58.3155 97.2606 63.0839 111.66 72.8889 122.954C86.2045 138.297 106.996 145.348 127.152 141.352C128.215 141.139 129.286 140.895 130.336 140.626C138.651 138.47 146.376 134.473 152.939 128.93C153.786 128.207 154.521 127.55 155.187 126.92C156.663 125.535 158.065 124.072 159.386 122.538C165.639 115.269 169.911 106.51 171.79 97.1074C175.148 80.2046 170.584 63.0344 159.266 49.9996C151.39 40.965 140.857 34.6534 129.176 31.9681C127.936 31.6828 126.657 31.4342 125.371 31.2292C122.356 30.7469 119.306 30.5046 116.252 30.5046H116.249Z" fill="#371A45"/>
<path d="M72.789 123.041C86.637 139.001 107.638 145.36 127.181 141.484C128.249 141.272 129.311 141.03 130.369 140.759C138.704 138.597 146.448 134.591 153.028 129.035C153.799 128.373 154.554 127.706 155.281 127.022C156.759 125.632 158.162 124.164 159.486 122.626C164.304 117.035 167.963 110.542 170.25 103.525C172.537 96.5073 173.407 89.1055 172.808 81.7492C170.812 90.7032 166.633 99.0247 160.643 105.973C159.322 107.513 157.918 108.981 156.438 110.37C155.714 111.054 154.958 111.721 154.185 112.383C147.61 117.944 139.865 121.951 131.526 124.106C130.466 124.377 129.402 124.618 128.335 124.831C108.793 128.707 87.7949 122.349 73.9431 106.388C65.8601 97.0766 61.4295 85.9004 60.5059 74.5417C56.8 91.1412 60.7439 109.169 72.789 123.041Z" fill="#E8E8E8"/>
<path d="M115.95 143.617C99.2243 143.617 83.0844 136.477 72.0103 123.717C61.9981 112.185 57.1298 97.4828 58.3027 82.3177C59.484 67.0346 66.6456 53.1175 78.4646 43.1315C83.0337 39.2661 88.1717 36.1286 93.6974 33.8297C94.2936 33.5759 94.9229 33.3273 95.6123 33.0727C97.3132 32.4322 99.0666 31.8652 100.812 31.3899C108.875 29.2075 117.309 28.7593 125.557 30.075C126.868 30.2838 128.174 30.5376 129.439 30.8259C131.373 31.2707 133.283 31.8141 135.161 32.454C144.83 35.7319 153.453 41.5213 160.148 49.2291C171.704 62.538 176.368 80.0694 172.935 97.3289C171.018 106.929 166.656 115.871 160.272 123.293C158.923 124.858 157.493 126.352 155.987 127.767C155.311 128.406 154.56 129.076 153.697 129.813C147.002 135.475 139.118 139.556 130.629 141.753C129.556 142.027 128.466 142.278 127.383 142.492C123.618 143.239 119.788 143.616 115.95 143.617V143.617ZM116.25 31.4004C115.254 31.4004 114.259 31.4267 113.265 31.4793C109.238 31.6873 105.244 32.3247 101.352 33.3806C99.6673 33.8387 97.9777 34.3854 96.3309 35.0057C95.6679 35.2505 95.0694 35.487 94.4956 35.7318C89.1629 37.9494 84.2042 40.9765 79.7945 44.7063C68.3998 54.3333 61.4972 67.7465 60.3581 82.4784C59.2316 97.0886 63.9197 111.254 73.567 122.365C86.6716 137.465 107.134 144.404 126.977 140.472C128.022 140.262 129.08 140.021 130.112 139.758C138.296 137.635 145.899 133.701 152.358 128.245C153.19 127.535 153.915 126.887 154.57 126.269C156.025 124.904 157.407 123.463 158.71 121.952C164.863 114.801 169.066 106.183 170.914 96.9324C174.218 80.3037 169.727 63.4121 158.593 50.5883C150.84 41.6956 140.472 35.4842 128.973 32.8437C127.755 32.5629 126.495 32.318 125.23 32.116C122.261 31.6413 119.259 31.4027 116.253 31.4027L116.25 31.4004Z" fill="#371A45"/>
<path d="M115.951 143.917C99.1373 143.917 82.9163 136.74 71.7844 123.914C61.7219 112.321 56.825 97.5406 58.004 82.2951C59.1919 66.9295 66.3897 52.9395 78.2717 42.901C82.8645 39.0164 88.0288 35.8632 93.5826 33.5526C94.1833 33.298 94.8149 33.0472 95.5087 32.7911C97.2164 32.1483 98.9773 31.5783 100.734 31.1C108.838 28.9075 117.314 28.4579 125.605 29.7806C126.922 29.9909 128.233 30.2454 129.506 30.5383C131.45 30.9857 133.37 31.5321 135.258 32.1753C144.977 35.47 153.645 41.2893 160.374 49.0369C171.992 62.4163 176.677 80.0408 173.229 97.3912C171.302 107.042 166.917 116.031 160.499 123.492C159.143 125.066 157.706 126.567 156.192 127.989C155.512 128.631 154.758 129.305 153.892 130.044C147.162 135.736 139.237 139.837 130.704 142.045C129.625 142.32 128.527 142.571 127.442 142.788C123.657 143.538 119.809 143.917 115.951 143.917V143.917ZM116.251 31.7008C115.261 31.7008 114.271 31.7258 113.282 31.7758C109.276 31.983 105.303 32.6168 101.431 33.6667C99.7553 34.1233 98.0754 34.667 96.4377 35.2835C95.7768 35.5275 95.1828 35.7626 94.6136 36.0044C89.3085 38.2109 84.3754 41.2225 79.9884 44.933C68.6553 54.5075 61.7902 67.8478 60.6578 82.4971C59.5314 97.027 64.1992 111.114 73.7939 122.165C86.8287 137.183 107.184 144.085 126.92 140.174C127.959 139.966 129.01 139.723 130.039 139.463C138.179 137.351 145.741 133.438 152.166 128.012C152.992 127.306 153.714 126.66 154.365 126.047C155.811 124.689 157.184 123.255 158.479 121.752C164.597 114.64 168.777 106.069 170.615 96.8693V96.8693C173.901 80.3322 169.435 63.533 158.361 50.7798C151.941 43.3884 143.671 37.8366 134.398 34.6932C132.596 34.0792 130.763 33.5576 128.907 33.1305C127.694 32.8519 126.441 32.6049 125.183 32.4074C122.229 31.9364 119.243 31.7007 116.253 31.7023L116.251 31.7008Z" fill="#371A45"/>
<path d="M167.305 110.787C142.427 142.595 94.1809 140.456 79.9041 103.363C70.1915 78.1267 87.7889 49.1849 113.001 41.4592C131.352 35.8362 151.736 38.2527 168.28 63.9167C168.28 63.9167 173.819 76.3981 172.992 86.1144C172.164 95.8308 169.695 105.147 169.695 105.147L167.305 110.787Z" fill="#371A45"/>
<path d="M79.9056 103.366C94.1809 140.463 142.428 142.597 167.306 110.792L167.789 109.648C134.723 126.704 93.2782 116.918 78.1356 79.6812C76.5098 87.4353 76.9093 95.5747 79.9056 103.366Z" fill="#220F2D"/>
<path d="M122.946 140.146C115.33 140.146 107.859 138.673 101.041 135.725C88.0773 130.121 78.4022 119.825 73.0616 105.954C68.1572 93.2145 69.0185 78.8807 75.4863 65.5936C82.6713 50.8339 95.9869 39.2552 111.115 34.6205C119.521 32.0455 127.553 31.2022 134.989 32.1146L135.125 32.1318L135.254 32.1754C144.974 35.4702 153.643 41.29 160.374 49.0384C171.991 62.4179 176.677 80.0424 173.229 97.3928C171.301 107.043 166.916 116.032 160.498 123.492C159.143 125.066 157.706 126.567 156.192 127.989C155.511 128.631 154.757 129.305 153.892 130.044C151.531 132.038 149.017 133.843 146.373 135.442L146.188 135.535C138.654 138.609 130.724 140.146 122.946 140.146ZM129.063 34.4222C123.609 34.4222 117.858 35.3399 111.895 37.1676C97.464 41.5891 84.7484 52.6519 77.8811 66.759C71.7407 79.3748 70.9116 92.9547 75.5472 104.997C80.625 118.186 89.8059 127.966 102.099 133.281C115.198 138.944 130.86 138.881 145.085 133.11C147.575 131.599 149.943 129.896 152.167 128.017C152.994 127.311 153.715 126.665 154.366 126.052C155.812 124.693 157.185 123.26 158.48 121.756C164.598 114.644 168.779 106.074 170.617 96.8739V96.8739C173.903 80.3367 169.437 63.5375 158.363 50.7844C151.973 43.4283 143.75 37.8936 134.53 34.7421C132.716 34.5271 130.89 34.4203 129.063 34.4222V34.4222Z" fill="#371A45"/>
<path d="M123.261 134.171C120.714 134.172 118.171 133.984 115.653 133.608C98.5853 131.061 85.1728 120.184 78.8566 103.767C74.5012 92.4479 75.2657 79.7127 81.0126 67.9073C87.3955 54.7906 99.2333 44.5021 112.674 40.3832C135.823 33.2891 154.851 41.0034 169.227 63.307L169.311 63.4572C169.541 63.9776 174.957 76.317 174.117 86.2068C173.291 95.9082 170.813 105.338 170.787 105.431L170.735 105.581L168.287 111.357L168.196 111.474C156.928 125.88 140.226 134.171 123.261 134.171ZM128.49 40.1098C123.664 40.1098 118.611 40.9181 113.331 42.5346C100.476 46.4733 89.1512 56.3263 83.0334 68.8925C77.5628 80.131 76.8239 92.2294 80.954 102.959C86.9735 118.599 99.7417 128.959 115.985 131.384C134.602 134.162 153.875 126.052 166.327 110.211L168.627 104.785C168.861 103.884 171.099 95.0641 171.871 86.0191C172.631 77.0972 167.741 65.5058 167.285 64.45C156.82 48.2552 143.813 40.1098 128.49 40.1098V40.1098Z" fill="#371A45"/>
<path d="M55.0677 108.507C57.7545 119.246 66.4414 126.662 74.4726 125.071C82.5039 123.481 86.8376 113.488 84.1515 102.75C84.1357 102.682 84.1162 102.612 84.0967 102.544C81.3542 91.9176 72.7215 84.6057 64.7465 86.1857C58.5415 87.4135 54.545 93.6575 54.2845 101.384C54.2145 103.783 54.478 106.181 55.0677 108.507V108.507Z" fill="white"/>
<path d="M55.0677 108.507C57.7545 119.246 66.4414 126.662 74.4726 125.072C82.5039 123.481 86.8376 113.488 84.1515 102.75C84.1357 102.682 84.1162 102.612 84.0967 102.544C83.4899 103.821 82.3868 105.179 80.4328 105.182C77.0116 105.182 69.4316 99.4391 69.4316 99.4391C69.4316 99.4391 62.8572 100.24 54.2845 101.384C54.2145 103.783 54.478 106.181 55.0677 108.507V108.507Z" fill="#E8E8E8"/>
<path d="M72.3033 126.614C64.3433 126.614 56.3631 119.174 53.7746 108.831C52.1278 102.249 52.9141 95.7444 55.9313 90.985C58.0242 87.6846 60.9821 85.5737 64.486 84.8798C73.1864 83.1527 82.5911 91.027 85.4431 102.425C87.0892 109.008 86.303 115.513 83.2857 120.272C81.1928 123.572 78.2349 125.684 74.731 126.377C73.9315 126.535 73.1183 126.615 72.3033 126.614ZM66.9626 87.3016C66.3049 87.3011 65.6487 87.365 65.0034 87.4924C62.2324 88.0413 59.8738 89.7452 58.1811 92.411C55.5904 96.4968 54.9093 102.393 56.3586 108.184C58.6482 117.338 65.5065 123.954 72.2552 123.954C72.913 123.955 73.5692 123.891 74.2144 123.763C76.9846 123.215 79.344 121.511 81.0367 118.845C83.6266 114.76 84.3085 108.863 82.8592 103.071C80.5696 93.9189 73.7113 87.3016 66.9626 87.3016Z" fill="#371A45"/>
<path d="M70.1103 123.622C75.9916 121.785 78.5741 113.3 75.8785 104.672C73.1828 96.0441 66.2298 90.5392 60.3485 92.3766C54.4672 94.2141 51.8847 102.698 54.5804 111.326C57.276 119.955 64.229 125.459 70.1103 123.622Z" fill="white"/>
<path d="M69.2552 123.838C63.1779 124.993 56.451 118.839 54.2252 110.091C53.9888 109.164 53.809 108.224 53.6868 107.276C56.7941 112.908 61.8998 116.347 66.6232 115.445C71.9548 114.426 75.0532 108.197 74.2977 100.833C75.1313 102.447 75.7781 104.152 76.2254 105.913C78.4512 114.661 75.3288 122.684 69.2552 123.838Z" fill="#E8E8E8"/>
<path d="M67.8029 125.307C61.5536 125.307 55.1263 119.038 52.9344 110.421C51.5158 104.844 52.1256 99.2273 54.5661 95.3952C56.1431 92.9216 58.3479 91.3529 60.9491 90.8596C67.6925 89.5785 75.1245 96.186 77.5163 105.586C78.9348 111.163 78.325 116.78 75.8845 120.612C74.3075 123.085 72.1028 124.654 69.5015 125.147C68.9416 125.254 68.3729 125.307 67.8029 125.307V125.307ZM55.5153 109.762C57.5669 117.825 63.6127 123.55 69.0052 122.528C70.8652 122.175 72.467 121.016 73.6369 119.178C75.69 115.954 76.1751 111.118 74.9346 106.24C72.883 98.1774 66.8327 92.4516 61.4447 93.4743C59.5847 93.8273 57.9829 94.986 56.813 96.8243C54.7599 100.048 54.2748 104.885 55.5153 109.762Z" fill="#371A45"/>
<g opacity="0.5">
<path d="M102.957 55.2885C102.957 55.2885 126.311 46.7624 144.022 56.4675L144.078 56.4983C147.804 58.5438 152.379 64.1421 154.538 67.7676C157.391 72.5623 158.648 76.281 159.623 79.5971C162.586 89.6829 162.059 94.9628 162.059 94.9628C166.318 87.952 167.823 80.9548 165.438 72.5293C165.201 71.6992 164.926 70.8534 164.612 69.9919C164.542 69.7929 164.467 69.5976 164.387 69.4024C164.391 69.3986 164.387 69.3949 164.38 69.3911C163.423 67.237 162.336 65.143 161.125 63.1208C156.833 55.9524 149.396 47.1326 138.146 45.2898C117.124 41.843 101.803 54.4805 102.957 55.2885Z" fill="white"/>
</g>
<g opacity="0.5">
<path d="M93.5415 96.3063C97.7429 96.2557 101.102 92.3022 101.043 87.4759C100.985 82.6497 97.5324 78.7782 93.3311 78.8288C89.1297 78.8794 85.771 82.8329 85.8291 87.6592C85.8872 92.4855 89.3402 96.3569 93.5415 96.3063Z" fill="white"/>
</g>
<g opacity="0.5">
<path d="M96.884 103.692C97.0453 101.705 95.7747 99.98 94.0459 99.8397C92.3172 99.6994 90.7851 101.196 90.6238 103.184C90.4625 105.171 91.7332 106.895 93.4619 107.036C95.1906 107.176 96.7228 105.679 96.884 103.692Z" fill="white"/>
</g>
<path d="M187.415 164.623C187.297 164.623 187.18 164.608 187.066 164.577C180.183 162.71 175.426 157.034 173.319 148.163C171.767 141.642 172.176 135.744 172.192 135.496C172.218 135.144 172.382 134.816 172.65 134.585C172.917 134.354 173.265 134.239 173.617 134.265C173.969 134.291 174.297 134.455 174.528 134.722C174.759 134.99 174.874 135.338 174.848 135.69C174.832 135.915 173.4 158.111 187.764 162.006C188.076 162.09 188.347 162.285 188.526 162.554C188.705 162.822 188.78 163.147 188.738 163.467C188.695 163.787 188.538 164.081 188.295 164.294C188.052 164.507 187.74 164.624 187.417 164.623H187.415Z" fill="#371A45"/>
<path d="M70.0038 190.948C69.6614 190.946 69.333 190.812 69.0867 190.574C68.8404 190.337 68.6952 190.013 68.6811 189.671C68.667 189.329 68.7851 188.994 69.011 188.737C69.2369 188.48 69.5531 188.319 69.8942 188.289C75.2416 187.839 79.1089 185.921 81.3902 182.582C85.9004 175.981 82.9672 165.832 82.9357 165.73C82.8857 165.563 82.8693 165.387 82.8873 165.213C82.9053 165.039 82.9574 164.87 83.0406 164.716C83.1239 164.562 83.2366 164.426 83.3723 164.316C83.5081 164.206 83.6643 164.123 83.8319 164.073C84.1705 163.972 84.5353 164.01 84.846 164.178C84.9999 164.261 85.1358 164.374 85.2461 164.51C85.3564 164.646 85.4389 164.802 85.4889 164.97C85.6278 165.434 88.8193 176.416 83.5973 184.073C80.8428 188.113 76.3079 190.423 70.1172 190.942C70.0789 190.946 70.0413 190.948 70.0038 190.948Z" fill="#371A45"/>
<path d="M51.2927 166.971C52.1014 166.715 52.9905 166.272 53.933 165.619C53.8293 171.016 57.6779 173.632 62.8984 174.278H74.981C74.981 174.278 85.3116 170.783 86.2142 161.767C86.221 161.727 86.224 161.684 86.2278 161.641C86.9269 153.906 79.7524 151.257 77.5717 150.637C77.182 150.525 76.9522 150.478 76.9522 150.478C76.9522 150.478 76.0601 149.296 74.6919 147.685C71.8616 144.368 66.9948 139.248 63.6651 138.925C58.8974 138.459 58.4446 142.304 60.3955 145.783C60.6563 146.247 60.9502 146.691 61.2749 147.112C61.1615 147.122 61.0496 147.135 60.9317 147.145C57.0133 147.552 50.8309 148.866 51.6802 153.737C51.6899 153.797 51.6997 153.86 51.7132 153.923C52.0293 155.461 53.1783 156.085 54.6328 156.294C52.7653 156.96 51.2574 157.752 50.0649 158.601C44.0844 162.869 46.1488 168.609 51.2927 166.971Z" fill="white"/>
<path d="M51.2928 166.971C52.1015 166.715 52.9906 166.272 53.9331 165.619C53.8294 171.016 57.678 173.632 62.8985 174.278H74.9811C74.9811 174.278 85.3117 170.783 86.2143 161.767C84.0366 162.859 81.2371 163.441 78.1245 162.11C72.6006 159.75 76.1435 154.483 77.5718 150.637C77.1821 150.525 76.9523 150.478 76.9523 150.478C76.9523 150.478 76.0602 149.296 74.692 147.684C73.0271 149.222 70.5618 150.694 67.3906 150.374C63.2289 149.955 60.253 145.343 59.9428 144.851C60.0066 144.968 60.1831 145.307 60.3934 145.783C60.5638 146.163 60.7531 146.629 60.9296 147.145C61.5303 148.89 61.9448 151.19 60.6697 152.477C58.8787 154.288 54.2117 153.949 51.678 153.736C51.6878 153.796 51.6975 153.859 51.7111 153.922C52.0272 155.46 53.1761 156.083 54.6307 156.292C52.7631 156.959 51.2552 157.751 50.0627 158.599C50.5366 161.531 51.4692 164.827 51.2928 166.971Z" fill="#E8E8E8"/>
<path d="M74.7715 173.649C78.2258 171.691 81.5667 169.31 83.4929 165.852C86.9179 159.07 83.5462 153.666 76.5647 151.749C76.2907 151.677 76.0512 151.51 75.8889 151.278C74.4158 149.362 72.8431 147.526 71.1775 145.776C69.5547 144.095 67.7923 142.404 65.8383 141.183C64.6278 140.373 63.0771 139.939 61.7082 140.4C59.4636 141.326 61.2576 144.951 62.3337 146.299C62.9818 147.096 62.4088 148.367 61.4026 148.437C60.0111 148.57 58.6346 148.778 57.337 149.13C55.145 149.744 52.5543 150.85 52.9816 153.422C53.0627 153.991 53.2068 154.255 53.4794 154.486C53.752 154.718 54.2356 154.895 54.8236 154.975C55.1196 155.015 55.3934 155.154 55.6009 155.369C55.8084 155.584 55.9374 155.862 55.9672 156.159C55.9971 156.457 55.926 156.755 55.7654 157.007C55.6048 157.259 55.364 157.45 55.0819 157.548C53.4727 158.124 51.934 158.867 50.6236 159.842C49.4169 160.743 48.2754 161.961 47.8699 163.372C47.5478 164.56 47.8489 165.645 49.1082 165.883C50.4652 166.105 51.9956 165.336 53.1693 164.526C54.0246 163.896 55.3065 164.601 55.2621 165.643C55.4056 170.457 58.7818 172.362 62.99 173.62C63.7042 173.837 63.5547 174.914 62.8158 174.938C57.2304 175.233 52.0962 171.596 52.6031 165.593L54.6959 166.711C52.5347 168.227 49.3643 169.474 46.8599 167.774C44.1378 165.862 44.9473 161.966 46.8276 159.805C48.717 157.477 51.4767 156.015 54.1936 155.036L54.4519 157.609C53.1565 157.49 51.3685 156.657 50.7723 155.245C49.7398 153.067 50.3525 150.214 52.2216 148.712C54.7305 146.628 58.0676 146.124 61.1578 145.783L60.2266 147.921C57.9347 145.124 56.4374 139.559 60.7981 137.896C63.0111 137.127 65.3577 137.689 67.2358 138.91C71.5612 141.739 74.8383 145.675 78.023 149.673L77.2248 149.169C77.6626 149.252 77.984 149.342 78.3887 149.456C84.5254 151.234 88.7742 156.181 87.5269 162.81C86.8638 166.651 84.4165 170.002 81.2491 172.183C79.407 173.454 77.3968 174.411 75.2033 174.908C75.0426 174.942 74.875 174.916 74.7322 174.835C74.5894 174.754 74.4815 174.623 74.4288 174.467C74.3761 174.312 74.3823 174.142 74.4463 173.991C74.5103 173.84 74.6276 173.717 74.776 173.647L74.7715 173.649Z" fill="#371A45"/>
<path d="M66.9384 154.124C64.3334 152.485 61.8921 150.511 60.2033 147.898C59.4103 146.52 61.2343 145.162 62.3269 146.297C63.2986 147.336 64.2418 148.465 65.1534 149.586C66.0748 150.732 67.0112 151.895 67.85 153.154C68.2548 153.741 67.5399 154.489 66.9384 154.124Z" fill="#371A45"/>
<path d="M54.6366 156.293C54.6366 156.293 51.8431 161.899 54.8619 165.304C56.3788 167.013 59.767 166.402 61.0196 164.141C62.7152 161.077 61.8456 157.342 62.324 156.199" fill="white"/>
<path d="M54.1357 164.241C54.3339 164.624 54.5788 164.981 54.8649 165.303C56.3833 167.011 59.7685 166.398 61.0226 164.138C62.7174 161.074 61.8486 157.339 62.3277 156.197L59.9247 156.227C59.915 157.892 59.9082 160.192 58.7983 162.203C57.8679 163.875 55.7773 164.643 54.1357 164.241Z" fill="#E8E8E8"/>
<path d="M57.2491 167.614C55.8975 167.614 54.6892 167.11 53.8699 166.188C50.2917 162.158 53.315 155.962 53.4456 155.7C53.6027 155.384 53.879 155.142 54.2138 155.03C54.5486 154.917 54.9145 154.942 55.231 155.099C55.5475 155.256 55.7886 155.532 55.9013 155.867C56.014 156.202 55.9892 156.568 55.8321 156.884V156.884C55.8088 156.933 53.4824 161.738 55.8629 164.418C56.2256 164.825 56.8489 165.012 57.578 164.933C58.5543 164.825 59.4269 164.273 59.8579 163.494C60.8003 161.791 60.8116 159.788 60.8206 158.179C60.8266 157.141 60.8304 156.321 61.0992 155.68C61.1669 155.519 61.2658 155.373 61.3901 155.25C61.5144 155.127 61.6617 155.03 61.8236 154.963C61.9855 154.897 62.1589 154.864 62.3337 154.865C62.5086 154.866 62.6816 154.901 62.8429 154.969C63.0041 155.036 63.1504 155.135 63.2734 155.259C63.3965 155.384 63.4938 155.531 63.5599 155.693C63.626 155.855 63.6596 156.028 63.6587 156.203C63.6578 156.378 63.6225 156.551 63.5548 156.712C63.4909 156.908 63.4872 157.651 63.4842 158.193C63.4744 159.902 63.4601 162.485 62.1888 164.784C61.3455 166.307 59.6912 167.379 57.8709 167.58C57.6645 167.603 57.4569 167.614 57.2491 167.614V167.614Z" fill="#371A45"/>
<path d="M64.0407 157.18C62.8257 157.205 61.8149 156.81 60.7321 156.703C60.7276 156.72 60.8072 156.703 60.7216 156.724C60.5909 156.763 60.1111 156.914 59.9706 156.958C58.3013 157.52 56.3586 157.917 54.5399 157.621C54.2083 157.57 53.9082 157.395 53.6992 157.133C53.4902 156.871 53.3875 156.539 53.4117 156.205C53.4358 155.87 53.5849 155.557 53.8294 155.327C54.0739 155.097 54.3959 154.968 54.7313 154.965C55.4595 154.93 56.1846 154.848 56.9023 154.721C58.1789 154.55 59.5126 153.937 60.8725 153.947C62.3804 154.151 63.6307 154.863 64.6272 155.985C65.047 156.446 64.6497 157.23 64.0385 157.18H64.0407Z" fill="#371A45"/>
<path d="M84.1088 160.827C83.8565 163.129 81.6803 167.339 78.1862 167.303C73.3253 167.252 73.3749 161.543 76.8728 155.761" fill="white"/>
<path d="M84.7703 160.899C84.6659 164.256 82.4964 167.955 78.9227 168.546C76.0954 168.981 73.5062 167.301 73.1668 164.388C72.7913 161.05 74.3578 157.884 76.3034 155.416C76.7938 154.815 77.7498 155.399 77.4426 156.106C76.6992 157.898 76.0489 159.698 75.7688 161.473C75.5675 162.887 75.4962 164.75 76.6504 165.574C77.8924 166.314 79.4529 166.07 80.6146 165.118C81.9182 164.066 82.9598 162.379 83.4471 160.755C83.6266 159.986 84.7665 160.116 84.7703 160.899V160.899Z" fill="#371A45"/>
<path d="M115.568 181.389C115.568 181.389 99.9107 184.671 90.9092 182.92C90.9092 182.92 84.2191 187.801 91.6879 193.063C105.651 196.217 117.728 191.92 117.728 191.92L115.568 181.389Z" fill="white"/>
<path d="M91.6863 193.062C105.649 196.216 117.728 191.92 117.728 191.92L116.802 187.414L115.567 181.392C115.567 181.392 103.385 183.945 94.3334 183.344C93.1848 183.275 92.0416 183.133 90.9106 182.921C90.9106 182.921 84.2175 187.802 91.6863 193.062Z" fill="white"/>
<path d="M91.6863 193.062C105.649 196.216 117.728 191.92 117.728 191.92L116.802 187.414C112.022 188.9 102.241 190.351 97.3244 188.9C94.3206 188.011 93.8167 185.384 94.3334 183.346C93.1848 183.277 92.0416 183.136 90.9106 182.924C90.9106 182.924 84.2175 187.802 91.6863 193.062Z" fill="#E8E8E8"/>
<path d="M102.38 195.559C98.6853 195.568 95.0006 195.166 91.3942 194.362C91.2241 194.323 91.0632 194.252 90.9203 194.152C88.217 192.25 86.8413 190.117 86.8217 187.811C86.7924 184.317 89.9877 181.944 90.1259 181.845C90.274 181.737 90.4427 181.661 90.6214 181.621C90.8002 181.581 90.9853 181.578 91.1651 181.613C99.8009 183.292 115.143 180.117 115.297 180.085C115.468 180.049 115.645 180.048 115.817 180.08C115.989 180.113 116.154 180.179 116.3 180.275C116.447 180.372 116.573 180.496 116.671 180.641C116.769 180.786 116.838 180.949 116.873 181.121L119.035 191.652C119.099 191.966 119.048 192.294 118.89 192.573C118.732 192.853 118.479 193.066 118.176 193.174C117.806 193.305 111.326 195.559 102.38 195.559ZM92.2427 191.822C103.164 194.217 112.969 191.921 116.181 191.004L114.529 182.95C110.629 183.684 99.0305 185.621 91.2905 184.341C90.6477 184.938 89.4665 186.248 89.4883 187.8C89.5018 189.143 90.4292 190.495 92.2427 191.822V191.822Z" fill="#371A45"/>
<path d="M156.599 186.909C156.599 186.909 161.621 186.609 165.416 183.154C169.212 179.7 168.416 172.84 163.829 171.268C163.829 171.268 156.599 173.803 150.627 174.386C147.612 174.684 156.599 186.909 156.599 186.909Z" fill="white"/>
<path d="M156.6 186.91C156.6 186.91 161.62 186.609 165.416 183.155C167.863 180.931 168.402 177.289 167.247 174.559C166.857 176.247 165.915 177.842 164.427 178.934C160.297 181.97 155.266 181.747 155.266 181.747C155.266 181.747 152.979 177.842 151.398 174.299C151.138 174.333 150.881 174.363 150.625 174.386C147.611 174.684 156.6 186.91 156.6 186.91Z" fill="#E8E8E8"/>
<path d="M156.599 188.24C156.39 188.24 156.184 188.191 155.998 188.097C155.811 188.002 155.65 187.866 155.526 187.697C155.451 187.593 153.619 185.098 151.87 182.305C148.476 176.883 148.423 175.207 148.871 174.203C149.162 173.551 149.755 173.136 150.497 173.064C156.235 172.504 163.317 170.04 163.388 170.014C163.671 169.917 163.978 169.917 164.261 170.014C166.65 170.834 168.411 172.943 168.971 175.655C169.623 178.809 168.604 182.063 166.311 184.146C162.217 187.867 156.903 188.228 156.679 188.241L156.599 188.24ZM151.402 175.645C151.845 177.363 154.522 181.751 157.216 185.493C158.633 185.273 161.927 184.528 164.52 182.172C166.097 180.745 166.818 178.393 166.363 176.191C166.024 174.546 165.097 173.293 163.794 172.69C162.131 173.247 156.488 175.047 151.402 175.645V175.645Z" fill="#371A45"/>
<path d="M201.883 123.634C201.883 123.634 208.527 121.475 211.434 125.876C214.341 130.278 212.888 136.39 209.051 137.291C204.816 138.287 203.321 134.738 204.214 131.65C204.214 131.65 198.644 138.378 193.91 137.09" fill="white"/>
<path d="M201.678 123.001C205.145 121.074 210.114 121.52 212.525 124.991C215.933 129.501 214.883 138.501 208.127 138.914C203.807 139.259 201.681 135.03 202.935 131.278L205.24 132.498C202.832 135.642 197.872 139.28 193.737 137.73C193.018 137.43 193.316 136.339 194.086 136.445C196.891 136.632 199.175 134.55 201.145 132.778C201.746 132.216 202.595 131.385 203.189 130.799C203.274 130.652 203.387 130.523 203.521 130.42C203.655 130.317 203.809 130.241 203.973 130.197C204.136 130.153 204.307 130.141 204.475 130.164C204.643 130.186 204.806 130.24 204.952 130.325C205.57 130.674 205.72 131.402 205.494 132.018C205.162 133.472 205.326 135.142 206.627 135.792C207.872 136.286 209.587 135.846 210.399 134.675C212.044 132.414 211.744 128.886 210.212 126.58C208.495 123.998 204.934 124.243 202.089 124.267C201.358 124.35 201.038 123.353 201.678 123L201.678 123.001Z" fill="#371A45"/>
<path d="M70.239 239.672C70.1078 239.672 69.978 239.646 69.8568 239.596C69.7356 239.546 69.6255 239.472 69.5328 239.38C69.44 239.287 69.3665 239.177 69.3163 239.055C69.2661 238.934 69.2402 238.804 69.2402 238.673V152.205C69.2402 151.94 69.3455 151.686 69.5328 151.499C69.7201 151.312 69.9741 151.206 70.239 151.206C70.5039 151.206 70.7579 151.312 70.9452 151.499C71.1325 151.686 71.2377 151.94 71.2377 152.205V238.673C71.2375 238.938 71.1322 239.192 70.945 239.379C70.7577 239.567 70.5038 239.672 70.239 239.672Z" fill="#371A45"/>
<path d="M68.8819 153.234C67.6924 153.234 66.3587 153.009 64.8779 152.463C64.7529 152.419 64.638 152.35 64.5397 152.261C64.4415 152.172 64.3619 152.065 64.3057 151.945C64.2494 151.825 64.2176 151.695 64.2121 151.563C64.2065 151.43 64.2274 151.298 64.2734 151.174C64.3194 151.05 64.3897 150.936 64.4802 150.839C64.5706 150.742 64.6794 150.664 64.8003 150.61C64.9211 150.556 65.0515 150.526 65.184 150.522C65.3164 150.519 65.4483 150.542 65.5718 150.59C71.7339 152.873 74.559 148.366 74.6754 148.173C74.8113 147.945 75.032 147.781 75.2889 147.716C75.5459 147.652 75.818 147.692 76.0454 147.828C76.2729 147.963 76.437 148.184 76.5017 148.441C76.5664 148.698 76.5264 148.97 76.3905 149.198C76.3605 149.249 73.9184 153.234 68.8819 153.234Z" fill="#371A45"/>
<path d="M205.854 128.561C205.216 129.584 204.657 130.655 204.183 131.763Z" fill="white"/>
<path d="M206.412 128.926C205.994 130.022 205.657 131.148 205.404 132.293C204.803 134.339 201.898 133.11 202.946 131.255C203.477 130.449 204.052 129.672 204.666 128.927C205.058 128.488 205.577 127.583 206.248 128.148C206.354 128.244 206.427 128.371 206.456 128.51C206.486 128.65 206.47 128.796 206.412 128.926V128.926Z" fill="#371A45"/>
<path d="M113.263 178.794L116.057 196.362C116.575 199.621 119.567 201.881 122.703 201.383L153.853 196.435C156.992 195.937 159.133 192.862 158.616 189.602L155.825 172.034C155.308 168.778 152.32 166.519 149.18 167.017L118.03 171.964C115.525 172.362 113.651 174.407 113.264 176.874C113.164 177.51 113.164 178.158 113.263 178.794V178.794Z" fill="white"/>
<path d="M113.263 178.794L116.057 196.362C116.575 199.622 119.567 201.881 122.703 201.383L153.853 196.435C156.992 195.937 159.133 192.862 158.616 189.602L157.676 183.689C152.795 187.632 142.883 193.962 131.588 191.832C126.07 190.79 119.066 185.327 119.066 185.327C119.066 185.327 119.905 192.093 118.927 192.139C116.207 192.268 114.064 178.65 113.264 176.874C113.164 177.51 113.164 178.158 113.263 178.794V178.794Z" fill="#E2E2E2"/>
<path d="M121.204 202.887C119.681 202.884 118.209 202.339 117.051 201.35C115.894 200.361 115.126 198.992 114.885 197.488L111.806 178.088C111.542 176.411 111.953 174.698 112.951 173.324C113.948 171.95 115.449 171.028 117.125 170.76L149.668 165.591C151.345 165.329 153.057 165.741 154.43 166.738C155.803 167.735 156.726 169.235 156.996 170.91L160.075 190.311C160.337 191.987 159.925 193.699 158.928 195.072C157.931 196.445 156.431 197.368 154.756 197.638L122.215 202.806C121.881 202.86 121.543 202.887 121.204 202.887V202.887ZM150.67 168.172C150.474 168.172 150.277 168.188 150.083 168.218L117.54 173.388C116.561 173.544 115.684 174.083 115.102 174.885C114.519 175.688 114.279 176.689 114.434 177.668L117.513 197.068C117.67 198.047 118.209 198.924 119.011 199.506C119.813 200.088 120.814 200.328 121.793 200.174V200.174L154.336 195.006C155.313 194.846 156.188 194.307 156.77 193.505C157.352 192.703 157.594 191.704 157.442 190.725L154.363 171.325C154.221 170.447 153.772 169.648 153.096 169.071C152.419 168.493 151.56 168.174 150.671 168.171L150.67 168.172Z" fill="#371944"/>
<path d="M125.727 191.05C128.444 190.618 130.283 187.981 129.835 185.16C129.386 182.339 126.82 180.401 124.104 180.833C121.387 181.265 119.548 183.902 119.996 186.723C120.445 189.545 123.01 191.482 125.727 191.05Z" fill="#22A7F0"/>
<path d="M119.983 186.735C120.037 187.075 120.123 187.41 120.241 187.733C120.323 185.322 122.033 183.246 124.415 182.867C126.797 182.489 129.064 183.934 129.887 186.202C129.898 185.857 129.877 185.512 129.822 185.172C129.371 182.351 126.809 180.411 124.092 180.843C121.375 181.275 119.535 183.913 119.983 186.735Z" fill="white"/>
<path d="M119.984 186.732C120.434 189.556 122.999 191.49 125.714 191.059C128.43 190.628 130.27 187.993 129.822 185.17C129.749 184.708 129.616 184.258 129.426 183.83C129.19 186.075 127.535 187.96 125.28 188.32C123.024 188.68 120.866 187.398 119.948 185.336C119.899 185.801 119.911 186.27 119.984 186.732V186.732Z" fill="#1C7AEA"/>
<path d="M124.948 192.12C123.664 192.117 122.416 191.693 121.396 190.914C120.104 189.935 119.244 188.492 118.997 186.89C118.464 183.529 120.679 180.374 123.935 179.857C124.719 179.732 125.52 179.769 126.289 179.963C127.058 180.158 127.78 180.508 128.409 180.99C129.696 181.974 130.555 183.414 130.809 185.014C131.063 186.613 130.693 188.249 129.775 189.583C129.236 190.365 128.515 191.005 127.674 191.447C126.833 191.889 125.898 192.12 124.948 192.12V192.12ZM120.968 186.576C121.134 187.668 121.718 188.652 122.597 189.319C123.013 189.64 123.489 189.872 123.998 190.002C124.507 190.132 125.036 190.156 125.555 190.074C126.073 189.992 126.569 189.805 127.012 189.524C127.456 189.243 127.837 188.874 128.133 188.441C128.756 187.531 129.006 186.416 128.833 185.327C128.66 184.238 128.077 183.256 127.203 182.584C126.787 182.264 126.31 182.032 125.802 181.902C125.293 181.772 124.764 181.747 124.245 181.829C122.077 182.174 120.606 184.302 120.968 186.576V186.576Z" fill="#371944"/>
<path d="M142.807 199.519C142.49 199.518 142.183 199.404 141.943 199.198C141.702 198.991 141.543 198.706 141.494 198.392L140.067 189.401C139.652 186.786 140.46 184.091 142.227 182.192L142.921 181.448C144.135 180.144 144.688 178.284 144.401 176.472L143.049 167.986C143.007 167.643 143.099 167.298 143.307 167.022C143.514 166.746 143.821 166.562 144.161 166.508C144.502 166.454 144.851 166.534 145.134 166.732C145.417 166.93 145.611 167.23 145.677 167.568L147.029 176.054C147.445 178.669 146.637 181.364 144.869 183.263L144.175 184.007C142.962 185.311 142.408 187.172 142.695 188.984L144.122 197.975C144.152 198.166 144.141 198.36 144.089 198.546C144.036 198.731 143.944 198.903 143.819 199.049C143.694 199.196 143.539 199.313 143.364 199.394C143.189 199.474 142.998 199.516 142.806 199.516L142.807 199.519Z" fill="#371944"/>
<path d="M254.694 251.466C259.154 246.916 260.285 242.672 258.928 236.474C263.508 241.324 261.163 249.757 254.694 251.466Z" fill="#371A45"/>
<path d="M229.067 217.199C225.149 218.894 221.836 221.149 219.895 224.976C219.245 226.183 218.738 227.512 218.168 228.986C215.856 222.422 222.339 215.376 229.07 217.196L229.067 217.199Z" fill="#371A45"/>
<path d="M219.671 217.466C218.197 218.648 216.947 219.702 216.014 221.239C215.063 222.765 214.683 224.356 214.263 226.2C211.748 222.428 215.164 216.88 219.67 217.466H219.671Z" fill="#371A45"/>
<path d="M226.738 251.956C230.532 254.039 234.334 255.476 238.64 255.665C240.035 255.747 241.46 255.701 243.02 255.65C238.073 259.726 229.45 257.756 226.738 251.956Z" fill="#371A45"/>
<path d="M254.112 236.465C253.965 237.942 253.602 239.391 253.035 240.763C251.55 244.357 248.737 247.24 245.182 248.815C241.627 250.389 237.602 250.534 233.942 249.219C233.165 248.939 232.411 248.597 231.689 248.195C231.122 247.88 230.576 247.529 230.054 247.144C233.77 246.237 238.067 244.763 242.52 242.788C246.972 240.814 250.947 238.61 254.112 236.465Z" fill="#FFB200"/>
<path d="M233.959 249.473L233.942 249.219L233.825 248.994L233.872 248.97L233.926 248.966C235.972 248.833 239.881 247.6 243.882 245.823C247.907 244.037 251.347 242.028 252.858 240.581L253.211 240.949C251.659 242.434 248.164 244.478 244.09 246.289C239.975 248.114 236.093 249.334 233.959 249.473Z" fill="#D66B09"/>
<path d="M242.519 242.785C246.97 240.81 250.946 238.612 254.112 236.465C254.05 237.079 253.952 237.69 253.817 238.293C251.38 240.037 247.491 242.184 242.967 244.192C238.633 246.115 234.596 247.521 231.691 248.195C231.124 247.88 230.577 247.529 230.055 247.144C233.771 246.234 238.069 244.76 242.519 242.785Z" fill="#D66B09"/>
<g opacity="0.35">
<path d="M254.462 234.399C254.402 235.014 254.303 235.624 254.167 236.227C253.615 238.683 252.459 240.963 250.803 242.86C249.147 244.756 247.044 246.21 244.685 247.088C242.325 247.967 239.784 248.243 237.291 247.892C234.798 247.54 232.432 246.572 230.407 245.076C234.123 244.169 238.42 242.695 242.873 240.72C247.325 238.746 251.301 236.546 254.462 234.399Z" fill="#232323"/>
</g>
<g opacity="0.35">
<path d="M253.879 228.618C253.771 228.705 253.66 228.792 253.543 228.88C253.648 228.769 253.753 228.655 253.854 228.539C253.863 228.566 253.871 228.591 253.879 228.618Z" fill="#371A45"/>
<path d="M253.622 228.986L253.447 228.789C253.551 228.68 253.655 228.564 253.754 228.452L253.905 228.276L254.029 228.665L253.959 228.722C253.854 228.809 253.74 228.896 253.622 228.986Z" fill="#232323"/>
</g>
<path d="M252.882 228.853C253.137 229.428 253.357 230.018 253.539 230.621C251.065 232.593 246.186 235.344 240.364 237.928C234.541 240.512 229.228 242.283 226.106 242.796C225.782 242.257 225.491 241.698 225.236 241.123C225.224 241.095 225.212 241.069 225.201 241.041C225.088 240.784 224.983 240.525 224.886 240.265C224.661 239.663 224.475 239.048 224.328 238.423C224.322 238.398 224.316 238.373 224.311 238.348C224.103 237.44 223.98 236.514 223.944 235.582C223.815 232.331 224.739 229.125 226.577 226.44C228.416 223.756 231.071 221.735 234.149 220.68C237.227 219.624 240.563 219.589 243.662 220.58C246.762 221.571 249.459 223.536 251.353 226.181C251.398 226.243 251.441 226.305 251.485 226.368C251.85 226.897 252.181 227.449 252.476 228.02C252.587 228.235 252.694 228.453 252.795 228.674C252.827 228.731 252.854 228.792 252.882 228.853Z" fill="#FFB200"/>
<path d="M252.798 228.671C252.827 228.731 252.854 228.792 252.882 228.853C253.137 229.428 253.357 230.018 253.539 230.621C251.065 232.593 246.186 235.344 240.364 237.928C234.541 240.512 229.228 242.283 226.106 242.796C225.782 242.257 225.491 241.698 225.236 241.123C225.224 241.095 225.212 241.069 225.201 241.041C228.159 240.735 233.568 239.022 239.503 236.385C245.673 233.649 250.723 230.665 252.798 228.671Z" fill="#D66B09"/>
<path d="M223.914 236.091L223.973 235.073C226.033 235.195 231.436 233.52 237.114 231.001C243.886 227.997 248.266 225.099 249.093 223.792L249.955 224.337C248.86 226.064 243.867 229.121 237.528 231.934C231.626 234.555 226.154 236.223 223.914 236.091Z" fill="#D66B09"/>
<path d="M224.704 230.951L224.562 229.941C226.882 229.613 230.911 228.262 235.075 226.412C239.439 224.475 243.219 222.331 244.937 220.817L245.613 221.582C243.822 223.159 239.944 225.367 235.491 227.343C231.244 229.23 227.112 230.612 224.704 230.951Z" fill="#D66B09"/>
<path d="M224.305 238.858L224.317 237.838C226.682 237.866 232.265 236.111 238.209 233.474C244.442 230.707 249.683 227.583 250.947 225.877L251.766 226.485C250.386 228.346 245.104 231.529 238.625 234.406C232.462 237.141 226.842 238.888 224.305 238.858Z" fill="#D66B09"/>
<path d="M239.068 250.935C235.647 250.936 232.315 249.84 229.563 247.808C229.435 247.715 229.336 247.588 229.279 247.44C229.222 247.293 229.208 247.133 229.239 246.978C229.27 246.823 229.345 246.68 229.455 246.566C229.565 246.453 229.705 246.373 229.859 246.337C233.661 245.408 237.922 243.918 242.183 242.027C246.444 240.136 250.407 237.976 253.646 235.778C253.776 235.689 253.929 235.638 254.087 235.633C254.245 235.628 254.402 235.668 254.537 235.749C254.673 235.83 254.783 235.948 254.854 236.089C254.924 236.231 254.953 236.389 254.936 236.547C254.55 240.487 252.712 244.143 249.778 246.802C246.845 249.462 243.027 250.935 239.068 250.935V250.935ZM232.084 247.467C234.022 248.548 236.184 249.165 238.4 249.266C240.617 249.368 242.827 248.952 244.855 248.052C246.883 247.152 248.673 245.792 250.085 244.08C251.496 242.368 252.49 240.351 252.987 238.189C249.998 240.077 246.529 241.911 242.854 243.542C239.178 245.174 235.493 246.516 232.087 247.467H232.084Z" fill="#232323"/>
<path d="M261.593 227.33C262.494 229.358 259.458 232.838 254.112 236.465C250.947 238.612 246.97 240.81 242.52 242.785C238.069 244.76 233.771 246.234 230.054 247.14C223.778 248.672 219.16 248.585 218.264 246.56C217.448 244.721 219.875 241.679 224.33 238.422C224.476 239.047 224.663 239.662 224.888 240.263C223.655 241.256 223.047 242.047 223.253 242.512C223.458 242.977 224.492 243.059 226.106 242.794C229.228 242.283 234.542 240.511 240.364 237.926C246.186 235.341 251.065 232.594 253.539 230.619C254.815 229.598 255.454 228.786 255.244 228.313C255.035 227.839 254.043 227.769 252.48 228.016C252.185 227.445 251.854 226.893 251.489 226.364C256.894 225.251 260.777 225.491 261.593 227.33Z" fill="#FFC536"/>
<path d="M222.986 244.445C222.253 244.321 221.725 244.039 221.505 243.544C221.061 242.547 222.01 241.151 224.402 239.281L224.911 239.93C222.662 241.688 222.066 242.777 222.258 243.209C222.581 243.936 225.391 243.99 230.802 242.396C233.827 241.503 237.25 240.222 240.701 238.69C244.153 237.158 247.399 235.479 250.088 233.834C254.9 230.892 256.745 228.771 256.423 228.045C256.231 227.612 255.024 227.324 252.213 227.812L252.071 226.999C255.065 226.479 256.734 226.712 257.178 227.71C257.973 229.502 253.995 232.413 250.519 234.538C247.798 236.201 244.518 237.897 241.034 239.444C237.551 240.99 234.092 242.284 231.033 243.186C228.208 244.017 224.901 244.768 222.986 244.445Z" fill="#FFEC90"/>
<path d="M221.696 246.452C220.664 246.276 219.883 245.878 219.56 245.151C218.727 243.273 221.635 240.574 224.222 238.641L224.716 239.302C220.924 242.135 219.956 244.009 220.314 244.816C220.757 245.813 223.637 246.345 230.302 244.564C233.746 243.643 237.624 242.244 241.514 240.517C245.405 238.79 249.044 236.854 252.037 234.916C257.828 231.17 259.366 228.677 258.924 227.68C258.565 226.873 256.528 226.334 251.882 227.245L251.723 226.435C254.892 225.814 258.844 225.467 259.678 227.346C260.761 229.786 255.636 233.571 252.485 235.606C249.456 237.566 245.778 239.524 241.849 241.268C237.92 243.011 234 244.426 230.515 245.357C227.968 246.044 224.131 246.865 221.696 246.452Z" fill="#FFEC90"/>
<g opacity="0.35">
<path d="M232.127 245.669C235.766 244.781 239.964 243.349 244.317 241.433C240.337 241.959 237.577 241.528 236.903 240.006C236.825 239.828 236.777 239.638 236.759 239.444C232.396 241.196 228.569 242.386 226.106 242.789C224.49 243.053 223.462 242.981 223.253 242.507C223.044 242.033 223.655 241.251 224.888 240.258C224.678 239.697 224.503 239.125 224.362 238.543C221.234 241.18 219.655 243.551 220.335 245.085C221.233 247.117 225.851 247.203 232.127 245.669Z" fill="#232323"/>
</g>
<path d="M222.734 249.026C220.304 249.026 218.217 248.501 217.505 246.898C216.257 244.084 220.26 240.372 223.838 237.754C223.949 237.672 224.078 237.619 224.214 237.6C224.349 237.581 224.488 237.596 224.617 237.643C224.745 237.691 224.86 237.77 224.951 237.873C225.041 237.976 225.105 238.1 225.135 238.234C225.273 238.825 225.449 239.406 225.661 239.975C225.722 240.138 225.731 240.316 225.685 240.484C225.639 240.652 225.541 240.801 225.405 240.91C224.68 241.494 224.338 241.878 224.177 242.103C224.461 242.134 224.998 242.137 225.97 241.978C229.124 241.462 234.507 239.619 240.026 237.172C245.544 234.725 250.524 231.965 253.021 229.974C253.791 229.36 254.147 228.959 254.315 228.728C254.04 228.696 253.527 228.693 252.608 228.839C252.436 228.867 252.26 228.839 252.104 228.761C251.949 228.682 251.822 228.556 251.742 228.401C251.463 227.862 251.15 227.341 250.805 226.841C250.727 226.729 250.678 226.599 250.662 226.463C250.646 226.326 250.665 226.188 250.716 226.061C250.767 225.934 250.849 225.821 250.954 225.734C251.06 225.646 251.185 225.586 251.32 225.559C255.662 224.658 261.101 224.182 262.349 226.996C263.799 230.261 258.101 234.762 254.576 237.153C251.257 239.405 247.203 241.615 242.854 243.545C238.506 245.474 234.144 246.999 230.251 247.949C228.145 248.462 225.255 249.026 222.734 249.026ZM223.854 239.818C219.662 243.074 218.604 245.287 219.02 246.225C219.57 247.463 223.135 247.977 229.859 246.337C233.661 245.408 237.922 243.918 242.183 242.027C246.444 240.136 250.407 237.976 253.646 235.778C259.374 231.892 261.385 228.904 260.835 227.668C260.418 226.729 258.068 226.03 252.84 226.954C252.872 227.008 252.903 227.063 252.935 227.119C254.222 226.964 255.569 227.005 256.002 227.979C256.506 229.117 255.227 230.336 254.056 231.27C251.417 233.373 246.424 236.146 240.7 238.687C234.976 241.227 229.57 243.071 226.24 243.616C224.761 243.858 222.999 243.991 222.493 242.851C222.062 241.875 222.934 240.851 223.913 239.998C223.892 239.938 223.874 239.878 223.854 239.818Z" fill="#232323"/>
<g opacity="0.35">
<path d="M255.438 229.273C252.964 231.245 248.085 233.996 242.263 236.58C236.44 239.164 231.127 240.936 228.005 241.449C227.681 240.91 227.39 240.351 227.134 239.776L227.099 239.694C226.986 239.436 226.882 239.178 226.785 238.918C226.56 238.316 226.373 237.701 226.226 237.076C226.221 237.051 226.215 237.026 226.21 237.001C225.529 234.007 225.776 230.877 226.916 228.027C228.056 225.176 230.036 222.74 232.593 221.041C230.852 223.683 229.981 226.804 230.1 229.966C230.136 230.897 230.259 231.823 230.468 232.731C230.474 232.757 230.479 232.782 230.485 232.806C230.491 232.83 230.504 232.881 230.517 232.929C231.259 235.535 234.047 236.655 236.746 236.441C241.896 236.032 253.105 230.137 255.49 228.774C255.649 229.175 255.314 228.867 255.438 229.273Z" fill="#232323"/>
</g>
<g opacity="0.41">
<path d="M253.125 230.919C252.837 231.149 252.517 231.388 252.166 231.638C252.028 231.237 251.872 230.841 251.697 230.45C251.67 230.389 251.643 230.329 251.615 230.269C251.515 230.046 251.408 229.829 251.296 229.615C251.001 229.044 250.67 228.492 250.305 227.963C250.262 227.9 250.217 227.839 250.173 227.776C248.746 225.785 246.857 224.17 244.668 223.07C242.478 221.97 240.055 221.418 237.605 221.462C235.156 221.506 232.753 222.144 230.605 223.321C228.456 224.499 226.626 226.18 225.271 228.222C226.474 225.941 228.24 224.006 230.402 222.601C232.563 221.195 235.048 220.366 237.621 220.191C240.193 220.016 242.767 220.502 245.099 221.602C247.431 222.702 249.442 224.381 250.943 226.477C250.988 226.54 251.031 226.602 251.075 226.665C251.44 227.194 251.771 227.746 252.065 228.317C252.178 228.531 252.284 228.749 252.385 228.97C252.413 229.03 252.441 229.091 252.467 229.153C252.723 229.727 252.942 230.317 253.125 230.919V230.919Z" fill="white"/>
</g>
<path d="M226.106 243.625C225.963 243.625 225.822 243.588 225.698 243.518C225.573 243.447 225.469 243.346 225.396 243.223C225.054 242.655 224.748 242.066 224.478 241.459C224.348 241.164 224.223 240.858 224.11 240.558C223.872 239.924 223.676 239.275 223.521 238.615C221.776 231.172 225.59 223.516 232.588 220.41C239.586 217.305 247.821 219.613 252.171 225.9C252.556 226.457 252.905 227.038 253.216 227.64C253.366 227.924 253.506 228.219 253.639 228.518C253.909 229.125 254.14 229.748 254.333 230.383C254.381 230.542 254.38 230.711 254.331 230.87C254.282 231.028 254.186 231.168 254.055 231.271C251.417 233.374 246.424 236.147 240.7 238.688C234.976 241.228 229.57 243.071 226.24 243.617C226.196 243.623 226.151 243.626 226.106 243.625ZM239.054 220.693C237.058 220.693 235.084 221.112 233.26 221.923C226.989 224.706 223.573 231.566 225.135 238.234C225.274 238.825 225.449 239.406 225.661 239.975C225.763 240.249 225.875 240.522 225.992 240.786C226.157 241.157 226.338 241.522 226.532 241.877C229.737 241.25 234.823 239.48 240.026 237.17C245.229 234.86 249.953 232.277 252.566 230.321C252.434 229.939 252.285 229.56 252.12 229.189C252 228.919 251.873 228.654 251.74 228.4C251.461 227.86 251.148 227.339 250.803 226.839C249.488 224.941 247.731 223.391 245.685 222.32C243.639 221.25 241.363 220.691 239.054 220.693V220.693Z" fill="#232323"/>
<path d="M84.949 255.399C89.4329 251.989 92.2887 247.048 91.7075 241.319C91.5445 239.506 91.0774 237.708 90.4474 235.923C91.5504 237.5 92.3046 239.294 92.6597 241.186C93.8724 247.043 90.4316 253.149 84.9468 255.399H84.949Z" fill="#371A45"/>
<path d="M59.1776 220.973C54.8747 221.716 50.9984 224.04 49.0933 228.048C48.4625 229.325 48.0262 230.719 47.6807 232.178C46.9396 225.637 52.6444 220.028 59.1776 220.97V220.973Z" fill="#371A45"/>
<path d="M49.7805 220.754C47.3121 221.956 45.2673 223.796 44.4841 226.462C44.2093 227.313 44.0598 228.222 43.9277 229.194C42.2636 225.253 45.4956 220.558 49.7805 220.752V220.754Z" fill="#371A45"/>
<path d="M55.3169 256.173C60.0328 259.885 65.7549 261.171 71.6055 259.845C66.3369 263.004 58.7246 261.279 55.3169 256.173Z" fill="#371A45"/>
<path d="M85.1765 243.812C82.2966 252.352 73.0421 256.933 64.5047 254.055C62.4476 253.364 60.5496 252.269 58.9222 250.833C54.3145 246.762 52.2441 240.266 54.0554 234.05C54.1185 233.824 54.1883 233.606 54.2634 233.385C55.1947 230.622 56.8493 228.158 59.0551 226.251C59.1618 226.159 59.2707 226.068 59.3803 225.978C62.2245 223.65 65.7707 222.35 69.4454 222.288C73.1201 222.225 76.7084 223.404 79.6301 225.634C85.03 229.763 87.4706 237.014 85.1765 243.812Z" fill="#FFD243"/>
<path d="M57.4091 249.399C57.77 249.787 58.1505 250.159 58.5505 250.513C59.0323 250.939 59.5394 251.336 60.0689 251.7C61.3217 252.566 62.6898 253.251 64.133 253.735C72.6704 256.615 81.9242 252.029 84.8048 243.492C85.7242 240.771 85.9082 237.854 85.3382 235.039C84.7681 232.224 83.4642 229.609 81.5585 227.459C81.2145 227.084 80.8533 226.724 80.4734 226.382C82.0487 228.497 83.0874 230.962 83.5 233.567C83.9127 236.171 83.6871 238.837 82.8426 241.335C79.962 249.874 70.7082 254.459 62.1708 251.58C60.7277 251.094 59.3597 250.409 58.1067 249.544C57.5772 249.179 57.0701 248.782 56.5883 248.357L56.4719 248.253C56.8597 248.774 57.2782 249.271 57.7252 249.742C57.6179 249.629 57.5127 249.514 57.4091 249.399Z" fill="#FF9D33"/>
<g opacity="0.4">
<path d="M75.1206 222.608C72.5292 221.778 69.7714 221.611 67.0988 222.121C64.4262 222.631 61.9237 223.802 59.8195 225.527C59.7099 225.616 59.601 225.707 59.4944 225.8C57.288 227.707 55.6333 230.17 54.7026 232.934C54.6275 233.155 54.5577 233.375 54.4946 233.598C52.6834 239.814 54.7537 246.311 59.3614 250.381C59.8438 250.807 60.3511 251.204 60.8806 251.569C61.0007 251.652 61.1239 251.733 61.247 251.813C55.9867 247.567 53.6513 240.343 55.9387 233.562C56.1529 232.927 56.4051 232.306 56.6941 231.701C56.7286 231.731 56.765 231.758 56.803 231.783C57.6118 232.32 58.9439 231.738 59.7782 230.481C60.6125 229.225 60.6343 227.771 59.8248 227.234C61.7811 225.241 64.2077 223.773 66.8808 222.964C69.5539 222.156 72.3876 222.033 75.1206 222.608Z" fill="white"/>
</g>
<path d="M69.7538 255.689C67.0301 255.687 64.346 255.037 61.9234 253.792C59.5008 252.548 57.4092 250.744 55.8215 248.531C54.2338 246.318 53.1955 243.759 52.7926 241.065C52.3897 238.371 52.6336 235.621 53.5043 233.04C56.5298 224.073 66.2874 219.24 75.2529 222.262C79.5658 223.717 83.124 226.826 85.1449 230.905C87.1657 234.983 87.4837 239.697 86.0288 244.01C83.6168 251.165 76.9177 255.689 69.7538 255.689ZM69.7823 223.061C63.3243 223.061 57.2927 227.137 55.118 233.583C54.4684 235.507 54.2043 237.541 54.3406 239.567C54.4769 241.593 55.0111 243.572 55.9125 245.392C56.814 247.211 58.0651 248.836 59.5944 250.172C61.1237 251.508 62.9012 252.529 64.8254 253.178C72.9047 255.904 81.6944 251.547 84.4196 243.469C85.0689 241.545 85.3329 239.512 85.1965 237.486C85.06 235.46 84.5258 233.481 83.6244 231.661C82.723 229.842 81.4719 228.218 79.9428 226.882C78.4136 225.546 76.6362 224.524 74.7122 223.875V223.875C73.1241 223.338 71.4589 223.063 69.7823 223.061V223.061Z" fill="#232323"/>
<path d="M61.9572 235.141C63.2408 233.608 63.5029 231.714 62.5426 230.91C61.5823 230.106 59.7633 230.697 58.4797 232.23C57.1961 233.763 56.934 235.657 57.8943 236.461C58.8546 237.265 60.6736 236.674 61.9572 235.141Z" fill="#FF9D33"/>
<path d="M61.8366 235.091C62.9591 233.75 63.3804 232.254 62.7775 231.749C62.1746 231.244 60.7759 231.922 59.6533 233.263C58.5308 234.603 58.1096 236.099 58.7125 236.604C59.3154 237.109 60.7141 236.431 61.8366 235.091Z" fill="#FFD243"/>
<path d="M61.3245 230.35C63.0847 230.089 63.7381 231.964 63.3085 233.369C62.7483 235.337 61.0557 237.25 58.866 237.244C56.0958 236.919 56.9383 233.473 58.4004 232.124C58.4225 232.103 58.4516 232.09 58.4825 232.088C58.5133 232.087 58.5437 232.096 58.568 232.115C58.5922 232.135 58.6086 232.162 58.6141 232.192C58.6196 232.223 58.6139 232.254 58.5979 232.281C58.2577 232.806 57.9573 233.363 57.8117 233.954C57.4955 234.949 57.654 236.429 58.9073 236.446C60.6239 236.375 62.0567 234.719 62.5869 233.168C62.9826 232.085 62.6928 230.667 61.3388 230.663C61.1503 230.663 61.1383 230.372 61.3208 230.35H61.3245Z" fill="#232323"/>
<path d="M63.2326 235.782C62.6904 238.116 58.7953 239.68 57.2408 237.5C57.2271 237.474 57.2228 237.444 57.2286 237.415C57.2345 237.386 57.2502 237.359 57.2732 237.341C57.2961 237.322 57.3248 237.311 57.3544 237.311C57.3841 237.311 57.4129 237.321 57.4361 237.34C59.2436 238.512 61.7742 237.205 62.9472 235.654C62.9689 235.624 63 235.603 63.0355 235.594C63.0709 235.584 63.1085 235.587 63.1419 235.602C63.1753 235.617 63.2026 235.643 63.2191 235.676C63.2356 235.709 63.2403 235.746 63.2326 235.782V235.782Z" fill="#232323"/>
<path d="M65.0297 249.519C65.9232 248.637 65.5068 246.767 64.0997 245.34C62.6927 243.914 60.8278 243.472 59.9343 244.354C59.0409 245.235 59.4573 247.106 60.8644 248.532C62.2714 249.958 64.1363 250.4 65.0297 249.519Z" fill="#FF9D33"/>
<path d="M65.2355 248.707C65.7953 248.155 65.2536 246.698 64.0257 245.454C62.7978 244.209 61.3485 243.647 60.7887 244.2C60.2289 244.752 60.7706 246.209 61.9985 247.453C63.2265 248.698 64.6757 249.26 65.2355 248.707Z" fill="#FFD243"/>
<path d="M59.252 245.531C59.1596 243.754 61.088 243.282 62.4465 243.842C64.3516 244.586 66.0953 246.453 65.8812 248.634C65.294 251.359 61.9433 250.193 60.7396 248.61C60.7201 248.585 60.7102 248.555 60.7119 248.523C60.7136 248.492 60.7267 248.463 60.7487 248.441C60.7707 248.419 60.8001 248.405 60.8313 248.404C60.8624 248.402 60.8931 248.412 60.9176 248.431C61.8134 249.155 63.0555 249.807 64.1916 249.551C66.069 248.897 64.6715 246.406 63.6442 245.52C62.6222 244.435 59.9106 243.364 59.5651 245.543C59.5463 245.73 59.2572 245.714 59.252 245.531V245.531Z" fill="#232323"/>
<path d="M64.8382 244.147C67.1105 244.908 68.2963 248.935 65.9781 250.274C65.9507 250.286 65.9203 250.287 65.892 250.278C65.8637 250.269 65.8393 250.251 65.8228 250.227C65.8062 250.202 65.7986 250.173 65.8012 250.143C65.8038 250.114 65.8164 250.086 65.8369 250.065C67.1759 248.378 66.1155 245.734 64.6828 244.419C64.6553 244.394 64.637 244.361 64.631 244.325C64.6251 244.289 64.6318 244.251 64.65 244.22C64.6682 244.188 64.6969 244.163 64.7312 244.15C64.7655 244.137 64.8032 244.135 64.8382 244.147Z" fill="#232323"/>
<path d="M72.6707 238.726C73.7274 237.41 73.6745 235.613 72.5525 234.712C71.4304 233.811 69.6642 234.147 68.6075 235.463C67.5507 236.778 67.6037 238.576 68.7257 239.477C69.8477 240.378 71.614 240.042 72.6707 238.726Z" fill="#FF9D33"/>
<path d="M72.0156 239.68C73.0593 238.96 73.4347 237.694 72.8541 236.852C72.2735 236.011 70.9567 235.911 69.913 236.631C68.8693 237.351 68.4939 238.617 69.0745 239.459C69.6551 240.301 70.9718 240.4 72.0156 239.68Z" fill="#FFD243"/>
<path d="M72.6907 238.639C73.6947 237.163 73.3508 234.827 71.4712 234.527C69.7635 234.27 68.131 235.864 68.0717 237.55C67.9868 238.743 68.8406 239.849 70.0654 239.987C70.0966 239.992 70.1249 240.008 70.145 240.032C70.165 240.057 70.1753 240.088 70.1738 240.119C70.1723 240.151 70.1591 240.18 70.1369 240.203C70.1146 240.225 70.0849 240.238 70.0534 240.24C68.6071 240.35 67.3395 238.979 67.3748 237.547C67.3357 236.103 68.2061 234.731 69.4819 234.063C72.8018 232.397 75.3099 236.196 72.9362 238.83C72.8123 238.973 72.5833 238.795 72.6877 238.639H72.6907Z" fill="#232323"/>
<path d="M67.1361 239.163C69.096 242.962 74.2339 240.514 74.6222 236.93C74.7889 235.759 74.4374 234.533 73.5401 233.716C73.5179 233.695 73.5043 233.666 73.5018 233.635C73.4992 233.605 73.508 233.574 73.5264 233.549C73.5448 233.525 73.5716 233.507 73.6017 233.501C73.6319 233.494 73.6634 233.499 73.6903 233.514C76.1451 235.091 75.5871 238.846 73.5468 240.551C71.5073 242.509 67.6783 242.305 66.8395 239.269C66.8299 239.232 66.8348 239.191 66.8532 239.157C66.8716 239.122 66.9021 239.096 66.9388 239.083C66.9756 239.069 67.0159 239.07 67.0521 239.085C67.0883 239.1 67.1177 239.128 67.1346 239.163H67.1361Z" fill="#232323"/>
<path d="M69.4916 227.496C70.1911 226.937 70.3715 226 69.8946 225.403C69.4177 224.806 68.4641 224.775 67.7646 225.334C67.0651 225.893 66.8847 226.83 67.3616 227.427C67.8385 228.024 68.7922 228.055 69.4916 227.496Z" fill="#FF9D33"/>
<path d="M69.0413 227.908C69.6651 227.656 70.0059 227.043 69.8027 226.54C69.5994 226.037 68.9289 225.833 68.3052 226.085C67.6814 226.336 67.3406 226.949 67.5439 227.452C67.7471 227.956 68.4176 228.159 69.0413 227.908Z" fill="#FFD243"/>
<path d="M69.5074 227.421C69.9579 226.958 70.1434 226.271 69.9166 225.76C69.3602 224.591 67.5504 225.238 67.3011 226.349C67.2093 226.637 67.2316 226.95 67.3633 227.223C67.495 227.496 67.7261 227.708 68.0092 227.815C68.0281 227.823 68.0434 227.838 68.0524 227.856C68.0613 227.875 68.0632 227.896 68.0578 227.916C68.0524 227.936 68.04 227.953 68.023 227.964C68.0059 227.975 67.9853 227.98 67.9649 227.978C66.0688 227.538 66.7582 224.999 68.3742 224.64C70.3266 224.136 71.2428 226.494 69.641 227.582C69.6194 227.596 69.5933 227.602 69.5677 227.598C69.542 227.594 69.5187 227.581 69.5021 227.561C69.4855 227.542 69.4769 227.516 69.4779 227.49C69.4789 227.464 69.4893 227.44 69.5074 227.421V227.421Z" fill="#232323"/>
<path d="M66.6042 227.064C67.1712 229.177 70.0908 228.508 70.6736 226.763C70.8921 226.203 70.8778 225.537 70.5174 224.999C70.5061 224.982 70.5015 224.961 70.5045 224.941C70.5075 224.92 70.5179 224.902 70.5336 224.888C70.5494 224.875 70.5694 224.868 70.5901 224.868C70.6107 224.869 70.6305 224.877 70.6458 224.891C71.7759 225.993 71.0475 227.921 69.7717 228.58C68.5034 229.385 66.4188 228.774 66.397 227.092C66.3966 227.066 66.4058 227.041 66.4228 227.021C66.4397 227.002 66.4633 226.989 66.4889 226.986C66.5145 226.983 66.5404 226.989 66.5617 227.004C66.583 227.018 66.5981 227.04 66.6042 227.065V227.064Z" fill="#232323"/>
<path d="M74.1257 227.067C73.175 229.487 75.8003 231.608 78.0914 231.219C78.8835 231.122 79.6221 230.768 80.194 230.212C80.2122 230.194 80.2361 230.184 80.2614 230.183C80.2866 230.181 80.3114 230.189 80.3312 230.205C80.351 230.221 80.3645 230.243 80.3691 230.268C80.3737 230.293 80.3691 230.318 80.3562 230.34C78.8085 232.733 74.6739 232.199 73.6548 229.561C73.2989 228.705 73.3928 227.679 73.8944 226.947C73.9133 226.923 73.9399 226.907 73.9696 226.901C73.9993 226.895 74.0301 226.899 74.0568 226.913C74.0835 226.928 74.1044 226.951 74.1159 226.979C74.1274 227.007 74.1287 227.038 74.1197 227.067H74.1257Z" fill="#232323"/>
<path d="M79.5058 229.633C80.0564 228.615 79.5069 227.251 78.2786 226.587C77.0502 225.923 75.6082 226.21 75.0576 227.228C74.5071 228.246 75.0566 229.61 76.2849 230.274C77.5132 230.938 78.9553 230.651 79.5058 229.633Z" fill="#FF9D33"/>
<path d="M79.0195 229.703C78.5629 230.292 77.6941 230.57 76.784 230.345C75.5727 230.044 74.7467 228.964 74.9389 227.933C74.965 227.791 75.0107 227.653 75.0748 227.523C75.59 227.234 76.2613 227.14 76.9522 227.312C78.1867 227.617 79.0563 228.652 79.0195 229.703Z" fill="#FFD243"/>
<path d="M77.779 226.468C76.4957 226.307 75.1027 227.256 75.4263 228.571C75.75 229.785 77.3037 230.324 78.4173 229.828C79.2171 229.498 79.7022 228.621 79.4453 227.76C79.44 227.735 79.4435 227.71 79.4554 227.688C79.4673 227.665 79.4866 227.648 79.51 227.639C79.5334 227.63 79.5593 227.63 79.583 227.638C79.6066 227.646 79.6265 227.663 79.6391 227.685C80.6679 230.076 77.4058 231.515 75.6546 230.079C73.5099 228.387 75.367 225.462 77.8323 226.216C77.8622 226.226 77.8873 226.247 77.9029 226.275C77.9185 226.302 77.9236 226.334 77.9171 226.365C77.9107 226.396 77.8932 226.424 77.8679 226.443C77.8426 226.462 77.8113 226.471 77.7798 226.468H77.779Z" fill="#232323"/>
<path d="M81.0725 238.715C81.9121 238.498 82.7516 238.531 83.5063 238.862C84.873 239.463 85.5691 240.866 85.6412 242.595C85.6885 243.729 85.434 244.986 84.8467 246.207C83.3659 249.292 80.3306 250.987 78.0673 249.993C77.2247 249.623 76.6082 248.933 76.2418 248.053C75.6237 246.569 75.7965 244.584 76.7261 242.646" fill="#FFD243"/>
<path d="M83.5694 238.718C85.0225 239.2 85.8402 240.771 85.9829 242.22C86.3764 245.824 83.8803 249.888 80.1692 250.48C79.4325 250.561 78.6598 250.46 78.0162 250.105C77.9868 250.089 77.965 250.061 77.9555 250.029C77.9461 249.997 77.9498 249.962 77.9659 249.933C77.9803 249.907 78.0031 249.887 78.0304 249.876C78.0578 249.866 78.0881 249.865 78.1161 249.873C78.7502 250.083 79.4301 250.11 80.0791 249.953C83.3081 249.093 85.3942 245.511 85.2515 242.284C85.1764 240.976 84.656 239.641 83.4418 239.001C83.2743 238.918 83.3937 238.648 83.5679 238.715L83.5694 238.718Z" fill="#232323"/>
<path d="M83.634 246.281C85.0454 244.099 84.9039 241.498 83.3179 240.473C81.732 239.447 79.3022 240.385 77.8908 242.567C76.4794 244.75 76.6209 247.351 78.2068 248.376C79.7928 249.402 82.2226 248.464 83.634 246.281Z" fill="#FF9D33"/>
<path d="M83.233 246.813C84.5759 245.066 84.7716 242.963 83.6701 242.116C82.5686 241.27 80.587 241.999 79.2441 243.746C77.9011 245.493 77.7054 247.596 78.807 248.443C79.9085 249.289 81.89 248.56 83.233 246.813Z" fill="#FFD243"/>
<path d="M80.5995 248.921C78.5525 249.647 76.757 247.975 76.6631 245.944C76.4566 243.165 78.3445 240.097 81.2063 239.586C84.7943 239.18 85.4821 243.378 83.9847 245.833C83.9674 245.857 83.9418 245.875 83.9127 245.883C83.8835 245.89 83.8526 245.887 83.8255 245.874C83.7984 245.861 83.7768 245.838 83.7647 245.811C83.7527 245.783 83.7508 245.752 83.7595 245.723C84.7056 243.665 84.2851 239.941 81.3332 240.376C78.9497 240.875 77.3405 243.544 77.4125 245.891C77.4193 247.611 78.7642 249.012 80.5259 248.619C80.7137 248.577 80.7858 248.867 80.601 248.919L80.5995 248.921Z" fill="#232323"/>
</svg>
