<svg width="300" height="300" viewBox="0 0 300 300" fill="none" xmlns="http://www.w3.org/2000/svg">
<path d="M135.64 199.206C124.09 210.669 124.601 243.943 145.217 249.133C145.217 249.133 149.85 267.508 161.587 263.03C167.321 260.844 169.359 254.113 167.804 248.656C165.72 241.348 162.179 234.886 159.247 231.181C155.629 226.606 156.353 215.581 163.875 205.685" fill="white"/>
<path d="M161.587 263.032C156.862 264.832 153.289 262.932 150.703 260.018C146.869 255.692 145.217 249.133 145.217 249.133C127.098 244.569 124.512 218.315 131.99 204.242C133.021 202.304 134.24 200.594 135.64 199.208L161.416 205.125L163.875 205.689C163.45 206.246 163.048 206.807 162.667 207.371C156.285 216.806 155.833 226.868 159.245 231.184C159.269 231.217 159.299 231.253 159.33 231.296C160.918 233.321 162.673 236.136 164.276 239.449C164.702 240.326 165.114 241.236 165.512 242.177C166.406 244.289 167.171 246.453 167.803 248.657C169.358 254.113 167.32 260.843 161.587 263.032Z" fill="white"/>
<g opacity="0.35">
<path d="M161.587 263.032C156.862 264.832 153.289 262.932 150.703 260.018C154.926 260.468 159.607 260.024 162.425 255.957C164.225 253.365 160.297 251.276 157.036 243.403C154.552 237.416 155.461 232.437 153.82 230.707C149.572 226.222 134.197 224.823 131.99 204.242C133.021 202.304 134.24 200.594 135.64 199.208L161.416 205.125C161.712 205.926 162.129 206.677 162.652 207.353C162.658 207.359 162.661 207.365 162.667 207.371C156.285 216.806 155.833 226.868 159.245 231.184C159.269 231.217 159.299 231.253 159.33 231.296C160.096 232.362 162.621 236.875 165.512 242.177C166.406 244.289 167.171 246.453 167.803 248.657C169.358 254.113 167.32 260.843 161.587 263.032Z" fill="#371A45"/>
</g>
<path d="M158.008 265.005C156.442 265.003 154.901 264.619 153.518 263.887C147.75 260.887 144.934 252.684 144.189 250.171C136.418 247.932 130.755 241.611 128.2 232.288C124.825 219.97 127.638 205.364 134.746 198.305C134.987 198.083 135.306 197.963 135.634 197.97C135.962 197.977 136.275 198.112 136.506 198.344C136.738 198.577 136.87 198.891 136.875 199.219C136.881 199.547 136.758 199.865 136.534 200.105C130.132 206.459 127.547 220.3 130.648 231.616C133.03 240.301 138.314 246.084 145.527 247.901C145.749 247.957 145.952 248.072 146.115 248.234C146.277 248.396 146.392 248.599 146.448 248.822C146.473 248.918 149.004 258.678 154.698 261.634C156.687 262.668 158.793 262.735 161.138 261.841C166.281 259.881 167.947 253.774 166.586 249.002C164.446 241.511 160.875 235.293 158.25 231.975C154.25 226.919 154.883 215.418 162.864 204.923C162.964 204.787 163.089 204.672 163.234 204.586C163.378 204.499 163.539 204.441 163.706 204.417C163.873 204.393 164.043 204.402 164.206 204.444C164.369 204.487 164.522 204.561 164.657 204.663C164.791 204.765 164.903 204.893 164.988 205.039C165.072 205.185 165.127 205.346 165.148 205.514C165.169 205.681 165.157 205.851 165.112 206.013C165.067 206.176 164.99 206.328 164.885 206.46C157.972 215.55 156.9 226.175 160.242 230.4C163.021 233.912 166.786 240.462 169.024 248.312C170.698 254.185 168.543 261.737 162.039 264.22C160.661 264.742 159.314 265.005 158.008 265.005Z" fill="#371A45"/>
<path d="M140.08 235.069C135.722 235.069 131.569 233.927 128.255 231.046C128.141 230.95 128.048 230.832 127.98 230.7C127.913 230.567 127.872 230.422 127.861 230.274C127.849 230.125 127.868 229.976 127.914 229.835C127.961 229.694 128.036 229.563 128.133 229.451C128.231 229.338 128.35 229.246 128.483 229.18C128.617 229.114 128.762 229.075 128.911 229.066C129.059 229.056 129.208 229.077 129.349 229.125C129.49 229.174 129.619 229.249 129.731 229.348C137.487 236.09 150.731 231.472 157.339 227.679C157.597 227.541 157.898 227.509 158.18 227.589C158.461 227.67 158.7 227.856 158.845 228.11C158.991 228.364 159.032 228.664 158.96 228.948C158.888 229.231 158.709 229.476 158.459 229.629C153.215 232.642 146.431 235.069 140.08 235.069Z" fill="#371A45"/>
<path d="M205.81 210.197C200.335 219.41 183.128 218.487 183.128 218.487L177.846 175.009L176.285 162.15L176.201 161.454L174.799 149.93C174.799 149.93 181.108 149.348 187.577 150.268C189.109 150.475 190.625 150.785 192.116 151.193C194.078 151.745 195.911 152.495 197.418 153.509C198.75 154.4 199.829 155.503 200.52 156.854C205.65 166.879 210.307 202.626 205.81 210.197Z" fill="white"/>
<g opacity="0.35">
<path d="M206.259 180.316C207.973 192.799 208.334 205.945 205.809 210.197C200.334 219.41 183.126 218.488 183.126 218.488L181.8 203.347C181.8 203.347 199.012 204.27 204.484 195.057C205.967 192.56 206.455 187.003 206.259 180.316Z" fill="#371A45"/>
</g>
<path d="M184.538 219.788C183.704 219.788 183.175 219.763 183.059 219.757C182.726 219.735 182.414 219.583 182.192 219.333C181.97 219.083 181.855 218.756 181.873 218.422C181.891 218.088 182.039 217.775 182.287 217.55C182.534 217.325 182.86 217.207 183.194 217.221C183.359 217.23 199.706 217.989 204.719 209.55C206.579 206.419 206.884 196.854 205.515 184.588C204.218 172.967 201.758 162.057 199.392 157.438C195.991 150.795 180.574 150.682 174.92 151.198C174.589 151.221 174.262 151.113 174.009 150.898C173.756 150.683 173.598 150.377 173.568 150.047C173.538 149.717 173.638 149.387 173.847 149.13C174.056 148.873 174.358 148.707 174.688 148.67C175.588 148.586 196.775 146.756 201.653 156.281C204.144 161.147 206.711 172.41 208.038 184.306C208.734 190.54 210.017 205.606 206.903 210.846C202.02 219.065 188.976 219.788 184.538 219.788Z" fill="#371A45"/>
<path d="M205.65 185.723L194.258 187.95C193.763 188.046 193.315 188.304 192.983 188.682C192.65 189.061 192.453 189.539 192.422 190.042C192.192 193.828 192.115 202.603 196.06 205.029C199.335 207.042 204.16 206.186 206.723 203.437C209.588 200.362 208.892 191.849 208.342 187.658C208.301 187.35 208.198 187.054 208.038 186.788C207.879 186.521 207.666 186.29 207.414 186.109C207.162 185.928 206.875 185.8 206.572 185.734C206.269 185.667 205.955 185.664 205.65 185.723Z" fill="white"/>
<g opacity="0.35">
<path d="M192.423 190.044C192.191 193.83 192.116 202.605 196.061 205.029C199.337 207.044 204.161 206.188 206.725 203.438C208.485 201.546 208.9 197.597 208.83 193.864C208.53 195.769 207.896 197.363 207.002 198.465C201.879 204.781 196.766 198.659 196.766 198.659C196.766 198.659 196.208 200.36 195.62 200.522C193.165 201.197 192.752 193.311 192.632 189.224C192.51 189.481 192.439 189.76 192.423 190.044Z" fill="#371A45"/>
</g>
<path d="M200.214 207.406C198.503 207.406 196.817 206.986 195.395 206.111C191.016 203.419 190.859 194.84 191.155 189.966C191.203 189.183 191.51 188.438 192.028 187.848C192.545 187.258 193.244 186.856 194.014 186.706L205.403 184.477C205.879 184.384 206.368 184.389 206.842 184.492C207.316 184.595 207.763 184.794 208.157 185.077C208.55 185.359 208.882 185.72 209.13 186.136C209.379 186.552 209.54 187.014 209.603 187.495C210.377 193.38 210.665 201.073 207.653 204.304C205.771 206.325 202.961 207.405 200.214 207.406ZM206.088 186.949C206.022 186.95 205.956 186.956 205.891 186.969L194.501 189.197C194.283 189.239 194.085 189.353 193.938 189.52C193.791 189.687 193.703 189.898 193.689 190.12C193.251 197.341 194.386 202.51 196.725 203.949C199.41 205.599 203.563 204.969 205.794 202.573C207.564 200.674 208.044 195.16 207.083 187.825C207.051 187.584 206.933 187.362 206.75 187.201C206.567 187.039 206.332 186.95 206.088 186.949Z" fill="#371A45"/>
<path d="M197.055 191.735C197.361 193.168 197.522 194.541 197.783 195.892C198.044 197.242 198.355 198.555 198.839 199.765C199.324 200.974 199.981 202.066 200.857 202.835C201.734 203.605 202.807 204.035 203.989 204.164C204.322 204.204 204.626 204.373 204.835 204.636C205.043 204.899 205.139 205.233 205.102 205.567C205.065 205.9 204.897 206.206 204.636 206.416C204.374 206.626 204.04 206.725 203.707 206.689C203.676 206.689 203.643 206.681 203.613 206.675C202.806 206.53 202.023 206.271 201.288 205.906C200.551 205.533 199.881 205.041 199.305 204.45C198.156 203.275 197.464 201.833 197.01 200.417C196.555 199.001 196.323 197.553 196.159 196.137C195.994 194.721 195.921 193.308 195.734 191.987V191.969C195.721 191.802 195.771 191.636 195.874 191.504C195.976 191.371 196.125 191.282 196.29 191.253C196.455 191.223 196.625 191.257 196.767 191.346C196.908 191.435 197.012 191.574 197.057 191.735H197.055Z" fill="#371A45"/>
<path d="M195.163 157.82C194.835 157.605 194.413 157.504 193.991 157.435C193.564 157.371 193.132 157.335 192.7 157.326C191.827 157.309 190.954 157.352 190.088 157.453C188.366 157.643 186.668 158.009 185.021 158.543C183.404 159.083 181.865 159.794 180.563 160.709C179.26 161.625 178.229 162.75 177.572 164.095L177.556 164.128C177.408 164.403 177.164 164.614 176.871 164.721C176.578 164.829 176.256 164.825 175.966 164.71C175.675 164.596 175.437 164.379 175.296 164.101C175.155 163.822 175.121 163.502 175.2 163.2C175.52 162.19 176.037 161.255 176.723 160.448C177.385 159.662 178.162 158.981 179.028 158.427C180.715 157.319 182.591 156.725 184.445 156.332C186.291 155.964 188.178 155.834 190.058 155.945C190.992 155.998 191.921 156.131 192.833 156.341C193.294 156.446 193.747 156.588 194.186 156.765C194.624 156.947 195.07 157.175 195.416 157.565C195.445 157.598 195.46 157.64 195.46 157.684C195.46 157.727 195.444 157.769 195.416 157.802C195.387 157.835 195.348 157.856 195.305 157.863C195.262 157.869 195.218 157.86 195.182 157.837L195.163 157.82Z" fill="#371A45"/>
<g opacity="0.35">
<path d="M197.418 153.511C191.228 158.15 183.952 161.124 176.285 162.15L176.201 161.454L174.799 149.93C174.799 149.93 181.108 149.348 187.577 150.268C189.109 150.475 190.625 150.785 192.116 151.193C194.078 151.748 195.911 152.498 197.418 153.511Z" fill="#371A45"/>
</g>
<path d="M139.08 137.469L138.601 142.003L137.19 155.353L136.762 159.413L136.256 164.209C134.61 163.646 133.017 163.029 131.475 162.359C98.475 148.064 89.2905 110.932 93.2423 92.2883C95.1923 83.0888 96.4103 81.5633 103.34 80.9093C114.393 79.8638 117.004 82.5315 118.803 94.8443C119.379 98.775 120.114 102.634 121.001 106.326C121.109 106.79 121.226 107.252 121.338 107.71C121.54 108.512 121.751 109.307 121.971 110.091C122.673 112.635 123.454 115.079 124.304 117.392C127.904 127.188 132.771 134.63 138.637 137.279C138.67 137.294 138.703 137.309 138.737 137.321C138.851 137.373 138.965 137.421 139.08 137.469Z" fill="white"/>
<g opacity="0.35">
<path d="M139.08 137.469L138.601 142.003L136.762 159.413L136.256 164.209C134.61 163.646 133.017 163.029 131.475 162.358C101.432 149.345 91.1288 117.403 92.5036 97.7175C97.2818 121.717 109.403 91.0987 106.988 98.9467C106.088 101.872 107.263 105.725 106.777 110.091C105.927 117.728 104.232 126.921 107.813 135.386C111.683 144.532 120.924 150.554 131.475 155.124C133.016 155.793 134.609 156.41 136.256 156.974L136.762 152.179L138.35 137.146C138.592 137.261 138.836 137.37 139.08 137.469Z" fill="#371A45"/>
</g>
<path d="M136.256 165.479C136.115 165.479 135.976 165.456 135.844 165.41C114.709 158.171 103.716 142.906 98.217 131.375C90.7868 115.796 90.1343 100.834 92.001 92.0265C93.951 82.815 95.3108 80.3963 103.22 79.647C114.83 78.5453 118.134 81.4935 120.059 94.6605C123.29 116.762 130.762 132.715 139.559 136.292C139.864 136.424 140.106 136.669 140.232 136.977C140.358 137.284 140.358 137.629 140.233 137.937C140.108 138.244 139.867 138.491 139.563 138.623C139.258 138.755 138.913 138.763 138.603 138.644C127.097 133.964 120.182 113.045 117.548 95.028C115.808 83.1263 113.702 81.2048 103.461 82.1745C97.416 82.7475 96.4208 83.43 94.4865 92.553C90.747 110.191 99.4973 150.275 136.669 163.009C136.953 163.106 137.193 163.302 137.347 163.56C137.5 163.818 137.558 164.122 137.508 164.418C137.459 164.715 137.306 164.984 137.077 165.178C136.848 165.372 136.557 165.479 136.257 165.479H136.256Z" fill="#371A45"/>
<path d="M106.777 144.117C106.547 144.117 106.321 144.046 106.132 143.914C105.943 143.782 105.799 143.595 105.72 143.378C105.641 143.162 105.63 142.926 105.689 142.703C105.748 142.48 105.875 142.28 106.051 142.132C119.482 130.8 123.256 117.433 123.292 117.3C123.37 117.012 123.56 116.767 123.819 116.619C124.078 116.471 124.385 116.431 124.673 116.51C124.961 116.588 125.206 116.778 125.354 117.037C125.502 117.296 125.541 117.603 125.463 117.891C125.308 118.463 121.498 132.04 107.503 143.852C107.3 144.023 107.043 144.117 106.777 144.117Z" fill="#371A45"/>
<path d="M183.15 268.964C170.546 273.172 165.184 252.675 165.184 252.675C154.745 238.928 158.588 219.884 158.588 219.884C151.824 219.148 148.499 218.732 143.583 216.317C139.671 214.394 136.448 210.928 134.133 205.755C133.275 203.806 132.58 201.788 132.056 199.724C129.744 190.829 129.352 178.512 131.477 162.356C131.749 160.288 132.062 158.157 132.418 155.963L132.508 155.761L133.832 152.774L138.6 142.003L138.85 141.439L171.55 136.864L178.507 150.503L181.847 157.047C181.898 158.219 181.988 159.377 182.108 160.523C182.258 161.918 182.449 163.292 182.675 164.655C184.17 173.647 187.13 182.055 187.974 191.328C188.22 193.946 188.268 196.578 188.116 199.203C188.077 199.842 188.04 200.47 188.005 201.087C187.613 207.987 187.42 213.711 187.378 218.531C187.245 233.786 188.662 239.986 190.346 245.641C193.87 257.471 192.707 265.778 183.15 268.964Z" fill="white"/>
<g opacity="0.35">
<path d="M163.517 212.75C164.942 216.612 160.632 216.214 158.366 221.272C158.489 220.38 158.591 219.886 158.591 219.886C151.826 219.15 148.502 218.734 143.585 216.32C139.432 214.279 136.053 210.493 133.714 204.778C134.594 205.797 135.491 206.754 136.469 207.587C146.804 216.399 162.09 208.889 163.517 212.75Z" fill="#371A45"/>
</g>
<g opacity="0.35">
<path d="M183.15 268.963C174.61 271.813 169.396 263.33 166.922 257.563C169.622 260.128 173.857 264.307 178.396 263.737C193.133 261.883 190.45 250.86 186.004 236.988C184.204 231.37 183.514 222.125 183.277 209.646C183.229 207.246 183.343 204.476 183.286 201.55C179.668 201.763 174.752 201.787 168.148 201.378L168.097 202.653C168.035 204.093 167.407 205.45 166.348 206.428C165.29 207.406 163.888 207.926 162.448 207.874L137.212 206.875C136.094 206.833 135.016 206.444 134.129 205.76C133.271 203.811 132.576 201.793 132.052 199.729L132.103 198.436L132.526 187.798C132.585 186.358 133.213 185.001 134.272 184.023C135.331 183.045 136.734 182.526 138.174 182.581L163.406 183.575C163.77 183.588 164.132 183.638 164.485 183.725C165.701 184.027 166.776 184.738 167.53 185.738C168.284 186.739 168.67 187.969 168.624 189.22L168.534 191.524C170.665 191.749 176.232 192.226 182.122 191.927C182.026 191.552 181.917 191.173 181.799 190.797C181.649 190.303 179.533 175.216 179.545 174.706L187.711 188.94C187.813 189.73 187.9 190.528 187.972 191.33C188.219 193.948 188.266 196.58 188.114 199.205C188.075 199.844 188.038 200.472 188.003 201.089C187.611 207.989 187.418 213.713 187.376 218.533C187.243 233.788 188.66 239.988 190.345 245.643C193.87 257.47 192.706 265.777 183.15 268.963Z" fill="#371A45"/>
</g>
<path d="M132.832 156.034C132.584 162.765 131.829 169.37 131.586 176.006C131.436 179.32 131.399 182.633 131.504 185.934C131.609 189.235 131.907 192.526 132.487 195.752C132.637 196.556 132.787 197.362 132.981 198.152C133.151 198.952 133.377 199.733 133.588 200.52C134.038 202.075 134.585 203.6 135.226 205.087C136.534 208.017 138.287 210.747 140.633 212.812C141.805 213.843 143.118 214.702 144.533 215.362C145.976 216.063 147.477 216.638 149.019 217.081C152.09 217.94 155.403 218.245 158.728 218.621L160.093 218.775L159.836 220.134C159.716 220.763 159.616 221.477 159.535 222.159C159.455 222.841 159.385 223.544 159.33 224.24C159.224 225.633 159.172 227.029 159.175 228.428C159.188 231.222 159.4 234.017 159.891 236.753C160.126 238.122 160.433 239.478 160.812 240.814C160.988 241.489 161.216 242.139 161.424 242.799C161.662 243.448 161.883 244.104 162.155 244.738C163.187 247.292 164.547 249.702 166.2 251.906L166.35 252.107L166.417 252.352C166.597 253.008 166.829 253.725 167.066 254.406C167.303 255.087 167.563 255.777 167.842 256.451C168.388 257.796 169.016 259.107 169.724 260.375C170.416 261.626 171.215 262.815 172.112 263.928C173.003 265.021 174.007 265.998 175.127 266.742C176.246 267.486 177.472 267.999 178.751 268.178C180.031 268.358 181.357 268.211 182.639 267.788C183.959 267.375 185.215 266.777 186.368 266.014C186.92 265.632 187.437 265.203 187.914 264.732C188.376 264.256 188.79 263.737 189.152 263.181C190.591 260.94 191.017 258.09 190.882 255.252C190.76 252.398 190.132 249.516 189.335 246.687L188.708 244.512C188.511 243.772 188.302 243.037 188.129 242.287C187.754 240.797 187.474 239.283 187.213 237.77C186.745 234.755 186.441 231.716 186.3 228.668C186.005 222.599 186.095 216.552 186.3 210.518C186.413 207.503 186.547 204.49 186.722 201.482L186.845 199.224L186.916 197.025C186.958 196.294 186.908 195.56 186.899 194.826L186.872 193.727L186.793 192.627C186.41 186.753 185.022 180.946 183.543 175.119C182.797 172.205 182.105 169.246 181.668 166.224C181.554 165.474 181.466 164.711 181.394 163.949C181.323 163.187 181.244 162.429 181.244 161.659C181.228 160.892 181.194 160.129 181.237 159.361C181.28 158.593 181.328 157.827 181.422 157.065C181.434 156.966 181.48 156.874 181.552 156.805C181.624 156.737 181.718 156.695 181.817 156.688C181.917 156.681 182.015 156.709 182.096 156.767C182.177 156.825 182.236 156.909 182.261 157.006L182.267 157.028C182.463 157.766 182.611 158.501 182.76 159.233C182.823 159.599 182.906 159.964 182.992 160.328C183.079 160.691 183.146 161.056 183.224 161.42C183.301 161.783 183.366 162.146 183.449 162.509L183.694 163.596C183.775 163.958 183.844 164.321 183.919 164.684C183.994 165.047 184.086 165.407 184.168 165.77L186.134 174.501C187.426 180.361 188.936 186.297 189.323 192.452L189.406 193.601L189.434 194.756C189.445 195.526 189.495 196.295 189.452 197.066L189.377 199.376L189.253 201.622C189.079 204.617 188.946 207.614 188.834 210.608C188.627 216.596 188.54 222.588 188.831 228.533C188.966 231.494 189.261 234.446 189.714 237.375C189.965 238.826 190.232 240.27 190.591 241.697C190.755 242.414 190.958 243.122 191.147 243.837L191.775 246C192.606 248.951 193.275 251.99 193.416 255.15C193.501 256.755 193.394 258.364 193.096 259.943C192.778 261.542 192.196 263.133 191.289 264.555C190.831 265.261 190.305 265.92 189.719 266.523C189.127 267.11 188.484 267.643 187.799 268.117C186.443 269.019 184.966 269.725 183.413 270.212C181.843 270.73 180.104 270.946 178.402 270.7C176.7 270.454 175.086 269.783 173.71 268.858C172.333 267.933 171.156 266.781 170.148 265.546C169.155 264.318 168.272 263.005 167.507 261.623C166.749 260.266 166.076 258.863 165.491 257.423C165.194 256.708 164.922 255.983 164.666 255.252C164.409 254.521 164.175 253.799 163.958 253.002L164.175 253.448C162.387 251.066 160.916 248.462 159.8 245.7C159.507 245.018 159.269 244.317 159.016 243.623C158.791 242.918 158.55 242.219 158.363 241.505C157.961 240.087 157.634 238.648 157.385 237.196C156.868 234.299 156.644 231.363 156.631 228.435C156.626 226.97 156.681 225.507 156.794 224.045C156.849 223.314 156.921 222.583 157.01 221.853C157.101 221.114 157.197 220.41 157.344 219.633L158.452 221.146C156.785 220.964 155.11 220.784 153.42 220.546C151.73 220.308 150.019 219.998 148.328 219.526C146.647 219.044 145.011 218.419 143.438 217.655C141.812 216.893 140.302 215.904 138.955 214.718C136.255 212.339 134.32 209.286 132.903 206.115C132.216 204.524 131.63 202.891 131.148 201.226C130.678 199.568 130.295 197.891 129.982 196.208C129.345 192.841 129.03 189.441 128.845 186.047C128.66 182.654 128.705 179.258 128.868 175.877C128.954 174.186 129.093 172.502 129.258 170.819C129.35 169.979 129.422 169.138 129.533 168.301L129.873 165.792C130.385 162.456 131.058 159.147 131.996 155.897C132.025 155.797 132.089 155.71 132.177 155.654C132.266 155.598 132.371 155.576 132.475 155.593C132.578 155.609 132.671 155.663 132.737 155.745C132.803 155.826 132.837 155.929 132.832 156.033V156.034Z" fill="#371A45"/>
<path d="M133.5 92.7038L112.441 94.3005L101.818 112.555C99.6885 116.219 94.2825 115.845 92.6685 111.929L84.6435 92.3933L63.996 87.9285C59.8575 87.036 58.542 81.7785 61.7692 79.0395L70.8967 71.2898C70.8967 71.2886 70.8972 71.2874 70.8981 71.2866C70.8989 71.2857 70.9 71.2853 70.9012 71.2853L77.8695 65.3648L75.7342 44.3535C75.3022 40.1423 79.893 37.2645 83.4982 39.4868L101.475 50.5748L120.802 42.0488C124.675 40.341 128.827 43.815 127.828 47.9303L122.84 68.4563L134.4 81.375L136.923 84.1943C139.741 87.3563 137.723 92.3783 133.5 92.7038Z" fill="#FFDA22"/>
<g opacity="0.7">
<path d="M120.802 47.862L101.475 56.388L83.4967 45.3C80.6535 43.548 77.1967 44.97 76.0717 47.7165L75.732 44.3535C75.3 40.1423 79.8907 37.2645 83.496 39.4868L101.475 50.5748L120.802 42.0488C124.675 40.341 128.827 43.815 127.828 47.9303L127.319 50.025C126.101 47.8965 123.388 46.725 120.802 47.862Z" fill="white"/>
</g>
<g opacity="0.35">
<path d="M60.1867 81.0405C60.4436 81.9162 60.9335 82.7056 61.6041 83.3245C62.2748 83.9434 63.101 84.3684 63.9945 84.5542L84.642 89.0182L92.667 108.554C94.278 112.47 99.684 112.843 101.817 109.18L112.439 90.9255L133.5 89.3287C135.789 89.1525 137.428 87.5985 138 85.7092C138.054 85.8839 138.099 86.0614 138.133 86.241C137.956 85.34 137.537 84.504 136.922 83.8222L134.4 81C132.421 84.5355 122.22 83.6917 115.35 82.6755C113.579 82.414 111.771 82.7634 110.225 83.6661C108.678 84.5688 107.485 85.971 106.842 87.642C104.892 92.682 101.887 99.0127 99.0952 99.0127C96.6345 99.0127 93.4402 92.7315 91.3702 87.9675C90.7244 86.4802 89.6333 85.2296 88.2473 84.388C86.8613 83.5463 85.2485 83.1551 83.6309 83.268C79.1527 83.5837 73.1362 83.7022 69.9937 82.4557C65.2042 80.5537 67.7565 75.2062 70.8937 70.9117L61.7662 78.6615C60.8899 79.3947 60.2896 80.4048 60.0645 81.525C60.0975 81.3637 60.1372 81.201 60.1867 81.0405Z" fill="#371A45"/>
</g>
<path d="M97.4086 116.783C97.2503 116.783 97.0913 116.778 96.9316 116.768C95.6645 116.685 94.4462 116.248 93.4164 115.505C92.3866 114.762 91.5871 113.744 91.1093 112.568L83.4181 93.852L63.6406 89.577C62.4012 89.3089 61.2615 88.6994 60.3503 87.8175C59.4391 86.9356 58.7927 85.8165 58.4843 84.5865C58.1758 83.3565 58.2175 82.0648 58.6046 80.8573C58.9918 79.6497 59.7089 78.5746 60.6751 77.7533L76.0981 64.6553L74.0528 44.5245C73.9245 43.2626 74.1518 41.99 74.709 40.8506C75.2662 39.7111 76.1311 38.7503 77.206 38.0768C78.2808 37.4033 79.5226 37.044 80.791 37.0395C82.0594 37.035 83.3037 37.3854 84.3833 38.0513L101.606 48.675L120.119 40.5083C121.28 39.9962 122.56 39.8191 123.816 39.997C125.072 40.1748 126.253 40.7005 127.226 41.5146C128.199 42.3288 128.924 43.3988 129.32 44.6038C129.717 45.8087 129.768 47.1005 129.468 48.333L124.69 67.995L138.179 83.0783C139.024 84.0238 139.588 85.1871 139.807 86.4364C140.025 87.6857 139.89 88.9714 139.417 90.1479C138.943 91.3245 138.15 92.3451 137.126 93.0943C136.103 93.8435 134.89 94.2915 133.625 94.3875L113.45 95.919L103.275 113.405C102.681 114.434 101.826 115.289 100.796 115.883C99.7659 116.476 98.5974 116.787 97.4086 116.783ZM80.8148 40.4025C80.1709 40.4057 79.5409 40.5908 78.9976 40.9365C78.4511 41.2702 78.0114 41.7531 77.7303 42.3283C77.4491 42.9035 77.3382 43.5471 77.4106 44.1833L79.6358 66.0795L62.8606 80.325C62.3739 80.7385 62.0126 81.2798 61.8175 81.8879C61.6224 82.496 61.6013 83.1465 61.7566 83.7659C61.9118 84.3854 62.2373 84.949 62.6961 85.3932C63.155 85.8373 63.7289 86.1442 64.3531 86.2793L85.8653 90.9293L94.2308 111.287C94.4736 111.877 94.8768 112.388 95.3948 112.762C95.9129 113.135 96.5251 113.357 97.1623 113.4C97.7995 113.444 98.4362 113.309 99.0005 113.01C99.5648 112.71 100.034 112.259 100.355 111.707L111.425 92.6843L133.37 91.0185C134.007 90.9702 134.618 90.7447 135.133 90.3675C135.648 89.9903 136.048 89.4764 136.286 88.884C136.525 88.2915 136.593 87.6442 136.482 87.0152C136.372 86.3861 136.088 85.8005 135.662 85.3245L120.992 68.9183L126.189 47.532C126.34 46.9114 126.314 46.261 126.114 45.6543C125.915 45.0477 125.549 44.5089 125.06 44.0991C124.57 43.6892 123.975 43.4245 123.343 43.3349C122.71 43.2454 122.066 43.3345 121.481 43.5923L101.345 52.476L82.6118 40.926C82.0733 40.5875 81.4509 40.4062 80.8148 40.4025Z" fill="#371A45"/>
<path d="M119.53 100.807C118.284 91.7085 113.072 89.3175 105.476 89.4727C103.857 89.5057 102.646 90.3945 103.607 94.3575C104.192 96.7732 108.464 97.5075 108.464 97.5075C108.464 97.5075 106.214 101.214 106.95 108.431" fill="white"/>
<path d="M106.95 109.697C106.636 109.697 106.333 109.58 106.1 109.369C105.867 109.158 105.72 108.868 105.689 108.556C105.185 103.597 106.028 100.174 106.695 98.3602C105.12 97.8465 102.884 96.7612 102.374 94.6567C101.774 92.1772 101.887 90.5122 102.731 89.415C103.331 88.6357 104.247 88.2277 105.452 88.203C111.779 88.0777 119.247 89.37 120.789 100.636C120.827 100.966 120.735 101.297 120.531 101.56C120.327 101.822 120.029 101.995 119.7 102.04C119.371 102.085 119.037 101.999 118.771 101.801C118.504 101.603 118.325 101.308 118.274 100.98C117.255 93.543 113.549 90.5692 105.503 90.7417C105.107 90.75 104.851 90.825 104.743 90.9667C104.627 91.1167 104.293 91.7865 104.842 94.0612C105.133 95.2612 107.599 96.0705 108.679 96.255C108.883 96.2899 109.075 96.3742 109.239 96.5004C109.403 96.6267 109.534 96.7911 109.62 96.9793C109.705 97.1675 109.744 97.3739 109.732 97.5805C109.72 97.787 109.658 97.9875 109.55 98.1645C109.535 98.1915 107.54 101.668 108.215 108.301C108.231 108.467 108.216 108.635 108.168 108.794C108.12 108.954 108.041 109.103 107.936 109.232C107.83 109.361 107.701 109.468 107.554 109.547C107.407 109.626 107.246 109.676 107.081 109.693C107.037 109.696 106.994 109.698 106.95 109.697Z" fill="#371A45"/>
<path d="M167.818 233.764C161.114 233.764 157.685 232.052 157.445 231.927C157.186 231.786 156.993 231.55 156.907 231.269C156.821 230.988 156.848 230.684 156.983 230.423C157.118 230.162 157.35 229.964 157.629 229.871C157.908 229.779 158.212 229.799 158.477 229.928C158.594 229.988 168.17 234.637 187.171 227.562C187.31 227.508 187.458 227.482 187.607 227.486C187.756 227.489 187.903 227.523 188.039 227.584C188.176 227.645 188.298 227.732 188.4 227.841C188.502 227.95 188.582 228.078 188.634 228.217C188.686 228.357 188.709 228.506 188.704 228.655C188.698 228.804 188.662 228.951 188.599 229.086C188.536 229.221 188.447 229.342 188.336 229.443C188.226 229.543 188.097 229.62 187.956 229.67C179.45 232.838 172.748 233.764 167.818 233.764Z" fill="#371A45"/>
<g opacity="0.35">
<path d="M121.338 107.71C121.54 108.511 121.75 109.307 121.971 110.091C121.501 108.816 121.114 107.562 121 106.326C121.108 106.79 121.223 107.25 121.338 107.71Z" fill="#371A45"/>
</g>
<path d="M166.173 251.762C166.2 251.805 166.23 251.846 166.264 251.884C166.3 251.935 166.36 251.99 166.406 252.044C166.5 252.155 166.621 252.257 166.732 252.364C166.847 252.472 166.969 252.574 167.095 252.669C167.217 252.773 167.347 252.868 167.484 252.953C168.009 253.333 168.618 253.615 169.24 253.873C170.498 254.365 171.898 254.569 173.316 254.578C174.741 254.62 176.175 254.353 177.607 254.064C178.308 253.862 179.019 253.672 179.723 253.453L181.8 252.675L179.842 253.743C179.167 254.062 178.483 254.358 177.796 254.666C176.386 255.173 174.936 255.664 173.398 255.841C171.873 256.051 170.272 256.06 168.693 255.691C167.909 255.495 167.118 255.256 166.377 254.875C166.185 254.789 165.999 254.691 165.82 254.581C165.64 254.471 165.452 254.374 165.278 254.245C165.104 254.116 164.923 254.005 164.753 253.858C164.665 253.783 164.581 253.724 164.491 253.639C164.39 253.551 164.294 253.456 164.203 253.357C163.998 253.095 163.905 252.763 163.943 252.433C163.98 252.102 164.146 251.8 164.404 251.591C164.662 251.381 164.992 251.281 165.323 251.312C165.654 251.343 165.959 251.503 166.174 251.756L166.173 251.762Z" fill="#371A45"/>
<path d="M145.58 247.976C145.762 248.077 146.019 248.201 146.255 248.301C146.492 248.401 146.744 248.506 146.994 248.601C147.245 248.695 147.499 248.778 147.753 248.868L148.528 249.099C149.577 249.384 150.653 249.565 151.738 249.639C152.285 249.689 152.831 249.672 153.383 249.667C153.658 249.655 153.931 249.622 154.208 249.6L154.622 249.562L155.031 249.487C156.137 249.337 157.198 248.962 158.256 248.55C157.29 249.13 156.275 249.69 155.17 250.03L154.76 250.175L154.341 250.285C154.06 250.355 153.779 250.435 153.494 250.498C152.923 250.599 152.346 250.712 151.763 250.756C150.589 250.87 149.407 250.868 148.233 250.75L147.35 250.639C147.057 250.588 146.761 250.548 146.468 250.486C146.176 250.423 145.881 250.364 145.588 250.288C145.295 250.213 145.015 250.138 144.676 250.021C144.533 249.975 144.4 249.902 144.286 249.804C144.172 249.707 144.078 249.587 144.011 249.453C143.943 249.319 143.903 249.172 143.894 249.023C143.884 248.873 143.904 248.722 143.953 248.58C144.002 248.438 144.079 248.308 144.18 248.196C144.28 248.084 144.402 247.994 144.538 247.93C144.674 247.866 144.821 247.83 144.971 247.824C145.121 247.818 145.271 247.842 145.412 247.895C145.47 247.918 145.526 247.945 145.58 247.976Z" fill="#371A45"/>
<path d="M133.529 194.768C135.769 193.452 136.517 190.57 135.201 188.331C133.885 186.091 131.003 185.342 128.764 186.658C126.524 187.974 125.776 190.857 127.092 193.096C128.408 195.336 131.29 196.084 133.529 194.768Z" fill="white"/>
<g opacity="0.35">
<path d="M126.442 190.733C126.446 191.981 126.945 193.175 127.83 194.055C128.714 194.934 129.912 195.426 131.16 195.422C132.407 195.418 133.602 194.919 134.481 194.034C135.36 193.149 135.852 191.951 135.848 190.704C135.848 190.008 135.691 189.322 135.39 188.695C135.011 189.501 134.412 190.183 133.661 190.662C132.909 191.14 132.038 191.396 131.147 191.399C130.257 191.402 129.383 191.151 128.629 190.677C127.875 190.203 127.272 189.525 126.888 188.721C126.591 189.35 126.438 190.038 126.442 190.733Z" fill="#371A45"/>
</g>
<path d="M131.143 196.547C129.602 196.545 128.123 195.933 127.031 194.845C125.939 193.756 125.323 192.28 125.316 190.738C125.313 189.972 125.461 189.213 125.752 188.505C126.042 187.797 126.469 187.152 127.009 186.609C127.548 186.066 128.189 185.634 128.896 185.339C129.602 185.044 130.36 184.89 131.125 184.888H131.145C132.679 184.903 134.146 185.522 135.226 186.612C136.307 187.701 136.914 189.173 136.916 190.707C136.919 192.241 136.316 193.715 135.238 194.808C134.161 195.9 132.696 196.524 131.162 196.544L131.143 196.547ZM127.566 190.73C127.568 191.437 127.78 192.128 128.174 192.715C128.569 193.301 129.128 193.758 129.782 194.027C130.436 194.296 131.155 194.366 131.848 194.226C132.541 194.087 133.178 193.746 133.677 193.245C134.176 192.744 134.516 192.107 134.653 191.413C134.79 190.72 134.719 190.001 134.448 189.348C134.177 188.695 133.718 188.137 133.13 187.744C132.542 187.351 131.851 187.142 131.144 187.142H131.133C130.184 187.144 129.275 187.524 128.606 188.197C127.937 188.87 127.563 189.781 127.566 190.73Z" fill="#371A45"/>
<path d="M136.083 202.371L160.908 203.77C162.325 203.845 163.714 203.357 164.771 202.412C165.829 201.467 166.47 200.141 166.554 198.725L167.297 185.515C167.362 184.285 167.002 183.069 166.277 182.072C165.552 181.075 164.507 180.358 163.315 180.04C162.968 179.948 162.612 179.891 162.253 179.872L137.434 178.473C136.017 178.396 134.627 178.884 133.569 179.829C132.511 180.775 131.87 182.101 131.788 183.517L131.196 193.979L131.04 196.727C130.965 198.143 131.453 199.531 132.398 200.589C133.343 201.646 134.668 202.287 136.083 202.371Z" fill="white"/>
<path d="M194.325 191.456C194.215 195.113 190.595 196.52 190.595 196.52C190.595 196.52 185.588 199.136 164.896 197.329C164.896 197.329 159.027 191.359 166.268 187.666C166.268 187.666 180.683 189.749 190.263 187.108C191.994 186.632 194.427 188.188 194.325 191.456Z" fill="white"/>
<path d="M136.083 202.371L160.908 203.77C162.325 203.845 163.714 203.357 164.771 202.412C165.829 201.467 166.47 200.141 166.554 198.725L167.297 185.515C167.362 184.285 167.002 183.069 166.277 182.072C165.552 181.075 164.507 180.358 163.315 180.04C162.968 179.948 162.612 179.891 162.253 179.872L137.434 178.473C136.017 178.396 134.627 178.884 133.569 179.829C132.511 180.775 131.87 182.101 131.788 183.517L131.196 193.979L131.04 196.727C130.965 198.143 131.453 199.531 132.398 200.589C133.343 201.646 134.668 202.287 136.083 202.371Z" fill="white"/>
<g opacity="0.35">
<path d="M136.083 202.371L160.908 203.77C162.325 203.845 163.713 203.357 164.771 202.412C165.829 201.467 166.47 200.141 166.554 198.725L167.297 185.516C167.362 184.285 167.002 183.069 166.277 182.072C165.552 181.075 164.507 180.358 163.315 180.041C161.853 180.897 160.924 181.445 160.924 181.445C159.118 191.981 155.8 197.098 142.624 196.571C136.935 196.343 133.399 195.273 131.198 193.979L131.042 196.727C130.967 198.143 131.455 199.531 132.4 200.588C133.344 201.645 134.668 202.286 136.083 202.371Z" fill="#371A45"/>
</g>
<path d="M161.211 204.905C161.088 204.905 160.965 204.904 160.841 204.894L136.016 203.494C134.302 203.394 132.698 202.619 131.554 201.338C130.41 200.058 129.82 198.376 129.913 196.662L130.658 183.45C130.756 181.735 131.531 180.13 132.812 178.985C134.093 177.841 135.775 177.252 137.49 177.347L162.315 178.746C164.029 178.847 165.633 179.622 166.777 180.903C167.921 182.183 168.511 183.864 168.419 185.578L167.674 198.79C167.576 200.441 166.854 201.991 165.653 203.127C164.452 204.263 162.863 204.899 161.21 204.905H161.211ZM137.127 179.586C136.048 179.588 135.01 180.002 134.225 180.744C133.441 181.486 132.97 182.499 132.908 183.577L132.163 196.789C132.104 197.907 132.49 199.004 133.236 199.839C133.983 200.674 135.029 201.181 136.147 201.248L160.968 202.65C162.087 202.709 163.183 202.323 164.019 201.577C164.854 200.831 165.361 199.784 165.428 198.666L166.173 185.454C166.232 184.335 165.846 183.239 165.1 182.404C164.353 181.568 163.307 181.062 162.189 180.994L137.364 179.595C137.287 179.588 137.207 179.586 137.127 179.586Z" fill="#371A45"/>
<path d="M135.092 202.217C135.416 202.303 135.748 202.355 136.083 202.371L160.908 203.77C161.934 203.825 162.955 203.584 163.849 203.075C164.742 202.567 165.471 201.813 165.948 200.903C166.302 200.229 166.507 199.487 166.548 198.728L166.881 192.859L166.991 190.923L167.295 185.518C167.371 184.101 166.883 182.712 165.938 181.655C164.993 180.597 163.667 179.956 162.251 179.872L156.887 179.572C158.096 179.874 159.163 180.587 159.904 181.589C160.645 182.591 161.014 183.82 160.948 185.064L160.548 192.2L160.205 198.275C160.12 199.69 159.479 201.015 158.421 201.96C157.363 202.905 155.975 203.393 154.559 203.318L135.092 202.217Z" fill="white"/>
<g opacity="0.35">
<path d="M135.092 202.217C135.416 202.303 135.748 202.354 136.083 202.371L160.908 203.77C162.324 203.846 163.713 203.358 164.771 202.412C165.828 201.467 166.468 200.141 166.55 198.725L166.993 190.921C166.291 192.265 165.074 193.894 163.269 193.971C162.279 194.015 161.35 193.252 160.55 192.197L160.207 198.272C160.122 199.687 159.481 201.012 158.423 201.957C157.366 202.902 155.977 203.39 154.561 203.315L135.092 202.217Z" fill="#371A45"/>
</g>
<path d="M161.215 204.904C161.091 204.904 160.967 204.904 160.84 204.894L136.015 203.494C135.606 203.473 135.2 203.41 134.803 203.307L135.15 201.095L154.618 202.194C155.737 202.253 156.833 201.868 157.668 201.121C158.503 200.375 159.009 199.329 159.076 198.211L159.82 184.999C159.875 184.015 159.584 183.044 158.999 182.251C158.413 181.459 157.57 180.896 156.614 180.658L156.948 178.444L162.31 178.744C164.025 178.842 165.631 179.617 166.775 180.899C167.919 182.18 168.508 183.863 168.413 185.578L167.669 198.789C167.573 200.439 166.851 201.99 165.651 203.126C164.451 204.262 162.863 204.898 161.21 204.904L161.215 204.904ZM159.425 202.56L160.969 202.647C162.088 202.706 163.184 202.32 164.019 201.574C164.855 200.828 165.361 199.782 165.427 198.664L166.171 185.452C166.23 184.334 165.845 183.237 165.098 182.401C164.352 181.566 163.306 181.059 162.187 180.991L160.812 180.916C161.711 182.13 162.157 183.62 162.071 185.128L161.325 198.337C161.239 199.932 160.562 201.438 159.425 202.56Z" fill="#371A45"/>
<path d="M149.658 190.473C149.633 190.962 150.121 194.942 150.121 194.942L152.905 195.083C154.822 195.179 156.476 193.273 156.6 190.825C156.724 188.377 155.27 186.313 153.353 186.215L150.569 186.075C150.569 186.075 149.7 189.675 149.658 190.473Z" fill="#22A7F0"/>
<g opacity="0.35">
<path d="M149.658 190.473C149.633 190.962 150.121 194.942 150.121 194.942L152.905 195.083C154.822 195.179 156.476 193.273 156.6 190.825C156.724 188.377 155.27 186.313 153.353 186.215L150.569 186.075C150.569 186.075 149.7 189.675 149.658 190.473Z" fill="#371A45"/>
</g>
<path d="M153.043 195.836C152.984 195.836 152.926 195.836 152.866 195.836L149.452 195.662L149.377 195.036C149.261 194.087 148.885 190.953 148.91 190.439C148.953 189.597 149.751 186.278 149.842 185.902L149.992 185.302L153.397 185.474C154.559 185.533 155.611 186.149 156.361 187.214C157.07 188.221 157.423 189.519 157.354 190.87C157.208 193.65 155.294 195.836 153.043 195.836ZM150.793 194.225L152.947 194.333C154.451 194.408 155.752 192.818 155.854 190.787C155.906 189.77 155.65 188.804 155.133 188.07C154.655 187.395 154.008 187 153.319 186.965L151.158 186.855C150.837 188.224 150.435 190.049 150.408 190.509C150.4 190.784 150.585 192.512 150.789 194.225H150.793Z" fill="#371A45"/>
<path d="M153.823 190.694C153.947 188.245 152.494 186.181 150.577 186.084C148.66 185.987 147.005 187.893 146.881 190.342C146.757 192.791 148.211 194.854 150.128 194.951C152.045 195.049 153.699 193.142 153.823 190.694Z" fill="#22A7F0"/>
<g opacity="0.35">
<path d="M150.122 194.941C152.037 195.038 153.691 193.132 153.816 190.684C153.845 190.144 153.794 189.603 153.666 189.077C153.211 191.022 151.757 192.411 150.115 192.329C148.637 192.254 147.435 191.012 147.019 189.329C146.941 189.658 146.893 189.995 146.876 190.334C146.75 192.782 148.205 194.843 150.122 194.941Z" fill="#371A45"/>
</g>
<g opacity="0.7">
<path d="M146.935 191.488C147.251 189.304 148.8 187.679 150.575 187.769C152.179 187.849 153.461 189.311 153.762 191.225C153.788 191.05 153.806 190.867 153.816 190.684C153.941 188.236 152.486 186.172 150.569 186.074C148.652 185.977 146.998 187.883 146.876 190.331C146.855 190.718 146.874 191.105 146.935 191.488Z" fill="white"/>
</g>
<path d="M150.264 195.695C150.203 195.695 150.143 195.695 150.083 195.691C148.921 195.631 147.868 195.016 147.119 193.951C146.41 192.943 146.057 191.645 146.125 190.294C146.27 187.437 148.277 185.205 150.608 185.326C151.77 185.384 152.822 186.001 153.572 187.066C154.28 188.072 154.634 189.37 154.565 190.721C154.497 192.072 154.015 193.328 153.207 194.259C152.399 195.19 151.36 195.695 150.264 195.695ZM150.428 186.821C148.971 186.821 147.724 188.386 147.623 190.37C147.572 191.388 147.828 192.352 148.345 193.087C148.823 193.762 149.47 194.157 150.158 194.192C150.847 194.227 151.531 193.902 152.075 193.276C152.663 192.597 153.016 191.663 153.067 190.645C153.118 189.628 152.862 188.663 152.345 187.929C151.868 187.254 151.22 186.859 150.532 186.823C150.497 186.824 150.463 186.825 150.428 186.825V186.821Z" fill="#371A45"/>
<path d="M143.806 203.648H143.775C143.652 203.644 143.531 203.615 143.419 203.565C143.307 203.514 143.206 203.441 143.121 203.352C143.037 203.262 142.972 203.156 142.928 203.041C142.885 202.926 142.865 202.803 142.869 202.68L143.078 196.268C143.131 194.738 142.586 193.246 141.558 192.111L141.233 191.75C140.541 190.979 140.008 190.078 139.667 189.099C139.325 188.121 139.181 187.085 139.242 186.05L139.703 178.601C139.718 178.353 139.831 178.12 140.018 177.955C140.205 177.79 140.449 177.706 140.698 177.722C140.946 177.737 141.179 177.85 141.344 178.037C141.509 178.224 141.593 178.468 141.578 178.717L141.117 186.166C141.07 186.951 141.18 187.739 141.44 188.482C141.699 189.225 142.103 189.909 142.629 190.495L142.955 190.855C144.308 192.351 145.026 194.315 144.956 196.33L144.746 202.741C144.738 202.985 144.635 203.216 144.46 203.385C144.284 203.554 144.05 203.648 143.806 203.648Z" fill="#371A45"/>
<path d="M194.325 191.456C194.215 195.113 190.595 196.52 190.595 196.52C190.595 196.52 185.588 199.136 164.896 197.329C164.896 197.329 159.027 191.359 166.268 187.666C166.268 187.666 180.683 189.749 190.263 187.108C191.994 186.632 194.427 188.188 194.325 191.456Z" fill="white"/>
<g opacity="0.35">
<path d="M194.325 191.455C194.217 195.112 190.597 196.52 190.597 196.52C190.597 196.52 185.589 199.136 164.896 197.328C164.896 197.328 161.575 193.948 163.014 190.703C163.02 190.72 163.027 190.738 163.033 190.755C163.708 192.526 165.372 193.731 167.262 193.873C185.965 195.283 190.587 192.869 190.587 192.869C190.587 192.869 193.121 191.884 194.012 189.419C194.25 190.071 194.356 190.763 194.325 191.455Z" fill="#371A45"/>
</g>
<path d="M177.847 199.085C174.388 199.085 170.098 198.912 164.797 198.449L164.384 198.413L164.093 198.113C163.969 197.987 161.041 194.963 161.596 191.545C161.921 189.546 163.321 187.902 165.757 186.66L166.075 186.497L166.429 186.548C166.571 186.569 180.727 188.566 189.964 186.019C191.119 185.701 192.433 186.002 193.478 186.824C194.79 187.853 195.508 189.553 195.45 191.485C195.324 195.651 191.527 197.349 191.046 197.547C190.534 197.789 187.297 199.085 177.847 199.085ZM165.444 196.247C184.896 197.903 190.044 195.539 190.093 195.515L190.19 195.471C190.305 195.425 193.115 194.271 193.204 191.421C193.254 189.763 192.529 188.939 192.091 188.596C191.611 188.221 191.027 188.064 190.565 188.191C181.612 190.66 168.848 189.144 166.477 188.829C164.902 189.695 164.011 190.73 163.82 191.909C163.528 193.706 164.864 195.547 165.444 196.247Z" fill="#371A45"/>
<path d="M205.077 219.421C204.173 219.904 203.073 220.286 202.051 220.419C198.747 220.847 196.134 219.855 196.134 219.855C196.134 219.855 195.004 220.561 193.876 220.636C190.301 220.877 188.375 220.105 187.381 218.536C185.243 215.169 187.357 208.106 186.576 199.368C185.364 185.846 179.543 173.828 179.543 173.828L179.2 166.045L179.007 161.732L178.51 150.51L178.398 147.975C178.398 147.975 183.123 151.031 189.002 156.84C189.825 157.654 190.666 158.521 191.525 159.441C199.621 168.141 208.85 181.578 210.928 199.072C212.4 211.463 209.463 217.079 205.077 219.421Z" fill="white"/>
<g opacity="0.35">
<path d="M209.653 214.399C208.54 216.844 206.94 218.426 205.078 219.424C204.174 219.907 203.074 220.289 202.051 220.422C198.748 220.85 196.135 219.858 196.135 219.858C196.135 219.858 195.004 220.564 193.877 220.639C190.302 220.88 188.376 220.108 187.381 218.539C185.244 215.172 187.357 208.109 186.577 199.371C185.557 188.016 181.292 177.722 179.951 174.714C184.493 179.977 188.526 183.692 189.731 194.969C190.664 203.692 188.981 210.653 191.119 214.019C192.114 215.594 194.044 216.364 197.614 216.124C198.739 216.049 199.873 215.343 199.873 215.343C199.873 215.343 202.486 216.334 205.789 215.906C206.811 215.774 207.911 215.391 208.816 214.909C209.103 214.754 209.383 214.584 209.653 214.399Z" fill="#371A45"/>
</g>
<path d="M178.629 147.617C182.395 149.175 185.495 151.729 188.435 154.398C191.345 157.111 193.978 160.107 196.468 163.204C198.979 166.294 201.253 169.571 203.268 173.005C205.293 176.443 207.026 180.046 208.448 183.775C209.87 187.511 210.94 191.373 211.643 195.309C211.985 197.279 212.249 199.261 212.423 201.254C212.565 203.254 212.628 205.271 212.513 207.304C212.384 209.336 212.072 211.391 211.41 213.398C211.217 213.893 211.048 214.396 210.821 214.881C210.595 215.366 210.371 215.856 210.071 216.311C209.514 217.258 208.821 218.119 208.015 218.866C206.387 220.373 204.355 221.407 202.09 221.692C201.025 221.818 199.949 221.827 198.881 221.719C198.35 221.669 197.821 221.589 197.298 221.481C197.036 221.427 196.773 221.365 196.512 221.297C196.251 221.228 196.008 221.157 195.687 221.041L196.812 220.93C196.62 221.047 196.491 221.115 196.331 221.197C196.17 221.278 196.022 221.347 195.863 221.413C195.537 221.554 195.2 221.669 194.855 221.758C194.671 221.804 194.484 221.841 194.296 221.868C194.199 221.882 194.097 221.89 193.996 221.9L193.758 221.912C193.449 221.924 193.142 221.941 192.831 221.947C191.59 221.956 190.276 221.863 188.936 221.339C188.603 221.224 188.277 221.03 187.955 220.851C187.646 220.632 187.329 220.42 187.066 220.137C186.533 219.611 186.115 218.979 185.84 218.282C185.586 217.652 185.409 216.994 185.315 216.321C185.221 215.698 185.164 215.07 185.145 214.44C185.081 211.994 185.299 209.692 185.396 207.4C185.509 205.111 185.541 202.847 185.402 200.601C185.336 199.483 185.188 198.351 185.069 197.226C185 196.663 184.904 196.101 184.823 195.541C184.742 194.982 184.655 194.416 184.543 193.861C184.157 191.622 183.618 189.405 183.026 187.204C182.435 185.004 181.595 182.874 180.899 180.704C180.188 178.536 179.507 176.361 179.17 174.006V173.99C179.162 173.932 179.165 173.874 179.179 173.818C179.194 173.762 179.219 173.709 179.254 173.663C179.289 173.617 179.333 173.578 179.382 173.549C179.432 173.519 179.487 173.5 179.545 173.492C179.617 173.482 179.691 173.49 179.759 173.516C179.827 173.541 179.889 173.583 179.937 173.637C181.556 175.477 182.582 177.612 183.433 179.797C184.284 181.983 184.871 184.269 185.485 186.534C186.085 188.804 186.648 191.088 187.047 193.411C187.163 193.988 187.253 194.57 187.337 195.154C187.422 195.737 187.521 196.318 187.592 196.904C187.718 198.079 187.87 199.246 187.942 200.44C188.092 202.814 188.052 205.184 187.937 207.518C187.835 209.848 187.627 212.168 187.688 214.35C187.733 215.425 187.848 216.49 188.193 217.306C188.338 217.691 188.566 218.04 188.859 218.329C188.986 218.479 189.159 218.578 189.318 218.704C189.506 218.797 189.673 218.914 189.89 218.982C190.71 219.311 191.751 219.424 192.815 219.408L193.622 219.377L193.817 219.368L193.949 219.354C194.042 219.34 194.14 219.321 194.241 219.295C194.457 219.239 194.668 219.167 194.873 219.078C194.981 219.033 195.088 218.982 195.193 218.928C195.298 218.874 195.418 218.809 195.472 218.778L196.006 218.455L196.596 218.668C196.735 218.717 196.971 218.789 197.174 218.843C197.386 218.898 197.6 218.95 197.818 218.993C198.254 219.084 198.695 219.15 199.139 219.192C200.022 219.281 200.912 219.274 201.794 219.169C202.601 219.081 203.43 218.812 204.194 218.449C204.944 218.058 205.685 217.602 206.294 217.005C206.926 216.419 207.469 215.743 207.904 214.999C208.146 214.637 208.322 214.227 208.519 213.833C208.716 213.438 208.848 213.001 209.015 212.586C209.581 210.869 209.872 209.021 209.99 207.146C210.095 205.267 210.038 203.362 209.902 201.456C209.736 199.546 209.481 197.644 209.152 195.756C208.476 191.975 207.448 188.265 206.081 184.675C204.71 181.08 203.039 177.607 201.086 174.292C199.136 170.966 196.934 167.794 194.499 164.803C193.284 163.303 191.998 161.864 190.674 160.465C189.35 159.065 187.961 157.722 186.575 156.382C185.188 155.041 183.769 153.735 182.355 152.417C180.941 151.099 179.54 149.748 178.181 148.329L178.166 148.313C178.097 148.242 178.056 148.149 178.047 148.051C178.039 147.953 178.065 147.855 178.121 147.773C178.177 147.692 178.259 147.632 178.353 147.604C178.448 147.576 178.549 147.581 178.64 147.619L178.629 147.617Z" fill="#371A45"/>
<path d="M184.275 188.088C184.026 188.088 183.784 188.006 183.587 187.854C183.39 187.702 183.249 187.489 183.185 187.248C183.122 187.007 183.141 186.753 183.238 186.523C183.335 186.294 183.506 186.104 183.723 185.982C184.389 185.607 200.117 176.878 207.112 181.35C207.236 181.43 207.344 181.533 207.428 181.654C207.513 181.775 207.573 181.912 207.605 182.056C207.636 182.2 207.639 182.35 207.613 182.495C207.588 182.641 207.533 182.779 207.454 182.904C207.374 183.028 207.271 183.136 207.15 183.221C207.029 183.305 206.892 183.365 206.748 183.397C206.603 183.429 206.454 183.432 206.309 183.406C206.163 183.38 206.024 183.326 205.9 183.246C201.032 180.134 189.036 185.582 184.825 187.944C184.657 188.038 184.468 188.088 184.275 188.088Z" fill="#371A45"/>
<g opacity="0.35">
<path d="M189 156.836C186.986 158.148 184.871 159.3 182.676 160.281C182.489 160.366 182.301 160.447 182.109 160.526C181.154 160.939 180.183 161.318 179.198 161.665C179.135 161.686 179.068 161.71 179.005 161.729C172.039 164.126 164.595 164.799 157.312 163.689C150.028 162.578 143.123 159.718 137.188 155.354C137.043 155.252 136.901 155.146 136.76 155.037C135.777 154.296 134.743 153.59 133.827 152.777C133.343 152.356 132.9 151.891 132.503 151.387C124.374 140.903 124.374 131.384 124.374 118.565C124.373 118.173 124.348 117.781 124.299 117.392C127.899 127.189 132.766 134.63 138.632 137.28L138.6 137.625L138.736 137.321C138.85 137.372 138.961 137.42 139.079 137.471L138.6 142.004L138.85 141.44L171.55 136.865L178.507 150.505L178.395 147.97C178.395 147.97 183.125 151.028 189 156.836Z" fill="#371A45"/>
</g>
<path d="M122.649 112.683C130.52 174.779 217.127 166.929 216.028 106.659C209.48 42.9 119.963 51.1012 122.649 112.683Z" fill="white"/>
<path d="M122.649 112.683C130.52 174.779 217.127 166.929 216.028 106.659C209.48 42.9 119.963 51.1012 122.649 112.683Z" fill="white"/>
<path d="M122.649 112.683C130.52 174.779 217.127 166.929 216.028 106.659C209.48 42.9 119.963 51.1012 122.649 112.683Z" fill="white"/>
<path d="M168.851 156.75C158.215 156.75 148.08 153.406 139.98 147.165C129.821 139.336 123.47 127.458 121.613 112.815L121.606 112.729C120.967 98.079 125.431 85.3732 134.518 75.9855C142.625 67.6087 153.816 62.5042 166.031 61.611C178.222 60.7185 189.943 64.161 199.036 71.2965C209.289 79.3432 215.524 91.5352 217.067 106.553L217.072 106.641C217.334 121 212.698 133.427 203.666 142.58C195.587 150.766 184.534 155.752 172.541 156.618C171.306 156.706 170.076 156.75 168.851 156.75ZM123.691 112.592C127.653 143.711 150.997 156.079 172.39 154.533C193.287 153.022 215.522 137.416 214.984 106.72C211.699 74.9482 187.384 62.1435 166.184 63.6915C144.768 65.259 122.342 81.225 123.691 112.594V112.592Z" fill="#371A45"/>
<g opacity="0.35">
<path d="M122.65 112.682C128.514 166.434 200.786 170.745 214.64 120.656C205.143 134.693 199.598 133.005 188.153 137.273C152.303 152.021 121.671 116.348 130.217 83.3475C124.414 92.1383 121.875 102.5 122.65 112.682Z" fill="#371A45"/>
</g>
<path d="M168.85 157.171C158.125 157.171 147.897 153.796 139.724 147.496C129.473 139.598 123.067 127.621 121.199 112.864L121.188 112.744C120.544 97.9755 125.049 85.1625 134.218 75.6892C142.393 67.2382 153.685 62.0887 166.003 61.188C178.297 60.288 190.122 63.7605 199.298 70.962C209.642 79.0807 215.933 91.3725 217.487 106.507L217.494 106.629C217.758 121.104 213.08 133.636 203.967 142.871C195.818 151.13 184.668 156.16 172.573 157.034C171.324 157.126 170.083 157.172 168.85 157.171ZM124.11 112.558C128.046 143.388 151.171 155.647 172.359 154.115C193.059 152.619 215.089 137.158 214.564 106.747C211.301 75.267 187.224 62.5792 166.214 64.113C145 65.6632 122.786 81.4867 124.11 112.558Z" fill="#293856"/>
<path d="M168.85 157.171C158.125 157.171 147.897 153.796 139.724 147.496C129.473 139.598 123.067 127.621 121.199 112.864L121.188 112.744C120.544 97.9755 125.049 85.1625 134.218 75.6892C142.393 67.2382 153.685 62.0887 166.003 61.188C178.297 60.288 190.122 63.7605 199.298 70.962C209.642 79.0807 215.933 91.3725 217.487 106.507L217.494 106.629C217.758 121.104 213.08 133.636 203.967 142.871C195.818 151.13 184.668 156.16 172.573 157.034C171.324 157.126 170.083 157.172 168.85 157.171ZM124.11 112.558C128.046 143.388 151.171 155.647 172.359 154.115C193.059 152.619 215.089 137.158 214.564 106.747C211.301 75.267 187.224 62.5792 166.214 64.113C145 65.6632 122.786 81.4867 124.11 112.558Z" fill="#371A45"/>
<path d="M125.087 124.425C154.75 170.687 215.51 139.5 197.903 94.7182C175.134 45.7575 109.166 70.8337 125.087 124.425Z" fill="#371A45"/>
<path d="M128.462 89.667C105.887 133.912 167.435 169.622 194.71 132.559C162.344 146.166 129.513 117.122 128.462 89.667Z" fill="#21102B"/>
<path d="M163.12 153.52H162.923C152.716 153.476 143.093 149.915 135.827 143.492C127.646 136.262 122.638 125.654 121.343 112.817V112.808C120.322 101.845 123.701 90.0923 130.614 80.5635C137.934 70.473 148.351 63.921 159.945 62.1135L160.056 62.0963H160.168C172.834 62.289 185.336 68.181 194.468 78.2618C203.569 88.3073 208.188 101.25 207.143 113.772C205.819 125.87 200.462 136.093 191.648 143.366C183.707 149.917 173.582 153.52 163.12 153.52ZM123.956 112.557C126.8 140.742 146.73 150.824 162.935 150.894H163.109C181.687 150.894 201.838 138.085 204.529 113.518C205.511 101.752 201.137 89.5305 192.522 80.022C183.908 70.5135 172.142 64.935 160.238 64.722C136.221 68.532 122.09 92.508 123.956 112.557Z" fill="#371A45"/>
<path d="M162.853 148.739C159.182 148.738 155.527 148.245 151.987 147.272C140.88 144.222 131.152 136.595 123.853 125.213L123.742 125.038L123.682 124.839C119.842 111.911 120.418 99.6548 125.348 89.3955C129.725 80.2424 137.468 73.1337 146.961 69.5535C156.265 66.0285 166.401 66.159 175.499 69.9195C185.612 74.0993 193.819 82.4595 199.231 94.098L199.266 94.179C203.396 104.679 203.59 115.16 199.827 124.479C196.42 132.919 189.901 139.939 181.471 144.246C175.708 147.197 169.327 148.737 162.853 148.739ZM126.432 123.806C141.614 147.324 164.328 149.719 180.138 141.64C194.488 134.307 205.124 117.136 196.556 95.2898C185.231 70.9898 164.012 66.2243 147.999 72.2903C131.542 78.525 118.517 96.8633 126.432 123.806Z" fill="#371A45"/>
<path d="M212.325 141.572C199.8 159.745 180.533 148.721 190.741 130.167C203.169 110.639 223.766 122.42 212.325 141.572Z" fill="white"/>
<g opacity="0.35">
<path d="M192.77 149.592C186.97 146.33 186.221 136.922 191.328 129.222C190.83 139.682 206.889 129.928 209.532 126.167C222.934 137.57 203.294 155.812 192.77 149.592Z" fill="#371A45"/>
</g>
<path d="M197.925 152.318C195.637 152.318 193.543 151.71 191.82 150.647C186.611 147.43 183.859 139.631 189.455 129.461L189.503 129.381C196.311 118.684 205.805 116.745 211.663 120.358C216.956 123.623 219.814 131.889 213.58 142.324L213.529 142.404C208.627 149.519 202.833 152.318 197.925 152.318ZM192 130.914C187.36 139.378 189.337 145.67 193.36 148.154C197.627 150.789 204.991 149.602 211.09 140.78C216.275 132.07 214.228 125.382 210.126 122.855C205.5 119.995 197.788 121.852 192 130.914Z" fill="#371A45"/>
<path d="M212.558 143.043C202.392 157.76 187.818 149.745 196.073 134.737C206.183 118.687 222.011 127.414 212.558 143.043Z" fill="white"/>
<path d="M200.814 152.147C199.119 152.147 197.581 151.705 196.319 150.925C192.363 148.48 190.398 142.331 194.923 134.104L194.962 134.037C200.587 125.107 208.162 123.295 212.737 126.119C216.803 128.629 218.832 135.208 213.682 143.722L213.639 143.789C209.495 149.785 204.734 152.147 200.814 152.147ZM197.204 135.403C193.533 142.102 194.804 146.903 197.699 148.693C200.849 150.643 206.501 149.481 211.454 142.33C215.654 135.362 214.351 130.201 211.357 128.353C207.887 126.211 201.915 127.95 197.204 135.403Z" fill="#371A45"/>
<g opacity="0.5">
<path d="M190.933 119.818C184.769 126.691 176.848 119.806 181.175 112.966C187.121 104.649 196.586 112.613 190.933 119.818Z" fill="white"/>
</g>
<g opacity="0.5">
<path d="M179.945 129.968C177.436 132.46 173.914 129.518 176.389 126.556C178.898 124.063 182.42 127.008 179.945 129.968Z" fill="white"/>
</g>
<g opacity="0.5">
<path d="M131.475 95.2035C141.254 61.308 175.707 72.8715 182.357 84.264C160.843 75.675 145.434 84.0982 131.475 95.2035Z" fill="white"/>
</g>
<g opacity="0.35">
<path d="M193.531 137.959C194.326 135.573 195.781 133.396 197.599 131.641C195.251 143.78 208.374 144.247 214.61 137.731C209.325 154.812 189.55 154.454 193.531 137.959Z" fill="#371A45"/>
</g>
<path d="M198.959 119.336C197.703 119.336 196.985 118.802 196.584 118.292C195.244 116.584 196.429 113.765 196.824 112.943C196.995 112.597 197.295 112.333 197.659 112.208C198.023 112.082 198.422 112.105 198.769 112.271C199.116 112.437 199.384 112.734 199.515 113.096C199.645 113.458 199.628 113.857 199.466 114.207C199.104 114.97 198.848 115.975 198.891 116.406C199.093 116.41 199.295 116.389 199.491 116.342C199.68 116.3 199.875 116.296 200.066 116.331C200.256 116.365 200.438 116.437 200.601 116.542C200.763 116.647 200.903 116.784 201.013 116.943C201.122 117.103 201.199 117.283 201.239 117.472C201.279 117.662 201.28 117.857 201.244 118.047C201.208 118.237 201.134 118.418 201.027 118.58C200.92 118.741 200.783 118.88 200.622 118.988C200.461 119.096 200.281 119.171 200.091 119.209C199.719 119.289 199.34 119.332 198.959 119.336Z" fill="#371A45"/>
</svg>
