<svg width="300" height="300" viewBox="0 0 300 300" fill="none" xmlns="http://www.w3.org/2000/svg">
<g opacity="0.2">
<path d="M140.378 275.231C181.399 275.231 214.652 269.212 214.652 261.787C214.652 254.362 181.399 248.342 140.378 248.342C99.3578 248.342 66.1042 254.362 66.1042 261.787C66.1042 269.212 99.3578 275.231 140.378 275.231Z" fill="#371A45"/>
</g>
<path d="M163.742 125.909L162.934 134.667L162.525 139.125L155.421 216.052C155.421 216.052 160.371 216.254 167.036 215.957C168.34 215.899 169.709 215.822 171.119 215.721C181.625 214.971 194.41 212.871 199.383 207.251C206.816 198.851 209.044 156.986 202.999 140.218C200.231 132.532 185.299 128.849 174.67 127.177C173.483 126.987 172.345 126.826 171.291 126.688C166.831 126.1 163.742 125.909 163.742 125.909Z" fill="white"/>
<g opacity="0.3">
<path d="M162.934 134.667L162.525 139.125L156.884 200.206L155.421 216.052L155.721 216.063C155.777 216.063 155.843 216.063 155.914 216.068H156.095C156.143 216.072 156.192 216.068 156.24 216.075C156.259 216.075 156.281 216.075 156.299 216.075C156.389 216.075 156.488 216.08 156.592 216.08C156.616 216.082 156.64 216.082 156.663 216.08C156.749 216.08 156.837 216.08 156.934 216.086C157.063 216.086 157.197 216.091 157.339 216.092C157.439 216.092 157.547 216.097 157.655 216.097L157.993 216.101C158.138 216.101 158.293 216.101 158.443 216.107C158.759 216.107 159.094 216.111 159.448 216.107C159.76 216.111 160.088 216.107 160.43 216.107C160.826 216.107 161.238 216.107 161.667 216.098C163.252 216.079 165.067 216.035 167.033 215.948C167.415 215.931 167.805 215.911 168.199 215.892C168.472 215.878 168.754 215.862 169.035 215.845C169.715 215.806 170.413 215.763 171.116 215.712C181.626 214.962 194.408 212.862 199.376 207.241C205.499 200.323 208.094 170.716 205.441 151.114C205.565 168.106 202.958 186.2 198.344 191.414C196.062 193.993 187.769 184.139 188.162 178.714C189.173 164.716 187.877 146.578 176.231 135.271C175.928 134.989 168.797 135.61 162.934 134.667Z" fill="#371A45"/>
</g>
<path d="M159.975 217.369C157.371 217.369 155.662 217.304 155.362 217.294L154.06 217.241L162.617 124.603L163.817 124.678C165.274 124.768 199.553 127.019 204.161 139.802C210.433 157.202 208.055 199.316 200.305 208.078C192.914 216.431 169.923 217.369 159.975 217.369ZM156.766 214.854C163.126 214.981 190.855 215.019 198.449 206.435C201.659 202.806 204.232 191.177 205.003 176.81C205.792 162.119 204.577 148.26 201.831 140.642C198.593 131.659 175.106 128.021 164.86 127.232L156.766 214.854Z" fill="#371A45"/>
<path d="M203.451 175.725L189.183 176.118C187.908 176.153 186.815 177.093 186.523 178.417C185.455 183.256 183.531 194.567 187.806 198.559C191.355 201.872 197.383 201.82 201.06 198.83C205.174 195.486 206.105 184.342 206.31 178.813C206.377 177.096 205.066 175.682 203.451 175.725Z" fill="white"/>
<g opacity="0.3">
<path d="M186.525 178.425C185.454 183.263 183.533 194.574 187.808 198.564C191.357 201.878 197.384 201.826 201.063 198.836C203.591 196.777 204.917 191.769 205.612 186.935C204.852 189.329 203.751 191.247 202.437 192.476C194.911 199.512 189.991 190.495 189.991 190.495C189.991 190.495 188.96 192.568 188.214 192.65C185.097 192.99 186.241 182.714 186.949 177.411C186.746 177.72 186.602 178.064 186.525 178.425V178.425Z" fill="#371A45"/>
</g>
<path d="M194.534 202.311C191.748 202.311 188.988 201.358 186.959 199.466C182.376 195.187 183.959 184.276 185.309 178.153C185.723 176.278 187.3 174.935 189.144 174.884L203.411 174.49C203.951 174.474 204.488 174.571 204.989 174.774C205.49 174.977 205.942 175.282 206.319 175.67C206.73 176.09 207.051 176.59 207.261 177.139C207.472 177.687 207.568 178.273 207.544 178.861C207.257 186.526 206.034 196.379 201.835 199.792C199.771 201.475 197.141 202.311 194.534 202.311ZM203.485 176.961L189.217 177.355C188.511 177.374 187.901 177.92 187.732 178.684C185.655 188.086 185.999 195.178 188.651 197.653C191.651 200.455 196.976 200.554 200.276 197.87C202.913 195.726 204.705 188.585 205.076 178.766C205.088 178.516 205.049 178.267 204.962 178.034C204.874 177.801 204.739 177.588 204.566 177.408C204.427 177.263 204.259 177.148 204.073 177.07C203.887 176.993 203.687 176.955 203.485 176.958L203.485 176.961Z" fill="#371A45"/>
<path d="M194.191 201.995C194.102 201.938 194.051 201.898 193.997 201.859C193.943 201.819 193.886 201.776 193.84 201.736C193.743 201.655 193.639 201.575 193.552 201.491C193.366 201.326 193.193 201.156 193.027 200.98C192.7 200.636 192.398 200.27 192.121 199.885C191.578 199.133 191.119 198.323 190.75 197.472C190 195.795 189.615 194.011 189.436 192.243L189.356 190.914C189.331 190.472 189.356 190.031 189.356 189.59C189.356 188.706 189.431 187.849 189.497 186.979C189.563 186.109 189.673 185.245 189.82 184.384C189.966 183.522 190.13 182.679 190.465 181.798C190.496 181.721 190.556 181.658 190.632 181.622C190.709 181.587 190.795 181.583 190.875 181.61C190.954 181.637 191.02 181.694 191.058 181.769C191.097 181.843 191.105 181.929 191.082 182.01L191.072 182.044C190.959 182.436 190.872 182.836 190.813 183.24C190.747 183.655 190.7 184.074 190.658 184.494C190.579 185.335 190.543 186.183 190.532 187.031C190.522 187.879 190.519 188.738 190.584 189.571C190.617 189.989 190.622 190.408 190.678 190.821L190.843 192.057C191.132 193.688 191.608 195.278 192.374 196.69C192.741 197.392 193.184 198.052 193.693 198.659C193.941 198.954 194.208 199.233 194.493 199.492C194.632 199.621 194.775 199.741 194.92 199.852C194.995 199.912 195.064 199.956 195.136 200.009C195.169 200.033 195.203 200.056 195.238 200.077C195.262 200.093 195.288 200.107 195.313 200.12H195.318C195.447 200.189 195.56 200.283 195.653 200.396C195.745 200.509 195.813 200.639 195.854 200.779C195.895 200.92 195.907 201.066 195.89 201.211C195.873 201.356 195.828 201.496 195.756 201.623C195.684 201.75 195.588 201.862 195.472 201.951C195.357 202.04 195.225 202.105 195.084 202.142C194.943 202.18 194.796 202.189 194.651 202.168C194.507 202.148 194.368 202.099 194.242 202.024C194.226 202.016 194.206 202.005 194.191 201.995Z" fill="#371A45"/>
<path d="M181.528 137.294C183.292 137.144 185.043 137.045 186.805 136.972C188.567 136.898 190.33 136.859 192.095 136.872C193.859 136.885 195.634 136.928 197.415 137.075C199.196 137.222 200.984 137.424 202.797 137.86C203.116 137.937 203.392 138.137 203.564 138.417C203.735 138.697 203.788 139.034 203.712 139.353C203.635 139.673 203.434 139.949 203.154 140.12C202.874 140.292 202.537 140.345 202.218 140.268C202.196 140.263 202.174 140.257 202.152 140.25L202.137 140.246C200.567 139.77 198.879 139.475 197.187 139.238C195.495 139.002 193.763 138.858 192.034 138.747C190.304 138.636 188.566 138.576 186.827 138.547C185.087 138.518 183.339 138.52 181.61 138.567H181.602C181.518 138.572 181.434 138.56 181.355 138.532C181.276 138.504 181.203 138.461 181.141 138.405C181.078 138.35 181.027 138.282 180.991 138.206C180.955 138.131 180.934 138.049 180.929 137.965C180.924 137.881 180.936 137.798 180.964 137.718C180.991 137.639 181.035 137.566 181.09 137.504C181.203 137.378 181.362 137.301 181.531 137.292L181.528 137.294Z" fill="#371A45"/>
<path d="M129.708 127.834L117.277 148.117L114.839 152.092C113.414 168.505 89.5642 172.519 65.7292 165.54V139.74C69.603 136.297 73.7692 136.14 78.2167 139.14C79.4419 139.959 80.8872 140.385 82.3605 140.362L93.0255 140.28C95.3083 140.259 97.5097 139.429 99.2392 137.939C109.548 129.138 119.767 123.532 129.708 127.834Z" fill="white"/>
<path d="M87.3128 170.341C80.5088 170.341 72.9923 169.229 65.3078 166.979C64.9966 166.888 64.7233 166.699 64.5289 166.439C64.3344 166.18 64.2293 165.864 64.2293 165.54V139.74C64.2288 139.527 64.2735 139.317 64.3603 139.123C64.4472 138.929 64.5743 138.756 64.7332 138.615C69.0832 134.749 74.0377 134.501 79.0582 137.899C80.0055 138.54 81.1305 138.865 82.353 138.864L93.015 138.781C94.9436 138.758 96.8023 138.056 98.265 136.799C107.024 129.319 118.582 121.382 130.304 126.455C130.501 126.541 130.678 126.667 130.822 126.827C130.966 126.986 131.074 127.175 131.139 127.38C131.204 127.585 131.224 127.801 131.198 128.014C131.171 128.228 131.1 128.433 130.987 128.616L116.299 152.579C115.758 157.657 113.134 161.937 108.694 164.973C103.49 168.535 95.9813 170.341 87.3128 170.341ZM67.2293 164.408C83.2305 168.867 98.751 168.142 107.001 162.5C110.832 159.88 112.966 156.335 113.344 151.964C113.364 151.732 113.438 151.508 113.56 151.309L127.48 128.6C119.932 126.212 111.425 129.508 100.213 139.084C98.2123 140.799 95.6713 141.755 93.036 141.784L82.3733 141.866C80.5493 141.866 78.8265 141.368 77.3745 140.386C73.6545 137.867 70.4153 137.876 67.2293 140.434V164.408Z" fill="#371A45"/>
<path d="M66.9915 150.09C67.158 150.403 67.3769 150.685 67.6387 150.923C67.8631 151.115 68.1339 151.244 68.424 151.298C69.024 151.421 69.8632 151.174 70.629 150.698C71.3947 150.223 72.1245 149.558 72.7485 148.805C73.375 148.04 73.8964 147.194 74.2988 146.29L74.3055 146.277C74.3951 146.075 74.5591 145.915 74.7635 145.83C74.9678 145.746 75.1968 145.743 75.4031 145.823C75.6093 145.903 75.777 146.059 75.8713 146.259C75.9656 146.459 75.9794 146.687 75.9097 146.897C75.5457 147.999 75.0354 149.048 74.3925 150.014C73.74 150.982 72.96 151.889 71.9722 152.639C71.4595 153.034 70.8953 153.357 70.2953 153.6C69.6245 153.876 68.901 154.001 68.1765 153.965C67.3939 153.916 66.638 153.662 65.985 153.228C65.3899 152.818 64.8753 152.302 64.467 151.706L64.4512 151.684C64.2393 151.347 64.1699 150.94 64.2582 150.552C64.3465 150.164 64.5854 149.826 64.9223 149.614C65.2591 149.403 65.6664 149.333 66.0544 149.421C66.4425 149.51 66.7796 149.749 66.9915 150.085V150.09Z" fill="#371A45"/>
<path d="M67.3605 166.928C66.7477 166.925 66.1364 166.869 65.5335 166.759C65.3865 166.735 65.2458 166.682 65.1195 166.603C64.9932 166.525 64.8838 166.421 64.7977 166.3C64.7116 166.178 64.6504 166.041 64.6178 165.896C64.5851 165.751 64.5817 165.6 64.6076 165.454C64.6335 165.307 64.6883 165.167 64.7687 165.042C64.8492 164.916 64.9537 164.808 65.0763 164.723C65.1988 164.639 65.3369 164.579 65.4826 164.549C65.6283 164.518 65.7787 164.516 65.925 164.544C68.0565 164.919 69.6795 164.506 70.7475 163.312C72.564 161.283 72.72 157.097 71.1742 151.828C71.0903 151.541 71.1236 151.233 71.2667 150.972C71.4098 150.71 71.651 150.516 71.9374 150.432C72.2237 150.348 72.5317 150.381 72.7935 150.524C73.0553 150.667 73.2496 150.908 73.3335 151.195C75.129 157.316 74.8057 162.152 72.4237 164.812C71.5087 165.835 69.9285 166.928 67.3605 166.928Z" fill="#371A45"/>
<path d="M95.0782 169.405C94.8177 169.406 94.5652 169.315 94.3638 169.15C94.1625 168.985 94.0247 168.755 93.9741 168.499C93.9234 168.244 93.9631 167.978 94.0862 167.749C94.2093 167.519 94.4083 167.339 94.6492 167.24C100.133 164.981 100.475 152.528 95.394 140.047C95.2835 139.771 95.2867 139.463 95.403 139.189C95.5193 138.916 95.7392 138.699 96.0146 138.587C96.2901 138.475 96.5986 138.477 96.8729 138.592C97.1471 138.706 97.3648 138.925 97.4782 139.2C102.503 151.537 103.136 166.177 95.5073 169.32C95.3712 169.376 95.2255 169.405 95.0782 169.405V169.405Z" fill="#371A45"/>
<g opacity="0.3">
<path d="M118.916 136.192C118.387 139.259 117.841 142.322 117.277 145.379L114.839 149.354C113.414 165.768 89.5642 169.781 65.7292 162.802V149.812C67.458 150.037 69.1942 150.262 70.9267 150.479C73.7017 150.836 76.4767 151.192 79.2705 151.424C82.2255 151.674 85.188 151.781 88.158 151.743C91.6005 151.702 95.073 151.469 98.388 150.543C106.522 148.267 112.904 142.121 118.916 136.192Z" fill="#371A45"/>
</g>
<path d="M183.794 263.467C170.426 270.457 156.866 268.837 151.349 264.274C147.794 261.33 147.581 257.167 152.917 253.294C145.638 244.11 142.259 234.611 138.847 220.984C138.438 219.338 138.024 217.629 137.606 215.857C138.704 231.277 138.269 245.839 135.213 258.926C134.839 260.506 133.953 261.918 132.693 262.942C131.432 263.965 129.869 264.543 128.245 264.585C118.522 264.844 109.087 264.315 99.978 262.905C95.7555 262.249 93.153 258.138 94.038 254.257C94.1989 253.557 94.4657 252.886 94.8293 252.266C96.3705 249.634 99.2393 247.466 103.229 246.731C103.229 195.356 109.728 161.962 118.604 139.185L128.561 126.36L179.729 132.172L180.389 134.485L185.864 153.742C187.753 160.392 188.434 167.327 187.875 174.217C187.841 174.611 187.808 175.001 187.766 175.391C187.691 176.085 187.616 176.786 187.538 177.487C187.414 178.571 187.275 179.662 187.133 180.761C185.899 190.174 184.065 200.193 183.124 211.811C182.595 218.336 183.079 224.921 184.661 231.277C186.641 239.242 187.774 247.447 188.186 255.859C188.35 259.035 186.618 261.994 183.794 263.467Z" fill="white"/>
<path d="M119.229 139.425C118.554 141.592 117.771 143.715 117.155 145.897C116.829 146.981 116.47 148.054 116.173 149.147L115.252 152.414C114.933 153.498 114.669 154.6 114.382 155.694C114.094 156.788 113.81 157.883 113.542 158.981L112.766 162.286L112.378 163.936L112.024 165.596C110.099 174.441 108.687 183.4 107.641 192.402C106.614 201.407 105.874 210.442 105.419 219.509C105.241 224.043 105.021 228.574 104.935 233.112C104.877 235.38 104.81 237.648 104.805 239.918L104.73 246.727C104.726 247.073 104.605 247.407 104.385 247.675C104.165 247.942 103.861 248.127 103.523 248.198H103.504C101.554 248.567 99.7065 249.344 98.2343 250.568C97.4992 251.167 96.8605 251.875 96.3405 252.668L96.1538 252.968C96.0923 253.068 96.0548 253.165 96.0038 253.262C95.9138 253.46 95.7885 253.643 95.7345 253.853C95.5806 254.255 95.4734 254.674 95.415 255.101C95.1817 256.805 95.8328 258.636 97.0905 259.85C97.7138 260.461 98.4712 260.918 99.3023 261.185C99.5018 261.274 99.7237 261.296 99.9352 261.349C100.047 261.372 100.136 261.4 100.267 261.424L100.67 261.484C101.209 261.559 101.746 261.648 102.285 261.719C106.596 262.319 110.931 262.725 115.289 262.937C117.465 263.045 119.644 263.11 121.825 263.131C122.914 263.144 124.005 263.142 125.095 263.131L126.73 263.109L127.549 263.091L127.957 263.083C128.095 263.083 128.237 263.078 128.332 263.068C130.087 263.004 131.776 262.07 132.8 260.652C133.055 260.297 133.272 259.916 133.446 259.516C133.515 259.309 133.613 259.112 133.661 258.899L133.75 258.583L133.838 258.188C134.069 257.13 134.312 256.076 134.505 255.008C134.932 252.884 135.25 250.733 135.55 248.587C135.816 246.431 136.06 244.272 136.216 242.102C136.898 233.426 136.712 224.674 136.108 215.954C136.082 215.579 136.198 215.207 136.434 214.913C136.669 214.62 137.006 214.425 137.378 214.368C137.751 214.312 138.13 214.397 138.443 214.608C138.755 214.818 138.976 215.138 139.064 215.504C139.848 218.804 140.655 222.093 141.543 225.348C142.431 228.603 143.405 231.822 144.553 234.962C145.701 238.101 147.028 241.157 148.615 244.07C150.197 246.985 152.028 249.757 154.09 252.356C154.212 252.51 154.303 252.687 154.357 252.876C154.411 253.066 154.427 253.264 154.404 253.46C154.381 253.656 154.32 253.845 154.224 254.017C154.129 254.189 154 254.341 153.845 254.463L153.802 254.496L153.794 254.502C153.103 254.997 152.461 255.557 151.877 256.174C151.322 256.778 150.874 257.43 150.588 258.093C150.014 259.423 150.246 260.75 151.177 261.958C151.632 262.558 152.24 263.1 152.919 263.576C153.619 264.063 154.366 264.479 155.148 264.818C156.738 265.521 158.471 265.994 160.24 266.297C163.788 266.886 167.48 266.804 171.075 266.204C174.687 265.592 178.197 264.487 181.508 262.919C181.924 262.726 182.335 262.524 182.742 262.313L183.049 262.158C183.15 262.106 183.222 262.06 183.31 262.008C183.481 261.915 183.646 261.812 183.804 261.7C184.445 261.261 185.004 260.712 185.454 260.078C185.909 259.45 186.247 258.745 186.452 257.998C186.558 257.63 186.633 257.255 186.675 256.875C186.681 256.682 186.709 256.491 186.701 256.298C186.694 256.104 186.701 255.923 186.683 255.672C186.493 251.922 186.148 248.186 185.648 244.463C185.144 240.746 184.482 237.053 183.632 233.405C183.209 231.616 182.71 229.684 182.385 227.774C182.044 225.859 181.794 223.927 181.635 221.99C181.326 218.119 181.365 214.228 181.752 210.365C182.085 206.557 182.521 202.762 183.027 198.985C184.025 191.429 185.315 183.943 186.149 176.465C186.6 172.787 186.69 169.073 186.419 165.377C186.146 161.689 185.51 158.036 184.519 154.472L178.294 132.58L179.569 133.66L128.4 127.847C128.204 127.825 128.015 127.765 127.842 127.669C127.67 127.574 127.518 127.445 127.396 127.291C127.273 127.137 127.182 126.96 127.127 126.771C127.073 126.581 127.056 126.383 127.079 126.188C127.101 125.992 127.161 125.802 127.257 125.63C127.352 125.458 127.481 125.306 127.635 125.183C127.789 125.06 127.966 124.969 128.155 124.915C128.344 124.86 128.542 124.844 128.738 124.866L179.908 130.679C180.203 130.712 180.483 130.832 180.71 131.025C180.937 131.217 181.101 131.472 181.183 131.759L187.414 153.668C188.457 157.422 189.128 161.27 189.416 165.156C189.7 169.035 189.606 172.933 189.136 176.795C188.285 184.406 186.993 191.888 186.005 199.381C185.505 203.126 185.075 206.873 184.747 210.626C184.374 214.321 184.336 218.041 184.631 221.742C184.781 223.586 185.021 225.422 185.345 227.242C185.659 229.076 186.113 230.821 186.562 232.724C187.434 236.468 188.114 240.254 188.628 244.058C189.143 247.862 189.492 251.687 189.686 255.515C189.703 255.737 189.706 256.031 189.708 256.312C189.71 256.593 189.683 256.874 189.67 257.155C189.613 257.715 189.509 258.27 189.359 258.812C189.059 259.899 188.568 260.923 187.909 261.836C187.255 262.751 186.447 263.544 185.519 264.18C185.29 264.341 185.052 264.489 184.808 264.626C184.688 264.692 184.558 264.77 184.448 264.826L184.12 264.992C183.684 265.217 183.243 265.433 182.798 265.64C179.239 267.325 175.465 268.513 171.582 269.17C167.698 269.816 163.698 269.915 159.753 269.262C157.784 268.924 155.825 268.397 153.943 267.566C152.983 267.148 152.068 266.637 151.209 266.039C150.338 265.426 149.505 264.699 148.809 263.789C148.112 262.889 147.56 261.77 147.368 260.538C147.276 259.923 147.271 259.299 147.352 258.683C147.443 258.086 147.606 257.502 147.835 256.944C148.299 255.861 148.96 254.942 149.686 254.148C150.405 253.385 151.196 252.693 152.048 252.082L151.754 254.228C149.585 251.494 147.657 248.578 145.992 245.511C144.327 242.447 142.936 239.249 141.748 236.001C140.561 232.753 139.566 229.454 138.662 226.148C137.758 222.842 136.946 219.521 136.157 216.204L139.112 215.754C139.725 224.582 139.916 233.474 139.22 242.348C139.06 244.565 138.81 246.779 138.537 248.99C138.23 251.197 137.902 253.403 137.463 255.59C137.264 256.688 137.013 257.777 136.775 258.868L136.684 259.278L136.552 259.757C136.471 260.079 136.334 260.384 136.222 260.695C135.959 261.304 135.63 261.882 135.242 262.42C133.692 264.57 131.144 265.969 128.492 266.072C128.317 266.085 128.184 266.086 128.047 266.089L127.63 266.098L126.799 266.116L125.136 266.138C124.027 266.147 122.917 266.15 121.807 266.138C119.589 266.116 117.37 266.05 115.152 265.94C110.717 265.72 106.294 265.305 101.884 264.697C101.333 264.626 100.785 264.536 100.234 264.457L99.822 264.396C99.681 264.374 99.504 264.331 99.3465 264.299C99.0247 264.224 98.6963 264.173 98.3858 264.047C97.1143 263.637 95.9558 262.936 95.0017 262.001C93.096 260.15 92.0992 257.401 92.4517 254.732C92.5399 254.068 92.7053 253.417 92.9445 252.791C93.042 252.47 93.213 252.183 93.357 251.884C93.432 251.738 93.507 251.584 93.588 251.447L93.8385 251.045C94.5248 249.995 95.3681 249.056 96.339 248.262C98.2605 246.668 100.603 245.703 102.969 245.258L101.742 246.732C101.769 242.17 101.751 237.606 101.892 233.044C101.954 230.762 101.978 228.48 102.09 226.199L102.396 219.358C102.91 210.241 103.647 201.128 104.82 192.058C105.982 182.991 107.512 173.963 109.564 165.042C109.692 164.484 109.81 163.925 109.949 163.37L110.377 161.707L111.23 158.381C111.53 157.277 111.867 156.182 112.184 155.081C112.5 153.981 112.81 152.88 113.184 151.796C114.553 147.427 116.188 143.142 117.99 138.938C118.057 138.778 118.182 138.651 118.34 138.582C118.499 138.513 118.677 138.507 118.839 138.567C119.001 138.626 119.134 138.746 119.21 138.901C119.287 139.056 119.3 139.234 119.248 139.399L119.229 139.425Z" fill="#371A45"/>
<path d="M152.241 251.954C153.403 251.457 154.634 251.142 155.891 251.019C157.092 250.898 158.302 250.91 159.5 251.056C161.846 251.328 164.115 252.063 166.175 253.219C166.327 253.312 166.439 253.458 166.488 253.63C166.538 253.801 166.521 253.984 166.442 254.144C166.364 254.304 166.228 254.428 166.062 254.493C165.896 254.558 165.711 254.558 165.545 254.494L165.538 254.49C163.581 253.676 161.482 253.259 159.363 253.262C158.335 253.257 157.31 253.367 156.306 253.589C155.354 253.795 154.44 254.146 153.595 254.63C153.425 254.73 153.237 254.796 153.041 254.823C152.846 254.851 152.647 254.84 152.456 254.791C152.264 254.742 152.085 254.655 151.927 254.536C151.769 254.418 151.636 254.269 151.536 254.099C151.436 253.929 151.37 253.741 151.342 253.546C151.314 253.35 151.325 253.151 151.375 252.96C151.424 252.769 151.51 252.589 151.629 252.432C151.748 252.274 151.896 252.141 152.066 252.041C152.115 252.011 152.165 251.985 152.216 251.961L152.241 251.954Z" fill="#371A45"/>
<path d="M103.166 245.232C104.053 245.261 104.937 245.337 105.815 245.462C106.734 245.59 107.635 245.826 108.499 246.164C109.367 246.512 110.175 246.996 110.891 247.598C111.572 248.173 112.187 248.822 112.725 249.533C112.828 249.665 112.876 249.832 112.862 249.999C112.848 250.166 112.771 250.322 112.648 250.436C112.524 250.549 112.362 250.612 112.194 250.612C112.027 250.613 111.865 250.55 111.741 250.436L111.734 250.43C111.167 249.896 110.545 249.426 109.877 249.027C109.244 248.653 108.554 248.383 107.835 248.228C106.418 247.922 104.876 248.03 103.293 248.228C102.897 248.278 102.497 248.168 102.182 247.923C101.867 247.678 101.662 247.318 101.612 246.922C101.562 246.526 101.672 246.126 101.917 245.811C102.162 245.496 102.522 245.291 102.918 245.241C103 245.232 103.083 245.229 103.166 245.232V245.232Z" fill="#371A45"/>
<path d="M113.865 204.197C116.012 206.554 118.533 208.54 121.327 210.074C124.108 211.598 127.092 212.717 130.189 213.397L131.351 213.645C131.735 213.738 132.132 213.769 132.522 213.836C133.306 213.952 134.086 214.089 134.879 214.129C135.669 214.187 136.454 214.279 137.252 214.264C138.044 214.264 138.836 214.323 139.629 214.264C142.805 214.21 145.965 213.823 149.178 213.322H149.186C149.35 213.299 149.518 213.336 149.658 213.426C149.797 213.517 149.9 213.655 149.945 213.815C149.991 213.975 149.977 214.146 149.907 214.297C149.836 214.447 149.713 214.567 149.561 214.634C146.468 215.968 143.1 216.65 139.716 216.826C139.292 216.862 138.866 216.875 138.441 216.865L137.166 216.842C136.317 216.848 135.472 216.744 134.627 216.672C133.778 216.619 132.941 216.467 132.103 216.334C131.685 216.259 131.26 216.22 130.849 216.109L129.609 215.809C126.309 214.993 123.125 213.688 120.247 211.879C117.368 210.07 114.801 207.754 112.834 205.01C112.737 204.874 112.695 204.706 112.718 204.541C112.74 204.375 112.825 204.225 112.955 204.12C113.086 204.015 113.251 203.964 113.417 203.977C113.584 203.99 113.739 204.066 113.852 204.19L113.865 204.197Z" fill="#371A45"/>
<path d="M156.925 244.493C152.86 244.493 148.873 243.973 145.339 242.934C145.005 242.836 144.723 242.609 144.557 242.303C144.39 241.998 144.351 241.639 144.45 241.305C144.548 240.971 144.775 240.689 145.08 240.523C145.386 240.356 145.745 240.317 146.079 240.416C152.564 242.322 160.699 242.36 167.839 240.516C175.633 238.504 181.068 234.587 183.139 229.487C183.271 229.164 183.524 228.907 183.845 228.771C184.166 228.636 184.528 228.633 184.85 228.764C185.173 228.895 185.43 229.149 185.566 229.47C185.701 229.791 185.704 230.152 185.572 230.475C183.179 236.365 177.114 240.833 168.496 243.059C164.786 244.016 160.819 244.493 156.925 244.493Z" fill="#371A45"/>
<path d="M123.538 240.094C117.471 240.094 111.163 239.312 106.987 237.751C104.375 236.776 102.8 235.585 102.171 234.115C102.101 233.956 102.062 233.785 102.059 233.611C102.055 233.437 102.086 233.264 102.149 233.103C102.213 232.941 102.308 232.793 102.429 232.669C102.55 232.544 102.694 232.444 102.854 232.376C103.014 232.308 103.185 232.272 103.359 232.27C103.533 232.269 103.705 232.302 103.866 232.367C104.027 232.433 104.173 232.53 104.297 232.652C104.42 232.775 104.517 232.921 104.584 233.081C104.734 233.428 105.353 234.338 107.906 235.292C115.6 238.169 131.626 238.226 137.469 235.398C137.624 235.32 137.794 235.274 137.967 235.263C138.14 235.251 138.314 235.274 138.479 235.33C138.643 235.386 138.795 235.474 138.925 235.589C139.055 235.704 139.161 235.844 139.237 236C139.313 236.157 139.356 236.326 139.366 236.5C139.376 236.673 139.351 236.847 139.293 237.011C139.234 237.175 139.145 237.325 139.028 237.454C138.911 237.583 138.77 237.687 138.613 237.761C135.399 239.316 129.588 240.094 123.538 240.094Z" fill="#371A45"/>
<g opacity="0.3">
<path d="M180.941 263.468C167.996 270.458 154.867 268.838 149.526 264.274C153.926 264.371 158.297 263.535 162.351 261.821C164.494 260.914 166.626 259.688 167.917 257.7C170.103 254.344 169.333 249.863 168.292 245.963C165.967 237.241 162.7 228.797 158.55 220.781C157.672 219.09 156.728 217.384 155.308 216.15C151.532 212.88 145.903 213.968 141.128 215.235C140.13 215.501 139.073 215.801 138.391 216.599C137.624 217.493 137.523 218.779 137.465 219.974C137.45 220.312 137.432 220.649 137.417 220.987C137.022 219.341 136.622 217.632 136.217 215.86C137.281 231.281 136.86 245.842 133.901 258.929C133.167 262.177 130.382 264.498 127.154 264.588C117.739 264.847 108.603 264.318 99.7838 262.908C95.6948 262.252 93.171 258.141 94.032 254.261C95.9348 256.601 98.175 258.562 100.932 259.627C105.903 261.554 112.748 258.985 113.507 253.559C113.645 252.573 113.615 251.463 114.266 250.721C114.806 250.102 115.664 249.933 116.397 249.588C119.651 248.069 120.108 243.573 120.089 239.887C120.053 231.498 120.016 223.111 119.977 214.724C119.977 213.352 119.945 211.904 119.258 210.731C118.583 209.579 117.389 208.889 116.324 208.113C113.006 205.698 110.594 201.981 109.694 197.894C115.808 202.36 122.417 207.007 129.905 207.187C136.549 207.348 142.955 203.804 147.395 198.704C151.836 193.603 154.508 187.083 156.142 180.431L151.836 190.496C153.438 185.983 154.27 181.233 154.298 176.444C164.175 178.409 174.148 179.851 184.177 180.764C182.983 190.177 181.207 200.196 180.295 211.814C179.784 218.339 180.252 224.924 181.784 231.281C183.701 239.246 184.799 247.45 185.201 255.862C185.353 259.035 183.675 261.994 180.941 263.468Z" fill="#371A45"/>
</g>
<path d="M228.479 152.231V177.881C227.654 179.989 225.322 180.773 223.102 180.431C221.647 180.206 220.177 180.086 218.707 180.165C207.168 180.772 196.657 179.265 187.878 174.214C183.258 171.562 179.114 167.925 175.552 163.102C172.469 159.544 170.59 155.741 169.829 151.875C168.768 146.467 169.897 140.925 172.979 135.727C175.615 134.801 178.068 134.407 180.389 134.478C187.859 134.711 193.945 139.781 200.227 147.514C202.346 150.124 205.297 151.928 208.585 152.625L211.053 153.15C214.046 153.787 217.169 153.705 220.064 152.73C222.775 151.818 225.865 151.736 228.479 152.231Z" fill="white"/>
<path d="M176.007 162.769L177.226 164.14L177.826 164.827C177.927 164.94 178.024 165.058 178.126 165.168L178.452 165.488C179.333 166.328 180.129 167.248 181.077 168.008L182.447 169.195L183.891 170.287C184.372 170.651 184.843 171.025 185.362 171.337L186.873 172.323C190.971 174.85 195.536 176.546 200.242 177.578C204.967 178.553 209.828 178.903 214.689 178.834C215.296 178.841 215.905 178.811 216.514 178.783L218.338 178.708C218.627 178.696 218.986 178.676 219.313 178.67C219.64 178.665 219.983 178.67 220.315 178.678C220.981 178.7 221.639 178.753 222.289 178.828C222.614 178.865 222.936 178.908 223.257 178.957L223.632 179.002L223.989 179.021C224.449 179.03 224.908 178.968 225.349 178.835C226.201 178.573 226.783 178.058 227.074 177.344L226.969 177.892V152.231L228.19 153.704C225.877 153.277 223.405 153.338 221.168 153.961C221.027 153.997 220.889 154.041 220.752 154.085L220.293 154.23C219.955 154.342 219.612 154.435 219.268 154.525C218.581 154.698 217.883 154.829 217.18 154.916C215.781 155.092 214.367 155.108 212.965 154.966C212.271 154.898 211.582 154.793 210.9 154.65L208.987 154.246L208.511 154.145L208.273 154.094L208.012 154.034C207.664 153.959 207.32 153.859 206.977 153.761C206.294 153.553 205.624 153.302 204.972 153.011C203.669 152.421 202.45 151.662 201.345 150.754C200.792 150.301 200.271 149.811 199.785 149.287C199.538 149.029 199.31 148.754 199.079 148.481L198.465 147.746C196.84 145.786 195.145 143.894 193.304 142.202C191.464 140.511 189.496 138.999 187.356 137.888C185.215 136.776 182.912 136.077 180.544 135.996C178.179 135.894 175.785 136.344 173.476 137.143L173.465 137.148C173.09 137.272 172.682 137.244 172.329 137.069C171.975 136.895 171.705 136.588 171.576 136.215C171.446 135.843 171.469 135.435 171.639 135.079C171.808 134.723 172.111 134.448 172.482 134.314C175.066 133.414 177.853 132.877 180.678 132.999C183.504 133.096 186.28 133.944 188.733 135.223C191.197 136.503 193.369 138.183 195.341 140C197.313 141.818 199.091 143.801 200.773 145.829L201.405 146.586C201.593 146.811 201.78 147.036 201.98 147.242C202.376 147.669 202.8 148.069 203.251 148.437C204.151 149.177 205.145 149.796 206.206 150.277C206.739 150.513 207.284 150.718 207.841 150.889C208.12 150.964 208.4 151.049 208.684 151.109L208.897 151.159L209.134 151.211L209.61 151.311L211.501 151.711C212.085 151.832 212.675 151.922 213.268 151.979C214.448 152.099 215.637 152.085 216.813 151.938C217.396 151.865 217.974 151.757 218.544 151.614C218.827 151.539 219.109 151.464 219.387 151.371L219.855 151.221C220.026 151.166 220.197 151.112 220.37 151.071C221.736 150.694 223.143 150.482 224.559 150.441C225.966 150.392 227.375 150.498 228.759 150.757C229.102 150.822 229.411 151.004 229.634 151.273C229.856 151.541 229.979 151.879 229.979 152.227V177.934C229.978 178.106 229.943 178.276 229.875 178.433V178.433C229.558 179.236 229.053 179.951 228.402 180.517C227.774 181.062 227.036 181.464 226.238 181.696C225.491 181.918 224.714 182.021 223.935 182.002C223.744 181.995 223.555 181.982 223.366 181.968L222.818 181.898C222.527 181.853 222.237 181.813 221.948 181.777C221.369 181.707 220.793 181.658 220.223 181.637C219.937 181.625 219.652 181.621 219.369 181.624L218.492 181.65L216.607 181.702C215.979 181.72 215.35 181.741 214.72 181.725C209.689 181.717 204.617 181.287 199.675 180.111L197.835 179.615L196.916 179.366C196.612 179.275 196.312 179.165 196.011 179.066L194.204 178.453C193.604 178.239 193.025 177.974 192.435 177.737C191.245 177.287 190.121 176.677 188.98 176.115L188.554 175.901L188.143 175.657L187.322 175.169L186.504 174.676C186.228 174.518 185.96 174.346 185.701 174.16C184.67 173.414 183.602 172.727 182.652 171.874C182.168 171.463 181.677 171.062 181.2 170.643L179.854 169.301L179.183 168.63C178.958 168.41 178.764 168.157 178.553 167.922C178.141 167.443 177.728 166.967 177.324 166.483L177.024 166.121C176.926 165.997 176.837 165.866 176.744 165.74L176.191 164.974C175.821 164.466 175.459 163.952 175.099 163.44C175.015 163.322 174.979 163.175 175 163.032C175.021 162.888 175.096 162.758 175.209 162.667C175.323 162.577 175.467 162.534 175.612 162.547C175.757 162.56 175.891 162.628 175.987 162.737L176.007 162.769Z" fill="#371A45"/>
<path d="M228.797 167.035C227.654 167.314 226.447 167.437 225.242 167.276C224.021 167.127 222.861 166.655 221.881 165.909C220.929 165.18 220.213 164.184 219.826 163.048C219.439 161.912 219.397 160.687 219.706 159.527C219.753 159.349 219.865 159.195 220.021 159.096C220.177 158.998 220.365 158.963 220.546 158.998C220.727 159.033 220.887 159.136 220.995 159.286C221.103 159.435 221.149 159.62 221.125 159.803V159.81C221.009 160.668 221.145 161.541 221.517 162.323C221.873 163.059 222.442 163.672 223.15 164.083C223.852 164.481 224.647 164.685 225.455 164.674C226.269 164.674 227.092 164.481 227.887 164.177L227.904 164.171C228.276 164.028 228.69 164.039 229.054 164.202C229.418 164.364 229.703 164.665 229.845 165.037C229.988 165.41 229.977 165.823 229.814 166.187C229.652 166.551 229.351 166.836 228.979 166.979C228.919 167.001 228.858 167.02 228.797 167.035V167.035Z" fill="#371A45"/>
<path d="M225.485 179.831C223.547 179.831 221.885 179.122 220.657 177.731C217.994 174.721 217.909 169.163 220.446 163.901C220.584 163.647 220.814 163.455 221.089 163.366C221.364 163.277 221.663 163.297 221.924 163.423C222.184 163.548 222.386 163.769 222.488 164.04C222.59 164.311 222.584 164.61 222.471 164.876C220.356 169.264 220.302 173.935 222.34 176.239C223.915 178.018 226.274 177.701 227.977 177.123C228.117 177.075 228.265 177.056 228.412 177.066C228.559 177.075 228.704 177.114 228.836 177.179C228.969 177.244 229.087 177.335 229.184 177.446C229.282 177.557 229.356 177.687 229.404 177.826C229.452 177.966 229.471 178.114 229.461 178.262C229.452 178.409 229.413 178.553 229.348 178.686C229.283 178.818 229.192 178.937 229.081 179.034C228.97 179.132 228.84 179.206 228.701 179.254C227.569 179.641 226.49 179.831 225.485 179.831Z" fill="#371A45"/>
<path d="M193.343 177.356C192.969 177.356 192.609 177.216 192.333 176.964C192.057 176.711 191.885 176.365 191.851 175.993C190.999 166.698 196.176 156.127 204.44 150.286C204.6 150.168 204.783 150.083 204.977 150.036C205.17 149.989 205.372 149.981 205.569 150.013C205.766 150.045 205.954 150.116 206.124 150.221C206.293 150.327 206.439 150.465 206.554 150.628C206.67 150.791 206.751 150.975 206.794 151.17C206.837 151.365 206.841 151.567 206.805 151.763C206.769 151.959 206.695 152.146 206.586 152.313C206.477 152.48 206.336 152.624 206.17 152.736C198.739 157.986 194.08 167.436 194.839 175.719C194.875 176.115 194.752 176.509 194.498 176.815C194.244 177.121 193.878 177.313 193.482 177.349C193.435 177.354 193.389 177.356 193.343 177.356Z" fill="#371A45"/>
<g opacity="0.3">
<path d="M228.479 165.172V177.884C227.654 179.992 225.322 180.776 223.102 180.434C221.647 180.209 220.177 180.089 218.707 180.168C207.168 180.775 196.657 179.268 187.878 174.217C187.844 174.61 187.81 175 187.769 175.39C187.694 176.084 187.619 176.785 187.54 177.487C184.814 176.988 181.93 177.798 179.114 178.008C174.614 178.329 170.141 177.091 166.447 174.502L165.918 175.105C159.556 167.68 158.391 159.328 161.149 156.214C162.495 154.696 165.865 153.194 167.974 152.253C168.334 152.092 169.002 151.728 169.827 151.878C170.577 152.012 171.346 152.403 171.987 152.812C175.036 154.784 177.687 157.323 180.709 159.34C182.899 160.803 185.258 161.965 187.692 162.973C190.328 164.065 193.054 164.973 195.762 165.869C198.586 166.807 201.424 167.744 204.361 168.235C207.263 168.719 210.226 168.757 213.162 168.55C218.405 168.179 223.566 167.041 228.479 165.172V165.172Z" fill="#371A45"/>
</g>
<g opacity="0.3">
<path d="M127.825 123.998C129.337 128.331 131.097 132.765 134.419 135.932C137.107 138.495 140.611 140.02 144.131 141.204C152.114 143.89 160.804 145.072 168.995 143.116C177.187 141.159 184.793 135.732 188.063 127.966C174.69 129.288 161.218 127.82 147.862 126.354C141.693 125.679 135.359 124.951 129.856 122.079C130.2 125.437 130.544 128.796 130.888 132.154" fill="#371A45"/>
</g>
<path d="M110.864 104.654C113.975 113.101 119.22 120.599 126.089 126.418C127.538 127.647 129.052 128.799 130.624 129.868C131.395 130.393 132.191 130.904 133.003 131.402C139.898 135.584 147.647 138.16 155.674 138.937C156.693 139.033 157.712 139.102 158.731 139.143C177.374 139.87 195.869 130.922 206.349 114.137C221.791 89.4143 213.985 57.0615 188.923 41.8733C184.217 39.0175 179.098 36.9044 173.748 35.6085C173.138 35.4585 172.522 35.3198 171.904 35.196C170.254 34.8555 168.597 34.5943 166.932 34.4123C159.291 33.5866 151.562 34.3905 144.255 36.771C143.105 37.1465 141.966 37.5608 140.837 38.0138C130.397 42.2112 121.554 49.6057 115.575 59.1375C106.694 73.3583 105.506 90.102 110.864 104.654Z" fill="white"/>
<path d="M160.844 139.306C160.14 139.306 159.434 139.292 158.727 139.264C157.715 139.222 156.685 139.153 155.663 139.058C147.618 138.275 139.852 135.694 132.938 131.505C132.048 130.96 131.268 130.455 130.553 129.968C128.978 128.897 127.461 127.743 126.008 126.511C119.129 120.673 113.873 113.159 110.747 104.695C105.144 89.4787 106.866 72.8497 115.472 59.073C121.464 49.5193 130.326 42.1075 140.789 37.8997C141.898 37.4497 143.05 37.0335 144.216 36.6547C151.539 34.2687 159.284 33.4627 166.941 34.29C168.601 34.4715 170.277 34.7362 171.925 35.076C172.584 35.2072 173.189 35.343 173.773 35.49C179.136 36.7885 184.266 38.9061 188.983 41.7682C201.181 49.161 209.701 60.801 212.974 74.5432C216.222 88.1782 213.904 102.261 206.449 114.198C196.701 129.82 179.371 139.306 160.844 139.306ZM110.978 104.611C114.089 113.035 119.322 120.514 126.169 126.325C127.615 127.551 129.126 128.699 130.693 129.766C131.404 130.252 132.181 130.753 133.067 131.296C139.947 135.469 147.678 138.039 155.687 138.814C156.704 138.91 157.729 138.979 158.737 139.02C177.968 139.77 196.169 130.21 206.245 114.071C213.667 102.19 215.974 88.1737 212.742 74.6025C209.484 60.9217 201.002 49.3357 188.86 41.9775C184.165 39.1275 179.058 37.0192 173.72 35.727C173.138 35.5807 172.537 35.4465 171.88 35.3152C170.24 34.977 168.571 34.7152 166.919 34.5322C159.296 33.7102 151.585 34.5126 144.294 36.8865C143.134 37.2615 141.985 37.6815 140.883 38.1255C139.195 38.8059 137.543 39.5721 135.933 40.4212C127.637 44.7759 120.649 51.2578 115.683 59.2027C107.117 72.9142 105.403 89.4652 110.98 104.611H110.978Z" fill="#371A45"/>
<path d="M206.349 114.134C195.872 130.922 177.373 139.871 158.731 139.141C157.712 139.1 156.694 139.032 155.675 138.935C147.649 138.153 139.9 135.578 133.002 131.4C132.193 130.9 131.397 130.393 130.624 129.867C129.053 128.797 127.54 127.646 126.09 126.417C120.817 121.949 116.484 116.478 113.343 110.321C110.202 104.164 108.316 97.4446 107.795 90.5528C110.95 98.5437 116.031 105.631 122.588 111.183C124.036 112.413 125.549 113.565 127.121 114.633C127.891 115.158 128.687 115.667 129.5 116.166C136.395 120.349 144.143 122.924 152.17 123.701C153.191 123.796 154.211 123.864 155.228 123.905C173.871 124.635 192.366 115.686 202.847 98.8988C208.964 89.1068 211.43 78.1185 210.624 67.4738C216.479 82.2915 215.465 99.543 206.349 114.134Z" fill="#D8D8D8"/>
<path d="M160.844 140.124C160.129 140.124 159.413 140.11 158.695 140.081C157.668 140.039 156.623 139.969 155.587 139.873C147.419 139.078 139.534 136.457 132.516 132.205C131.611 131.65 130.819 131.14 130.093 130.643C128.495 129.556 126.956 128.385 125.482 127.135C118.495 121.206 113.156 113.574 109.981 104.978C104.29 89.5222 106.039 72.6322 114.781 58.6395C120.866 48.9403 129.864 41.4149 140.486 37.1407C141.611 36.6907 142.783 36.2617 143.966 35.8762C151.399 33.454 159.262 32.636 167.035 33.4762C168.721 33.6607 170.423 33.9262 172.095 34.2742C172.763 34.407 173.38 34.5457 173.978 34.6957C179.42 36.0146 184.625 38.1649 189.411 41.0707C201.798 48.576 210.45 60.3975 213.775 74.3565C217.075 88.206 214.72 102.511 207.147 114.631C197.245 130.492 179.652 140.124 160.844 140.124ZM111.75 104.325C114.812 112.618 119.962 119.98 126.702 125.7C128.126 126.907 129.613 128.039 131.157 129.089C131.859 129.569 132.624 130.064 133.498 130.598C140.271 134.706 147.882 137.235 155.765 138C156.765 138.093 157.777 138.161 158.77 138.202C177.704 138.943 195.631 129.528 205.552 113.637C212.856 101.944 215.127 88.1475 211.945 74.7915C208.738 61.3252 200.389 49.92 188.437 42.6765C183.813 39.8716 178.785 37.7967 173.528 36.525C172.952 36.3802 172.364 36.249 171.72 36.1207C170.1 35.7862 168.457 35.5275 166.83 35.349C159.322 34.5383 151.728 35.3284 144.548 37.6672C143.405 38.0422 142.274 38.4502 141.188 38.8875C130.935 43.0138 122.25 50.2772 116.375 59.6385C107.944 73.1317 106.257 89.4217 111.75 104.325Z" fill="#371A45"/>
<path d="M160.844 140.684C160.122 140.684 159.397 140.669 158.669 140.641C157.631 140.599 156.577 140.528 155.531 140.43C147.28 139.627 139.315 136.979 132.225 132.684C131.309 132.122 130.51 131.607 129.776 131.109C128.162 130.011 126.607 128.828 125.118 127.566C118.058 121.574 112.663 113.862 109.455 105.176V105.176C103.703 89.556 105.47 72.4875 114.304 58.347C119.422 50.1588 126.624 43.4777 135.173 38.988C136.832 38.1145 138.534 37.326 140.273 36.6255C141.412 36.1665 142.598 35.7375 143.789 35.3505C151.299 32.9047 159.241 32.0787 167.093 32.9273C168.796 33.114 170.516 33.3848 172.205 33.7328C172.88 33.867 173.505 34.0073 174.112 34.1603C179.607 35.4917 184.865 37.6627 189.698 40.5968C202.215 48.1815 210.958 60.1275 214.318 74.2335C217.651 88.23 215.273 102.686 207.62 114.938C197.618 130.95 179.844 140.684 160.844 140.684ZM112.275 104.135C115.305 112.336 120.398 119.617 127.064 125.274C128.473 126.468 129.944 127.587 131.471 128.627C132.167 129.103 132.925 129.591 133.792 130.122C140.493 134.185 148.023 136.687 155.823 137.444C156.812 137.536 157.814 137.603 158.797 137.643C177.526 138.388 195.266 129.062 205.081 113.343C212.306 101.777 214.551 88.1325 211.405 74.9228C208.233 61.6043 199.974 50.3228 188.15 43.1573C183.576 40.3805 178.601 38.3261 173.4 37.0665C172.828 36.9225 172.248 36.7928 171.614 36.6668C170.007 36.3353 168.381 36.0788 166.772 35.9025C159.343 35.0997 151.827 35.8816 144.722 38.1968C143.591 38.565 142.472 38.9708 141.398 39.4043C131.255 43.4854 122.662 50.6707 116.85 59.9318C108.512 73.281 106.843 89.3918 112.275 104.135Z" fill="#371A45"/>
<path d="M117.13 116.608C144.79 142.396 189.106 133.369 196.893 96.972C202.191 72.2092 181.686 48.0075 157.234 44.547C139.437 42.027 120.934 47.2402 109.384 73.3965C109.384 73.3965 106.084 85.752 108.268 94.6215C110.453 103.491 114.098 111.746 114.098 111.746L117.13 116.608Z" fill="#371A45"/>
<path d="M196.891 96.975C189.106 133.372 144.788 142.399 117.13 116.613L116.516 115.625C149.591 126.572 186.501 111.464 195.069 74.8073C197.706 81.7425 198.525 89.3303 196.891 96.975Z" fill="#220F2D"/>
<path d="M153.642 137.938C149.146 137.935 144.665 137.414 140.287 136.385L140.107 136.328C137.432 135.236 134.846 133.935 132.375 132.438C131.464 131.88 130.669 131.368 129.94 130.868C128.334 129.776 126.787 128.599 125.305 127.343C118.283 121.384 112.917 113.714 109.725 105.075C104.004 89.5395 105.762 72.5633 114.548 58.5C119.639 50.355 126.803 43.7096 135.307 39.2445L135.418 39.186L135.538 39.1523C142.28 37.2225 149.828 36.8273 157.974 37.983C172.633 40.059 186.636 48.8183 195.433 61.4138C203.351 72.7523 206.24 85.8758 203.567 98.3678C200.656 111.97 193.217 122.899 182.05 129.972C173.77 135.213 163.858 137.938 153.642 137.938ZM140.934 134.045C154.945 137.307 169.453 135.076 180.752 127.918C191.354 121.201 198.424 110.805 201.196 97.8548C203.726 86.028 200.971 73.578 193.445 62.7975C185.025 50.7435 171.639 42.363 157.634 40.3793C149.875 39.2813 142.709 39.6398 136.326 41.445C128.25 45.7096 121.447 52.0355 116.607 59.7803C108.22 73.2053 106.542 89.4053 112.002 104.234C115.048 112.482 120.171 119.804 126.875 125.493C128.291 126.695 129.771 127.822 131.306 128.868C132.005 129.346 132.767 129.837 133.637 130.368C135.97 131.781 138.41 133.01 140.934 134.045V134.045Z" fill="#371A45"/>
<path d="M153.56 132.567C140.234 132.567 126.815 127.297 116.303 117.492L116.186 117.383L112.985 112.228C112.949 112.144 109.273 103.77 107.087 94.9027C104.854 85.8382 108.07 73.5945 108.212 73.0777L108.275 72.9007C118.347 50.0955 134.879 40.149 157.407 43.3402C170.484 45.192 182.977 53.0055 190.824 64.2412C197.89 74.358 200.468 86.0715 198.082 97.2217C194.624 113.389 183.766 125.452 168.295 130.321C163.526 131.816 158.558 132.573 153.56 132.567V132.567ZM118.074 115.829C131.863 128.613 150.811 133.281 167.563 128.01C182.179 123.412 192.436 112.006 195.707 96.7185C197.951 86.2327 195.509 75.1935 188.832 65.634C181.363 54.9397 169.487 47.505 157.063 45.7455C135.772 42.7305 120.115 52.1685 110.531 73.7955C110.246 74.9062 107.456 86.253 109.443 94.3267C111.468 102.541 114.8 110.321 115.172 111.175L118.074 115.829Z" fill="#371A45"/>
<path d="M220.619 98.1C219.703 108.424 212.751 116.554 205.089 116.257C197.427 115.96 191.959 107.348 192.874 97.023C192.879 96.9585 192.887 96.8902 192.895 96.825C193.879 86.5942 200.797 78.57 208.405 78.8662C214.324 79.0957 218.933 84.2872 220.303 91.3965C220.718 93.6055 220.825 95.8616 220.619 98.1V98.1Z" fill="white"/>
<path d="M220.619 98.1C219.703 108.424 212.751 116.554 205.089 116.257C197.427 115.96 191.959 107.348 192.874 97.023C192.879 96.9585 192.887 96.8902 192.895 96.825C193.645 97.917 194.862 99.0112 196.669 98.7292C199.835 98.2327 206.007 91.8097 206.007 91.8097C206.007 91.8097 212.206 91.59 220.303 91.3965C220.718 93.6055 220.825 95.8617 220.619 98.1V98.1Z" fill="#D8D8D8"/>
<path d="M205.49 117.479C205.34 117.479 205.19 117.476 205.04 117.47C201.707 117.341 198.671 115.82 196.259 113.084C192.779 109.129 191.105 103.237 191.666 96.9172C192.641 85.9747 200.17 77.3512 208.452 77.6565C211.785 77.7855 214.821 79.3027 217.233 82.0425C220.713 85.9972 222.388 91.89 221.827 98.2095C220.875 108.953 213.6 117.479 205.49 117.479ZM207.995 80.073C201.125 80.073 194.927 87.624 194.084 97.1317C193.589 102.709 195.083 108.074 198.082 111.481C200.044 113.71 202.483 114.943 205.136 115.046C212.145 115.317 218.554 107.67 219.413 97.995C219.907 92.4172 218.412 87.0525 215.414 83.6452C213.452 81.4162 211.012 80.1832 208.364 80.0805C208.238 80.076 208.117 80.073 207.995 80.073Z" fill="#371A45"/>
<path d="M222.146 101.572C223.657 93.4713 219.919 85.9782 213.795 84.8355C207.671 83.6928 201.482 89.3333 199.97 97.4338C198.458 105.534 202.197 113.027 208.321 114.17C214.445 115.313 220.634 109.672 222.146 101.572Z" fill="white"/>
<path d="M209.875 114.45C208.23 114.45 206.638 113.983 205.174 113.059C199.703 109.604 197.881 100.716 201.111 93.2445C202.911 89.0798 205.96 86.0693 209.473 84.9833C212.085 84.1763 214.666 84.5085 216.94 85.944C222.41 89.3985 224.233 98.2868 221.002 105.758C219.202 109.922 216.154 112.934 212.641 114.02C211.746 114.301 210.813 114.446 209.875 114.45V114.45ZM212.237 84.807C211.325 84.8107 210.419 84.9517 209.548 85.2255C206.105 86.2898 203.115 89.2493 201.344 93.345C198.161 100.706 199.94 109.454 205.309 112.845C207.519 114.24 210.028 114.563 212.566 113.779C216.008 112.715 218.999 109.755 220.77 105.659C223.952 98.2973 222.173 89.55 216.804 86.1593C215.383 85.2615 213.836 84.8078 212.237 84.8078V84.807Z" fill="#371A45"/>
<path d="M199.875 104.892C199.421 102.103 199.741 99.1807 200.656 96.492C202.231 102.764 207.636 105.728 213.202 103.141C216.802 101.472 219.636 97.866 221.048 93.699C221.151 94.0942 221.233 94.5075 221.303 94.9305C222.456 102.032 218.593 110.021 212.678 112.772C206.763 115.523 201.03 111.99 199.875 104.892Z" fill="#D8D8D8"/>
<path d="M209.96 115.575C209.873 115.575 209.786 115.575 209.699 115.57C207.232 115.495 204.97 114.37 203.158 112.319C200.347 109.138 198.965 104.04 199.462 98.6842C200.287 89.7787 206.035 82.668 212.341 82.668C212.427 82.668 212.513 82.668 212.6 82.6725C215.068 82.7475 217.33 83.8725 219.142 85.9237C221.953 89.1052 223.334 94.2022 222.838 99.5587L221.63 99.4462L222.838 99.5587C222.012 108.463 216.266 115.575 209.96 115.575ZM212.33 85.0935C207.254 85.0935 202.589 91.2307 201.877 98.9077C201.441 103.61 202.6 108.023 204.976 110.713C206.333 112.249 207.993 113.091 209.776 113.146C209.84 113.146 209.906 113.146 209.97 113.146C215.046 113.146 219.711 107.009 220.423 99.3315C220.859 94.629 219.7 90.2167 217.324 87.5272C215.967 85.9905 214.307 85.149 212.524 85.0935C212.46 85.0935 212.395 85.092 212.33 85.092V85.0935Z" fill="#371A45"/>
<g opacity="0.5">
<path d="M168.623 56.9775C168.623 56.9775 145.298 55.158 130.663 66.471L130.617 66.507C127.549 68.884 125.173 72.0375 123.733 75.6412C121.835 80.3872 121.231 83.931 120.822 87.0712C119.582 96.621 120.814 101.321 120.814 101.321C115.958 95.5867 113.596 89.4712 114.549 81.5062C114.645 80.7212 114.773 79.9165 114.932 79.092C114.968 78.9022 115.007 78.717 115.05 78.5265C115.05 78.5265 115.05 78.5205 115.055 78.516C115.613 76.4294 116.297 74.3786 117.104 72.375C119.963 65.2755 125.429 56.2327 135.345 52.9575C153.882 46.836 169.55 56.0797 168.623 56.9775Z" fill="white"/>
</g>
<g opacity="0.5">
<path d="M184.312 90.1292C188.206 89.5619 190.834 85.4762 190.182 81.0035C189.53 76.5308 185.846 73.3649 181.952 73.9322C178.059 74.4995 175.431 78.5852 176.082 83.0579C176.734 87.5306 180.419 90.6965 184.312 90.1292Z" fill="white"/>
</g>
<g opacity="0.5">
<path d="M185.945 100.052C187.524 99.6698 188.447 97.8886 188.007 96.0738C187.568 94.259 185.931 93.0979 184.353 93.4804C182.775 93.8628 181.851 95.644 182.291 97.4588C182.731 99.2735 184.367 100.435 185.945 100.052Z" fill="white"/>
</g>
<path d="M115.829 162.904C115.829 162.904 113.452 162.116 110.152 162.679C106.244 163.343 105.237 170.973 112.95 171.989C120.053 172.925 120.481 170.525 120.481 170.525L117.926 165.425" fill="white"/>
<g opacity="0.3">
<path d="M113.419 168.518C109.969 168.063 108.263 166.282 107.784 164.393C106.319 166.89 107.259 171.237 112.95 171.987C120.053 172.923 120.481 170.523 120.481 170.523L119.382 168.328C118.301 168.705 116.481 168.922 113.419 168.518Z" fill="#371A45"/>
</g>
<path d="M115.9 173.139C114.871 173.131 113.844 173.056 112.825 172.914C108.033 172.282 106.275 169.346 106.225 166.807C106.178 164.297 107.796 162.123 109.99 161.749C113.48 161.156 116.013 161.974 116.12 162.012C116.356 162.09 116.551 162.259 116.663 162.481C116.775 162.703 116.794 162.96 116.716 163.196C116.638 163.432 116.469 163.628 116.247 163.74C116.025 163.851 115.768 163.87 115.532 163.792C115.484 163.777 113.29 163.091 110.304 163.598C109.018 163.817 108.07 165.182 108.1 166.772C108.115 167.625 108.521 170.456 113.067 171.055C117.492 171.638 118.96 170.858 119.402 170.47L117.082 165.836C116.971 165.614 116.953 165.356 117.031 165.12C117.11 164.884 117.279 164.689 117.501 164.578C117.724 164.467 117.981 164.448 118.217 164.527C118.453 164.606 118.648 164.775 118.759 164.997L121.453 170.379L121.398 170.685C121.321 171.15 120.685 173.138 115.9 173.139Z" fill="#371A45"/>
<path d="M121.853 187.275L157.766 190.789C162.017 191.207 165.838 188.069 166.256 183.814L168.125 164.702C168.49 160.976 166.127 157.586 162.678 156.521C162.18 156.366 161.667 156.262 161.148 156.213L125.24 152.7C120.984 152.282 117.163 155.421 116.751 159.675L115.267 174.812L114.877 178.787C114.459 183.044 117.6 186.861 121.853 187.275Z" fill="white"/>
<path d="M121.853 187.275L157.766 190.789C162.017 191.207 165.838 188.069 166.256 183.814L168.125 164.702C168.49 160.976 166.127 157.586 162.678 156.521C162.18 156.366 161.667 156.262 161.148 156.213L125.24 152.7C120.984 152.282 117.163 155.421 116.751 159.675L115.267 174.812L114.877 178.787C114.459 183.044 117.6 186.861 121.853 187.275Z" fill="white"/>
<path d="M121.853 187.275L157.766 190.789C162.017 191.207 165.838 188.069 166.256 183.814L168.125 164.702C168.49 160.976 166.127 157.586 162.678 156.521C162.18 156.366 161.667 156.262 161.148 156.213L125.24 152.7C120.984 152.282 117.163 155.421 116.751 159.675L115.267 174.812L114.877 178.787C114.459 183.044 117.6 186.861 121.853 187.275Z" fill="white"/>
<g opacity="0.3">
<path d="M121.8 187.275L157.713 190.789C161.964 191.206 165.785 188.068 166.203 183.814L168.075 164.7C168.44 160.974 166.077 157.584 162.628 156.518C160.453 157.673 159.076 158.413 159.076 158.413C155.827 173.582 150.71 180.805 131.63 179.252C123.394 178.577 118.326 176.818 115.216 174.81L114.827 178.785C114.406 183.042 117.55 186.859 121.8 187.275Z" fill="#371A45"/>
</g>
<path d="M160.072 192.491C159.827 192.491 159.58 192.479 159.331 192.455L119.995 188.605C118.004 188.405 116.173 187.425 114.903 185.879C113.632 184.333 113.026 182.347 113.217 180.355L115.425 157.816C115.622 155.824 116.602 153.992 118.149 152.721C119.695 151.45 121.683 150.845 123.675 151.038L163.012 154.889C165.004 155.086 166.836 156.065 168.107 157.612C169.377 159.159 169.983 161.146 169.79 163.139L167.583 185.679C167.398 187.543 166.527 189.272 165.139 190.531C163.752 191.789 161.946 192.488 160.072 192.491V192.491ZM122.932 154.002C121.804 154.005 120.716 154.426 119.88 155.185C119.045 155.943 118.52 156.985 118.409 158.108L116.203 180.649C116.09 181.848 116.456 183.044 117.221 183.975C117.986 184.905 119.088 185.496 120.286 185.618L159.624 189.469C160.825 189.586 162.023 189.222 162.955 188.456C163.887 187.69 164.477 186.586 164.594 185.385L166.8 162.844C166.916 161.643 166.551 160.446 165.786 159.515C165.02 158.583 163.916 157.993 162.716 157.874L123.379 154.025C123.229 154.01 123.08 154.002 122.932 154.002V154.002Z" fill="#371A45"/>
<path d="M134.569 188.389L134.627 188.531L157.769 190.795C159.254 190.935 160.748 190.646 162.074 189.962C163.399 189.278 164.501 188.228 165.247 186.936C165.805 185.982 166.148 184.917 166.252 183.817L167.086 175.326L167.361 172.524L167.839 167.605L168.124 164.706C168.539 160.449 165.4 156.633 161.149 156.215L153.389 155.459C156.899 156.483 159.314 159.904 158.948 163.663L158.395 169.337L157.937 173.987L157.08 182.784C156.66 187.03 152.839 190.171 148.589 189.759L134.569 188.389Z" fill="white"/>
<g opacity="0.3">
<path d="M130.904 188.025L130.962 188.167L157.769 190.792C159.254 190.933 160.748 190.644 162.074 189.96C163.399 189.276 164.501 188.226 165.247 186.934C165.805 185.98 166.148 184.915 166.252 183.815L167.086 175.324L167.361 172.522L167.839 167.602C166.304 167.236 164.219 167.248 162.872 169.438C161.003 172.471 159.457 171.25 158.395 169.335L157.938 173.985L157.081 182.782C156.661 187.028 152.84 190.169 148.59 189.757L130.904 188.025Z" fill="#371A45"/>
</g>
<path d="M158.534 192.069C158.24 192.069 157.942 192.055 157.645 192.026L123.908 188.726L124.014 187.499C124.094 186.632 124.63 186.423 125.359 186.413V186.38L125.884 186.432C126.039 186.443 126.199 186.458 126.363 186.473L148.705 188.526C150.428 188.691 152.147 188.166 153.485 187.067C154.823 185.968 155.672 184.384 155.845 182.662L157.716 163.548C157.861 162.034 157.475 160.517 156.622 159.257C155.769 157.998 154.504 157.075 153.044 156.648L153.511 154.229L161.269 154.986C163.644 155.225 165.828 156.394 167.344 158.239C168.859 160.083 169.583 162.453 169.356 164.83L167.485 183.942C167.263 186.164 166.225 188.225 164.572 189.727C162.919 191.229 160.768 192.065 158.535 192.074L158.534 192.069ZM154.707 189.251L157.887 189.563C159.61 189.725 161.327 189.2 162.663 188.101C164 187.002 164.847 185.419 165.021 183.698V183.698L166.891 164.584C167.054 162.861 166.529 161.143 165.43 159.805C164.332 158.468 162.749 157.619 161.027 157.445L158.144 157.163C158.904 158.078 159.476 159.135 159.825 160.272C160.174 161.409 160.295 162.604 160.179 163.788L158.309 182.902C158.196 184.079 157.85 185.222 157.292 186.265C156.734 187.308 155.974 188.23 155.057 188.977C154.943 189.071 154.826 189.163 154.707 189.251V189.251Z" fill="#371A45"/>
<path d="M143.837 171.992C143.773 172.699 144.241 178.499 144.241 178.499L148.27 178.874C151.045 179.13 153.557 176.464 153.884 172.921C154.21 169.378 152.225 166.298 149.451 166.043L145.423 165.668C145.423 165.668 143.944 170.84 143.837 171.992Z" fill="#22A7F0"/>
<path d="M143.837 171.992C143.773 172.699 144.241 178.499 144.241 178.499L148.27 178.874C151.045 179.13 153.557 176.464 153.884 172.921C154.21 169.378 152.225 166.298 149.451 166.043L145.423 165.668C145.423 165.668 143.944 170.84 143.837 171.992Z" fill="#1C7AEA"/>
<path d="M148.633 179.638C148.49 179.638 148.346 179.631 148.201 179.617L145.402 179.359C144.881 179.313 144.394 179.083 144.026 178.71C143.659 178.338 143.436 177.847 143.397 177.325C143.032 172.561 143.076 172.081 143.091 171.925C143.166 171.107 143.827 168.604 144.366 166.65C144.503 166.149 144.813 165.712 145.241 165.417C145.669 165.121 146.187 164.986 146.704 165.035L149.518 165.294C152.699 165.587 154.993 169.039 154.628 172.987C154.283 176.755 151.64 179.637 148.633 179.638ZM146.503 166.524C146.347 166.524 146.195 166.575 146.07 166.67C145.946 166.765 145.856 166.898 145.814 167.049C145.093 169.652 144.634 171.525 144.584 172.062C144.562 172.309 144.631 173.792 144.892 177.211C144.905 177.379 144.977 177.538 145.096 177.658C145.215 177.778 145.372 177.852 145.54 177.867L148.339 178.125C150.693 178.34 152.849 175.975 153.139 172.849C153.428 169.723 151.743 167.004 149.389 166.787L146.575 166.528C146.55 166.526 146.525 166.524 146.503 166.524V166.524Z" fill="#371A45"/>
<path d="M149.854 172.545C150.18 169.002 148.195 165.923 145.421 165.667C142.647 165.412 140.133 168.077 139.807 171.62C139.481 175.163 141.465 178.243 144.24 178.498C147.014 178.754 149.527 176.088 149.854 172.545Z" fill="#22A7F0"/>
<g opacity="0.7">
<path d="M149.854 172.548C149.829 172.815 149.793 173.073 149.744 173.327C149.47 170.467 147.682 168.194 145.319 167.975C142.75 167.739 140.411 170 139.815 173.15C139.765 172.642 139.765 172.131 139.815 171.623C140.141 168.079 142.653 165.415 145.428 165.67C148.203 165.924 150.18 169.004 149.854 172.548Z" fill="white"/>
</g>
<path d="M149.854 172.548C149.527 176.088 147.016 178.755 144.24 178.501C141.464 178.247 139.483 175.165 139.809 171.621C139.857 171.078 139.961 170.54 140.119 170.018C140.631 172.475 142.294 174.332 144.424 174.528C146.758 174.746 148.912 172.891 149.727 170.182C149.885 170.96 149.927 171.757 149.854 172.548Z" fill="#1C7AEA"/>
<path d="M144.605 179.266C144.462 179.266 144.318 179.26 144.173 179.246C140.991 178.953 138.698 175.501 139.062 171.553C139.235 169.672 139.977 167.953 141.152 166.706C142.374 165.41 143.914 164.773 145.491 164.922C147.068 165.07 148.467 165.972 149.432 167.468C150.359 168.907 150.775 170.735 150.602 172.615C150.254 176.385 147.611 179.266 144.605 179.266ZM140.555 171.691C140.267 174.817 141.951 177.537 144.309 177.754C146.667 177.972 148.82 175.605 149.109 172.479C149.252 170.932 148.919 169.441 148.172 168.283C147.462 167.182 146.462 166.519 145.355 166.417C144.248 166.315 143.143 166.783 142.244 167.737C141.298 168.739 140.698 170.144 140.556 171.691H140.555Z" fill="#371A45"/>
<path d="M133.032 189.16C133.009 189.16 132.986 189.16 132.962 189.16C132.717 189.142 132.489 189.027 132.328 188.841C132.167 188.654 132.087 188.411 132.105 188.166L132.823 178.477C132.895 177.524 132.729 176.568 132.34 175.695C131.951 174.822 131.352 174.06 130.595 173.476C129.574 172.69 128.77 171.657 128.257 170.474C127.745 169.292 127.541 167.999 127.666 166.716L128.953 153.075C128.976 152.83 129.095 152.604 129.285 152.447C129.475 152.29 129.719 152.215 129.964 152.238C130.209 152.262 130.435 152.381 130.592 152.571C130.749 152.76 130.824 153.005 130.801 153.25L129.514 166.885C129.42 167.856 129.574 168.835 129.962 169.731C130.35 170.626 130.959 171.408 131.732 172.003C132.731 172.774 133.523 173.781 134.036 174.934C134.55 176.087 134.769 177.349 134.674 178.608L133.957 188.298C133.94 188.532 133.835 188.751 133.664 188.911C133.492 189.071 133.267 189.16 133.032 189.16Z" fill="#371A45"/>
<path d="M166.324 172.512C166.324 172.512 162.749 171.874 161.974 175.614C161.2 179.354 164.801 180.803 164.801 180.803C164.801 180.803 177.468 184.951 187.084 182.555C191.317 179.462 188.002 174.669 188.002 174.669C188.002 174.669 176.735 175.961 166.324 172.512Z" fill="white"/>
<g opacity="0.3">
<path d="M164.801 180.803C164.801 180.803 177.467 184.95 187.081 182.554C188.968 181.176 189.357 179.461 189.207 177.979C188.854 178.447 188.431 178.859 187.953 179.2C178.339 181.596 165.67 177.448 165.67 177.448C165.67 177.448 163.073 176.402 162.766 173.801C162.418 174.243 162.136 174.834 161.974 175.611C161.199 179.354 164.801 180.803 164.801 180.803Z" fill="#371A45"/>
</g>
<path d="M180.292 184.234C172.411 184.234 164.917 181.817 164.511 181.684L164.454 181.663C162.959 181.063 160.329 178.984 161.065 175.425C161.823 171.767 164.944 171.322 166.487 171.6L166.616 171.633C176.716 174.979 187.786 173.762 187.896 173.749L188.449 173.686L188.765 174.143C190.09 176.058 191.557 180.438 187.63 183.306L187.48 183.412L187.304 183.457C185.055 184.015 182.656 184.234 180.292 184.234ZM165.124 179.932C165.86 180.166 177.704 183.846 186.676 181.698C189.291 179.659 188.111 176.763 187.508 175.65C185.012 175.869 175.323 176.45 166.106 173.417C165.542 173.338 163.417 173.221 162.881 175.802C162.3 178.6 164.816 179.797 165.124 179.932V179.932Z" fill="#371A45"/>
<path d="M89.0468 192.292C82.8098 195.136 76.9412 195.392 71.4412 193.062C70.9695 192.864 70.497 192.643 70.029 192.404C69.4207 192.098 68.9436 191.583 68.6855 190.953C68.4275 190.323 68.406 189.621 68.625 188.976L70.389 183.892H88.7918L90.5055 188.836C90.7353 189.491 90.7133 190.207 90.4436 190.846C90.1739 191.485 89.6759 192 89.0468 192.292Z" fill="#9595B5"/>
<path d="M61.5608 164.4L52.3718 169.301C51.8824 169.561 51.4732 169.951 51.1879 170.426C50.9027 170.902 50.7522 171.446 50.7525 172.001V177.926C50.7526 178.722 51.0632 179.487 51.6184 180.058C52.1735 180.629 52.9294 180.961 53.7255 180.983L65.7668 181.318" fill="#FB132B"/>
<g opacity="0.55">
<path d="M62.151 166.785L54.4747 170.879C53.9862 171.141 53.5778 171.53 53.293 172.006C53.0081 172.481 52.8574 173.025 52.857 173.579V179.504C52.8561 179.996 52.9743 180.48 53.2012 180.917C52.5101 180.777 51.8886 180.402 51.4423 179.856C50.9959 179.31 50.7522 178.627 50.7525 177.922V171.997C50.7516 171.442 50.9017 170.898 51.1865 170.423C51.4714 169.947 51.8803 169.558 52.3695 169.297L61.5592 164.4L62.151 166.785Z" fill="white"/>
</g>
<path d="M108.688 171.998V177.923C108.687 178.719 108.377 179.483 107.822 180.054C107.267 180.625 106.512 180.957 105.716 180.98L93.675 181.319L96.2565 170.93L97.881 164.398L107.02 169.273L107.071 169.3C107.56 169.561 107.968 169.949 108.253 170.425C108.538 170.9 108.688 171.444 108.688 171.998V171.998Z" fill="#FB132B"/>
<g opacity="0.3">
<path d="M108.688 171.998V177.923C108.687 178.719 108.377 179.483 107.822 180.054C107.267 180.625 106.512 180.957 105.716 180.98L93.675 181.319L96.2565 170.93L96.4733 170.209C100.617 179.782 104.033 177.983 107.02 169.273L107.071 169.301C107.559 169.561 107.968 169.95 108.253 170.425C108.538 170.9 108.688 171.444 108.688 171.998V171.998Z" fill="#371A45"/>
</g>
<path d="M79.0935 195.756C75.7852 195.756 72.585 194.972 69.5137 193.404C67.7632 192.511 66.9247 190.448 67.5637 188.604L69.3277 183.525C69.3745 183.383 69.4489 183.252 69.5467 183.14C69.6445 183.027 69.7638 182.935 69.8975 182.869C70.0313 182.803 70.1768 182.764 70.3257 182.754C70.4746 182.745 70.6239 182.765 70.7649 182.814C70.9058 182.863 71.0357 182.94 71.1468 183.039C71.2579 183.139 71.3482 183.259 71.4122 183.394C71.4763 183.529 71.5129 183.675 71.52 183.824C71.527 183.973 71.5043 184.122 71.4533 184.262L69.6892 189.345C69.56 189.732 69.5744 190.153 69.7301 190.531C69.8857 190.909 70.172 191.218 70.5367 191.401C76.173 194.279 82.0747 194.236 88.5802 191.269C88.9531 191.092 89.2474 190.783 89.4066 190.402C89.5657 190.021 89.5786 189.595 89.4427 189.205L87.7275 184.262C87.6699 184.121 87.6417 183.969 87.6446 183.816C87.6475 183.664 87.6814 183.513 87.7444 183.374C87.8073 183.235 87.8979 183.11 88.0107 183.007C88.1234 182.904 88.256 182.825 88.4002 182.775C88.5445 182.725 88.6974 182.705 88.8498 182.716C89.0021 182.727 89.1506 182.768 89.2862 182.839C89.4219 182.909 89.5418 183.006 89.6387 183.124C89.7356 183.242 89.8075 183.378 89.85 183.525L91.5652 188.468C91.8917 189.387 91.8618 190.394 91.4814 191.292C91.1011 192.19 90.398 192.912 89.511 193.316C85.9455 194.942 82.464 195.756 79.0935 195.756Z" fill="#371A45"/>
<path d="M65.7675 182.443H65.7352L53.6947 182.108C52.6039 182.084 51.5665 181.631 50.8057 180.849C50.045 180.067 49.6219 179.017 49.6275 177.926V172.001C49.6266 171.243 49.8322 170.498 50.2224 169.848C50.6126 169.198 51.1726 168.666 51.8422 168.31L61.0312 163.409C61.2946 163.269 61.6029 163.239 61.8884 163.326C62.0297 163.369 62.1612 163.44 62.2753 163.533C62.3894 163.627 62.4839 163.743 62.5534 163.873C62.6229 164.004 62.666 164.146 62.6803 164.293C62.6946 164.441 62.6798 164.589 62.6367 164.73C62.5936 164.872 62.5231 165.003 62.4292 165.117C62.3353 165.231 62.2199 165.326 62.0895 165.395L52.9005 170.296C52.5912 170.46 52.3325 170.706 52.1523 171.007C51.972 171.307 51.877 171.651 51.8775 172.001V177.926C51.8748 178.431 52.0703 178.916 52.4218 179.277C52.7734 179.639 53.2529 179.848 53.757 179.859L65.7982 180.194C66.0966 180.198 66.3811 180.32 66.5892 180.534C66.7973 180.748 66.9119 181.036 66.9079 181.334C66.9038 181.632 66.7814 181.917 66.5675 182.125C66.3536 182.333 66.0659 182.448 65.7675 182.444V182.443Z" fill="#371A45"/>
<path d="M93.675 182.443C93.3766 182.447 93.0889 182.332 92.875 182.124C92.6611 181.916 92.5387 181.631 92.5346 181.333C92.5306 181.035 92.6452 180.747 92.8533 180.533C93.0614 180.319 93.3459 180.197 93.6443 180.193L105.686 179.858C106.19 179.847 106.669 179.638 107.021 179.276C107.372 178.915 107.568 178.43 107.565 177.925V172C107.565 171.65 107.47 171.306 107.29 171.006C107.11 170.705 106.851 170.459 106.541 170.295L97.35 165.392C97.0866 165.252 96.8898 165.013 96.8028 164.727C96.7158 164.442 96.7458 164.133 96.8861 163.87C97.0265 163.607 97.2657 163.41 97.5511 163.323C97.8366 163.236 98.1449 163.266 98.4083 163.406L107.597 168.307C108.267 168.663 108.827 169.195 109.217 169.845C109.607 170.496 109.813 171.24 109.812 171.998V177.923C109.818 179.014 109.394 180.064 108.634 180.846C107.873 181.628 106.836 182.08 105.745 182.105L93.7035 182.44L93.675 182.443Z" fill="#371A45"/>
<path d="M94.2435 180.065C93.993 180.949 93.5018 181.746 92.8248 182.368C92.1477 182.99 91.3113 183.411 90.4088 183.586C82.6433 185.086 75.5505 184.979 68.9843 183.625C68.1026 183.437 67.289 183.012 66.6316 182.396C65.9742 181.779 65.498 180.995 65.2545 180.127C65.1735 179.84 65.0918 179.554 65.0183 179.272C58.4183 155.51 57.7013 135.494 62.8673 119.224C65.5718 110.711 69.886 103.225 75.81 96.7658C76.3093 96.219 76.9171 95.7823 77.5946 95.4835C78.2721 95.1847 79.0044 95.0304 79.7449 95.0304C80.4853 95.0304 81.2177 95.1847 81.8952 95.4835C82.5727 95.7823 83.1804 96.219 83.6798 96.7658C84.8798 98.0738 86.0148 99.4255 87.0848 100.821C91.2848 106.304 94.4628 112.438 96.6188 119.224C101.844 135.672 101.052 155.953 94.2435 180.065Z" fill="#F6F6F6"/>
<path d="M96.615 119.224C87.5108 126.73 69.8085 126.536 62.865 119.224C65.5695 110.711 69.8838 103.225 75.8078 96.7658C76.3071 96.219 76.9149 95.7823 77.5923 95.4835C78.2698 95.1847 79.0022 95.0304 79.7426 95.0304C80.4831 95.0304 81.2154 95.1847 81.8929 95.4835C82.5704 95.7823 83.1782 96.219 83.6775 96.7658C89.601 103.228 93.9135 110.714 96.615 119.224Z" fill="#FB132B"/>
<g opacity="0.55">
<path d="M87.36 101.192C86.835 100.566 86.292 99.954 85.7385 99.3465C85.2392 98.7998 84.6314 98.363 83.9539 98.0643C83.2764 97.7655 82.5441 97.6111 81.8036 97.6111C81.0632 97.6111 80.3308 97.7655 79.6533 98.0643C78.9759 98.363 78.3681 98.7998 77.8687 99.3465C72.0992 105.639 67.8585 112.901 65.1465 121.135C64.3178 120.583 63.5522 119.943 62.8635 119.224C65.568 110.711 69.8822 103.225 75.8062 96.7658C76.3056 96.219 76.9134 95.7823 77.5908 95.4835C78.2683 95.1847 79.0007 95.0304 79.7411 95.0304C80.4816 95.0304 81.2139 95.1847 81.8914 95.4835C82.5689 95.7823 83.1767 96.219 83.676 96.7658C84.984 98.1903 86.212 99.6658 87.36 101.192Z" fill="white"/>
</g>
<g opacity="0.3">
<path d="M94.2435 180.064C93.993 180.949 93.5018 181.746 92.8248 182.368C92.1477 182.99 91.3113 183.411 90.4087 183.586C82.6432 185.086 75.5505 184.978 68.9842 183.625C68.1026 183.437 67.289 183.012 66.6316 182.396C65.9742 181.779 65.4979 180.995 65.2545 180.127C65.1735 179.84 65.0917 179.554 65.0182 179.272C99.0487 162.521 87.0683 100.813 87.0683 100.813L87.0795 100.821C91.2795 106.303 94.4575 112.438 96.6135 119.224C101.842 135.672 101.052 155.952 94.2435 180.064Z" fill="#371A45"/>
</g>
<path d="M79.374 186.167C75.7825 186.173 72.1997 185.813 68.6812 185.092C67.5282 184.854 66.4632 184.303 65.6031 183.499C64.7431 182.695 64.1213 181.67 63.8062 180.535C58.6005 162.118 56.8612 145.667 58.6365 131.635C60.4305 117.495 65.8335 105.421 74.7 95.7525C75.3399 95.0525 76.1186 94.4934 76.9865 94.1109C77.8543 93.7284 78.7923 93.5309 79.7407 93.5309C80.6892 93.5309 81.6272 93.7284 82.495 94.1109C83.3629 94.4934 84.1416 95.0525 84.7815 95.7525C93.642 105.416 99.0442 117.481 100.837 131.614C102.616 145.633 100.883 162.072 95.688 180.474C95.3653 181.628 94.7267 182.668 93.844 183.478C92.9614 184.288 91.87 184.835 90.693 185.057C86.9639 185.787 83.1737 186.158 79.374 186.167ZM79.74 96.531C79.2071 96.529 78.6797 96.6393 78.1921 96.8546C77.7046 97.0699 77.2678 97.3853 76.9102 97.7805C59.982 116.241 56.55 143.809 66.6967 179.719C66.8631 180.324 67.1929 180.871 67.6499 181.301C68.1069 181.73 68.6734 182.025 69.2872 182.154C75.9945 183.538 82.8105 183.524 90.1237 182.111C90.752 181.988 91.3342 181.693 91.8062 181.261C92.2783 180.828 92.622 180.274 92.7997 179.659V179.659C102.93 143.779 99.4882 116.231 82.5697 97.7805C82.2121 97.3853 81.7754 97.0699 81.2878 96.8546C80.8003 96.6393 80.2729 96.529 79.74 96.531Z" fill="#371A45"/>
<path d="M61.7873 165.617C58.104 165.896 55.14 161.697 53.9873 156.547C53.7267 155.382 53.5624 154.198 53.496 153.007C53.3887 151.004 53.7336 149.002 54.5052 147.151C55.2768 145.3 56.4553 143.646 57.9533 142.312L59.4818 140.95L59.5898 147.918C62.898 147.721 65.1848 149.3 66.504 151.593V151.598C69.3908 156.593 67.6455 164.971 61.7873 165.617Z" fill="#F6F6F6"/>
<path d="M61.4445 167.128C59.8695 167.128 58.332 166.507 56.9753 165.318C54.1875 162.874 52.2795 158.193 51.996 153.093C51.7455 148.574 53.5523 144.238 56.9543 141.196L58.4813 139.832C58.6956 139.641 58.9606 139.514 59.2446 139.469C59.5286 139.424 59.8196 139.461 60.083 139.576C60.3465 139.692 60.5712 139.88 60.7304 140.12C60.8896 140.359 60.9766 140.64 60.981 140.927L61.0665 146.443C66.2415 146.908 68.9415 151.337 69.3217 155.865C69.7455 160.876 67.3065 166.515 61.953 167.108L61.902 167.113C61.749 167.122 61.5968 167.128 61.4445 167.128ZM58.0335 144.346C56.9825 145.502 56.1722 146.857 55.65 148.33C55.1277 149.802 54.9039 151.365 54.9915 152.925C55.2247 157.116 56.8163 161.19 58.9523 163.063C59.8253 163.828 60.7328 164.179 61.6523 164.122C65.1023 163.723 66.6383 159.704 66.3345 156.116C66.0593 152.86 64.1595 149.146 59.6798 149.416C59.4776 149.428 59.2752 149.399 59.0846 149.33C58.8941 149.262 58.7193 149.156 58.5709 149.018C58.4224 148.88 58.3034 148.714 58.221 148.529C58.1386 148.344 58.0944 148.144 58.0913 147.942L58.0335 144.346Z" fill="#371A45"/>
<path d="M60.1327 149.316L57.4132 149.296C57.3064 149.295 57.2023 149.262 57.1143 149.202C57.0263 149.141 56.9586 149.055 56.9198 148.956C56.8811 148.856 56.8732 148.747 56.8971 148.643C56.9211 148.539 56.9757 148.444 57.054 148.372L59.0452 146.519C59.2382 146.34 59.4721 146.211 59.7265 146.143C59.981 146.075 60.2481 146.07 60.5048 146.129C60.7615 146.188 60.9998 146.309 61.199 146.481C61.3982 146.653 61.5523 146.872 61.6477 147.117C61.7432 147.363 61.7771 147.628 61.7465 147.889C61.716 148.151 61.6219 148.401 61.4725 148.618C61.3231 148.835 61.1229 149.012 60.8894 149.133C60.6559 149.255 60.3961 149.318 60.1327 149.316V149.316Z" fill="#371A45"/>
<path d="M79.647 165.628H79.4872C78.1067 165.628 76.9875 166.748 76.9875 168.128V185.14C76.9875 186.52 78.1067 187.639 79.4872 187.639H79.647C81.0276 187.639 82.1468 186.52 82.1468 185.14V168.128C82.1468 166.748 81.0276 165.628 79.647 165.628Z" fill="#FB132B"/>
<g opacity="0.55">
<path d="M81.486 166.487C81.4112 166.48 81.3361 166.476 81.261 166.475C80.9226 166.475 80.5874 166.542 80.2747 166.671C79.962 166.801 79.6779 166.991 79.4386 167.23C79.1992 167.469 79.0094 167.753 78.88 168.066C78.7505 168.379 78.6839 168.714 78.684 169.052V185.907C78.6817 186.545 78.9191 187.161 79.3492 187.632C78.7056 187.577 78.1059 187.283 77.6688 186.807C77.2317 186.332 76.9891 185.709 76.989 185.063V168.209C76.9894 167.699 77.141 167.2 77.4248 166.775C77.7085 166.351 78.1117 166.02 78.5833 165.825C79.0549 165.629 79.5739 165.578 80.0746 165.678C80.5754 165.777 81.0354 166.022 81.3967 166.383C81.4285 166.416 81.4583 166.451 81.486 166.487V166.487Z" fill="white"/>
</g>
<path d="M79.65 188.577H79.491C78.5797 188.576 77.706 188.214 77.0616 187.569C76.4172 186.925 76.0547 186.051 76.0537 185.14V168.128C76.0547 167.217 76.4172 166.343 77.0615 165.699C77.7059 165.054 78.5796 164.691 79.491 164.69H79.65C80.5614 164.691 81.4352 165.054 82.0797 165.699C82.7242 166.343 83.0868 167.217 83.088 168.128V185.14C83.0868 186.051 82.7242 186.925 82.0797 187.569C81.4352 188.214 80.5614 188.576 79.65 188.577V188.577ZM79.491 166.565C79.0767 166.566 78.6796 166.731 78.3867 167.024C78.0938 167.317 77.9292 167.714 77.9288 168.128V185.14C77.9292 185.554 78.0939 185.951 78.3868 186.244C78.6797 186.537 79.0768 186.702 79.491 186.702H79.65C80.0643 186.702 80.4615 186.537 80.7545 186.244C81.0475 185.951 81.2124 185.554 81.213 185.14V168.128C81.2124 167.714 81.0475 167.317 80.7545 167.024C80.4616 166.731 80.0644 166.566 79.65 166.565H79.491Z" fill="#371A45"/>
<path d="M80.5395 154.88C86.4164 154.88 91.1805 150.115 91.1805 144.239C91.1805 138.362 86.4164 133.598 80.5395 133.598C74.6626 133.598 69.8985 138.362 69.8985 144.239C69.8985 150.115 74.6626 154.88 80.5395 154.88Z" fill="#FB132B"/>
<g opacity="0.3">
<path d="M91.179 144.239C91.1786 146.78 90.2685 149.238 88.6133 151.166C86.9581 153.095 84.6672 154.368 82.1551 154.754C79.643 155.14 77.0756 154.615 74.9174 153.272C72.7593 151.93 71.1529 149.859 70.389 147.435C71.7968 149.099 73.6819 150.291 75.7893 150.849C77.8966 151.407 80.1245 151.304 82.1715 150.554C84.2184 149.805 85.9857 148.444 87.2341 146.657C88.4826 144.87 89.152 142.743 89.1517 140.563C89.1538 139.478 88.9878 138.4 88.6597 137.367C90.2894 139.285 91.1826 141.721 91.179 144.239V144.239Z" fill="#371A45"/>
</g>
<g opacity="0.55">
<path d="M89.7203 138.86C87.9525 136.91 85.5245 135.684 82.9056 135.42C80.2867 135.155 77.6627 135.871 75.5407 137.429C73.4188 138.986 71.9494 141.275 71.4167 143.853C70.8839 146.43 71.3256 149.114 72.6563 151.385C71.6533 150.282 70.8935 148.98 70.426 147.564C69.9585 146.148 69.7938 144.649 69.9426 143.166C70.0914 141.682 70.5503 140.246 71.2897 138.951C72.029 137.656 73.0323 136.531 74.2344 135.649C75.4365 134.766 76.8106 134.147 78.2676 133.829C79.7246 133.512 81.232 133.505 82.6921 133.808C84.1522 134.11 85.5324 134.717 86.7431 135.587C87.9539 136.457 88.9682 137.573 89.7203 138.86V138.86Z" fill="white"/>
</g>
<path d="M80.5395 155.63C74.2582 155.63 69.1485 150.52 69.1485 144.239C69.1485 137.957 74.2582 132.848 80.5395 132.848C86.8207 132.848 91.9297 137.958 91.9297 144.239C91.9297 150.519 86.82 155.63 80.5395 155.63ZM80.5395 134.348C75.0855 134.348 70.6485 138.785 70.6485 144.239C70.6485 149.692 75.0855 154.13 80.5395 154.13C85.9935 154.13 90.4297 149.693 90.4297 144.239C90.4297 138.785 85.9927 134.348 80.5395 134.348Z" fill="#371A45"/>
<path d="M85.1903 148.89C87.759 146.321 87.759 142.156 85.1903 139.588C82.6216 137.019 78.457 137.019 75.8883 139.588C73.3196 142.156 73.3196 146.321 75.8883 148.89C78.457 151.458 82.6216 151.458 85.1903 148.89Z" fill="#09CBFF"/>
<g opacity="0.3">
<path d="M87.027 143.171C86.2611 141.971 85.127 141.053 83.7949 140.553C82.4628 140.053 81.0045 139.998 79.6386 140.397C78.2728 140.796 77.0732 141.627 76.2197 142.765C75.3661 143.904 74.9048 145.288 74.9047 146.711C74.9049 147.068 74.9345 147.424 74.9932 147.776C74.4683 146.953 74.133 146.024 74.0117 145.055C73.8904 144.087 73.986 143.104 74.2918 142.177C74.5975 141.25 75.1057 140.403 75.7794 139.697C76.4531 138.991 77.2755 138.444 78.1869 138.095C79.0983 137.747 80.0759 137.605 81.0488 137.681C82.0217 137.757 82.9656 138.048 83.8119 138.534C84.6582 139.02 85.3858 139.688 85.9419 140.49C86.498 141.292 86.8686 142.208 87.027 143.171V143.171Z" fill="#232323"/>
</g>
<path d="M80.5395 151.567C79.0901 151.567 77.6732 151.137 76.4679 150.332C75.2627 149.527 74.3233 148.382 73.7685 147.043C73.2138 145.704 73.0685 144.231 73.3512 142.809C73.6339 141.388 74.3318 140.082 75.3566 139.057C76.3815 138.032 77.6872 137.334 79.1088 137.051C80.5304 136.768 82.0039 136.913 83.343 137.468C84.6821 138.023 85.8266 138.962 86.6319 140.167C87.4372 141.372 87.867 142.789 87.867 144.238C87.8648 146.181 87.0921 148.044 85.7185 149.418C84.3448 150.791 82.4823 151.564 80.5395 151.567V151.567ZM80.5395 138.411C79.3867 138.411 78.2598 138.753 77.3012 139.393C76.3426 140.033 75.5955 140.943 75.1543 142.009C74.7131 143.074 74.5976 144.245 74.8225 145.376C75.0473 146.507 75.6024 147.545 76.4176 148.36C77.2327 149.176 78.2713 149.731 79.4019 149.956C80.5325 150.18 81.7045 150.065 82.7695 149.624C83.8345 149.182 84.7447 148.435 85.3851 147.477C86.0254 146.518 86.3672 145.391 86.367 144.238C86.365 142.694 85.7504 141.212 84.658 140.12C83.5655 139.028 82.0844 138.413 80.5395 138.411V138.411Z" fill="#371A45"/>
<path d="M79.0365 126.059C72.2302 126.059 65.6655 124.078 61.9132 120.126C61.7933 120.001 61.6993 119.854 61.6365 119.693C61.5737 119.532 61.5434 119.359 61.5473 119.186C61.5513 119.014 61.5894 118.843 61.6595 118.685C61.7296 118.527 61.8302 118.384 61.9557 118.265C62.0812 118.146 62.229 118.052 62.3906 117.991C62.5522 117.929 62.7245 117.899 62.8974 117.904C63.0704 117.909 63.2407 117.949 63.3984 118.02C63.5562 118.091 63.6984 118.192 63.8167 118.318C70.3477 125.199 87.375 125.143 95.7802 118.21C96.0496 117.997 96.3919 117.897 96.7335 117.934C97.0751 117.97 97.3889 118.139 97.6074 118.404C97.8259 118.669 97.9318 119.009 97.9023 119.352C97.8729 119.694 97.7104 120.011 97.4497 120.235C92.739 124.12 85.7692 126.059 79.0365 126.059Z" fill="#371A45"/>
<g opacity="0.3">
<path d="M61.7873 165.616C58.104 165.895 55.14 161.697 53.9873 156.547C60.9713 161.577 64.2622 157.822 66.504 151.597C69.3907 156.593 67.6455 164.971 61.7873 165.616Z" fill="#371A45"/>
</g>
<g opacity="0.3">
<path d="M89.0468 192.292C82.8098 195.136 76.9412 195.392 71.4412 193.062C77.7135 193.512 81.3202 185.93 81.3202 185.93L83.6452 183.892H88.7917L90.5055 188.836C90.7353 189.491 90.7133 190.207 90.4436 190.846C90.1739 191.485 89.6759 192 89.0468 192.292Z" fill="#371A45"/>
</g>
<path d="M208.337 211.8C214.574 214.644 220.443 214.901 225.942 212.57H225.946C226.418 212.373 226.89 212.153 227.358 211.913C227.966 211.606 228.442 211.091 228.7 210.461C228.957 209.83 228.978 209.129 228.759 208.484L226.994 203.4H208.592L206.878 208.345C206.648 208.999 206.67 209.715 206.94 210.354C207.21 210.993 207.708 211.508 208.337 211.8V211.8Z" fill="#9595B5"/>
<path d="M235.823 183.904L245.012 188.804C245.502 189.065 245.911 189.454 246.196 189.93C246.481 190.405 246.632 190.95 246.631 191.504V197.429C246.631 198.226 246.321 198.991 245.765 199.562C245.21 200.132 244.454 200.464 243.658 200.486L231.617 200.821" fill="#FB132B"/>
<g opacity="0.55">
<path d="M235.232 186.29L242.909 190.384C243.398 190.646 243.806 191.035 244.091 191.51C244.375 191.986 244.526 192.53 244.526 193.084V199.009C244.527 199.5 244.409 199.985 244.182 200.421C244.873 200.281 245.495 199.907 245.941 199.361C246.388 198.815 246.631 198.131 246.631 197.426V191.501C246.632 190.947 246.482 190.403 246.197 189.927C245.912 189.451 245.503 189.062 245.014 188.801L235.824 183.9L235.232 186.29Z" fill="white"/>
</g>
<path d="M188.7 191.502V197.427C188.7 198.223 189.011 198.987 189.566 199.558C190.12 200.129 190.876 200.461 191.672 200.483L203.713 200.82L201.132 190.431L199.5 183.9L190.36 188.775L190.31 188.802C189.822 189.064 189.415 189.453 189.131 189.929C188.848 190.405 188.699 190.948 188.7 191.502Z" fill="#FB132B"/>
<g opacity="0.3">
<path d="M188.7 191.502V197.427C188.7 198.223 189.011 198.987 189.566 199.558C190.12 200.129 190.876 200.461 191.672 200.483L203.713 200.82L201.132 190.431L200.915 189.711C196.772 199.284 193.354 197.485 190.367 188.775L190.317 188.802C189.828 189.063 189.419 189.452 189.134 189.928C188.849 190.403 188.699 190.948 188.7 191.502V191.502Z" fill="#371A45"/>
</g>
<path d="M218.29 215.261C214.92 215.261 211.439 214.447 207.869 212.819C206.983 212.415 206.281 211.693 205.9 210.796C205.52 209.9 205.49 208.893 205.815 207.975L207.53 203.032C207.629 202.751 207.835 202.521 208.103 202.392C208.371 202.263 208.679 202.245 208.96 202.343C209.241 202.44 209.472 202.645 209.603 202.913C209.733 203.18 209.752 203.488 209.656 203.77L207.94 208.713C207.805 209.103 207.818 209.529 207.977 209.91C208.136 210.29 208.43 210.599 208.803 210.776C215.309 213.743 221.211 213.786 226.847 210.909C227.211 210.725 227.497 210.416 227.653 210.038C227.809 209.661 227.823 209.24 227.695 208.852L225.931 203.77C225.881 203.63 225.86 203.482 225.869 203.334C225.877 203.186 225.914 203.041 225.978 202.908C226.043 202.774 226.133 202.655 226.243 202.556C226.354 202.457 226.483 202.382 226.623 202.333C226.763 202.285 226.911 202.264 227.059 202.273C227.207 202.282 227.351 202.32 227.485 202.385C227.618 202.45 227.737 202.54 227.835 202.651C227.933 202.762 228.008 202.892 228.056 203.032L229.82 208.114C230.459 209.956 229.621 212.019 227.87 212.914C224.799 214.477 221.598 215.26 218.29 215.261Z" fill="#371A45"/>
<path d="M231.616 201.947C231.318 201.951 231.03 201.837 230.817 201.629C230.603 201.421 230.48 201.136 230.476 200.838C230.472 200.539 230.587 200.252 230.795 200.038C231.003 199.824 231.287 199.701 231.586 199.697L243.626 199.362C244.13 199.351 244.61 199.142 244.962 198.781C245.314 198.419 245.509 197.934 245.506 197.43V191.505C245.507 191.155 245.412 190.811 245.231 190.51C245.051 190.21 244.792 189.964 244.483 189.8L235.294 184.899C235.163 184.829 235.048 184.735 234.954 184.621C234.86 184.507 234.79 184.375 234.747 184.234C234.704 184.093 234.689 183.944 234.704 183.797C234.718 183.65 234.761 183.507 234.831 183.377C234.9 183.247 234.995 183.131 235.109 183.037C235.223 182.944 235.354 182.873 235.496 182.83C235.637 182.787 235.786 182.772 235.933 182.787C236.08 182.801 236.222 182.844 236.353 182.914L245.541 187.814C246.211 188.17 246.771 188.702 247.161 189.352C247.552 190.002 247.757 190.747 247.756 191.505V197.43C247.762 198.521 247.339 199.571 246.578 200.353C245.817 201.135 244.78 201.587 243.689 201.611L231.648 201.947L231.616 201.947Z" fill="#371A45"/>
<path d="M203.711 201.947H203.679L191.638 201.612C190.547 201.587 189.51 201.135 188.749 200.353C187.988 199.571 187.565 198.522 187.57 197.431V191.506C187.57 190.747 187.776 190.003 188.166 189.353C188.556 188.703 189.116 188.171 189.786 187.815L198.975 182.912C199.238 182.771 199.547 182.741 199.832 182.828C200.117 182.915 200.357 183.111 200.497 183.375C200.638 183.638 200.668 183.946 200.581 184.232C200.494 184.517 200.297 184.756 200.034 184.897L190.845 189.797C190.536 189.962 190.277 190.207 190.096 190.508C189.916 190.808 189.821 191.152 189.821 191.503V197.428C189.819 197.932 190.014 198.417 190.366 198.779C190.718 199.14 191.197 199.349 191.701 199.36L203.743 199.695C204.041 199.699 204.326 199.822 204.534 200.035C204.742 200.249 204.856 200.537 204.852 200.835C204.848 201.134 204.726 201.418 204.512 201.626C204.298 201.834 204.01 201.949 203.712 201.945L203.711 201.947Z" fill="#371A45"/>
<path d="M203.141 199.57C203.391 200.454 203.882 201.252 204.559 201.873C205.236 202.495 206.072 202.916 206.974 203.09C214.741 204.59 221.833 204.484 228.399 203.129C229.281 202.942 230.095 202.518 230.752 201.901C231.41 201.284 231.886 200.499 232.129 199.631C232.211 199.345 232.291 199.059 232.365 198.776H232.369C238.969 175.015 239.686 154.999 234.52 138.728C231.816 130.216 227.502 122.73 221.578 116.271C221.078 115.724 220.471 115.288 219.793 114.989C219.115 114.69 218.383 114.536 217.642 114.536C216.902 114.536 216.17 114.69 215.492 114.989C214.814 115.288 214.207 115.724 213.707 116.271C212.507 117.579 211.372 118.93 210.302 120.326C206.102 125.809 202.924 131.943 200.768 138.728C195.541 155.177 196.332 175.457 203.141 199.57Z" fill="#F6F6F6"/>
<path d="M200.768 138.728C209.872 146.235 227.575 146.042 234.518 138.728C231.814 130.216 227.5 122.73 221.576 116.271C221.076 115.724 220.468 115.288 219.791 114.989C219.113 114.69 218.381 114.536 217.64 114.536C216.9 114.536 216.167 114.69 215.49 114.989C214.812 115.288 214.204 115.724 213.705 116.271C207.782 122.733 203.47 130.218 200.768 138.728Z" fill="#FB132B"/>
<g opacity="0.55">
<path d="M210.024 120.698C210.549 120.071 211.092 119.459 211.645 118.852C212.144 118.305 212.752 117.868 213.43 117.569C214.107 117.271 214.839 117.116 215.58 117.116C216.321 117.116 217.053 117.271 217.73 117.569C218.408 117.868 219.016 118.305 219.515 118.852C225.284 125.143 229.525 132.406 232.237 140.64C233.066 140.088 233.831 139.447 234.52 138.728C231.816 130.216 227.502 122.73 221.578 116.271C221.078 115.724 220.471 115.288 219.793 114.989C219.115 114.69 218.383 114.536 217.642 114.536C216.902 114.536 216.17 114.69 215.492 114.989C214.814 115.288 214.207 115.724 213.707 116.271C212.399 117.695 211.172 119.17 210.024 120.698Z" fill="white"/>
</g>
<g opacity="0.3">
<path d="M203.14 199.57C203.391 200.454 203.882 201.252 204.559 201.873C205.236 202.495 206.072 202.916 206.974 203.09C214.741 204.59 221.833 204.484 228.399 203.129C229.281 202.942 230.095 202.518 230.752 201.901C231.41 201.284 231.886 200.499 232.129 199.631C232.21 199.345 232.291 199.059 232.365 198.776C198.334 182.026 210.315 120.318 210.315 120.318L210.303 120.325C206.103 125.809 202.925 131.943 200.769 138.728C195.541 155.177 196.331 175.457 203.14 199.57Z" fill="#371A45"/>
</g>
<path d="M218.011 205.672C214.211 205.663 210.421 205.292 206.692 204.563C205.515 204.34 204.423 203.793 203.54 202.983C202.658 202.173 202.019 201.132 201.696 199.979V199.979C196.501 181.577 194.768 165.138 196.547 151.119C198.34 136.986 203.742 124.921 212.603 115.258C213.243 114.557 214.021 113.998 214.889 113.615C215.757 113.232 216.695 113.034 217.644 113.034C218.592 113.034 219.53 113.232 220.398 113.615C221.266 113.998 222.044 114.557 222.684 115.258C231.55 124.926 236.953 137 238.743 151.142C240.519 165.172 238.78 181.624 233.573 200.042C233.259 201.176 232.638 202.201 231.779 203.005C230.919 203.809 229.855 204.361 228.703 204.599C225.184 205.319 221.602 205.678 218.011 205.672V205.672ZM204.586 199.163C204.764 199.779 205.107 200.333 205.58 200.766C206.052 201.199 206.634 201.493 207.262 201.617C214.576 203.029 221.392 203.042 228.099 201.659C228.713 201.53 229.279 201.235 229.736 200.805C230.193 200.376 230.523 199.829 230.689 199.224C240.84 163.314 237.403 135.746 220.475 117.285C220.117 116.891 219.68 116.576 219.193 116.361C218.705 116.145 218.179 116.034 217.646 116.034C217.113 116.034 216.586 116.145 216.099 116.361C215.612 116.576 215.175 116.891 214.816 117.285C197.898 135.735 194.455 163.284 204.586 199.163V199.163Z" fill="#371A45"/>
<path d="M235.596 185.122C239.279 185.4 242.243 181.201 243.396 176.052C243.656 174.887 243.82 173.703 243.887 172.511C243.994 170.508 243.649 168.507 242.877 166.656C242.106 164.804 240.928 163.15 239.43 161.816L237.9 160.454L237.791 167.423C234.483 167.226 232.196 168.805 230.877 171.098V171.102C227.993 176.1 229.738 184.475 235.596 185.122Z" fill="#F6F6F6"/>
<path d="M235.939 186.633C235.789 186.633 235.634 186.627 235.481 186.615L235.431 186.611C230.077 186.021 227.639 180.378 228.062 175.368C228.445 170.84 231.141 166.412 236.317 165.946L236.403 160.43C236.408 160.142 236.495 159.862 236.654 159.623C236.813 159.383 237.038 159.195 237.301 159.079C237.565 158.964 237.856 158.927 238.14 158.972C238.424 159.018 238.688 159.144 238.903 159.335L240.429 160.7C243.831 163.741 245.639 168.077 245.387 172.595C245.104 177.695 243.197 182.379 240.409 184.82C239.052 186.013 237.515 186.633 235.939 186.633ZM235.733 183.626C236.651 183.685 237.559 183.332 238.433 182.567C240.569 180.692 242.162 176.621 242.394 172.43C242.482 170.869 242.258 169.308 241.736 167.835C241.213 166.362 240.403 165.008 239.353 163.852L239.297 167.446C239.293 167.648 239.249 167.848 239.167 168.033C239.085 168.218 238.966 168.385 238.817 168.522C238.669 168.66 238.494 168.766 238.303 168.835C238.113 168.903 237.91 168.932 237.708 168.92C233.234 168.651 231.329 172.364 231.053 175.621C230.748 179.209 232.286 183.225 235.733 183.626Z" fill="#371A45"/>
<path d="M238.338 166.024L240.33 167.876C240.408 167.949 240.462 168.044 240.486 168.148C240.51 168.252 240.502 168.36 240.463 168.46C240.424 168.559 240.357 168.645 240.269 168.705C240.181 168.766 240.077 168.799 239.971 168.8L237.251 168.82C236.988 168.822 236.728 168.76 236.494 168.638C236.26 168.517 236.06 168.34 235.91 168.123C235.761 167.906 235.667 167.656 235.636 167.394C235.605 167.133 235.639 166.867 235.735 166.622C235.83 166.376 235.984 166.158 236.184 165.985C236.383 165.813 236.621 165.692 236.878 165.633C237.135 165.574 237.402 165.579 237.657 165.648C237.911 165.716 238.145 165.845 238.338 166.024V166.024Z" fill="#371A45"/>
<path d="M217.737 207.144H217.897C219.277 207.144 220.396 206.025 220.396 204.644V187.633C220.396 186.252 219.277 185.133 217.897 185.133H217.737C216.356 185.133 215.237 186.252 215.237 187.633V204.644C215.237 206.025 216.356 207.144 217.737 207.144Z" fill="#FB132B"/>
<g opacity="0.55">
<path d="M215.897 185.992C215.972 185.984 216.047 185.981 216.122 185.981C216.461 185.98 216.796 186.047 217.109 186.176C217.422 186.305 217.706 186.495 217.945 186.735C218.185 186.974 218.375 187.258 218.504 187.571C218.634 187.884 218.7 188.219 218.7 188.558V205.412C218.702 206.05 218.464 206.666 218.035 207.137C218.678 207.082 219.278 206.788 219.715 206.312C220.152 205.836 220.395 205.214 220.395 204.568V187.714C220.394 187.203 220.243 186.705 219.959 186.28C219.675 185.856 219.272 185.526 218.801 185.33C218.329 185.135 217.811 185.083 217.31 185.183C216.809 185.282 216.349 185.527 215.988 185.888C215.956 185.92 215.925 185.955 215.897 185.992V185.992Z" fill="white"/>
</g>
<path d="M217.896 208.081H217.737C216.826 208.081 215.952 207.718 215.308 207.074C214.663 206.429 214.301 205.556 214.3 204.644V187.633C214.301 186.721 214.663 185.848 215.308 185.203C215.952 184.559 216.826 184.196 217.737 184.195H217.896C218.807 184.196 219.681 184.559 220.326 185.203C220.97 185.848 221.333 186.721 221.334 187.633V204.644C221.333 205.556 220.97 206.429 220.326 207.074C219.681 207.718 218.807 208.081 217.896 208.081V208.081ZM217.737 186.07C217.323 186.071 216.926 186.236 216.633 186.529C216.34 186.821 216.175 187.219 216.175 187.633V204.644C216.175 205.058 216.34 205.456 216.633 205.748C216.926 206.041 217.323 206.206 217.737 206.206H217.896C218.31 206.206 218.708 206.041 219.001 205.749C219.294 205.456 219.458 205.059 219.459 204.644V187.633C219.458 187.218 219.294 186.821 219.001 186.528C218.708 186.236 218.31 186.071 217.896 186.07H217.737Z" fill="#371A45"/>
<path d="M216.844 174.384C222.721 174.384 227.485 169.62 227.485 163.744C227.485 157.867 222.721 153.104 216.844 153.104C210.968 153.104 206.204 157.867 206.204 163.744C206.204 169.62 210.968 174.384 216.844 174.384Z" fill="#FB132B"/>
<g opacity="0.3">
<path d="M206.205 163.744C206.205 166.286 207.115 168.743 208.77 170.672C210.425 172.602 212.716 173.874 215.229 174.26C217.741 174.647 220.308 174.121 222.467 172.778C224.625 171.435 226.231 169.364 226.994 166.94C225.407 168.815 223.219 170.083 220.803 170.528C218.387 170.974 215.891 170.569 213.739 169.383C211.587 168.197 209.912 166.303 208.998 164.023C208.084 161.742 207.988 159.215 208.725 156.872C207.095 158.79 206.202 161.226 206.205 163.744V163.744Z" fill="#371A45"/>
</g>
<g opacity="0.55">
<path d="M207.664 158.365C209.431 156.412 211.86 155.184 214.481 154.919C217.101 154.653 219.727 155.369 221.85 156.928C223.973 158.487 225.443 160.778 225.974 163.358C226.506 165.938 226.061 168.623 224.727 170.894C225.729 169.791 226.487 168.489 226.954 167.074C227.42 165.658 227.584 164.161 227.435 162.678C227.286 161.195 226.827 159.76 226.088 158.466C225.349 157.171 224.346 156.047 223.145 155.165C221.944 154.283 220.571 153.663 219.115 153.345C217.659 153.028 216.152 153.019 214.693 153.321C213.233 153.623 211.853 154.227 210.643 155.096C209.432 155.965 208.417 157.079 207.664 158.365V158.365Z" fill="white"/>
</g>
<path d="M216.845 175.134C210.563 175.134 205.453 170.024 205.453 163.744C205.453 157.463 210.563 152.353 216.845 152.353C223.126 152.353 228.235 157.463 228.235 163.744C228.235 170.025 223.125 175.134 216.845 175.134ZM216.845 153.853C211.391 153.853 206.953 158.29 206.953 163.744C206.953 169.198 211.391 173.634 216.845 173.634C222.299 173.634 226.735 169.197 226.735 163.744C226.735 158.291 222.3 153.853 216.845 153.853Z" fill="#371A45"/>
<path d="M216.844 170.321C220.477 170.321 223.422 167.376 223.422 163.744C223.422 160.111 220.477 157.166 216.844 157.166C213.212 157.166 210.267 160.111 210.267 163.744C210.267 167.376 213.212 170.321 216.844 170.321Z" fill="#09CBFF"/>
<g opacity="0.3">
<path d="M210.356 162.675C211.122 161.476 212.256 160.558 213.588 160.058C214.92 159.558 216.379 159.503 217.744 159.902C219.11 160.301 220.31 161.132 221.163 162.27C222.017 163.408 222.479 164.792 222.479 166.215C222.479 166.572 222.449 166.928 222.39 167.279C222.915 166.457 223.25 165.527 223.372 164.559C223.493 163.591 223.397 162.607 223.092 161.681C222.786 160.754 222.278 159.907 221.604 159.201C220.93 158.495 220.108 157.947 219.196 157.599C218.285 157.25 217.307 157.108 216.334 157.184C215.361 157.26 214.417 157.552 213.571 158.038C212.725 158.524 211.997 159.192 211.441 159.994C210.885 160.796 210.514 161.712 210.356 162.675V162.675Z" fill="#232323"/>
</g>
<path d="M216.845 171.075C215.395 171.075 213.978 170.645 212.773 169.84C211.568 169.035 210.628 167.891 210.073 166.552C209.519 165.212 209.374 163.739 209.656 162.317C209.939 160.896 210.637 159.59 211.662 158.565C212.687 157.54 213.993 156.842 215.414 156.559C216.836 156.277 218.309 156.422 219.649 156.976C220.988 157.531 222.132 158.471 222.937 159.676C223.742 160.881 224.172 162.298 224.172 163.748C224.17 165.69 223.397 167.553 222.023 168.926C220.65 170.3 218.787 171.073 216.845 171.075V171.075ZM216.845 157.919C215.692 157.919 214.565 158.261 213.606 158.901C212.648 159.541 211.901 160.452 211.459 161.517C211.018 162.582 210.903 163.753 211.127 164.884C211.352 166.015 211.907 167.053 212.722 167.868C213.537 168.684 214.576 169.239 215.706 169.464C216.837 169.689 218.009 169.573 219.074 169.132C220.139 168.691 221.049 167.944 221.69 166.986C222.33 166.027 222.672 164.9 222.672 163.748C222.671 162.202 222.057 160.72 220.965 159.626C219.872 158.533 218.39 157.918 216.845 157.916V157.919Z" fill="#371A45"/>
<path d="M218.348 145.563C211.613 145.563 204.645 143.625 199.934 139.74C199.797 139.632 199.683 139.497 199.598 139.344C199.514 139.191 199.461 139.023 199.443 138.85C199.424 138.676 199.441 138.5 199.491 138.333C199.541 138.166 199.624 138.011 199.735 137.876C199.846 137.741 199.983 137.63 200.138 137.549C200.292 137.468 200.461 137.418 200.635 137.403C200.809 137.388 200.984 137.408 201.151 137.462C201.317 137.515 201.471 137.601 201.603 137.715C210.008 144.645 227.036 144.703 233.567 137.824C233.808 137.574 234.137 137.429 234.484 137.421C234.83 137.413 235.166 137.543 235.417 137.782C235.669 138.02 235.815 138.349 235.825 138.695C235.835 139.042 235.708 139.378 235.471 139.631C231.719 143.583 225.15 145.563 218.348 145.563Z" fill="#371A45"/>
<g opacity="0.3">
<path d="M235.596 185.122C239.279 185.4 242.243 181.201 243.396 176.052C236.412 181.081 233.121 177.327 230.878 171.102C227.992 176.1 229.738 184.475 235.596 185.122Z" fill="#371A45"/>
</g>
<g opacity="0.3">
<path d="M208.337 211.8C214.574 214.644 220.443 214.901 225.942 212.57C219.67 213.02 216.064 205.439 216.064 205.439L213.739 203.4H208.593L206.878 208.345C206.649 208.999 206.671 209.715 206.941 210.354C207.21 210.993 207.708 211.508 208.337 211.8V211.8Z" fill="#371A45"/>
</g>
</svg>
