<svg width="400" height="440" viewBox="0 0 400 440" fill="none" xmlns="http://www.w3.org/2000/svg">
<path d="M208.522 317.42C207.397 317.44 206.183 317.516 204.897 317.645C191.124 319.003 169.759 326.069 169.759 326.069L145.461 361.399C144.799 362.355 143.838 363.065 142.73 363.416C141.621 363.767 140.427 363.741 139.336 363.34C120.552 356.389 104.069 347.561 90.3019 336.498C89.4429 335.809 88.8241 334.866 88.5342 333.804C88.2443 332.742 88.2982 331.615 88.6881 330.585C88.9894 329.798 89.3419 328.914 89.7456 327.96C92.0069 322.71 95.9531 315.525 101.642 312.13C111.174 306.448 123.961 314.13 123.961 314.13C123.961 314.13 141.039 289.07 146.644 282.824C152.249 276.578 171.099 268.894 171.099 268.894L204.783 292.705C204.783 292.705 221.763 317.209 208.522 317.42Z" fill="#F8F8F8"/>
<path d="M326.927 284.339C326.886 288.504 325.442 292.533 322.827 295.774C316.691 303.399 303.359 315.608 281.982 313.724C277.087 313.295 272.782 309.907 269.002 304.519C248.983 276.03 243.544 191.539 243.544 191.539L271.251 168.798C271.251 168.798 298.317 169.752 308.251 178.644C312.587 182.527 316.918 195.403 320.319 212.539C322.011 221.059 323.478 230.637 324.593 240.688C325.483 248.688 326.149 256.979 326.541 265.274C326.849 271.674 326.974 278.074 326.927 284.339Z" fill="#F8F8F8"/>
<path d="M286.368 316.229C284.878 316.229 283.348 316.161 281.778 316.024C267.872 314.799 256.832 293.274 248.963 252.049C243.237 222.049 241.258 191.988 241.239 191.688C241.215 191.383 241.252 191.076 241.348 190.785C241.443 190.494 241.596 190.225 241.796 189.993C241.997 189.762 242.241 189.573 242.516 189.437C242.79 189.301 243.088 189.22 243.394 189.201C243.7 189.181 244.006 189.222 244.295 189.322C244.585 189.422 244.852 189.579 245.08 189.782C245.309 189.986 245.494 190.233 245.626 190.51C245.758 190.786 245.834 191.086 245.849 191.392C245.868 191.689 247.832 221.497 253.507 251.219C260.732 289.049 270.916 310.43 282.184 311.423C302.551 313.213 315.262 301.482 321.027 294.328C323.312 291.489 324.576 287.963 324.616 284.319C325.012 237.325 315.099 187.88 306.706 180.365C297.517 172.137 271.434 171.115 271.172 171.107C270.56 171.085 269.981 170.821 269.563 170.373C269.145 169.925 268.923 169.329 268.944 168.717C268.966 168.104 269.23 167.526 269.678 167.108C270.126 166.69 270.722 166.467 271.334 166.489C272.474 166.529 299.354 167.582 309.787 176.924C320.171 186.222 329.622 238.433 329.236 284.358C329.187 289.045 327.562 293.58 324.624 297.233C318.724 304.548 306.198 316.227 286.368 316.229Z" fill="#371A45"/>
<path d="M326.537 265.274C317.882 270.86 302.847 274.878 297.037 270.495L297.767 239.694L298.142 224.224C298.142 224.224 309.007 216.242 320.319 212.539C325.547 210.829 328.462 218.49 330.166 228.039C330.186 228.154 330.204 228.283 330.231 228.414C332.152 239.459 332.492 252.86 332.914 257.204C333.161 259.778 330.527 262.693 326.537 265.274Z" fill="#F8F8F8"/>
<path d="M304.224 274.667C300.849 274.667 297.831 273.992 295.641 272.339C295.161 271.967 294.848 271.42 294.768 270.819C294.689 270.217 294.849 269.608 295.214 269.124C295.58 268.64 296.122 268.318 296.722 268.23C297.322 268.142 297.933 268.293 298.423 268.652C302.398 271.652 314.079 269.687 323.423 264.447C328.548 261.572 330.742 258.794 330.608 257.428C330.491 256.225 330.383 254.428 330.248 252.143C329.704 242.998 328.261 218.707 322.734 214.945C322.193 214.578 321.701 214.517 321.032 214.735C310.218 218.275 299.604 226.008 299.498 226.085C299.254 226.27 298.975 226.405 298.679 226.481C298.382 226.557 298.074 226.574 297.77 226.53C297.467 226.485 297.176 226.381 296.914 226.224C296.651 226.066 296.423 225.858 296.242 225.611C296.06 225.364 295.93 225.083 295.858 224.786C295.786 224.488 295.774 224.179 295.823 223.877C295.872 223.574 295.98 223.285 296.141 223.025C296.303 222.764 296.515 222.539 296.764 222.362C297.221 222.027 308.064 214.119 319.596 210.344C321.622 209.682 323.607 209.952 325.333 211.127C332.166 215.775 333.833 234.595 334.859 251.869C334.992 254.1 335.096 255.863 335.206 256.978C335.574 260.743 332.193 264.827 325.683 268.478C320.004 271.662 311.339 274.667 304.224 274.667Z" fill="#371A45"/>
<g opacity="0.25">
<path d="M326.537 265.274C326.844 271.674 326.978 278.074 326.927 284.339C326.886 288.504 325.442 292.533 322.827 295.774C316.691 303.399 303.359 315.608 281.982 313.724C277.087 313.295 272.782 309.907 269.002 304.519C269.354 292.039 271.097 291.124 272.481 278.997C273.973 265.852 276.536 257.312 278.247 255.39L297.766 239.694L298.702 238.944C298.702 238.944 299.393 246.26 309.426 245.914C314.576 245.734 320.387 243.864 324.589 240.687C328.573 237.669 331.104 233.473 330.227 228.412C332.148 239.457 332.488 252.858 332.911 257.202C333.161 259.778 330.527 262.693 326.537 265.274Z" fill="#371A45"/>
</g>
<path d="M327.682 221.308C324.117 222.398 320.509 223.633 317.057 225.044C314.689 226.085 311.947 227.121 310.136 228.85C310.049 228.934 310.027 228.994 309.961 229.066C309.961 229.111 309.928 229.096 309.914 229.143C309.801 229.71 309.725 230.284 309.687 230.861C309.476 234.575 309.588 238.426 309.687 242.229C309.804 246.044 309.966 249.861 310.173 253.679C309.597 249.9 309.063 246.113 308.569 242.318C308.101 238.509 307.609 234.738 307.444 230.818C307.444 230.193 307.424 229.471 307.516 228.831C307.553 228.309 307.827 227.744 308.126 227.331C310.192 224.804 312.949 223.536 315.626 222.008C319.087 220.183 322.582 218.59 326.196 217.084C329.122 215.993 330.667 220.316 327.687 221.314L327.682 221.308Z" fill="#371A45"/>
<path d="M141.161 365.974C140.267 365.974 139.381 365.815 138.543 365.504C119.088 358.31 102.373 349.156 88.8619 338.299C87.6205 337.306 86.7262 335.945 86.3078 334.411C85.8893 332.878 85.9682 331.251 86.5331 329.765C88.5994 324.311 93.1581 314.515 100.464 310.152C108.831 305.16 119.024 309.087 123.223 311.129C127.204 305.325 140.084 286.687 144.932 281.285C150.824 274.719 169.439 267.078 170.228 266.755C170.795 266.523 171.432 266.526 171.997 266.763C172.562 267 173.01 267.452 173.242 268.019C173.474 268.586 173.471 269.222 173.234 269.788C172.997 270.353 172.545 270.801 171.978 271.033C166.873 273.117 152.679 279.575 148.376 284.37C142.936 290.432 126.048 315.187 125.876 315.435C125.544 315.923 125.038 316.264 124.462 316.391C123.886 316.517 123.283 316.418 122.778 316.114C122.664 316.046 111.043 309.221 102.833 314.114C96.7281 317.756 92.7081 326.505 90.8556 331.396C90.6379 331.971 90.6078 332.599 90.7698 333.191C90.9317 333.784 91.2773 334.309 91.7569 334.693C104.882 345.238 121.161 354.145 140.147 361.166C140.756 361.392 141.423 361.408 142.042 361.212C142.661 361.016 143.197 360.619 143.566 360.084L167.866 324.755C168.152 324.34 168.566 324.03 169.044 323.872C170.099 323.523 195.052 315.323 208.489 315.106C210.489 315.074 210.864 314.364 210.979 314.13C212.676 310.83 207.156 300.175 202.891 294.014C202.704 293.765 202.569 293.481 202.495 293.18C202.421 292.878 202.408 292.564 202.458 292.257C202.508 291.95 202.619 291.656 202.785 291.393C202.951 291.13 203.169 290.904 203.424 290.727C203.68 290.55 203.969 290.427 204.274 290.364C204.578 290.302 204.892 290.301 205.197 290.363C205.502 290.425 205.791 290.548 206.047 290.724C206.304 290.9 206.521 291.126 206.688 291.389C208.718 294.319 218.663 309.287 215.088 316.245C214.291 317.8 212.511 319.666 208.563 319.73C197.063 319.915 175.472 326.663 171.228 328.025L147.372 362.706C146.679 363.714 145.752 364.538 144.67 365.108C143.588 365.677 142.383 365.974 141.161 365.974Z" fill="#371A45"/>
<g opacity="0.25">
<path d="M209.432 306.85C209.432 308.292 208.471 309.093 207.349 311.975C206.882 313.174 205.998 315.243 204.902 317.645C191.129 319.003 169.764 326.069 169.764 326.069L145.466 361.399C144.804 362.355 143.843 363.065 142.735 363.416C141.626 363.767 140.432 363.741 139.341 363.34C120.557 356.389 104.074 347.562 90.3069 336.498C89.4479 335.809 88.8291 334.866 88.5392 333.804C88.2493 332.742 88.3032 331.615 88.6931 330.585C88.9944 329.798 89.3469 328.914 89.7506 327.96L95.9644 331.618C117.553 343.368 133.273 344.187 140.884 329.908C140.884 329.908 155.618 310.049 167.384 301.849C179.151 293.649 177.563 280.58 177.563 280.58L205.911 303.322C206.869 304.128 209.432 305.409 209.432 306.85Z" fill="#371A45"/>
</g>
<path d="M170.036 327.35C169.882 327.35 169.729 327.332 169.579 327.297C146.124 321.595 131.934 303.242 131.342 302.463C131.189 302.262 131.077 302.033 131.013 301.789C130.948 301.545 130.932 301.291 130.966 301.041C131 300.791 131.083 300.55 131.21 300.332C131.337 300.114 131.506 299.923 131.706 299.77C131.907 299.617 132.136 299.505 132.38 299.44C132.624 299.376 132.878 299.36 133.128 299.394C133.378 299.428 133.619 299.511 133.837 299.638C134.056 299.765 134.246 299.933 134.399 300.134C134.554 300.335 148.407 318.194 170.487 323.562C170.944 323.672 171.345 323.946 171.613 324.332C171.881 324.718 171.999 325.189 171.943 325.656C171.888 326.123 171.663 326.553 171.311 326.866C170.96 327.178 170.506 327.35 170.036 327.35V327.35Z" fill="#371A45"/>
<path d="M123.359 277.749C123.359 277.749 141.519 274.022 155.911 263.449L120.543 266.143" fill="#F8F8F8"/>
<g opacity="0.25">
<path d="M123.359 277.749C123.359 277.749 141.519 274.022 155.911 263.449L120.543 266.143" fill="#371A45"/>
</g>
<path d="M123.357 280.059C122.785 280.058 122.234 279.845 121.81 279.462C121.386 279.078 121.12 278.55 121.062 277.982C121.005 277.413 121.16 276.843 121.499 276.382C121.837 275.921 122.334 275.602 122.894 275.487C123.071 275.45 140.748 271.722 154.543 261.588C155.037 261.238 155.649 261.097 156.247 261.194C156.844 261.291 157.38 261.619 157.738 262.106C158.097 262.594 158.249 263.203 158.163 263.802C158.077 264.402 157.759 264.943 157.278 265.31C142.653 276.06 124.586 279.855 123.823 280.012C123.67 280.043 123.514 280.059 123.357 280.059V280.059Z" fill="#371A45"/>
<path d="M272.692 330.765L247.612 363.539C241.362 371.706 229.879 373.878 221.187 368.382C213.474 363.507 206.958 354.404 202.948 344.807C199.938 337.625 198.336 330.163 198.669 323.968C198.805 321.778 199.54 319.668 200.794 317.869L203.371 314.109C203.371 314.109 180.814 307.234 175.958 272.045V262.859C175.958 262.859 164.216 262.078 163.357 260.546C162.498 259.015 151.641 221.649 151.641 221.649C151.641 221.649 166.349 197.721 187.489 188.439C197.457 184.064 211.378 182.385 223.299 181.828C236.663 181.203 247.522 182 247.522 182L266.317 181.008C266.317 181.008 282.301 185.563 290.839 200.719C299.378 215.875 301.948 242.635 294.261 256.274C304.249 290.252 299.963 316.626 272.692 330.765Z" fill="#F8F8F8"/>
<path d="M231.623 373.688C227.493 373.699 223.446 372.535 219.953 370.332C205.078 360.918 195.586 338.275 196.363 323.843C196.523 321.231 197.397 318.712 198.892 316.564L199.861 315.149C193.346 311.982 177.689 301.463 173.672 272.359C173.657 272.255 173.649 272.149 173.649 272.044V265.005C162.701 264.102 161.826 262.538 161.344 261.674C160.489 260.143 153.507 236.344 149.421 222.299C149.33 221.99 149.306 221.665 149.349 221.346C149.392 221.026 149.502 220.72 149.671 220.445C150.287 219.445 165.008 195.797 186.562 186.33C207.981 176.923 246.077 179.588 247.687 179.705C248.293 179.756 248.855 180.044 249.251 180.506C249.646 180.969 249.843 181.569 249.799 182.175C249.755 182.782 249.473 183.347 249.014 183.747C248.556 184.148 247.958 184.351 247.351 184.313C246.967 184.285 208.783 181.615 188.418 190.563C170.407 198.473 156.964 217.753 154.149 222.023C158.003 235.258 163.951 255.398 165.244 259.054C166.851 259.635 171.922 260.285 176.112 260.565C176.697 260.604 177.245 260.864 177.645 261.292C178.045 261.72 178.268 262.284 178.268 262.87V271.893C182.916 305.097 203.833 311.847 204.044 311.91C204.391 312.016 204.709 312.202 204.97 312.453C205.232 312.704 205.431 313.013 205.551 313.356C205.671 313.698 205.709 314.064 205.661 314.423C205.613 314.783 205.482 315.126 205.277 315.425L202.702 319.183C201.688 320.63 201.09 322.328 200.974 324.092C200.266 337.217 209.288 358.115 222.421 366.428C230.001 371.227 240.258 369.34 245.773 362.135L270.858 329.367C271.065 329.097 271.328 328.877 271.629 328.72C295.879 316.152 302.552 292.668 292.044 256.928C291.957 256.632 291.93 256.321 291.965 256.014C292 255.707 292.096 255.411 292.248 255.142C299.087 243.01 297.427 217.117 288.831 201.859C280.883 187.752 265.831 183.274 265.683 183.234C265.094 183.066 264.596 182.67 264.298 182.135C264.001 181.599 263.928 180.967 264.096 180.378C264.264 179.789 264.66 179.291 265.195 178.994C265.731 178.696 266.363 178.623 266.952 178.792C267.642 178.988 283.952 183.792 292.856 199.594C301.189 214.385 304.491 241.535 296.742 256.542C301.894 274.443 302.857 289.167 299.687 301.542C296.227 315.042 287.659 325.482 274.216 332.584L249.444 364.95C245.089 370.632 238.382 373.688 231.623 373.688Z" fill="#371A45"/>
<path d="M193.051 228.412H241.774C243.872 228.412 245.884 229.245 247.367 230.728C248.85 232.211 249.683 234.223 249.683 236.32V265.82C249.683 267.884 248.877 269.866 247.436 271.343C245.995 272.821 244.034 273.676 241.971 273.728L193.247 274.937C192.192 274.963 191.143 274.777 190.16 274.392C189.178 274.006 188.283 273.428 187.528 272.691C186.773 271.954 186.173 271.073 185.763 270.101C185.353 269.129 185.142 268.084 185.142 267.029V236.32C185.142 234.223 185.975 232.211 187.458 230.728C188.941 229.245 190.953 228.412 193.051 228.412V228.412Z" fill="#F8F8F8"/>
<path d="M193.042 277.252C190.333 277.249 187.736 276.171 185.822 274.255C183.907 272.338 182.832 269.74 182.832 267.032V236.32C182.835 233.611 183.913 231.014 185.829 229.098C187.744 227.182 190.341 226.105 193.051 226.102H241.774C244.484 226.105 247.081 227.182 248.997 229.098C250.912 231.014 251.99 233.611 251.993 236.32V265.82C252.008 268.491 250.971 271.06 249.106 272.972C247.241 274.884 244.698 275.985 242.028 276.037L193.304 277.245C193.217 277.249 193.129 277.252 193.042 277.252ZM193.051 230.722C191.566 230.723 190.143 231.314 189.094 232.363C188.044 233.413 187.454 234.836 187.452 236.32V267.032C187.452 267.779 187.601 268.518 187.891 269.207C188.181 269.895 188.606 270.519 189.14 271.04C189.675 271.562 190.309 271.971 191.004 272.245C191.7 272.518 192.443 272.649 193.189 272.63L241.913 271.421C243.377 271.393 244.77 270.79 245.792 269.742C246.814 268.694 247.383 267.286 247.374 265.823V236.323C247.372 234.838 246.782 233.415 245.732 232.366C244.682 231.316 243.259 230.726 241.774 230.724L193.051 230.722Z" fill="#371A45"/>
<path d="M179.011 228.945H227.734C229.832 228.946 231.844 229.779 233.327 231.262C234.81 232.746 235.643 234.758 235.643 236.855V266.355C235.643 268.419 234.837 270.401 233.396 271.879C231.955 273.356 229.994 274.212 227.931 274.263L179.207 275.472C178.152 275.498 177.103 275.312 176.12 274.927C175.138 274.541 174.243 273.963 173.488 273.226C172.733 272.489 172.133 271.608 171.723 270.636C171.313 269.664 171.102 268.619 171.102 267.564V236.855C171.102 235.817 171.306 234.788 171.704 233.828C172.101 232.869 172.683 231.997 173.418 231.262C174.152 230.528 175.024 229.945 175.984 229.547C176.943 229.15 177.972 228.945 179.011 228.945V228.945Z" fill="#F8F8F8"/>
<path d="M212.583 276.886C211.998 276.886 211.436 276.657 211.018 276.249C210.599 275.84 210.357 275.284 210.343 274.699C210.246 270.738 210.128 264.53 210.242 261.331C206.729 260.456 196.193 259.063 186.726 258.081C186.192 258.026 185.696 257.782 185.327 257.392C184.958 257.002 184.742 256.493 184.717 255.956L183.436 229.05C183.415 228.752 183.453 228.453 183.55 228.17C183.646 227.887 183.798 227.627 183.996 227.403C184.195 227.18 184.436 226.998 184.705 226.87C184.975 226.741 185.267 226.667 185.566 226.653C185.864 226.638 186.162 226.684 186.443 226.787C186.724 226.889 186.981 227.047 187.2 227.25C187.418 227.454 187.594 227.699 187.717 227.971C187.84 228.244 187.907 228.538 187.914 228.836L189.104 253.821C212.778 256.335 213.768 257.711 214.368 258.544C214.567 258.817 214.705 259.13 214.774 259.46C214.843 259.791 214.842 260.133 214.769 260.463C214.616 261.441 214.674 268.425 214.826 274.588C214.84 275.182 214.618 275.758 214.208 276.188C213.798 276.619 213.234 276.869 212.639 276.884L212.583 276.886ZM210.392 259.496C210.381 259.545 210.372 259.594 210.364 259.643C210.373 259.588 210.382 259.539 210.392 259.491V259.496Z" fill="#371A45"/>
<path d="M179.003 277.785C176.294 277.783 173.697 276.705 171.782 274.789C169.867 272.872 168.792 270.274 168.792 267.565V236.854C168.795 234.145 169.873 231.548 171.789 229.632C173.704 227.716 176.301 226.639 179.011 226.635H227.734C230.444 226.639 233.041 227.716 234.956 229.632C236.872 231.548 237.95 234.145 237.953 236.854V266.354C237.968 269.025 236.931 271.594 235.066 273.506C233.201 275.418 230.658 276.519 227.988 276.57L179.264 277.779L179.003 277.785ZM179.011 231.255C177.526 231.257 176.103 231.847 175.053 232.897C174.003 233.946 173.413 235.37 173.411 236.854V267.565C173.411 268.312 173.56 269.052 173.85 269.74C174.141 270.429 174.566 271.052 175.1 271.574C175.635 272.095 176.269 272.505 176.964 272.778C177.66 273.051 178.403 273.182 179.149 273.164L227.873 271.955C229.336 271.927 230.73 271.324 231.752 270.276C232.773 269.228 233.342 267.82 233.333 266.357V236.857C233.331 235.372 232.741 233.949 231.691 232.899C230.642 231.85 229.219 231.259 227.734 231.258L179.011 231.255Z" fill="#371A45"/>
<path d="M234.114 257.324L233.936 260.707C233.879 261.761 233.43 262.755 232.677 263.495C231.924 264.236 230.922 264.667 229.867 264.707L167.874 266.916L82.1856 269.979C81.6292 269.999 81.0745 269.908 80.5531 269.713C80.0318 269.518 79.5541 269.221 79.1476 268.841C78.7411 268.461 78.4138 268.004 78.1843 267.496C77.9549 266.989 77.8279 266.442 77.8106 265.885L77.7018 262.369C77.681 261.715 77.813 261.065 78.0876 260.471C78.3621 259.877 78.7714 259.356 79.2831 258.948H79.2906C79.9956 258.371 80.8712 258.042 81.7818 258.013L167.241 255.046H167.413L229.746 252.882C230.331 252.861 230.914 252.963 231.459 253.18C232.003 253.397 232.496 253.725 232.907 254.142C233.317 254.56 233.637 255.059 233.845 255.606C234.053 256.154 234.145 256.739 234.114 257.324V257.324Z" fill="#BCC4CC"/>
<g opacity="0.61">
<path d="M234.114 257.324L233.989 259.669C233.751 258.732 233.2 257.905 232.427 257.325C231.654 256.745 230.705 256.446 229.739 256.479L167.474 258.644L167.386 255.044L229.749 252.879C230.335 252.859 230.918 252.961 231.462 253.179C232.006 253.396 232.499 253.724 232.909 254.142C233.319 254.56 233.638 255.059 233.846 255.606C234.053 256.154 234.145 256.739 234.114 257.324V257.324Z" fill="white"/>
</g>
<path d="M168.003 266.6L167.862 266.588L79.2906 258.952H79.2831L75.9206 251.592L50.3493 195.653C50.022 194.941 49.8915 194.154 49.9715 193.374C50.0515 192.594 50.3391 191.85 50.8043 191.219L52.7906 188.515C53.1776 187.993 53.6757 187.563 54.2489 187.256C54.8221 186.949 55.4563 186.774 56.1056 186.742L130.341 182.814C132.804 182.682 135.246 183.331 137.32 184.667C139.394 186.004 140.993 187.96 141.891 190.258L142.044 190.643L167.241 255.057L167.676 261.674L168.003 266.6Z" fill="#BCC4CC"/>
<g opacity="0.61">
<path d="M167.311 256.117L143.172 194.412C142.274 192.114 140.675 190.158 138.601 188.821C136.527 187.485 134.085 186.836 131.622 186.968L57.3868 190.899C56.7375 190.932 56.1037 191.11 55.5311 191.418C54.9584 191.726 54.4613 192.157 54.0756 192.68L52.0893 195.383C51.6099 196.032 51.3196 196.802 51.2506 197.607L50.3493 195.653C50.022 194.941 49.8915 194.154 49.9715 193.374C50.0515 192.594 50.3391 191.85 50.8043 191.219L52.7906 188.515C53.1776 187.993 53.6757 187.563 54.2489 187.256C54.8221 186.949 55.4563 186.774 56.1056 186.742L130.341 182.814C132.804 182.682 135.246 183.331 137.32 184.667C139.394 186.004 140.993 187.96 141.891 190.258L167.241 255.057L167.311 256.117Z" fill="white"/>
</g>
<path d="M82.0306 271.942C80.4259 271.939 78.8849 271.313 77.7333 270.196C76.5817 269.078 75.9097 267.557 75.8594 265.953L75.7494 262.433C75.7001 260.798 76.2996 259.21 77.4169 258.016C78.5342 256.821 80.0787 256.117 81.7131 256.058L229.678 250.919C230.534 250.889 231.388 251.038 232.183 251.356C232.979 251.674 233.7 252.153 234.301 252.765C234.901 253.376 235.368 254.105 235.672 254.906C235.975 255.708 236.109 256.563 236.064 257.419L235.888 260.802C235.815 262.347 235.161 263.808 234.058 264.893C232.955 265.978 231.483 266.607 229.937 266.655L82.2569 271.93C82.1819 271.94 82.1056 271.942 82.0306 271.942ZM81.8494 259.97C81.2491 259.992 80.682 260.251 80.2715 260.69C79.8611 261.128 79.6406 261.711 79.6581 262.312L79.7669 265.832C79.7763 266.131 79.8446 266.425 79.968 266.697C80.0915 266.97 80.2676 267.216 80.4862 267.42C80.7048 267.624 80.9616 267.783 81.2419 267.888C81.5222 267.993 81.8204 268.041 82.1194 268.03L229.798 262.755C230.367 262.738 230.908 262.506 231.313 262.107C231.719 261.708 231.959 261.171 231.986 260.603L232.163 257.22C232.181 256.906 232.132 256.591 232.02 256.296C231.909 256.002 231.736 255.734 231.514 255.51C231.295 255.283 231.031 255.105 230.738 254.988C230.445 254.871 230.131 254.818 229.816 254.832L81.8494 259.97Z" fill="#371A45"/>
<path d="M168.003 268.553C167.507 268.552 167.03 268.363 166.668 268.024C166.306 267.685 166.087 267.221 166.054 266.727L165.312 255.477L140.072 190.959C139.324 189.044 137.991 187.414 136.263 186.299C134.535 185.185 132.5 184.644 130.447 184.753L56.2131 188.679C55.8524 188.698 55.5002 188.796 55.1824 188.968C54.8645 189.14 54.5889 189.38 54.3756 189.672L52.3881 192.373C52.1311 192.724 51.9725 193.137 51.9285 193.57C51.8846 194.003 51.9569 194.44 52.1381 194.835L81.0681 258.137C81.1748 258.37 81.2345 258.622 81.2438 258.879C81.253 259.135 81.2117 259.391 81.122 259.631C81.0324 259.872 80.8963 260.092 80.7215 260.28C80.5467 260.468 80.3366 260.62 80.1031 260.727C79.8697 260.833 79.6176 260.893 79.3611 260.902C79.1046 260.911 78.8488 260.87 78.6083 260.78C78.3678 260.691 78.1473 260.555 77.9594 260.38C77.7715 260.205 77.6198 259.995 77.5131 259.762L48.5744 196.464C48.1042 195.435 47.9175 194.299 48.0335 193.173C48.1495 192.047 48.5641 190.973 49.2344 190.062L51.2219 187.359C51.7774 186.601 52.4946 185.977 53.3213 185.531C54.1481 185.085 55.0637 184.829 56.0019 184.78L130.236 180.853C133.11 180.699 135.96 181.455 138.379 183.015C140.799 184.575 142.665 186.858 143.712 189.539L169.062 254.338C169.133 254.525 169.175 254.721 169.187 254.92L169.949 266.469C169.967 266.725 169.933 266.982 169.851 267.225C169.768 267.468 169.639 267.693 169.47 267.886C169.301 268.079 169.095 268.237 168.865 268.351C168.635 268.464 168.384 268.531 168.128 268.548C168.091 268.552 168.047 268.553 168.003 268.553Z" fill="#371A45"/>
<g opacity="0.25">
<path d="M167.874 266.92L82.1857 269.983C81.6293 270.002 81.0745 269.912 80.5532 269.717C80.0318 269.521 79.5542 269.225 79.1477 268.845C78.7412 268.464 78.4138 268.007 78.1844 267.5C77.9549 266.993 77.8279 266.445 77.8107 265.889L77.7019 262.373C77.681 261.719 77.8131 261.069 78.0876 260.475C78.3621 259.881 78.7715 259.359 79.2831 258.952L75.9207 251.592C115.671 250.592 140.671 236.152 137.958 199.329V188.439L142.044 190.637L167.241 255.05H167.413C167.509 257.408 167.599 259.643 167.676 261.675C167.747 263.508 167.811 265.167 167.862 266.595C167.868 266.703 167.868 266.812 167.874 266.92Z" fill="#371A45"/>
</g>
<path d="M91.0769 272.578C91.0769 272.578 94.8144 258.378 109.869 260.828C124.924 263.278 128.447 278.232 117.877 283.677C107.307 289.122 73.6744 288.268 77.9444 261.575C77.9444 261.58 79.2244 269.374 91.0769 272.578Z" fill="#F8F8F8"/>
<g opacity="0.25">
<path d="M117.874 283.679C110.572 287.44 92.2631 288.195 83.0506 279.503C91.9743 281.892 102.263 280.727 107.301 278.128C114.426 274.458 115.148 266.469 110.247 260.902C124.974 263.545 128.356 278.279 117.874 283.679Z" fill="#371A45"/>
</g>
<path d="M104.037 288.637C96.9506 288.637 89.2319 287.032 83.6256 282.97C78.9481 279.582 73.7694 273.057 75.6644 261.22C75.7508 260.679 76.0271 260.186 76.444 259.829C76.8608 259.473 77.3909 259.276 77.9394 259.275V259.275C78.4872 259.274 79.0178 259.467 79.4364 259.821C79.855 260.174 80.1342 260.665 80.2244 261.205C80.2656 261.422 81.3869 266.757 89.6319 269.705C92.0269 264.055 98.3819 256.617 110.241 258.55C118.783 259.944 125.014 265.338 126.116 272.292C126.991 277.848 124.241 282.998 118.936 285.732C115.507 287.5 109.996 288.637 104.037 288.637ZM80.1619 269.403C80.8731 273.477 82.9356 276.767 86.3356 279.229C95.1156 285.589 110.498 284.885 116.819 281.628C120.348 279.81 122.118 276.59 121.552 273.015C120.957 269.258 117.443 264.409 109.497 263.113C96.6619 261.017 93.4419 272.669 93.3106 273.165C93.2331 273.46 93.0981 273.736 92.9134 273.978C92.7287 274.221 92.4978 274.424 92.2342 274.577C91.9706 274.729 91.6794 274.828 91.3774 274.868C91.0753 274.908 90.7685 274.887 90.4744 274.808C85.6444 273.502 82.3719 271.469 80.1619 269.403Z" fill="#371A45"/>
<path d="M263.634 238.742C262.788 245.904 259.688 252.854 255.236 256.269L234.121 249.19C234.121 249.19 229.131 254.955 216.562 253.674C203.993 252.393 198.224 239.663 198.224 239.663C198.224 239.663 192.862 250.797 186.373 246.313C184.604 245.089 183.748 243.583 183.471 242.008C183.106 239.958 183.702 237.785 184.516 235.96C185.5 233.795 186.885 231.834 188.596 230.182L200.627 218.337C210.768 204.993 224.971 214.602 234.791 220.258H258.814C263.141 224.544 264.467 231.742 263.634 238.742Z" fill="#F8F8F8"/>
<path d="M255.236 258.583C254.986 258.581 254.738 258.539 254.502 258.458L234.662 251.808C232.346 253.648 226.583 257.018 216.324 255.973C206.894 255.011 201.011 248.4 198.164 244.165C196.617 246.27 194.302 248.665 191.414 249.431C189.246 250.006 187.049 249.581 185.061 248.208C180.852 245.298 179.911 240.611 182.408 235.013C183.511 232.584 185.06 230.385 186.976 228.529L198.892 216.801C209.623 202.858 224.314 211.454 234.047 217.148L235.414 217.945H258.812C259.421 217.945 260.005 218.185 260.437 218.614C264.527 222.661 266.596 229.373 266.114 237.026C265.559 245.839 261.841 254.111 256.642 258.1C256.239 258.412 255.745 258.581 255.236 258.583ZM234.121 246.885C234.37 246.887 234.618 246.929 234.854 247.01L254.729 253.673C258.394 250.22 261.068 243.616 261.501 236.746C261.876 230.856 260.531 225.758 257.804 222.575H234.789C234.385 222.575 233.987 222.469 233.637 222.266C233.012 221.906 232.368 221.53 231.709 221.141C219.821 214.185 210.117 209.665 202.459 219.738C202.393 219.826 202.319 219.91 202.241 219.988L190.208 231.829C188.705 233.281 187.487 235.002 186.619 236.903C184.308 242.083 186.758 243.778 187.681 244.415C188.833 245.213 189.681 245.115 190.222 244.975C192.888 244.275 195.452 240.078 196.139 238.663C196.331 238.268 196.631 237.935 197.004 237.705C197.377 237.474 197.808 237.354 198.247 237.36C198.686 237.365 199.114 237.496 199.482 237.736C199.849 237.976 200.141 238.316 200.322 238.715C200.373 238.826 205.731 250.256 216.789 251.384C227.848 252.511 232.329 247.734 232.372 247.686C232.589 247.435 232.857 247.233 233.159 247.095C233.461 246.957 233.789 246.885 234.121 246.885V246.885Z" fill="#371A45"/>
<path d="M196.197 238.553L204.787 227.734L200.244 240.779C200.143 241.07 199.986 241.337 199.781 241.567C199.577 241.797 199.329 241.984 199.052 242.118C198.775 242.252 198.474 242.33 198.167 242.348C197.86 242.366 197.552 242.323 197.262 242.221C195.754 241.729 195.197 239.77 196.197 238.553V238.553Z" fill="#371A45"/>
<path d="M232.012 248.25L237.458 242.629L236.228 250.139L232.012 248.25Z" fill="#371A45"/>
<g opacity="0.25">
<path d="M263.634 238.742C262.788 245.904 259.688 252.854 255.236 256.269L234.121 249.19C234.121 249.19 229.131 254.955 216.562 253.674C203.993 252.393 198.224 239.663 198.224 239.663C198.224 239.663 192.862 250.797 186.373 246.313C184.604 245.089 183.748 243.583 183.471 242.008L184.182 241.297C184.182 241.297 188.987 244.499 194.221 237.344C199.346 230.335 206.008 224.454 206.277 224.219C206.111 224.629 200.902 237.647 211.402 243.745C222.081 249.939 235.002 232.963 235.002 232.963C235.002 232.963 242.689 239.689 261.268 238.729C262.056 238.685 262.847 238.689 263.634 238.742Z" fill="#371A45"/>
</g>
<path d="M201.967 312.278C208.566 307.528 219.092 302.752 227.017 306.863C230.676 309.063 233.838 312.05 236.597 315.255C239.286 318.375 241.616 321.788 243.544 325.428C238.737 320.317 233.544 315.662 227.446 312.27C225.153 311.02 222.756 310.052 220.111 310.002C214.626 310.028 209.204 312.833 204.777 315.944C202.296 317.775 199.542 314.213 201.967 312.278V312.278Z" fill="#371A45"/>
<path d="M235.994 373.188C235.471 373.188 234.964 373.005 234.562 372.671C234.159 372.336 233.886 371.872 233.79 371.357C233.694 370.843 233.78 370.311 234.035 369.854C234.29 369.397 234.696 369.043 235.184 368.854C235.773 368.625 236.609 368.134 237.059 366.51C239.357 358.197 228.809 336.175 220.848 325.952C212.578 315.333 205.923 316.369 205.644 316.418C205.357 316.479 205.061 316.482 204.773 316.428C204.484 316.374 204.209 316.264 203.964 316.103C203.718 315.942 203.507 315.735 203.342 315.492C203.177 315.249 203.061 314.976 203.002 314.689C202.882 314.104 202.999 313.495 203.327 312.996C203.655 312.497 204.167 312.148 204.752 312.025C205.137 311.943 214.252 310.174 224.393 323.197C231.939 332.887 244.427 356.713 241.387 367.705C240.667 370.312 239.084 372.154 236.809 373.035C236.55 373.137 236.273 373.189 235.994 373.188V373.188Z" fill="#371A45"/>
<path d="M221.724 306.138C221.678 306.182 221.637 306.23 221.599 306.281C221.588 306.296 221.552 306.356 221.563 306.336C221.639 306.211 221.824 305.893 221.902 305.765C225.253 300.093 229.262 294.839 233.747 290.015C239.934 283.229 248.701 278.351 257.901 277.455C260.168 277.307 262.446 277.427 264.686 277.813C262.443 277.985 260.258 278.313 258.157 278.909C251.907 280.707 246.454 284.409 241.814 288.869C240.268 290.345 238.682 291.778 237.143 293.287C233.328 297.114 230.063 301.495 227.143 306.044C226.881 306.468 226.116 307.698 225.869 308.124L225.658 308.481L225.546 308.673C223.842 311.693 219.576 308.878 221.716 306.141L221.724 306.138Z" fill="#371A45"/>
<path d="M262.302 346.263C261.847 346.262 261.407 346.1 261.061 345.806C260.714 345.512 260.483 345.104 260.408 344.655C256.616 321.808 242.339 303.22 228.582 303.22C228.081 303.207 227.604 302.999 227.254 302.64C226.904 302.281 226.708 301.8 226.708 301.298C226.708 300.797 226.904 300.315 227.254 299.956C227.604 299.597 228.081 299.389 228.582 299.377C244.399 299.377 260.044 318.989 264.199 344.025C264.283 344.528 264.163 345.044 263.867 345.458C263.57 345.873 263.121 346.153 262.618 346.237C262.514 346.254 262.408 346.263 262.302 346.263V346.263Z" fill="#371A45"/>
<path d="M258.422 217.984L271.253 218.125L259.203 222.536C255.662 223.575 254.736 218.186 258.422 217.984Z" fill="#371A45"/>
<path d="M279.618 263.959C267.814 263.959 255.153 258.743 254.343 258.404C253.787 258.162 253.348 257.71 253.122 257.147C252.896 256.584 252.9 255.954 253.135 255.394C253.369 254.834 253.814 254.389 254.374 254.155C254.934 253.921 255.564 253.916 256.127 254.143C263.752 257.331 285.153 263.663 292.479 254.801C292.872 254.338 293.432 254.048 294.037 253.995C294.642 253.941 295.244 254.128 295.712 254.515C296.181 254.902 296.478 255.458 296.539 256.062C296.6 256.666 296.421 257.271 296.041 257.744C292.172 262.424 286.019 263.959 279.618 263.959Z" fill="#371A45"/>
<path d="M251.679 220.088L251.126 209.69L256.126 218.824C256.425 219.376 256.495 220.023 256.318 220.626C256.142 221.228 255.734 221.736 255.184 222.039C253.704 222.897 251.736 221.782 251.684 220.088H251.679Z" fill="#371A45"/>
<path d="M172.368 229.242C172.748 225.858 173.342 222.502 174.146 219.194C174.944 215.938 175.962 212.704 177.396 209.687C176.358 214.549 176.306 219.46 176.558 224.372C176.652 225.987 176.784 227.648 176.983 229.185C177.252 232.612 172.181 232.685 172.358 229.242H172.368Z" fill="#371A45"/>
<g opacity="0.25">
<path d="M294.262 256.274C304.249 290.251 299.963 316.626 272.692 330.765L247.612 363.539C241.362 371.706 229.879 373.878 221.187 368.381C213.474 363.506 206.958 354.404 202.948 344.806C203.698 345.409 204.454 346.067 205.216 346.78C231.264 371.124 228.579 335.89 228.579 335.89C253.589 357.498 240.629 321.944 240.424 321.366L249.682 328.631C249.682 328.631 251.872 322.866 271.251 305.889C290.629 288.911 279.259 268.734 279.259 268.734C265.486 271.456 249.682 261.366 249.682 261.668C249.682 261.969 237.138 260.085 236.658 260.405C236.178 260.725 236.549 250.009 236.549 250.009L256.376 256.723L263.634 238.741C268.874 238.665 280.418 238.616 280.418 238.616C293.583 211.069 269.176 195.983 269.176 195.983C239.399 209.084 202.866 199.539 201.507 199.154L223.301 181.819C236.664 181.194 247.523 181.991 247.523 181.991L266.318 180.999C266.318 180.999 282.302 185.554 290.841 200.71C299.379 215.866 301.949 242.635 294.262 256.274Z" fill="#371A45"/>
</g>
<g opacity="0.25">
<path d="M316.683 178.727L316.492 178.65C316.556 178.617 316.683 178.727 316.683 178.727Z" fill="#371A45"/>
</g>
<path d="M216.587 199.035C263.916 199.035 302.284 160.667 302.284 113.338C302.284 66.0083 263.916 27.6403 216.587 27.6403C169.257 27.6403 130.889 66.0083 130.889 113.338C130.889 160.667 169.257 199.035 216.587 199.035Z" fill="#F8F8F8"/>
<g opacity="0.25">
<path d="M296.699 143.768C279.889 188.018 230.398 210.26 186.154 193.452C172.532 188.301 160.455 179.746 151.077 168.604C157.081 172.892 163.613 176.386 170.512 179.002C214.762 195.809 264.247 173.568 281.056 129.324C292.501 99.1928 285.836 66.629 266.447 43.6103C297.368 65.689 310.826 106.584 296.699 143.768Z" fill="#371A45"/>
</g>
<path d="M137.019 146.19C141.814 157.227 149.851 169.085 163.089 180.315C201.014 205.577 252.099 195.815 273.703 143.3L270.291 99.7803C268.473 93.0716 264.758 86.709 259.666 80.944C228.417 45.6165 145.364 32.7415 131.749 101.163C131.749 101.163 126.339 121.617 137.019 146.19Z" fill="#371A45"/>
<g opacity="0.7">
<path d="M137.019 146.19C141.814 157.227 149.851 169.085 163.089 180.315C201.014 205.577 252.099 195.815 273.703 143.3L270.291 99.7803C268.473 93.0715 264.758 86.709 259.666 80.944C271.124 140.427 198.064 200.92 137.552 146.454L137.019 146.19Z" fill="#150035"/>
</g>
<path d="M213.072 200.959C211.418 200.959 209.731 200.903 208.011 200.792C207.723 200.778 207.442 200.708 207.182 200.585C206.922 200.462 206.689 200.288 206.497 200.074C206.306 199.859 206.158 199.609 206.065 199.337C205.971 199.065 205.932 198.778 205.951 198.491C205.969 198.204 206.045 197.923 206.174 197.666C206.302 197.409 206.48 197.179 206.698 196.992C206.916 196.804 207.17 196.662 207.443 196.574C207.717 196.485 208.005 196.452 208.292 196.477C229.992 197.895 248.578 190.006 263.542 173.034C273.772 161.435 278.736 149.31 279.604 147.062L277.782 93.4115C269.386 74.3665 252.393 59.0465 229.893 50.2415C206.859 41.224 181.883 40.7853 163.082 49.0653C162.559 49.2829 161.972 49.287 161.447 49.0767C160.921 48.8664 160.499 48.4585 160.271 47.9405C160.043 47.4224 160.027 46.8356 160.227 46.306C160.427 45.7764 160.826 45.3462 161.339 45.1077C181.171 36.3727 207.388 36.7865 231.464 46.214C255.192 55.5028 273.107 71.7877 281.912 92.0665C282.02 92.3153 282.081 92.5826 282.089 92.854L283.941 147.354C283.95 147.626 283.908 147.897 283.816 148.153C283.611 148.728 278.666 162.387 266.886 175.789C256.599 187.492 239.099 200.956 213.072 200.959Z" fill="#371A45"/>
<path d="M205.618 195.733C190.641 195.733 175.436 191.073 161.916 182.067C161.46 181.751 161.147 181.269 161.043 180.725C160.939 180.181 161.053 179.618 161.36 179.157C161.667 178.696 162.143 178.374 162.685 178.26C163.228 178.146 163.793 178.25 164.259 178.549C182.979 191.019 205.064 194.704 224.852 188.662C245.294 182.412 261.866 166.195 271.557 142.955L268.197 100.143C264.822 87.9178 254.197 75.8928 239.028 67.1428C223.886 58.4003 205.743 53.7078 189.256 54.2603C171.953 54.844 141.743 61.7603 133.818 101.579C133.709 102.129 133.385 102.613 132.919 102.924C132.453 103.236 131.882 103.349 131.333 103.24C130.783 103.13 130.299 102.807 129.987 102.341C129.676 101.875 129.562 101.304 129.672 100.754C135.877 69.5865 157.547 51.1003 189.113 50.0353C226.039 48.7965 264.912 71.7853 272.328 99.2303C272.362 99.3567 272.384 99.486 272.394 99.6165L275.811 143.132C275.836 143.462 275.784 143.795 275.658 144.102C265.503 168.783 247.898 186.044 226.086 192.707C219.451 194.724 212.553 195.744 205.618 195.733V195.733Z" fill="#371A45"/>
<path d="M216.623 201.678C205.894 201.667 195.256 199.701 185.232 195.875C139.724 178.585 116.761 127.492 134.049 81.984C142.424 59.9365 158.884 42.4715 180.396 32.804C201.907 23.1365 225.896 22.429 247.942 30.804C293.453 48.094 316.413 99.1853 299.124 144.697C290.749 166.743 274.289 184.208 252.778 193.875C241.415 199.007 229.091 201.666 216.623 201.678V201.678ZM216.553 30.1903C204.817 30.2022 193.217 32.7066 182.522 37.5378C162.272 46.6365 146.783 63.0753 138.897 83.8265C122.624 126.663 144.236 174.752 187.072 191.024C207.822 198.907 230.401 198.237 250.647 189.138C270.893 180.039 286.386 163.6 294.272 142.85L296.697 143.772L294.272 142.85C310.544 100.014 288.933 51.924 246.097 35.6515C236.663 32.0515 226.651 30.2009 216.553 30.1903V30.1903Z" fill="#371A45"/>
<path d="M305.073 119.84C305.276 135.208 297.643 147.59 285.688 147.745C273.733 147.9 263.881 135.572 263.678 120.204C263.476 104.837 273.003 92.2503 284.957 92.094C296.911 91.9378 304.872 104.473 305.073 119.84Z" fill="#F8F8F8"/>
<g opacity="0.25">
<path d="M285.686 147.742C273.734 147.897 263.879 135.569 263.686 120.203C263.622 115.328 264.532 110.734 266.196 106.732C268.177 119.708 277.157 129.458 287.789 129.322C295.698 129.214 301.716 123.768 304.826 115.641C304.977 117.016 305.062 118.414 305.076 119.837C305.272 135.208 297.646 147.587 285.686 147.742Z" fill="#371A45"/>
</g>
<path d="M285.459 150.342C278.959 150.342 272.856 147.179 268.249 141.417C263.733 135.765 261.189 128.244 261.083 120.238C260.863 103.464 271.557 89.6753 284.923 89.499C291.442 89.4315 297.373 92.6665 301.548 98.6615C305.386 104.168 307.558 111.678 307.666 119.807C307.896 137.328 298.666 150.169 285.721 150.339L285.459 150.342ZM285.181 94.6865H284.992C274.492 94.8253 266.089 106.255 266.273 120.168C266.363 127.027 268.504 133.418 272.303 138.175C275.949 142.738 280.691 145.215 285.654 145.149C295.594 145.024 302.669 134.389 302.478 119.874C302.386 112.772 300.544 106.292 297.293 101.624C295.079 98.4515 291.187 94.6865 285.181 94.6865Z" fill="#371A45"/>
<path d="M292.916 145.933C282.454 145.933 273.819 134.25 273.626 119.77C273.537 112.85 275.356 106.294 278.751 101.308C282.303 96.0828 287.154 93.169 292.412 93.1015C293.481 93.0894 294.547 93.201 295.591 93.434C295.682 93.4541 295.772 93.48 295.859 93.5115C296.382 93.6995 296.812 94.0813 297.061 94.5777C297.309 95.0742 297.358 95.6473 297.195 96.1783C297.033 96.7094 296.673 97.1576 296.189 97.4302C295.705 97.7029 295.135 97.779 294.597 97.6428C293.896 97.4917 293.181 97.4191 292.464 97.4265C288.663 97.474 285.062 99.7165 282.327 103.739C279.431 107.999 277.877 113.673 277.952 119.713C278.114 131.828 284.813 141.608 292.912 141.608H293.048C294.131 141.598 295.203 141.4 296.218 141.024C296.485 140.919 296.771 140.868 297.058 140.875C297.345 140.881 297.627 140.945 297.89 141.062C298.152 141.179 298.388 141.347 298.585 141.556C298.781 141.765 298.934 142.012 299.035 142.281C299.135 142.549 299.181 142.836 299.169 143.123C299.158 143.409 299.09 143.691 298.968 143.951C298.847 144.211 298.675 144.445 298.462 144.638C298.25 144.831 298.001 144.979 297.731 145.075C296.25 145.625 294.685 145.914 293.106 145.932L292.916 145.933Z" fill="#371A45"/>
<g opacity="0.5">
<path d="M194.884 67.6528C169.474 83.4915 154.707 105.443 152.084 134.367C151.874 136.685 148.592 137.003 147.947 134.767C137.362 98.0803 142.563 66.3665 193.648 63.7415C195.838 63.6253 196.744 66.4915 194.884 67.6528Z" fill="white"/>
</g>
<g opacity="0.5">
<path d="M244.322 121.242L243.868 121.279C241.866 121.442 239.874 120.854 238.282 119.629C236.689 118.405 235.61 116.631 235.253 114.654C235.17 114.186 235.082 113.732 234.991 113.293C234.101 108.932 236.866 104.668 241.229 103.77L241.572 103.7C243.542 103.297 245.591 103.642 247.321 104.667C249.05 105.693 250.336 107.326 250.927 109.248C251.109 109.831 251.28 110.414 251.441 110.998C251.763 112.145 251.827 113.35 251.629 114.526C251.431 115.701 250.975 116.818 250.295 117.797C249.615 118.776 248.726 119.592 247.694 120.188C246.661 120.783 245.51 121.143 244.322 121.242V121.242Z" fill="white"/>
</g>
<g opacity="0.5">
<path d="M227.764 170.298C226.834 169.742 226.026 169.005 225.386 168.13C224.747 167.255 224.291 166.26 224.045 165.205C223.798 164.15 223.767 163.056 223.952 161.988C224.138 160.921 224.537 159.902 225.124 158.992C228.988 153.047 231.726 146.442 233.202 139.508C234.142 135.104 238.416 132.258 242.818 133.203L243.952 133.445C248.394 134.398 251.211 138.834 250.116 143.244C247.387 154.225 242.259 162.834 238.468 168.094C237.284 169.735 235.528 170.873 233.546 171.281C231.563 171.689 229.5 171.338 227.764 170.298Z" fill="white"/>
</g>
<g opacity="0.25">
<path d="M185.142 298.458C185.142 298.458 213.542 306.424 235.642 289.982L225.408 305.249L221.762 307.659C214.059 308.089 207.811 309.84 203.904 313.723C196.084 310.858 189.614 306.075 185.142 298.458Z" fill="#371A45"/>
</g>
<g opacity="0.25">
<path d="M176.073 214.573C176.073 214.573 166.482 223.135 161.448 240.249L168.001 254.427L170.297 252.875C170.297 252.875 171.364 235.182 171.098 234.862C170.832 234.542 173.951 231.258 174.673 226.533C175.396 221.808 175.343 218.898 175.343 218.898" fill="#371A45"/>
</g>
<path d="M125.798 312.729L129.673 321.585L122.131 315.539C121.886 315.344 121.682 315.103 121.531 314.83C121.38 314.556 121.284 314.256 121.249 313.945C121.214 313.634 121.241 313.32 121.328 313.02C121.415 312.719 121.56 312.439 121.756 312.195C122.816 310.802 125.131 311.125 125.791 312.729H125.798Z" fill="#371A45"/>
<path d="M281.873 191.5C281.44 191.5 281.015 191.378 280.648 191.147C280.281 190.917 279.986 190.589 279.797 190.199C279.608 189.809 279.532 189.374 279.579 188.943C279.625 188.512 279.792 188.103 280.059 187.763C291.017 173.838 307.884 176.253 308.598 176.362C309.195 176.464 309.727 176.796 310.081 177.287C310.435 177.778 310.582 178.389 310.491 178.987C310.399 179.585 310.077 180.124 309.592 180.487C309.108 180.85 308.501 181.008 307.901 180.928C307.287 180.837 292.947 178.855 283.689 190.619C283.473 190.894 283.198 191.116 282.883 191.269C282.568 191.422 282.223 191.501 281.873 191.5Z" fill="#371A45"/>
<g opacity="0.25">
<path d="M282.787 169.888C282.787 169.888 269.649 175.937 288.067 195.99C281.449 189.215 274.583 183.939 267.274 181.32L277.444 169.252" fill="#371A45"/>
</g>
<g opacity="0.2">
<path d="M244.826 425.242C304.209 425.242 352.349 419.181 352.349 411.705C352.349 404.229 304.209 398.169 244.826 398.169C185.442 398.169 137.302 404.229 137.302 411.705C137.302 419.181 185.442 425.242 244.826 425.242Z" fill="#371A45"/>
</g>
<g clip-path="url(#clip0_59_459)">
<path d="M102.61 243.399C101.288 243.399 100.273 242.35 100.198 240.906C100.107 239.251 100.028 237.587 99.9489 235.924L99.8968 234.841H99.8307C98.7682 234.841 98.1283 234.188 97.6956 233.62C97.4313 233.275 97.1679 232.927 96.9015 232.573C96.6705 232.753 96.4368 232.928 96.2005 233.098C95.7903 233.404 95.295 233.571 94.7855 233.574C94.3276 233.571 93.8795 233.44 93.4906 233.196C92.5513 232.634 92.1036 231.529 92.41 230.511C92.572 229.978 92.873 229.499 93.2813 229.124C93.4816 228.938 93.6889 228.767 93.8972 228.605C93.768 228.435 93.6408 228.266 93.5136 228.098L93.4435 227.997C93.4215 227.966 93.4005 227.933 93.3764 227.905C92.5983 227.072 92.2989 226.136 92.4902 225.218L86.9712 223.412C86.0699 223.103 85.425 222.467 85.2017 221.664C84.9784 220.861 85.1957 219.996 85.7935 219.273C87.2316 217.527 89.2105 215.311 91.7571 213.689C94.0814 212.213 96.3377 211.495 98.659 211.495C98.8283 211.495 98.9995 211.495 99.1708 211.506C100.12 211.541 101.057 211.733 101.944 212.076L102.323 211.715C103.081 210.986 103.865 210.231 104.714 209.542C107.556 207.226 110.923 205.927 114.987 205.573C115.661 205.513 116.347 205.483 117.026 205.483C119.194 205.492 121.351 205.777 123.448 206.333C123.743 206.415 124.033 206.516 124.315 206.637C124.423 206.682 124.532 206.727 124.642 206.766C124.856 206.843 125.045 206.98 125.186 207.16C125.247 207.238 125.456 207.521 125.505 207.582C125.626 207.737 125.709 207.92 125.746 208.114C126.013 209.519 125.864 210.841 125.719 212.119L125.697 212.308C125.296 215.916 124.207 219.181 122.468 222.011C121.128 224.225 119.32 226.112 117.173 227.535C116.702 227.839 116.226 228.143 115.752 228.437C115.466 228.615 115.181 228.795 114.896 228.975C115.197 231.861 114.312 234.54 112.203 237.159C110.775 238.92 108.927 240.411 106.548 241.718C105.703 242.181 104.818 242.63 103.838 243.1C103.457 243.289 103.038 243.389 102.613 243.393L102.61 243.399ZM104.931 236.915C105.912 236.319 106.825 235.615 107.651 234.815C108.744 233.725 109.427 232.678 109.792 231.528L104.759 233.507C104.817 234.627 104.873 235.762 104.927 236.913L104.931 236.915ZM106.187 219.772C106.743 219.772 107.282 219.969 107.709 220.33C107.999 220.564 108.233 220.862 108.392 221.201C108.551 221.54 108.632 221.912 108.627 222.287C108.617 222.678 108.518 223.062 108.338 223.408C108.158 223.754 107.903 224.055 107.591 224.286C106.226 225.348 104.855 226.411 103.476 227.476C102.616 228.142 101.756 228.808 100.895 229.475C105.678 227.991 109.266 226.502 112.455 224.681C114.031 223.781 115.237 222.911 116.248 221.946C117.475 220.764 118.479 219.277 119.308 217.408C119.097 217.137 118.888 216.859 118.679 216.581L118.278 216.054C116.928 214.264 115.584 212.483 114.226 210.705C113.084 210.873 111.965 211.173 110.891 211.601C109.25 212.243 107.723 213.309 105.936 215.054C104.307 216.631 102.829 218.361 101.524 220.221C100.383 221.848 99.2659 223.539 98.1853 225.175L98.0001 225.453L100.184 223.761C101.653 222.618 103.127 221.476 104.608 220.337C105.058 219.978 105.613 219.778 106.187 219.77V219.772ZM94.9948 220.813C96.0503 219.362 97.0964 217.922 98.1333 216.491C97.7931 216.52 97.4562 216.58 97.1268 216.671C95.0939 217.237 93.4435 218.442 91.9914 219.823L94.9948 220.813ZM120.767 211.943C120.815 211.58 120.852 211.221 120.878 210.866L119.859 210.742L120.767 211.943Z" fill="white"/>
<path d="M124.484 212.172C124.626 210.911 124.791 209.634 124.547 208.351C124.438 208.212 124.338 208.07 124.229 207.93C123.867 207.798 123.516 207.626 123.14 207.531C120.495 206.84 117.813 206.566 115.09 206.803C111.537 207.113 108.28 208.222 105.476 210.506C104.46 211.33 103.535 212.261 102.588 213.164C102.333 213.409 102.138 213.51 101.786 213.345C100.945 212.974 100.042 212.768 99.1246 212.737C96.6621 212.625 94.464 213.429 92.415 214.731C90.1938 216.15 88.4032 218.039 86.7368 220.064C86.0268 220.922 86.3022 221.88 87.3587 222.24C88.0257 222.46 88.6927 222.676 89.3616 222.897C90.9592 223.42 92.5542 223.941 94.1465 224.461C94.1473 224.495 94.1449 224.529 94.1395 224.563C94.1273 224.598 94.1111 224.632 94.0914 224.664C93.4265 225.528 93.5907 226.328 94.2917 227.079C94.365 227.167 94.4338 227.258 94.498 227.353C94.8645 227.841 95.2401 228.334 95.6286 228.843C95.0979 229.257 94.5761 229.61 94.1144 230.035C93.8697 230.262 93.6884 230.55 93.5887 230.87C93.4385 231.369 93.6888 231.878 94.1325 232.14C94.5971 232.422 95.0758 232.411 95.5084 232.095C96.0572 231.7 96.582 231.273 97.1408 230.84C97.6685 231.544 98.1683 232.209 98.669 232.866C99.2448 233.615 99.6404 233.743 100.532 233.493C100.694 233.442 100.854 233.407 101.045 233.36C101.059 233.552 101.073 233.707 101.081 233.852C101.195 236.182 101.3 238.517 101.426 240.843C101.484 241.945 102.344 242.464 103.329 241.992C104.217 241.569 105.105 241.12 105.976 240.642C107.984 239.538 109.811 238.185 111.268 236.387C113.093 234.122 114.102 231.594 113.629 228.607C113.627 228.534 113.642 228.461 113.673 228.395C113.704 228.329 113.75 228.272 113.808 228.227C114.703 227.643 115.622 227.097 116.519 226.505C118.517 225.181 120.199 223.424 121.444 221.362C123.161 218.548 124.117 215.456 124.484 212.172ZM95.4544 222.259L89.7332 220.373C91.7631 218.191 93.9112 216.285 96.8033 215.481C98.0531 215.133 99.4982 215.163 100.35 215.513C98.7311 217.749 97.1087 219.985 95.4544 222.259V222.259ZM110.968 231.849C110.499 233.363 109.604 234.595 108.502 235.694C107.132 237.044 105.537 238.05 103.812 238.97C103.709 236.826 103.604 234.728 103.498 232.676L111.217 229.641C111.316 230.357 111.195 231.112 110.968 231.849ZM120.595 217.499C119.756 219.503 118.656 221.327 117.09 222.837C115.88 223.995 114.505 224.925 113.059 225.752C109.135 227.992 104.93 229.538 100.631 230.844C100.42 230.905 100.292 230.894 100.153 230.699C99.8527 230.267 99.5172 229.852 99.1997 229.427C99.1742 229.382 99.1543 229.335 99.1407 229.286C99.2508 229.197 99.368 229.109 99.4872 229.017C101.941 227.112 104.406 225.212 106.86 223.302C107.57 222.758 107.6 221.822 106.943 221.281C106.484 220.901 105.88 220.907 105.352 221.309C103.875 222.448 102.401 223.589 100.929 224.733C99.8276 225.582 98.7421 226.429 97.6004 227.314C97.2079 226.797 96.8303 226.323 96.4899 225.827C96.4318 225.738 96.4899 225.513 96.57 225.402C97.8779 223.428 99.1737 221.443 100.536 219.503C101.884 217.58 103.412 215.793 105.097 214.165C106.675 212.621 108.386 211.259 110.455 210.448C111.772 209.921 113.153 209.575 114.561 209.417C114.689 209.398 114.875 209.529 114.961 209.648C116.398 211.529 117.819 213.41 119.243 215.298C119.67 215.858 120.092 216.431 120.532 216.985C120.594 217.054 120.633 217.14 120.645 217.232C120.656 217.324 120.639 217.417 120.595 217.499ZM121.448 214.871C120.028 212.989 118.644 211.159 117.253 209.32C117.253 209.277 117.267 209.229 117.273 209.183C118.89 209.379 120.51 209.579 122.148 209.778C122.109 211.497 121.875 213.206 121.451 214.871H121.448Z" fill="#371A45"/>
<path d="M120.533 216.983C120.093 216.429 119.671 215.856 119.244 215.295C117.82 213.408 116.399 211.527 114.962 209.646C114.872 209.527 114.686 209.396 114.562 209.415C113.154 209.573 111.773 209.919 110.456 210.446C108.387 211.256 106.676 212.619 105.098 214.163C103.413 215.791 101.885 217.578 100.537 219.501C99.1757 221.441 97.8789 223.426 96.571 225.4C96.4919 225.511 96.4328 225.736 96.4909 225.825C96.8313 226.321 97.2089 226.795 97.6014 227.312C98.7431 226.427 99.8327 225.58 100.93 224.731C102.404 223.587 103.878 222.446 105.353 221.307C105.881 220.902 106.485 220.902 106.944 221.279C107.601 221.82 107.571 222.756 106.861 223.3C104.407 225.21 101.942 227.11 99.4882 229.015C99.369 229.107 99.2518 229.195 99.1417 229.284C99.1553 229.333 99.1752 229.38 99.2007 229.425C99.5182 229.85 99.8547 230.265 100.154 230.697C100.293 230.892 100.421 230.9 100.632 230.842C104.931 229.536 109.136 227.99 113.06 225.75C114.506 224.923 115.881 223.993 117.091 222.835C118.662 221.325 119.762 219.501 120.596 217.497C120.64 217.415 120.657 217.322 120.646 217.23C120.634 217.138 120.595 217.052 120.533 216.983V216.983ZM116.227 219.857C114.35 221.286 111.697 220.937 110.288 219.065C109.608 218.162 109.311 217.022 109.461 215.897C109.611 214.772 110.197 213.753 111.089 213.064C112.913 211.645 115.568 212.01 116.99 213.879C118.394 215.739 118.052 218.463 116.227 219.859V219.857Z" fill="white"/>
<path d="M121.451 214.869C120.03 212.991 118.647 211.158 117.256 209.319C117.256 209.275 117.27 209.23 117.275 209.182C118.892 209.385 120.513 209.58 122.153 209.778C122.119 211.56 121.856 213.195 121.451 214.869Z" fill="#DB2C2C"/>
<path d="M100.352 215.514C98.7301 217.748 97.1077 219.985 95.4554 222.261C93.6077 221.653 91.696 221.021 89.7332 220.374C91.7651 218.19 93.9112 216.283 96.8043 215.482C98.0531 215.131 99.4962 215.16 100.352 215.514Z" fill="#DB2C2C"/>
<path d="M108.5 235.694C107.13 237.043 105.537 238.056 103.811 238.968C103.706 236.827 103.601 234.729 103.498 232.675C106.102 231.649 108.653 230.648 111.219 229.635C111.319 230.351 111.194 231.106 110.969 231.846C110.501 233.365 109.606 234.596 108.5 235.694Z" fill="#DB2C2C"/>
<path d="M116.987 213.881C115.565 212.012 112.91 211.645 111.086 213.066C110.194 213.755 109.608 214.774 109.458 215.899C109.308 217.024 109.605 218.164 110.285 219.067C111.694 220.939 114.348 221.288 116.224 219.859C118.052 218.463 118.394 215.739 116.987 213.881ZM114.962 218.28C114.609 218.542 114.187 218.693 113.749 218.713C113.311 218.733 112.877 218.622 112.502 218.393C112.126 218.165 111.825 217.829 111.638 217.428C111.45 217.028 111.384 216.58 111.447 216.141C111.51 215.702 111.7 215.292 111.992 214.962C112.285 214.632 112.668 214.397 113.092 214.286C113.516 214.175 113.964 214.194 114.378 214.339C114.792 214.485 115.154 214.751 115.419 215.104C115.596 215.343 115.724 215.614 115.797 215.903C115.87 216.192 115.885 216.493 115.843 216.788C115.801 217.083 115.701 217.367 115.55 217.623C115.399 217.879 115.199 218.102 114.962 218.28Z" fill="#371A45"/>
<path d="M114.961 218.28C114.608 218.542 114.186 218.693 113.748 218.713C113.31 218.733 112.876 218.622 112.501 218.394C112.125 218.165 111.825 217.83 111.637 217.429C111.449 217.029 111.383 216.581 111.446 216.142C111.508 215.703 111.698 215.293 111.991 214.963C112.283 214.633 112.666 214.398 113.09 214.287C113.514 214.176 113.961 214.194 114.375 214.339C114.789 214.484 115.152 214.75 115.417 215.103C115.594 215.342 115.722 215.613 115.795 215.902C115.868 216.191 115.884 216.492 115.842 216.787C115.799 217.083 115.7 217.366 115.549 217.623C115.398 217.879 115.198 218.102 114.961 218.28V218.28Z" fill="#22A7F0"/>
</g>
<defs>
<clipPath id="clip0_59_459">
<rect width="40.7725" height="37.9113" fill="white" transform="translate(85.1185 205.487)"/>
</clipPath>
</defs>
</svg>
