<svg width="500" height="500" viewBox="0 0 500 500" fill="none" xmlns="http://www.w3.org/2000/svg">
<path d="M249.298 346.554C248.173 346.574 246.959 346.65 245.673 346.779C231.9 348.136 210.535 355.203 210.535 355.203L186.236 390.533C185.575 391.489 184.614 392.198 183.505 392.55C182.397 392.901 181.203 392.874 180.111 392.474C161.328 385.523 144.845 376.695 131.078 365.631C130.219 364.942 129.6 363.999 129.31 362.937C129.02 361.875 129.074 360.748 129.464 359.719C129.765 358.931 130.118 358.048 130.521 357.094C132.783 351.844 136.729 344.659 142.418 341.264C151.95 335.581 164.736 343.264 164.736 343.264C164.736 343.264 181.815 318.204 187.42 311.957C193.025 305.711 211.875 298.027 211.875 298.027L245.559 321.839C245.559 321.839 262.539 346.342 249.298 346.554Z" fill="#F8F8F8"/>
<path d="M367.703 313.473C367.662 317.637 366.217 321.666 363.603 324.908C357.466 332.533 344.135 344.741 322.758 342.858C317.863 342.429 313.557 339.04 309.777 333.653C289.759 305.164 284.32 220.673 284.32 220.673L312.026 197.931C312.026 197.931 339.092 198.885 349.026 207.777C353.362 211.66 357.694 224.536 361.095 241.673C362.786 250.193 364.254 259.77 365.369 269.821C366.259 277.821 366.925 286.113 367.316 294.408C367.625 300.808 367.75 307.208 367.703 313.473Z" fill="#F8F8F8"/>
<path d="M327.144 345.362C325.654 345.362 324.124 345.294 322.554 345.157C308.647 343.932 297.607 322.407 289.739 281.182C284.012 251.182 282.034 221.121 282.015 220.821C281.991 220.516 282.028 220.209 282.123 219.918C282.219 219.627 282.371 219.358 282.572 219.127C282.772 218.895 283.017 218.706 283.291 218.57C283.566 218.434 283.864 218.354 284.17 218.334C284.475 218.315 284.782 218.356 285.071 218.456C285.361 218.556 285.627 218.712 285.856 218.916C286.084 219.12 286.27 219.367 286.402 219.643C286.534 219.919 286.61 220.219 286.625 220.525C286.644 220.822 288.607 250.63 294.282 280.353C301.507 318.182 311.691 339.564 322.96 340.556C343.326 342.346 356.037 330.615 361.802 323.461C364.088 320.622 365.352 317.097 365.391 313.452C365.787 266.459 355.875 217.014 347.481 209.499C338.292 201.27 312.21 200.249 311.947 200.24C311.335 200.218 310.756 199.955 310.339 199.506C309.921 199.058 309.698 198.462 309.72 197.85C309.742 197.238 310.005 196.659 310.454 196.241C310.902 195.824 311.498 195.601 312.11 195.622C313.25 195.662 340.13 196.715 350.562 206.057C360.946 215.355 370.397 267.566 370.011 313.491C369.962 318.179 368.338 322.714 365.4 326.366C359.5 333.681 346.974 345.36 327.144 345.362Z" fill="#371A45"/>
<path d="M367.312 294.408C358.657 299.994 343.622 304.011 337.812 299.629L338.543 268.828L338.918 253.358C338.918 253.358 349.783 245.375 361.095 241.673C366.322 239.963 369.237 247.624 370.941 257.172C370.961 257.287 370.98 257.416 371.006 257.547C372.928 268.592 373.267 281.994 373.69 286.337C373.936 288.911 371.302 291.826 367.312 294.408Z" fill="#F8F8F8"/>
<path d="M345 303.8C341.625 303.8 338.606 303.125 336.416 301.472C335.937 301.1 335.624 300.554 335.544 299.952C335.464 299.351 335.625 298.742 335.99 298.257C336.356 297.773 336.897 297.452 337.498 297.363C338.098 297.275 338.709 297.426 339.199 297.785C343.174 300.785 354.855 298.82 364.199 293.58C369.324 290.705 371.518 287.927 371.384 286.561C371.266 285.359 371.159 283.561 371.024 281.276C370.48 272.131 369.036 247.84 363.51 244.079C362.969 243.711 362.476 243.65 361.808 243.869C350.994 247.409 340.38 255.141 340.274 255.219C340.03 255.404 339.751 255.538 339.455 255.614C339.158 255.691 338.849 255.707 338.546 255.663C338.243 255.619 337.952 255.515 337.689 255.357C337.427 255.199 337.198 254.991 337.017 254.744C336.836 254.497 336.706 254.217 336.634 253.919C336.562 253.622 336.55 253.313 336.599 253.01C336.647 252.708 336.756 252.418 336.917 252.158C337.079 251.898 337.291 251.673 337.54 251.495C337.996 251.16 348.84 243.252 360.371 239.477C362.398 238.815 364.383 239.085 366.109 240.26C372.941 244.909 374.609 263.729 375.635 281.002C375.768 283.234 375.871 284.996 375.981 286.111C376.35 289.876 372.969 293.96 366.459 297.611C360.78 300.795 352.115 303.8 345 303.8Z" fill="#371A45"/>
<g opacity="0.25">
<path d="M367.312 294.408C367.62 300.808 367.754 307.208 367.702 313.473C367.662 317.637 366.217 321.666 363.602 324.908C357.466 332.533 344.135 344.741 322.757 342.858C317.862 342.429 313.557 339.04 309.777 333.653C310.13 321.173 311.872 320.258 313.256 308.13C314.749 294.985 317.311 286.445 319.022 284.524L338.541 268.828L339.477 268.078C339.477 268.078 340.169 275.394 350.201 275.047C355.351 274.867 361.162 272.998 365.365 269.82C369.349 266.803 371.88 262.606 371.002 257.545C372.924 268.59 373.264 281.991 373.686 286.335C373.936 288.911 371.302 291.826 367.312 294.408Z" fill="#371A45"/>
</g>
<path d="M368.457 250.441C364.892 251.531 361.285 252.766 357.832 254.177C355.465 255.219 352.722 256.255 350.911 257.984C350.825 258.068 350.802 258.127 350.736 258.2C350.736 258.245 350.704 258.23 350.69 258.276C350.576 258.844 350.5 259.418 350.462 259.995C350.251 263.709 350.364 267.56 350.462 271.362C350.579 275.177 350.741 278.994 350.949 282.812C350.373 279.033 349.838 275.246 349.345 271.451C348.876 267.642 348.385 263.871 348.22 259.951C348.22 259.326 348.2 258.605 348.291 257.965C348.329 257.442 348.602 256.877 348.901 256.465C350.967 253.937 353.725 252.67 356.401 251.141C359.862 249.316 363.357 247.724 366.971 246.217C369.897 245.126 371.442 249.45 368.462 250.447L368.457 250.441Z" fill="#371A45"/>
<path d="M181.936 395.107C181.043 395.107 180.156 394.948 179.319 394.637C159.864 387.444 143.149 378.29 129.637 367.432C128.396 366.44 127.502 365.078 127.083 363.545C126.665 362.011 126.744 360.385 127.309 358.899C129.375 353.445 133.934 343.649 141.24 339.285C149.606 334.294 159.8 338.22 163.999 340.262C167.98 334.459 180.86 315.82 185.708 310.419C191.6 303.852 210.215 296.211 211.004 295.889C211.571 295.657 212.207 295.659 212.772 295.896C213.338 296.133 213.785 296.585 214.018 297.152C214.25 297.72 214.247 298.356 214.01 298.921C213.773 299.486 213.321 299.934 212.754 300.166C207.649 302.25 193.455 308.709 189.151 313.504C183.711 319.565 166.824 344.32 166.651 344.569C166.319 345.056 165.813 345.398 165.237 345.524C164.661 345.65 164.059 345.551 163.554 345.247C163.44 345.18 151.819 338.355 143.609 343.247C137.504 346.89 133.484 355.639 131.631 360.53C131.413 361.104 131.383 361.733 131.545 362.325C131.707 362.917 132.053 363.443 132.532 363.826C145.657 374.371 161.936 383.279 180.922 390.3C181.532 390.526 182.198 390.542 182.818 390.346C183.437 390.15 183.973 389.753 184.341 389.217L208.641 353.889C208.927 353.473 209.341 353.163 209.82 353.005C210.875 352.656 235.828 344.456 249.265 344.24C251.265 344.207 251.64 343.497 251.755 343.264C253.451 339.964 247.931 329.309 243.666 323.147C243.48 322.899 243.345 322.615 243.271 322.313C243.196 322.011 243.184 321.697 243.233 321.39C243.283 321.083 243.395 320.79 243.561 320.527C243.727 320.264 243.944 320.037 244.2 319.86C244.456 319.684 244.745 319.56 245.049 319.498C245.354 319.435 245.668 319.435 245.973 319.497C246.278 319.558 246.567 319.681 246.823 319.857C247.079 320.034 247.297 320.26 247.464 320.522C249.494 323.452 259.439 338.42 255.864 345.379C255.066 346.934 253.286 348.8 249.339 348.864C237.839 349.049 216.248 355.796 212.004 357.159L188.148 391.84C187.455 392.848 186.528 393.672 185.446 394.241C184.363 394.81 183.159 395.108 181.936 395.107Z" fill="#371A45"/>
<g opacity="0.25">
<path d="M250.207 335.984C250.207 337.425 249.246 338.226 248.125 341.109C247.657 342.308 246.774 344.376 245.677 346.779C231.905 348.136 210.54 355.203 210.54 355.203L186.241 390.533C185.579 391.489 184.619 392.198 183.51 392.55C182.402 392.901 181.208 392.874 180.116 392.474C161.333 385.523 144.85 376.695 131.082 365.631C130.224 364.942 129.605 363.999 129.315 362.937C129.025 361.875 129.079 360.748 129.469 359.719C129.77 358.931 130.122 358.048 130.526 357.094L136.74 360.751C158.329 372.501 174.049 373.32 181.66 359.041C181.66 359.041 196.394 339.183 208.16 330.983C219.926 322.783 218.339 309.714 218.339 309.714L246.686 332.455C247.645 333.261 250.207 334.543 250.207 335.984Z" fill="#371A45"/>
</g>
<path d="M210.811 356.484C210.658 356.484 210.504 356.466 210.355 356.43C186.9 350.729 172.71 332.375 172.117 331.596C171.965 331.395 171.853 331.167 171.788 330.923C171.724 330.679 171.708 330.424 171.742 330.174C171.776 329.924 171.859 329.683 171.985 329.465C172.112 329.247 172.281 329.056 172.482 328.903C172.683 328.75 172.912 328.638 173.156 328.574C173.4 328.509 173.654 328.494 173.904 328.528C174.154 328.561 174.395 328.644 174.613 328.771C174.831 328.898 175.022 329.067 175.175 329.267C175.33 329.469 189.183 347.327 211.263 352.695C211.72 352.805 212.12 353.08 212.389 353.466C212.657 353.852 212.775 354.323 212.719 354.79C212.663 355.257 212.438 355.687 212.087 355.999C211.735 356.311 211.281 356.484 210.811 356.484Z" fill="#371A45"/>
<path d="M164.135 306.882C164.135 306.882 182.295 303.155 196.686 292.582L161.319 295.276" fill="#F8F8F8"/>
<g opacity="0.25">
<path d="M164.135 306.882C164.135 306.882 182.295 303.155 196.686 292.582L161.319 295.276" fill="#371A45"/>
</g>
<path d="M164.133 309.193C163.561 309.192 163.01 308.979 162.586 308.595C162.162 308.211 161.895 307.684 161.838 307.115C161.78 306.546 161.936 305.976 162.274 305.515C162.613 305.054 163.11 304.735 163.67 304.62C163.846 304.584 181.524 300.855 195.319 290.721C195.813 290.372 196.425 290.23 197.022 290.327C197.62 290.424 198.155 290.752 198.514 291.24C198.872 291.728 199.025 292.337 198.939 292.936C198.853 293.535 198.535 294.076 198.054 294.444C183.429 305.194 165.361 308.989 164.599 309.145C164.445 309.177 164.289 309.193 164.133 309.193Z" fill="#371A45"/>
<path d="M313.467 359.899L288.388 392.672C282.138 400.84 270.655 403.011 261.963 397.515C254.25 392.64 247.734 383.538 243.724 373.94C240.714 366.759 239.111 359.296 239.445 353.101C239.58 350.912 240.315 348.802 241.57 347.003L244.146 343.242C244.146 343.242 221.59 336.367 216.734 301.179V291.992C216.734 291.992 204.991 291.211 204.133 289.68C203.274 288.149 192.416 250.783 192.416 250.783C192.416 250.783 207.125 226.855 228.265 217.572C238.233 213.197 252.154 211.519 264.075 210.961C277.439 210.336 288.297 211.134 288.297 211.134L307.092 210.141C307.092 210.141 323.076 214.696 331.615 229.852C340.154 245.009 342.724 271.769 335.036 285.408C345.025 319.385 340.739 345.76 313.467 359.899Z" fill="#F8F8F8"/>
<path d="M272.399 402.821C268.269 402.833 264.221 401.668 260.729 399.465C245.854 390.051 236.361 367.409 237.139 352.976C237.298 350.364 238.173 347.846 239.667 345.698L240.636 344.283C234.121 341.115 218.465 330.596 214.447 301.493C214.432 301.388 214.425 301.283 214.425 301.177V294.139C203.476 293.235 202.601 291.671 202.12 290.808C201.265 289.276 194.282 265.477 190.196 251.432C190.106 251.123 190.082 250.798 190.125 250.479C190.168 250.16 190.277 249.853 190.446 249.579C191.062 248.579 205.784 224.93 227.337 215.464C248.756 206.056 286.852 208.721 288.462 208.839C289.069 208.889 289.631 209.177 290.026 209.64C290.422 210.102 290.619 210.702 290.574 211.309C290.53 211.916 290.248 212.481 289.79 212.881C289.331 213.281 288.734 213.484 288.126 213.446C287.743 213.419 249.559 210.749 229.194 219.696C211.183 227.606 197.74 246.886 194.925 251.156C198.779 264.391 204.726 284.531 206.02 288.188C207.626 288.769 212.697 289.419 216.887 289.699C217.472 289.738 218.02 289.998 218.421 290.426C218.821 290.854 219.044 291.418 219.044 292.004V301.026C223.691 334.23 244.609 340.98 244.82 341.044C245.167 341.15 245.484 341.335 245.746 341.587C246.008 341.838 246.207 342.147 246.327 342.489C246.447 342.831 246.484 343.197 246.437 343.557C246.389 343.916 246.257 344.26 246.053 344.559L243.477 348.316C242.463 349.764 241.866 351.461 241.75 353.225C241.041 366.35 250.064 387.249 263.196 395.561C270.776 400.36 281.034 398.474 286.549 391.269L311.634 358.5C311.84 358.231 312.104 358.01 312.405 357.854C336.655 345.285 343.328 321.801 332.82 286.061C332.733 285.765 332.706 285.454 332.741 285.147C332.776 284.841 332.872 284.544 333.024 284.275C339.862 272.144 338.203 246.25 329.606 230.992C321.659 216.885 306.606 212.407 306.459 212.367C305.87 212.199 305.371 211.804 305.074 211.268C304.776 210.733 304.704 210.101 304.872 209.512C305.04 208.923 305.436 208.425 305.971 208.127C306.507 207.829 307.138 207.757 307.728 207.925C308.418 208.121 324.728 212.925 333.631 228.727C341.965 243.519 345.266 270.669 337.517 285.675C342.67 303.576 343.632 318.3 340.462 330.675C337.002 344.175 328.435 354.615 314.991 361.718L290.22 394.084C285.865 399.765 279.157 402.821 272.399 402.821Z" fill="#371A45"/>
<path d="M233.826 257.545H282.55C284.648 257.545 286.659 258.378 288.142 259.861C289.626 261.345 290.459 263.356 290.459 265.454V294.954C290.459 297.017 289.652 298.999 288.211 300.477C286.77 301.954 284.809 302.81 282.746 302.861L234.023 304.07C232.968 304.096 231.918 303.911 230.936 303.525C229.954 303.139 229.059 302.561 228.304 301.824C227.548 301.087 226.948 300.207 226.538 299.234C226.129 298.262 225.918 297.218 225.918 296.163V265.454C225.918 263.356 226.751 261.345 228.234 259.861C229.717 258.378 231.729 257.545 233.826 257.545Z" fill="#F8F8F8"/>
<path d="M233.818 306.385C231.109 306.382 228.512 305.304 226.597 303.388C224.683 301.472 223.608 298.874 223.608 296.165V265.454C223.611 262.745 224.689 260.147 226.604 258.232C228.52 256.316 231.117 255.238 233.826 255.235H282.55C285.259 255.238 287.856 256.316 289.772 258.232C291.688 260.147 292.765 262.745 292.769 265.454V294.954C292.784 297.625 291.747 300.194 289.882 302.106C288.017 304.018 285.474 305.118 282.804 305.17L234.08 306.379C233.993 306.383 233.905 306.385 233.818 306.385ZM233.826 259.855C232.342 259.857 230.919 260.447 229.869 261.497C228.82 262.546 228.229 263.969 228.228 265.454V296.165C228.227 296.912 228.377 297.652 228.667 298.34C228.957 299.029 229.381 299.652 229.916 300.174C230.451 300.696 231.084 301.105 231.78 301.378C232.475 301.651 233.218 301.782 233.965 301.764L282.689 300.555C284.152 300.527 285.546 299.924 286.568 298.876C287.59 297.828 288.158 296.42 288.15 294.956V265.456C288.148 263.972 287.557 262.549 286.508 261.499C285.458 260.45 284.034 259.859 282.55 259.858L233.826 259.855Z" fill="#371A45"/>
<path d="M219.786 258.079H268.51C270.608 258.079 272.619 258.913 274.102 260.396C275.586 261.879 276.419 263.891 276.419 265.989V295.489C276.419 297.552 275.613 299.535 274.172 301.012C272.731 302.489 270.769 303.345 268.706 303.396L219.982 304.605C218.928 304.631 217.878 304.446 216.896 304.06C215.914 303.674 215.019 303.096 214.264 302.359C213.508 301.622 212.908 300.742 212.498 299.769C212.089 298.797 211.878 297.753 211.878 296.698V265.989C211.877 264.95 212.082 263.922 212.479 262.962C212.877 262.002 213.459 261.13 214.193 260.396C214.928 259.661 215.8 259.078 216.759 258.681C217.719 258.283 218.748 258.079 219.786 258.079Z" fill="#F8F8F8"/>
<path d="M253.359 306.02C252.774 306.02 252.212 305.791 251.793 305.382C251.375 304.974 251.133 304.417 251.119 303.833C251.021 299.871 250.904 293.664 251.017 290.465C247.505 289.59 236.969 288.196 227.501 287.215C226.967 287.16 226.471 286.915 226.103 286.525C225.734 286.135 225.517 285.626 225.492 285.09L224.211 258.184C224.19 257.886 224.229 257.587 224.325 257.304C224.422 257.021 224.573 256.76 224.772 256.537C224.97 256.313 225.211 256.132 225.481 256.003C225.75 255.874 226.043 255.8 226.341 255.786C226.64 255.772 226.938 255.817 227.219 255.92C227.499 256.023 227.756 256.18 227.975 256.384C228.194 256.587 228.37 256.832 228.493 257.105C228.615 257.377 228.683 257.671 228.69 257.97L229.88 282.955C253.554 285.469 254.544 286.845 255.144 287.678C255.342 287.951 255.481 288.263 255.55 288.594C255.619 288.925 255.617 289.266 255.545 289.596C255.391 290.575 255.45 297.559 255.601 303.721C255.616 304.316 255.393 304.891 254.984 305.322C254.574 305.753 254.009 306.003 253.415 306.018L253.359 306.02ZM251.167 288.63C251.156 288.679 251.147 288.728 251.14 288.776C251.149 288.721 251.157 288.673 251.167 288.625V288.63Z" fill="#371A45"/>
<path d="M219.779 306.919C217.07 306.916 214.472 305.839 212.558 303.922C210.643 302.006 209.568 299.408 209.568 296.699V265.988C209.571 263.278 210.648 260.681 212.564 258.765C214.48 256.85 217.077 255.772 219.786 255.769H268.51C271.219 255.772 273.816 256.85 275.732 258.765C277.648 260.681 278.725 263.278 278.729 265.988V295.488C278.744 298.158 277.707 300.728 275.842 302.639C273.977 304.551 271.434 305.652 268.764 305.704L220.04 306.913L219.779 306.919ZM219.786 260.389C218.302 260.39 216.879 260.981 215.829 262.03C214.779 263.08 214.188 264.503 214.186 265.988V296.699C214.186 297.446 214.336 298.185 214.626 298.874C214.916 299.562 215.341 300.186 215.876 300.707C216.411 301.229 217.044 301.638 217.74 301.911C218.435 302.185 219.178 302.316 219.925 302.298L268.649 301.089C270.112 301.061 271.505 300.457 272.527 299.409C273.549 298.362 274.117 296.954 274.109 295.49V265.99C274.107 264.506 273.517 263.083 272.467 262.033C271.417 260.983 269.994 260.393 268.51 260.391L219.786 260.389Z" fill="#371A45"/>
<path d="M274.89 286.457L274.711 289.84C274.654 290.894 274.205 291.889 273.453 292.629C272.7 293.369 271.697 293.801 270.643 293.84L208.65 296.05L122.961 299.112C122.405 299.132 121.85 299.042 121.329 298.846C120.807 298.651 120.33 298.355 119.923 297.974C119.517 297.594 119.189 297.137 118.96 296.63C118.731 296.123 118.604 295.575 118.586 295.019L118.478 291.502C118.457 290.848 118.589 290.199 118.863 289.605C119.138 289.011 119.547 288.489 120.059 288.081H120.066C120.771 287.504 121.647 287.176 122.558 287.146L208.016 284.18H208.189L270.521 282.015C271.107 281.995 271.69 282.096 272.234 282.313C272.778 282.53 273.272 282.858 273.682 283.276C274.093 283.693 274.413 284.192 274.62 284.74C274.828 285.287 274.92 285.872 274.89 286.457Z" fill="#BCC4CC"/>
<g opacity="0.61">
<path d="M274.89 286.458L274.765 288.803C274.527 287.866 273.975 287.039 273.202 286.459C272.429 285.878 271.481 285.58 270.515 285.613L208.25 287.778L208.161 284.178L270.525 282.013C271.11 281.993 271.694 282.095 272.237 282.312C272.781 282.53 273.274 282.858 273.685 283.276C274.095 283.693 274.414 284.192 274.622 284.74C274.829 285.288 274.92 285.873 274.89 286.458Z" fill="white"/>
</g>
<path d="M208.779 295.734L208.638 295.721L120.066 288.085H120.059L116.696 280.725L91.125 224.786C90.7976 224.074 90.6672 223.287 90.7472 222.507C90.8272 221.727 91.1148 220.983 91.58 220.352L93.5663 217.649C93.9533 217.126 94.4513 216.696 95.0246 216.39C95.5978 216.083 96.2319 215.907 96.8813 215.875L171.116 211.947C173.58 211.816 176.022 212.464 178.096 213.801C180.169 215.137 181.769 217.093 182.666 219.391L182.82 219.776L208.016 284.19L208.451 290.807L208.779 295.734Z" fill="#BCC4CC"/>
<g opacity="0.61">
<path d="M208.086 285.25L183.947 223.545C183.05 221.247 181.45 219.291 179.377 217.955C177.303 216.618 174.861 215.97 172.398 216.101L98.1625 220.032C97.5132 220.066 96.8793 220.243 96.3067 220.551C95.7341 220.859 95.237 221.29 94.8513 221.814L92.865 224.516C92.3856 225.166 92.0953 225.936 92.0263 226.74L91.125 224.786C90.7976 224.074 90.6672 223.287 90.7472 222.507C90.8272 221.727 91.1148 220.983 91.58 220.352L93.5663 217.649C93.9533 217.126 94.4513 216.696 95.0246 216.39C95.5978 216.083 96.2319 215.907 96.8813 215.875L171.116 211.947C173.58 211.816 176.022 212.464 178.096 213.801C180.169 215.137 181.769 217.093 182.666 219.391L208.016 284.19L208.086 285.25Z" fill="white"/>
</g>
<path d="M122.806 301.075C121.202 301.073 119.66 300.447 118.509 299.329C117.357 298.212 116.685 296.69 116.635 295.086L116.525 291.566C116.476 289.931 117.075 288.344 118.192 287.149C119.31 285.955 120.854 285.251 122.489 285.191L270.454 280.052C271.31 280.023 272.163 280.172 272.959 280.489C273.755 280.807 274.476 281.287 275.076 281.898C275.677 282.509 276.144 283.239 276.447 284.04C276.751 284.841 276.885 285.697 276.84 286.552L276.664 289.935C276.59 291.481 275.937 292.942 274.834 294.027C273.731 295.112 272.259 295.741 270.712 295.789L123.033 301.064C122.958 301.074 122.881 301.075 122.806 301.075ZM122.625 289.104C122.025 289.126 121.458 289.384 121.047 289.823C120.637 290.262 120.416 290.845 120.434 291.445L120.543 294.965C120.552 295.264 120.62 295.558 120.744 295.831C120.867 296.104 121.043 296.349 121.262 296.553C121.48 296.758 121.737 296.917 122.017 297.022C122.298 297.126 122.596 297.175 122.895 297.164L270.574 291.889C271.142 291.871 271.683 291.64 272.089 291.241C272.494 290.842 272.734 290.304 272.761 289.736L272.939 286.354C272.956 286.039 272.908 285.724 272.796 285.43C272.684 285.135 272.512 284.867 272.29 284.644C272.071 284.417 271.806 284.239 271.514 284.122C271.221 284.005 270.906 283.951 270.591 283.965L122.625 289.104Z" fill="#371A45"/>
<path d="M208.779 297.686C208.283 297.686 207.806 297.497 207.444 297.158C207.082 296.819 206.863 296.355 206.83 295.86L206.087 284.61L180.848 220.092C180.099 218.178 178.766 216.547 177.039 215.433C175.311 214.319 173.276 213.778 171.223 213.886L96.9888 217.812C96.628 217.831 96.2759 217.93 95.958 218.101C95.6402 218.273 95.3646 218.513 95.1513 218.805L93.1638 221.506C92.9067 221.857 92.7481 222.271 92.7041 222.704C92.6602 223.136 92.7326 223.573 92.9138 223.969L121.844 287.27C121.95 287.503 122.01 287.756 122.019 288.012C122.029 288.269 121.987 288.524 121.898 288.765C121.808 289.005 121.672 289.226 121.497 289.414C121.322 289.602 121.112 289.753 120.879 289.86C120.645 289.967 120.393 290.026 120.137 290.036C119.88 290.045 119.624 290.004 119.384 289.914C119.143 289.824 118.923 289.688 118.735 289.513C118.547 289.339 118.395 289.128 118.289 288.895L89.35 225.598C88.8798 224.568 88.6931 223.432 88.8091 222.306C88.9251 221.181 89.3397 220.107 90.01 219.195L91.9975 216.492C92.553 215.735 93.2702 215.111 94.0969 214.665C94.9237 214.219 95.8394 213.962 96.7775 213.914L171.011 209.986C173.886 209.832 176.736 210.589 179.155 212.148C181.575 213.708 183.441 215.991 184.488 218.672L209.837 283.471C209.908 283.658 209.95 283.854 209.962 284.054L210.725 295.603C210.742 295.859 210.709 296.116 210.626 296.359C210.544 296.602 210.415 296.826 210.245 297.02C210.076 297.213 209.871 297.37 209.64 297.484C209.41 297.598 209.16 297.665 208.904 297.681C208.866 297.685 208.822 297.686 208.779 297.686Z" fill="#371A45"/>
<g opacity="0.25">
<path d="M208.65 296.054L122.961 299.116C122.405 299.136 121.85 299.046 121.329 298.85C120.807 298.655 120.33 298.359 119.923 297.978C119.517 297.598 119.189 297.141 118.96 296.634C118.731 296.127 118.604 295.579 118.586 295.023L118.478 291.506C118.457 290.852 118.589 290.202 118.863 289.609C119.138 289.015 119.547 288.493 120.059 288.085L116.696 280.725C156.446 279.725 181.446 265.285 178.734 228.463V217.573L182.82 219.77L208.016 284.184H208.189C208.285 286.541 208.375 288.776 208.451 290.809C208.523 292.641 208.586 294.3 208.638 295.729C208.644 295.836 208.644 295.945 208.65 296.054Z" fill="#371A45"/>
</g>
<path d="M131.852 301.711C131.852 301.711 135.59 287.511 150.645 289.961C165.7 292.411 169.222 307.365 158.652 312.81C148.082 318.255 114.45 317.401 118.72 290.709C118.72 290.714 120 298.508 131.852 301.711Z" fill="#F8F8F8"/>
<g opacity="0.25">
<path d="M158.65 312.813C151.348 316.574 133.039 317.329 123.826 308.636C132.75 311.025 143.039 309.86 148.076 307.261C155.201 303.591 155.924 295.603 151.023 290.035C165.75 292.679 169.131 307.413 158.65 312.813Z" fill="#371A45"/>
</g>
<path d="M144.812 317.77C137.726 317.77 130.007 316.165 124.401 312.104C119.724 308.715 114.545 302.19 116.44 290.354C116.526 289.812 116.803 289.319 117.22 288.963C117.636 288.606 118.167 288.41 118.715 288.409C119.263 288.407 119.793 288.6 120.212 288.954C120.631 289.308 120.91 289.798 121 290.339C121.041 290.555 122.162 295.89 130.407 298.839C132.802 293.189 139.157 285.75 151.016 287.684C159.559 289.077 165.79 294.471 166.891 301.425C167.766 306.981 165.016 312.131 159.711 314.865C156.282 316.634 150.771 317.77 144.812 317.77ZM120.937 298.536C121.649 302.61 123.711 305.9 127.111 308.362C135.891 314.722 151.274 314.019 157.595 310.761C161.124 308.944 162.894 305.724 162.327 302.149C161.732 298.391 158.219 293.542 150.273 292.246C137.438 290.15 134.217 301.802 134.086 302.299C134.009 302.593 133.874 302.87 133.689 303.112C133.504 303.354 133.273 303.557 133.01 303.71C132.746 303.863 132.455 303.962 132.153 304.001C131.851 304.041 131.544 304.021 131.25 303.941C126.42 302.635 123.147 300.603 120.937 298.536Z" fill="#371A45"/>
<path d="M304.41 267.875C303.564 275.038 300.464 281.988 296.011 285.403L274.896 278.324C274.896 278.324 269.906 284.089 257.337 282.808C244.769 281.526 239 268.796 239 268.796C239 268.796 233.637 279.93 227.149 275.446C225.38 274.223 224.524 272.716 224.246 271.141C223.881 269.091 224.477 266.919 225.291 265.094C226.276 262.928 227.66 260.968 229.371 259.315L241.402 247.47C251.544 234.126 265.746 243.735 275.566 249.391H299.59C303.916 253.678 305.242 260.875 304.41 267.875Z" fill="#F8F8F8"/>
<path d="M296.011 287.716C295.762 287.714 295.514 287.672 295.277 287.591L275.437 280.941C273.121 282.781 267.359 286.151 257.1 285.106C247.67 284.145 241.786 277.534 238.94 273.299C237.392 275.404 235.077 277.799 232.19 278.565C230.021 279.14 227.825 278.715 225.836 277.341C221.627 274.431 220.686 269.745 223.184 264.146C224.286 261.718 225.836 259.518 227.751 257.663L239.667 245.935C250.399 231.991 265.09 240.587 274.822 246.281L276.19 247.079H299.587C300.196 247.079 300.78 247.319 301.212 247.747C305.302 251.795 307.371 258.506 306.89 266.16C306.335 274.972 302.616 283.245 297.417 287.234C297.015 287.545 296.52 287.715 296.011 287.716ZM274.896 276.019C275.146 276.02 275.394 276.062 275.63 276.144L295.505 282.806C299.17 279.354 301.844 272.75 302.276 265.88C302.651 259.99 301.306 254.891 298.58 251.709H275.565C275.16 251.709 274.763 251.602 274.412 251.4C273.787 251.04 273.144 250.664 272.485 250.275C260.596 243.319 250.892 238.799 243.235 248.871C243.168 248.96 243.095 249.043 243.016 249.121L230.984 260.962C229.48 262.414 228.263 264.135 227.395 266.036C225.084 271.216 227.534 272.911 228.456 273.549C229.609 274.346 230.456 274.249 230.997 274.109C233.664 273.409 236.227 269.211 236.915 267.796C237.106 267.401 237.406 267.069 237.779 266.838C238.153 266.608 238.584 266.488 239.023 266.493C239.462 266.499 239.89 266.629 240.257 266.869C240.625 267.109 240.916 267.449 241.097 267.849C241.149 267.96 246.506 279.39 257.565 280.517C268.624 281.645 273.105 276.868 273.147 276.82C273.364 276.569 273.633 276.367 273.934 276.228C274.236 276.09 274.564 276.019 274.896 276.019Z" fill="#371A45"/>
<path d="M236.972 267.686L245.562 256.867L241.02 269.912C240.919 270.203 240.762 270.471 240.557 270.701C240.352 270.93 240.104 271.118 239.828 271.251C239.551 271.385 239.25 271.464 238.943 271.481C238.636 271.499 238.328 271.456 238.037 271.355C236.53 270.862 235.972 268.904 236.972 267.686Z" fill="#371A45"/>
<path d="M272.788 277.384L278.234 271.763L277.004 279.272L272.788 277.384Z" fill="#371A45"/>
<g opacity="0.25">
<path d="M304.41 267.875C303.564 275.038 300.464 281.988 296.011 285.403L274.896 278.324C274.896 278.324 269.906 284.089 257.337 282.808C244.769 281.526 239 268.796 239 268.796C239 268.796 233.637 279.93 227.149 275.446C225.38 274.223 224.524 272.716 224.246 271.141L224.958 270.43C224.958 270.43 229.762 273.633 234.996 266.478C240.121 259.469 246.784 253.588 247.053 253.353C246.886 253.763 241.678 266.78 252.178 272.879C262.856 279.073 275.777 262.096 275.777 262.096C275.777 262.096 283.465 268.823 302.044 267.863C302.832 267.818 303.622 267.822 304.41 267.875Z" fill="#371A45"/>
</g>
<path d="M242.742 341.411C249.341 336.661 259.868 331.885 267.793 335.996C271.451 338.196 274.614 341.184 277.372 344.389C280.062 347.509 282.392 350.921 284.32 354.561C279.513 349.45 274.32 344.795 268.221 341.404C265.929 340.154 263.531 339.185 260.886 339.135C255.401 339.161 249.98 341.966 245.553 345.078C243.071 346.909 240.317 343.346 242.742 341.411Z" fill="#371A45"/>
<path d="M276.77 402.321C276.247 402.321 275.74 402.138 275.337 401.804C274.935 401.47 274.661 401.005 274.565 400.491C274.469 399.976 274.556 399.444 274.811 398.987C275.065 398.53 275.472 398.176 275.96 397.987C276.549 397.759 277.385 397.267 277.835 395.644C280.133 387.33 269.585 365.309 261.624 355.085C253.354 344.466 246.699 345.502 246.42 345.551C246.133 345.612 245.837 345.616 245.548 345.562C245.26 345.508 244.985 345.397 244.739 345.236C244.494 345.076 244.282 344.868 244.117 344.625C243.952 344.383 243.837 344.11 243.778 343.822C243.658 343.237 243.775 342.629 244.103 342.129C244.431 341.63 244.943 341.281 245.528 341.159C245.913 341.076 255.028 339.307 265.169 352.33C272.715 362.02 285.203 385.846 282.163 396.839C281.443 399.445 279.86 401.287 277.585 402.169C277.325 402.27 277.049 402.322 276.77 402.321Z" fill="#371A45"/>
<path d="M262.5 335.271C262.454 335.315 262.412 335.363 262.375 335.415C262.364 335.43 262.328 335.49 262.339 335.47C262.415 335.345 262.6 335.026 262.678 334.899C266.029 329.226 270.038 323.972 274.523 319.149C280.71 312.362 289.476 307.485 298.676 306.589C300.944 306.44 303.222 306.56 305.461 306.946C303.219 307.119 301.034 307.446 298.933 308.042C292.683 309.84 287.23 313.542 282.59 318.002C281.044 319.479 279.458 320.911 277.919 322.42C274.104 326.247 270.839 330.629 267.919 335.177C267.656 335.601 266.891 336.831 266.645 337.257L266.434 337.615L266.321 337.806C264.618 340.826 260.351 338.011 262.491 335.275L262.5 335.271Z" fill="#371A45"/>
<path d="M303.078 375.396C302.623 375.396 302.183 375.234 301.836 374.939C301.489 374.645 301.258 374.237 301.184 373.789C297.391 350.941 283.115 332.354 269.358 332.354C268.856 332.341 268.38 332.133 268.03 331.774C267.68 331.415 267.484 330.933 267.484 330.432C267.484 329.93 267.68 329.449 268.03 329.09C268.38 328.731 268.856 328.523 269.358 328.51C285.175 328.51 300.82 348.123 304.975 373.159C305.059 373.662 304.939 374.177 304.642 374.592C304.346 375.006 303.897 375.286 303.394 375.37C303.289 375.387 303.183 375.396 303.078 375.396Z" fill="#371A45"/>
<path d="M299.197 247.117L312.029 247.259L299.979 251.67C296.437 252.709 295.511 247.32 299.197 247.117Z" fill="#371A45"/>
<path d="M320.394 293.092C308.59 293.092 295.929 287.876 295.119 287.537C294.562 287.295 294.124 286.844 293.897 286.28C293.671 285.717 293.676 285.088 293.91 284.528C294.145 283.968 294.59 283.523 295.15 283.289C295.71 283.054 296.339 283.05 296.902 283.276C304.527 286.465 325.929 292.796 333.255 283.935C333.648 283.472 334.208 283.182 334.813 283.128C335.418 283.075 336.02 283.262 336.488 283.649C336.956 284.036 337.253 284.591 337.315 285.196C337.376 285.8 337.197 286.404 336.816 286.877C332.947 291.557 326.795 293.092 320.394 293.092Z" fill="#371A45"/>
<path d="M292.455 249.221L291.901 238.824L296.901 247.957C297.201 248.509 297.27 249.157 297.094 249.759C296.918 250.362 296.51 250.87 295.96 251.172C294.48 252.03 292.511 250.915 292.46 249.221H292.455Z" fill="#371A45"/>
<path d="M213.144 258.375C213.524 254.992 214.118 251.636 214.921 248.327C215.72 245.071 216.738 241.838 218.171 238.82C217.134 243.683 217.081 248.594 217.334 253.505C217.428 255.12 217.56 256.781 217.759 258.319C218.028 261.745 212.956 261.819 213.134 258.375H213.144Z" fill="#371A45"/>
<g opacity="0.25">
<path d="M335.038 285.407C345.025 319.385 340.739 345.76 313.468 359.899L288.388 392.672C282.138 400.84 270.655 403.011 261.963 397.515C254.25 392.64 247.734 383.538 243.724 373.94C244.474 374.543 245.23 375.2 245.991 375.914C272.04 400.258 269.355 365.024 269.355 365.024C294.365 386.631 281.405 351.077 281.2 350.5L290.458 357.765C290.458 357.765 292.648 352 312.026 335.022C331.405 318.045 320.035 297.867 320.035 297.867C306.261 300.59 290.458 290.5 290.458 290.801C290.458 291.102 277.914 289.219 277.434 289.539C276.954 289.859 277.325 279.142 277.325 279.142L297.151 285.856L304.41 267.875C309.65 267.799 321.194 267.75 321.194 267.75C334.359 240.202 309.951 225.116 309.951 225.116C280.175 238.217 243.641 228.672 242.283 228.287L264.076 210.952C277.44 210.327 288.299 211.125 288.299 211.125L307.094 210.132C307.094 210.132 323.078 214.687 331.616 229.844C340.155 245 342.725 271.769 335.038 285.407Z" fill="#371A45"/>
</g>
<g opacity="0.25">
<path d="M357.459 207.86L357.267 207.784C357.331 207.75 357.459 207.86 357.459 207.86Z" fill="#371A45"/>
</g>
<path d="M257.363 228.169C304.692 228.169 343.06 189.801 343.06 142.471C343.06 95.1418 304.692 56.7737 257.363 56.7737C210.033 56.7737 171.665 95.1418 171.665 142.471C171.665 189.801 210.033 228.169 257.363 228.169Z" fill="#F8F8F8"/>
<g opacity="0.25">
<path d="M337.475 172.901C320.665 217.151 271.174 239.394 226.93 222.585C213.307 217.434 201.231 208.88 191.852 197.737C197.856 202.025 204.389 205.52 211.287 208.135C255.537 224.942 305.022 202.701 321.831 158.457C333.276 128.326 326.611 95.7625 307.222 72.7437C338.144 94.8225 351.601 135.717 337.475 172.901Z" fill="#371A45"/>
</g>
<path d="M177.795 175.324C182.59 186.36 190.626 198.219 203.865 209.449C241.79 234.71 292.875 224.949 314.479 172.434L311.066 128.914C309.249 122.205 305.534 115.842 300.441 110.077C269.193 74.75 186.14 61.875 172.525 130.296C172.525 130.296 167.115 150.75 177.795 175.324Z" fill="#371A45"/>
<g opacity="0.7">
<path d="M177.795 175.324C182.59 186.36 190.626 198.219 203.865 209.449C241.79 234.71 292.875 224.949 314.479 172.434L311.066 128.914C309.249 122.205 305.534 115.843 300.441 110.078C311.9 169.56 238.84 230.054 178.327 175.588L177.795 175.324Z" fill="#150035"/>
</g>
<path d="M253.847 230.092C252.193 230.092 250.506 230.037 248.786 229.925C248.499 229.912 248.217 229.842 247.957 229.718C247.698 229.595 247.465 229.421 247.273 229.207C247.081 228.993 246.934 228.742 246.84 228.471C246.746 228.199 246.708 227.911 246.726 227.624C246.745 227.337 246.821 227.057 246.949 226.799C247.078 226.542 247.256 226.313 247.474 226.125C247.692 225.938 247.945 225.796 248.219 225.707C248.492 225.619 248.781 225.586 249.067 225.61C270.768 227.029 289.354 219.14 304.317 202.167C314.548 190.569 319.511 178.444 320.38 176.195L318.557 122.545C310.161 103.5 293.169 88.18 270.669 79.375C247.635 70.3575 222.659 69.9187 203.857 78.1987C203.335 78.4164 202.748 78.4205 202.222 78.2102C201.697 77.9999 201.275 77.592 201.047 77.0739C200.819 76.5559 200.803 75.9691 201.002 75.4395C201.202 74.9099 201.602 74.4797 202.115 74.2412C221.946 65.5062 248.164 65.92 272.24 75.3475C295.967 84.6362 313.882 100.921 322.687 121.2C322.796 121.449 322.856 121.716 322.865 121.987L324.716 176.487C324.726 176.759 324.683 177.03 324.591 177.286C324.386 177.861 319.441 191.52 307.661 204.922C297.375 216.625 279.875 230.09 253.847 230.092Z" fill="#371A45"/>
<path d="M246.394 224.866C231.416 224.866 216.211 220.206 202.691 211.2C202.236 210.885 201.922 210.403 201.819 209.859C201.715 209.315 201.829 208.751 202.136 208.29C202.443 207.829 202.919 207.507 203.461 207.394C204.003 207.28 204.569 207.384 205.035 207.682C223.755 220.152 245.84 223.837 265.628 217.795C286.07 211.545 302.641 195.329 312.333 172.089L308.973 129.276C305.598 117.051 294.973 105.026 279.804 96.2763C264.661 87.5338 246.519 82.8413 230.031 83.3938C212.729 83.9775 182.519 90.8937 174.594 130.712C174.484 131.262 174.161 131.746 173.695 132.058C173.229 132.369 172.658 132.483 172.108 132.373C171.558 132.264 171.074 131.94 170.763 131.474C170.452 131.008 170.338 130.437 170.448 129.888C176.653 98.72 198.323 80.2337 229.889 79.1687C266.815 77.93 305.688 100.919 313.104 128.364C313.138 128.49 313.16 128.619 313.17 128.75L316.586 172.265C316.612 172.596 316.56 172.928 316.434 173.235C306.279 197.916 288.674 215.177 266.861 221.84C260.226 223.857 253.329 224.877 246.394 224.866Z" fill="#371A45"/>
<path d="M257.399 230.811C246.669 230.801 236.032 228.834 226.008 225.009C180.5 207.719 157.536 156.625 174.825 111.118C183.2 89.07 199.66 71.605 221.171 61.9375C242.682 52.27 266.671 51.5625 288.717 59.9375C334.229 77.2275 357.189 128.319 339.9 173.83C331.525 195.876 315.065 213.341 293.554 223.009C282.191 228.14 269.867 230.8 257.399 230.811ZM257.329 59.3238C245.593 59.3357 233.993 61.8401 223.298 66.6713C203.048 75.77 187.559 92.2088 179.672 112.96C163.4 155.796 185.011 203.885 227.848 220.158C248.598 228.04 271.176 227.37 291.422 218.271C311.669 209.173 327.161 192.734 335.047 171.984L337.473 172.905L335.047 171.984C351.32 129.148 329.709 81.0575 286.872 64.785C277.438 61.185 267.427 59.3343 257.329 59.3238Z" fill="#371A45"/>
<path d="M345.849 148.974C346.051 164.341 338.419 176.724 326.464 176.879C314.509 177.034 304.656 164.705 304.454 149.338C304.251 133.97 313.779 121.384 325.733 121.228C337.686 121.071 345.648 133.606 345.849 148.974Z" fill="#F8F8F8"/>
<g opacity="0.25">
<path d="M326.461 176.875C314.51 177.03 304.655 164.702 304.461 149.336C304.397 144.461 305.307 139.867 306.971 135.865C308.952 148.841 317.932 158.591 328.565 158.455C336.474 158.347 342.491 152.901 345.601 144.775C345.752 146.15 345.837 147.547 345.851 148.97C346.047 164.341 338.421 176.72 326.461 176.875Z" fill="#371A45"/>
</g>
<path d="M326.235 179.475C319.735 179.475 313.631 176.313 309.025 170.55C304.509 164.899 301.965 157.377 301.859 149.371C301.639 132.598 312.333 118.809 325.699 118.633C332.218 118.565 338.149 121.8 342.324 127.795C346.161 133.301 348.334 140.811 348.441 148.94C348.671 166.461 339.441 179.303 326.496 179.473L326.235 179.475ZM325.956 123.82H325.767C315.267 123.959 306.865 135.389 307.049 149.301C307.139 156.16 309.28 162.551 313.079 167.309C316.725 171.871 321.466 174.349 326.43 174.283C336.37 174.158 343.445 163.523 343.254 149.008C343.161 141.905 341.32 135.425 338.069 130.758C335.855 127.585 331.962 123.82 325.956 123.82Z" fill="#371A45"/>
<path d="M333.691 175.066C323.23 175.066 314.595 163.384 314.401 148.904C314.312 141.984 316.131 135.428 319.526 130.441C323.079 125.216 327.93 122.303 333.187 122.235C334.256 122.223 335.323 122.334 336.366 122.568C336.457 122.588 336.547 122.614 336.635 122.645C337.157 122.833 337.588 123.215 337.836 123.711C338.085 124.208 338.133 124.781 337.971 125.312C337.809 125.843 337.448 126.291 336.965 126.564C336.481 126.836 335.911 126.912 335.372 126.776C334.672 126.625 333.957 126.553 333.24 126.56C329.439 126.608 325.837 128.85 323.102 132.873C320.206 137.133 318.652 142.806 318.727 148.846C318.89 160.961 325.589 170.741 333.687 170.741H333.824C334.906 170.731 335.979 170.534 336.994 170.158C337.261 170.053 337.546 170.002 337.833 170.008C338.12 170.015 338.403 170.079 338.665 170.195C338.927 170.312 339.164 170.48 339.36 170.69C339.557 170.899 339.71 171.145 339.81 171.414C339.911 171.683 339.956 171.969 339.945 172.256C339.934 172.543 339.865 172.825 339.744 173.085C339.623 173.345 339.451 173.578 339.238 173.771C339.026 173.964 338.777 174.113 338.506 174.209C337.025 174.758 335.461 175.048 333.881 175.065L333.691 175.066Z" fill="#371A45"/>
<g opacity="0.5">
<path d="M235.66 96.7863C210.25 112.625 195.482 134.576 192.86 163.5C192.65 165.819 189.367 166.136 188.722 163.9C178.137 127.214 183.339 95.5 234.424 92.875C236.614 92.7588 237.52 95.625 235.66 96.7863Z" fill="white"/>
</g>
<g opacity="0.5">
<path d="M285.098 150.375L284.644 150.413C282.641 150.575 280.65 149.987 279.058 148.763C277.465 147.538 276.385 145.765 276.029 143.788C275.945 143.319 275.858 142.865 275.766 142.426C274.876 138.065 277.641 133.801 282.005 132.904L282.348 132.834C284.317 132.431 286.367 132.775 288.096 133.801C289.826 134.826 291.111 136.459 291.703 138.381C291.884 138.965 292.055 139.548 292.216 140.131C292.538 141.279 292.602 142.484 292.404 143.659C292.206 144.834 291.751 145.952 291.071 146.93C290.39 147.909 289.502 148.726 288.469 149.321C287.437 149.917 286.285 150.276 285.098 150.375Z" fill="white"/>
</g>
<g opacity="0.5">
<path d="M268.54 199.431C267.61 198.876 266.801 198.138 266.162 197.263C265.523 196.388 265.067 195.394 264.82 194.338C264.574 193.283 264.543 192.189 264.728 191.122C264.914 190.054 265.312 189.035 265.9 188.125C269.764 182.18 272.502 175.576 273.978 168.641C274.918 164.237 279.191 161.391 283.594 162.336L284.728 162.579C289.17 163.531 291.986 167.968 290.891 172.378C288.162 183.359 283.035 191.967 279.244 197.227C278.06 198.869 276.303 200.006 274.321 200.414C272.339 200.822 270.276 200.472 268.54 199.431Z" fill="white"/>
</g>
<g opacity="0.25">
<path d="M225.918 327.591C225.918 327.591 254.318 335.557 276.418 319.115L266.184 334.383L262.538 336.793C254.835 337.223 248.586 338.974 244.68 342.856C236.86 339.991 230.39 335.209 225.918 327.591Z" fill="#371A45"/>
</g>
<g opacity="0.25">
<path d="M216.849 243.706C216.849 243.706 207.258 252.269 202.224 269.383L208.776 283.56L211.072 282.009C211.072 282.009 212.14 264.315 211.874 263.995C211.608 263.675 214.726 260.391 215.449 255.666C216.171 250.941 216.119 248.031 216.119 248.031" fill="#371A45"/>
</g>
<path d="M166.574 341.862L170.449 350.719L162.906 344.672C162.662 344.478 162.458 344.237 162.306 343.963C162.155 343.69 162.059 343.389 162.025 343.078C161.99 342.768 162.016 342.453 162.103 342.153C162.19 341.853 162.336 341.573 162.531 341.329C163.591 339.935 165.906 340.259 166.566 341.862H166.574Z" fill="#371A45"/>
<path d="M322.649 220.634C322.215 220.633 321.791 220.511 321.424 220.281C321.057 220.051 320.762 219.722 320.573 219.332C320.384 218.943 320.308 218.507 320.354 218.077C320.401 217.646 320.567 217.237 320.835 216.896C331.792 202.971 348.66 205.386 349.374 205.495C349.97 205.597 350.503 205.93 350.857 206.421C351.211 206.912 351.358 207.522 351.266 208.121C351.175 208.719 350.852 209.257 350.368 209.62C349.884 209.983 349.276 210.142 348.676 210.061C348.062 209.97 333.722 207.989 324.465 219.753C324.249 220.028 323.973 220.25 323.658 220.403C323.344 220.555 322.998 220.634 322.649 220.634Z" fill="#371A45"/>
<g opacity="0.25">
<path d="M323.563 199.021C323.563 199.021 310.425 205.07 328.843 225.124C322.225 218.349 315.359 213.073 308.05 210.454L318.22 198.385" fill="#371A45"/>
</g>
<g opacity="0.2">
<path d="M285.601 454.375C344.985 454.375 393.125 448.315 393.125 440.839C393.125 433.363 344.985 427.302 285.601 427.302C226.218 427.302 178.078 433.363 178.078 440.839C178.078 448.315 226.218 454.375 285.601 454.375Z" fill="#371A45"/>
</g>
<g clip-path="url(#clip0_4_20)">
<path d="M143.385 272.532C142.063 272.532 141.049 271.484 140.974 270.04C140.883 268.385 140.804 266.721 140.724 265.057L140.672 263.974H140.606C139.544 263.974 138.904 263.322 138.471 262.754C138.207 262.408 137.943 262.061 137.677 261.707C137.446 261.887 137.212 262.062 136.976 262.232C136.566 262.538 136.071 262.704 135.561 262.708C135.103 262.705 134.655 262.573 134.266 262.329C133.327 261.768 132.879 260.662 133.186 259.644C133.348 259.111 133.649 258.632 134.057 258.257C134.257 258.072 134.464 257.901 134.673 257.739C134.544 257.568 134.416 257.399 134.289 257.232L134.219 257.131C134.197 257.099 134.176 257.067 134.152 257.038C133.374 256.206 133.075 255.27 133.266 254.352L127.747 252.545C126.846 252.236 126.201 251.601 125.977 250.798C125.754 249.994 125.971 249.13 126.569 248.407C128.007 246.661 129.986 244.444 132.533 242.822C134.857 241.346 137.113 240.629 139.435 240.629C139.604 240.629 139.775 240.629 139.946 240.64C140.895 240.674 141.832 240.867 142.719 241.209L143.099 240.849C143.857 240.119 144.641 239.364 145.489 238.676C148.331 236.36 151.698 235.061 155.763 234.706C156.437 234.646 157.123 234.617 157.802 234.617C159.969 234.625 162.127 234.911 164.223 235.467C164.519 235.548 164.808 235.65 165.09 235.771C165.199 235.815 165.308 235.86 165.418 235.9C165.632 235.977 165.82 236.113 165.962 236.294C166.023 236.372 166.232 236.654 166.28 236.715C166.402 236.871 166.484 237.053 166.522 237.248C166.789 238.652 166.64 239.974 166.494 241.253L166.472 241.441C166.072 245.049 164.982 248.314 163.244 251.144C161.904 253.359 160.095 255.245 157.948 256.669C157.478 256.973 157.002 257.277 156.527 257.57C156.242 257.749 155.957 257.928 155.672 258.108C155.972 260.995 155.088 263.673 152.979 266.292C151.551 268.053 149.702 269.545 147.324 270.851C146.479 271.314 145.593 271.763 144.614 272.233C144.232 272.422 143.813 272.522 143.388 272.526L143.385 272.532ZM145.707 266.048C146.688 265.453 147.6 264.748 148.427 263.948C149.52 262.859 150.203 261.811 150.568 260.661L145.534 262.64C145.592 263.761 145.649 264.896 145.703 266.046L145.707 266.048ZM146.962 248.905C147.519 248.905 148.057 249.103 148.485 249.463C148.775 249.697 149.009 249.995 149.168 250.334C149.327 250.674 149.407 251.045 149.403 251.421C149.392 251.812 149.293 252.195 149.113 252.542C148.934 252.888 148.678 253.188 148.366 253.42C147.002 254.481 145.63 255.545 144.252 256.61C143.392 257.275 142.531 257.942 141.671 258.609C146.454 257.125 150.042 255.635 153.23 253.815C154.807 252.914 156.012 252.045 157.024 251.079C158.251 249.898 159.255 248.411 160.083 246.541C159.873 246.271 159.664 245.992 159.454 245.715L159.054 245.188C157.704 243.398 156.36 241.617 155.002 239.839C153.86 240.006 152.74 240.307 151.666 240.734C150.026 241.377 148.499 242.442 146.712 244.188C145.082 245.765 143.605 247.495 142.3 249.355C141.159 250.982 140.042 252.673 138.961 254.308L138.776 254.587L140.96 252.895C142.429 251.751 143.903 250.61 145.383 249.47C145.834 249.111 146.389 248.912 146.962 248.903V248.905ZM135.77 249.947C136.826 248.496 137.872 247.055 138.909 245.625C138.569 245.654 138.232 245.714 137.902 245.805C135.87 246.37 134.219 247.576 132.767 248.957L135.77 249.947ZM161.542 241.077C161.59 240.714 161.627 240.355 161.654 240L160.635 239.875L161.542 241.077Z" fill="white"/>
<path d="M165.26 241.306C165.402 240.044 165.567 238.768 165.323 237.485C165.214 237.345 165.113 237.203 165.004 237.064C164.643 236.932 164.291 236.76 163.916 236.664C161.271 235.973 158.589 235.7 155.865 235.937C152.313 236.247 149.055 237.355 146.251 239.64C145.236 240.464 144.311 241.395 143.363 242.297C143.109 242.543 142.914 242.644 142.562 242.479C141.721 242.108 140.818 241.902 139.9 241.871C137.438 241.758 135.24 242.563 133.191 243.865C130.969 245.283 129.179 247.173 127.512 249.198C126.802 250.056 127.078 251.013 128.134 251.374C128.801 251.594 129.468 251.81 130.137 252.031C131.735 252.553 133.33 253.075 134.922 253.595C134.923 253.629 134.921 253.663 134.915 253.696C134.903 253.732 134.887 253.766 134.867 253.797C134.202 254.662 134.366 255.462 135.067 256.213C135.141 256.3 135.209 256.392 135.274 256.486C135.64 256.975 136.016 257.468 136.404 257.977C135.873 258.391 135.352 258.744 134.89 259.169C134.645 259.396 134.464 259.684 134.364 260.004C134.214 260.502 134.464 261.012 134.908 261.273C135.373 261.556 135.851 261.545 136.284 261.229C136.833 260.834 137.358 260.406 137.916 259.973C138.444 260.678 138.944 261.342 139.445 262C140.02 262.748 140.416 262.876 141.307 262.627C141.469 262.575 141.63 262.541 141.821 262.493C141.835 262.686 141.849 262.841 141.857 262.985C141.97 265.316 142.075 267.651 142.202 269.976C142.26 271.078 143.12 271.597 144.104 271.126C144.993 270.702 145.881 270.254 146.752 269.775C148.76 268.671 150.587 267.319 152.044 265.52C153.868 263.256 154.878 260.727 154.405 257.741C154.403 257.667 154.418 257.595 154.449 257.529C154.48 257.463 154.526 257.405 154.583 257.361C155.479 256.777 156.398 256.231 157.294 255.638C159.292 254.314 160.974 252.558 162.219 250.496C163.937 247.681 164.892 244.589 165.26 241.306ZM136.23 251.392L130.509 249.507C132.539 247.325 134.687 245.419 137.579 244.614C138.829 244.267 140.274 244.296 141.126 244.647C139.507 246.883 137.884 249.119 136.23 251.392ZM151.743 260.983C151.275 262.496 150.379 263.728 149.278 264.827C147.908 266.178 146.312 267.184 144.588 268.104C144.484 265.96 144.38 263.862 144.274 261.809L151.993 258.775C152.092 259.49 151.971 260.246 151.743 260.983ZM161.371 246.633C160.532 248.637 159.431 250.46 157.866 251.971C156.655 253.129 155.28 254.059 153.834 254.886C149.911 257.126 145.706 258.672 141.406 259.978C141.196 260.038 141.068 260.027 140.929 259.833C140.628 259.401 140.293 258.986 139.975 258.56C139.95 258.516 139.93 258.469 139.916 258.419C140.026 258.33 140.144 258.243 140.263 258.151C142.716 256.245 145.182 254.346 147.635 252.436C148.345 251.892 148.375 250.956 147.718 250.415C147.26 250.035 146.656 250.041 146.127 250.443C144.651 251.582 143.177 252.723 141.705 253.866C140.603 254.715 139.518 255.562 138.376 256.448C137.983 255.93 137.606 255.457 137.265 254.96C137.207 254.871 137.265 254.646 137.346 254.536C138.653 252.561 139.949 250.577 141.311 248.637C142.66 246.714 144.187 244.926 145.873 243.298C147.451 241.754 149.162 240.393 151.23 239.581C152.548 239.055 153.929 238.708 155.336 238.551C155.465 238.532 155.651 238.662 155.737 238.782C157.174 240.662 158.595 242.544 160.018 244.431C160.446 244.991 160.867 245.565 161.308 246.119C161.37 246.187 161.409 246.274 161.42 246.366C161.432 246.458 161.414 246.551 161.371 246.633ZM162.223 244.004C160.803 242.122 159.419 240.292 158.028 238.454C158.028 238.411 158.042 238.362 158.048 238.317C159.666 238.512 161.286 238.713 162.923 238.911C162.884 240.631 162.65 242.339 162.226 244.004H162.223Z" fill="#371A45"/>
<path d="M161.309 246.117C160.868 245.563 160.447 244.989 160.019 244.429C158.596 242.542 157.175 240.66 155.738 238.78C155.648 238.66 155.462 238.53 155.337 238.549C153.93 238.706 152.549 239.053 151.232 239.579C149.163 240.39 147.452 241.752 145.874 243.296C144.188 244.924 142.661 246.712 141.312 248.635C139.951 250.575 138.654 252.559 137.347 254.534C137.267 254.644 137.208 254.869 137.266 254.958C137.607 255.455 137.984 255.928 138.377 256.446C139.519 255.56 140.608 254.713 141.706 253.864C143.179 252.721 144.653 251.58 146.128 250.441C146.657 250.036 147.261 250.036 147.719 250.413C148.376 250.954 148.346 251.89 147.636 252.434C145.183 254.343 142.717 256.243 140.264 258.149C140.145 258.241 140.027 258.328 139.917 258.417C139.931 258.467 139.951 258.514 139.976 258.558C140.294 258.984 140.63 259.399 140.93 259.831C141.069 260.025 141.197 260.033 141.407 259.975C145.707 258.67 149.912 257.124 153.835 254.883C155.281 254.057 156.656 253.127 157.867 251.969C159.437 250.458 160.538 248.635 161.372 246.631C161.415 246.549 161.433 246.456 161.421 246.364C161.41 246.272 161.371 246.185 161.309 246.117ZM157.003 248.99C155.126 250.42 152.472 250.07 151.063 248.199C150.384 247.295 150.087 246.156 150.237 245.03C150.387 243.905 150.972 242.886 151.864 242.197C153.689 240.779 156.344 241.143 157.766 243.013C159.17 244.873 158.827 247.596 157.003 248.992V248.99Z" fill="white"/>
<path d="M162.226 244.002C160.805 242.124 159.422 240.291 158.031 238.453C158.031 238.409 158.045 238.363 158.05 238.316C159.668 238.518 161.289 238.714 162.928 238.912C162.894 240.694 162.632 242.329 162.226 244.002Z" fill="#DB2C2C"/>
<path d="M141.128 244.648C139.506 246.882 137.883 249.119 136.231 251.394C134.383 250.786 132.472 250.154 130.509 249.508C132.541 247.324 134.687 245.417 137.58 244.615C138.829 244.265 140.272 244.293 141.128 244.648Z" fill="#DB2C2C"/>
<path d="M149.276 264.827C147.906 266.177 146.312 267.19 144.587 268.102C144.481 265.96 144.377 263.862 144.274 261.808C146.877 260.783 149.429 259.782 151.995 258.769C152.095 259.484 151.97 260.24 151.744 260.979C151.277 262.498 150.381 263.729 149.276 264.827Z" fill="#DB2C2C"/>
<path d="M157.763 243.015C156.341 241.145 153.686 240.779 151.861 242.199C150.969 242.888 150.384 243.907 150.234 245.032C150.084 246.158 150.381 247.297 151.06 248.201C152.469 250.072 155.123 250.422 157 248.992C158.827 247.596 159.17 244.873 157.763 243.015ZM155.738 247.414C155.384 247.676 154.962 247.826 154.524 247.846C154.087 247.867 153.653 247.755 153.277 247.527C152.902 247.298 152.601 246.963 152.413 246.562C152.226 246.161 152.159 245.713 152.222 245.275C152.285 244.836 152.475 244.426 152.768 244.096C153.061 243.766 153.443 243.531 153.868 243.42C154.292 243.309 154.739 243.327 155.153 243.473C155.567 243.618 155.93 243.884 156.195 244.238C156.371 244.476 156.5 244.748 156.573 245.037C156.645 245.326 156.661 245.626 156.619 245.922C156.576 246.217 156.477 246.5 156.325 246.757C156.174 247.013 155.975 247.236 155.738 247.414Z" fill="#371A45"/>
<path d="M155.737 247.414C155.383 247.676 154.961 247.826 154.524 247.846C154.086 247.867 153.652 247.756 153.276 247.527C152.901 247.299 152.6 246.963 152.413 246.563C152.225 246.162 152.158 245.714 152.221 245.276C152.284 244.837 152.474 244.427 152.766 244.097C153.059 243.767 153.441 243.531 153.865 243.42C154.29 243.309 154.737 243.327 155.151 243.473C155.565 243.618 155.927 243.884 156.193 244.237C156.37 244.475 156.498 244.747 156.571 245.036C156.644 245.325 156.659 245.626 156.617 245.921C156.575 246.216 156.475 246.5 156.324 246.756C156.173 247.012 155.974 247.236 155.737 247.414Z" fill="#22A7F0"/>
</g>
<defs>
<clipPath id="clip0_4_20">
<rect width="40.7725" height="37.9113" fill="white" transform="translate(125.894 234.621)"/>
</clipPath>
</defs>
</svg>
