<svg width="555" height="87" viewBox="0 0 555 87" fill="none" xmlns="http://www.w3.org/2000/svg">
<mask id="path-1-outside-1_62_465" maskUnits="userSpaceOnUse" x="2.896" y="20.1836" width="552" height="59" fill="black">
<rect fill="white" x="2.896" y="20.1836" width="552" height="59"/>
<path d="M7.544 78.0721C6.34933 78.0721 5.432 77.7521 4.792 77.1121C4.19466 76.4721 3.896 75.5547 3.896 74.3601V64.2481C3.896 61.7307 5.176 60.4721 7.736 60.4721H12.088L7.224 61.7521C9.656 59.3201 11.448 55.8001 12.6 51.1921C13.7947 46.5841 14.392 40.7387 14.392 33.6561V26.2321C14.392 24.8241 14.7547 23.7574 15.48 23.0321C16.248 22.2641 17.336 21.8801 18.744 21.8801H41.976C43.384 21.8801 44.4507 22.2641 45.176 23.0321C45.944 23.7574 46.328 24.8241 46.328 26.2321V63.5441L43.256 60.4721H48.888C50.1253 60.4721 51.064 60.7921 51.704 61.4321C52.3867 62.0721 52.728 63.0107 52.728 64.2481V74.3601C52.728 76.8347 51.5333 78.0721 49.144 78.0721C47.9493 78.0721 47.032 77.7521 46.392 77.1121C45.752 76.4721 45.432 75.5547 45.432 74.3601V67.0001H11.192V74.3601C11.192 76.8347 9.976 78.0721 7.544 78.0721ZM16.696 60.4721H38.072V28.4081H22.008V34.4241C22.008 40.5681 21.56 45.7521 20.664 49.9761C19.8107 54.2001 18.488 57.6987 16.696 60.4721ZM83.757 67.5121C82.477 67.5121 81.4957 67.1707 80.813 66.4881C80.1303 65.7627 79.789 64.7387 79.789 63.4161V41.9761H69.933V45.6241C69.933 48.5681 69.741 51.2134 69.357 53.5601C69.0157 55.9067 68.461 57.9547 67.693 59.7041C66.9677 61.4534 66.0077 62.9254 64.813 64.1201C63.6183 65.3147 62.189 66.2747 60.525 67.0001C59.629 67.3841 58.797 67.4907 58.029 67.3201C57.3037 67.1494 56.685 66.8294 56.173 66.3601C55.7037 65.8481 55.405 65.2507 55.277 64.5681C55.149 63.8427 55.2343 63.1387 55.533 62.4561C55.8317 61.7734 56.4077 61.1974 57.261 60.7281C58.3277 60.1307 59.2023 59.3841 59.885 58.4881C60.5677 57.5921 61.101 56.5254 61.485 55.2881C61.869 54.0081 62.1463 52.5574 62.317 50.9361C62.4877 49.3147 62.573 47.4587 62.573 45.3681V40.1841C62.573 38.7334 62.957 37.6241 63.725 36.8561C64.493 36.0881 65.6023 35.7041 67.053 35.7041H83.309C84.7597 35.7041 85.869 36.0881 86.637 36.8561C87.405 37.6241 87.789 38.7334 87.789 40.1841V63.4161C87.789 64.7387 87.4263 65.7627 86.701 66.4881C86.0183 67.1707 85.037 67.5121 83.757 67.5121ZM119.96 67.5121C118.766 67.5121 117.848 67.1921 117.208 66.5521C116.568 65.8694 116.248 64.9307 116.248 63.7361V56.1841H112.92C111.683 56.1841 110.574 56.5254 109.592 57.2081C108.654 57.8907 107.886 58.7441 107.288 59.7681L104.152 65.2721C103.598 66.2534 102.915 66.8934 102.104 67.1921C101.336 67.5334 100.547 67.5974 99.7365 67.3841C98.9685 67.1707 98.3072 66.7867 97.7525 66.2321C97.1978 65.6347 96.8352 64.9307 96.6645 64.1201C96.5365 63.3094 96.7498 62.4561 97.3045 61.5601L99.2885 58.2321C99.9285 57.1227 100.846 56.1627 102.04 55.3521C103.235 54.5414 104.472 54.1361 105.752 54.1361H107.032V54.8401C103.363 54.8401 100.547 54.0294 98.5845 52.4081C96.6218 50.7867 95.6405 48.4614 95.6405 45.4321C95.6405 43.4267 96.0885 41.6987 96.9845 40.2481C97.9232 38.7974 99.2885 37.6881 101.08 36.9201C102.872 36.1094 105.091 35.7041 107.736 35.7041H119.64C120.92 35.7041 121.902 36.0454 122.584 36.7281C123.31 37.4107 123.672 38.3921 123.672 39.6721V63.7361C123.672 64.9307 123.331 65.8694 122.648 66.5521C121.966 67.1921 121.07 67.5121 119.96 67.5121ZM109.4 50.9361H116.248V40.9521H109.4C107.31 40.9521 105.752 41.4001 104.728 42.2961C103.704 43.1494 103.192 44.3441 103.192 45.8801C103.192 47.4587 103.704 48.6961 104.728 49.5921C105.752 50.4881 107.31 50.9361 109.4 50.9361ZM175.195 67.5121C173.915 67.5121 172.933 67.1707 172.251 66.4881C171.568 65.7627 171.227 64.7387 171.227 63.4161V41.9761H161.37V45.6241C161.37 48.5681 161.178 51.2134 160.794 53.5601C160.453 55.9067 159.898 57.9547 159.13 59.7041C158.405 61.4534 157.445 62.9254 156.251 64.1201C155.056 65.3147 153.626 66.2747 151.962 67.0001C151.066 67.3841 150.234 67.4907 149.466 67.3201C148.741 67.1494 148.122 66.8294 147.61 66.3601C147.141 65.8481 146.842 65.2507 146.714 64.5681C146.586 63.8427 146.672 63.1387 146.97 62.4561C147.269 61.7734 147.845 61.1974 148.699 60.7281C149.765 60.1307 150.64 59.3841 151.322 58.4881C152.005 57.5921 152.539 56.5254 152.923 55.2881C153.307 54.0081 153.584 52.5574 153.755 50.9361C153.925 49.3147 154.01 47.4587 154.01 45.3681V40.1841C154.01 38.7334 154.394 37.6241 155.162 36.8561C155.93 36.0881 157.04 35.7041 158.49 35.7041H174.746C176.197 35.7041 177.306 36.0881 178.074 36.8561C178.842 37.6241 179.227 38.7334 179.227 40.1841V63.4161C179.227 64.7387 178.864 65.7627 178.138 66.4881C177.456 67.1707 176.475 67.5121 175.195 67.5121ZM217.094 67.6401C214.193 67.6401 211.633 67.1067 209.414 66.0401C207.195 64.9307 205.403 63.3521 204.038 61.3041C202.673 59.2561 201.798 56.8454 201.414 54.0721H196.102V63.4161C196.102 64.7387 195.782 65.7627 195.142 66.4881C194.545 67.1707 193.585 67.5121 192.262 67.5121C190.982 67.5121 190.001 67.1707 189.318 66.4881C188.635 65.7627 188.294 64.7387 188.294 63.4161V39.2241C188.294 37.9014 188.635 36.8987 189.318 36.2161C190.001 35.5334 190.982 35.1921 192.262 35.1921C193.542 35.1921 194.502 35.5334 195.142 36.2161C195.782 36.8987 196.102 37.9014 196.102 39.2241V47.8001H201.478C201.947 45.1121 202.865 42.8294 204.23 40.9521C205.638 39.0321 207.43 37.5814 209.606 36.6001C211.782 35.5761 214.278 35.0641 217.094 35.0641C220.337 35.0641 223.153 35.7254 225.542 37.0481C227.931 38.3707 229.787 40.2481 231.11 42.6801C232.433 45.1121 233.094 47.9921 233.094 51.3201C233.094 53.8374 232.71 56.0987 231.942 58.1041C231.217 60.1094 230.15 61.8374 228.742 63.2881C227.334 64.6961 225.649 65.7841 223.686 66.5521C221.723 67.2774 219.526 67.6401 217.094 67.6401ZM217.094 61.5601C218.715 61.5601 220.102 61.1761 221.254 60.4081C222.449 59.6401 223.366 58.5094 224.006 57.0161C224.689 55.4801 225.03 53.5814 225.03 51.3201C225.03 47.9067 224.305 45.3681 222.854 43.7041C221.403 41.9974 219.483 41.1441 217.094 41.1441C215.515 41.1441 214.129 41.5281 212.934 42.2961C211.739 43.0214 210.801 44.1521 210.118 45.6881C209.478 47.1814 209.158 49.0587 209.158 51.3201C209.158 54.6907 209.883 57.2507 211.334 59.0001C212.827 60.7067 214.747 61.5601 217.094 61.5601ZM255.2 67.6401C251.872 67.6401 248.971 66.9574 246.496 65.5921C244.064 64.2267 242.187 62.2001 240.864 59.5121C239.541 56.7814 238.88 53.4321 238.88 49.4641V44.7921C238.88 40.5681 239.499 37.0481 240.736 34.2321C242.016 31.3734 243.893 29.0907 246.368 27.3841C248.885 25.6347 251.979 24.3121 255.648 23.4161L263.968 21.3681C265.077 21.0694 266.016 21.1334 266.784 21.5601C267.552 21.9441 268.043 22.6694 268.256 23.7361C268.469 24.8027 268.299 25.7201 267.744 26.4881C267.189 27.2134 266.336 27.7041 265.184 27.9601L256.224 30.0721C254.091 30.5841 252.299 31.3947 250.848 32.5041C249.397 33.5707 248.288 34.9147 247.52 36.5361C246.795 38.1574 246.432 40.0347 246.432 42.1681V45.6241H245.344C245.771 43.7894 246.496 42.1467 247.52 40.6961C248.587 39.2454 249.952 38.1147 251.616 37.3041C253.28 36.4507 255.221 36.0241 257.44 36.0241C260.043 36.0241 262.347 36.6641 264.352 37.9441C266.4 39.1814 268 40.9521 269.152 43.2561C270.304 45.5601 270.88 48.3121 270.88 51.5121C270.88 54.7974 270.219 57.6561 268.896 60.0881C267.616 62.4774 265.803 64.3334 263.456 65.6561C261.109 66.9787 258.357 67.6401 255.2 67.6401ZM254.88 61.5601C256.587 61.5601 258.016 61.1974 259.168 60.4721C260.363 59.7041 261.259 58.5947 261.856 57.1441C262.496 55.6934 262.816 53.9227 262.816 51.8321C262.816 48.7174 262.112 46.3281 260.704 44.6641C259.339 42.9574 257.397 42.1041 254.88 42.1041C253.216 42.1041 251.787 42.4881 250.592 43.2561C249.397 43.9814 248.48 45.0481 247.84 46.4561C247.243 47.8641 246.944 49.5494 246.944 51.5121C246.944 54.7974 247.627 57.2934 248.992 59.0001C250.4 60.7067 252.363 61.5601 254.88 61.5601ZM282.262 67.0001C280.982 67.0001 280.001 66.6587 279.318 65.9761C278.635 65.2934 278.294 64.3121 278.294 63.0321V39.2241C278.294 37.8587 278.635 36.8561 279.318 36.2161C280.043 35.5334 281.046 35.1921 282.326 35.1921C283.606 35.1921 284.587 35.5334 285.27 36.2161C285.953 36.8561 286.294 37.8587 286.294 39.2241V46.0721H294.55C298.689 46.0721 301.803 46.9467 303.894 48.6961C306.027 50.4454 307.094 53.0054 307.094 56.3761C307.094 58.5094 306.582 60.3867 305.558 62.0081C304.534 63.5867 303.083 64.8241 301.206 65.7201C299.371 66.5734 297.153 67.0001 294.55 67.0001H282.262ZM286.294 61.7521H293.334C295.339 61.7521 296.897 61.3254 298.006 60.4721C299.115 59.5761 299.67 58.2321 299.67 56.4401C299.67 54.6907 299.115 53.4107 298.006 52.6001C296.897 51.7467 295.339 51.3201 293.334 51.3201H286.294V61.7521ZM314.838 67.5121C313.558 67.5121 312.577 67.1707 311.894 66.4881C311.211 65.7627 310.87 64.7387 310.87 63.4161V39.2241C310.87 37.8587 311.211 36.8561 311.894 36.2161C312.577 35.5334 313.558 35.1921 314.838 35.1921C316.118 35.1921 317.099 35.5334 317.782 36.2161C318.507 36.8561 318.87 37.8587 318.87 39.2241V63.4161C318.87 66.1467 317.526 67.5121 314.838 67.5121ZM330.221 67.3201C329.283 67.3201 328.493 67.0641 327.853 66.5521C327.256 65.9974 326.936 65.2934 326.893 64.4401C326.893 63.5867 327.256 62.6907 327.982 61.7521L338.349 48.9521V52.7281L328.621 40.7601C327.853 39.8214 327.491 38.9254 327.534 38.0721C327.576 37.2187 327.896 36.5361 328.493 36.0241C329.133 35.4694 329.923 35.1921 330.862 35.1921C331.843 35.1921 332.653 35.3627 333.293 35.7041C333.976 36.0454 334.595 36.5787 335.15 37.3041L342.829 47.1601H340.013L347.758 37.3041C348.355 36.5787 348.973 36.0454 349.613 35.7041C350.253 35.3627 351.043 35.1921 351.982 35.1921C352.963 35.1921 353.752 35.4694 354.349 36.0241C354.947 36.5787 355.245 37.2827 355.245 38.1361C355.288 38.9894 354.926 39.8854 354.158 40.8241L344.493 52.6641V49.0801L354.862 61.7521C355.63 62.6481 355.992 63.5227 355.949 64.3761C355.907 65.2294 355.566 65.9334 354.926 66.4881C354.328 67.0427 353.539 67.3201 352.557 67.3201C351.619 67.3201 350.829 67.1494 350.189 66.8081C349.549 66.4667 348.931 65.9334 348.333 65.2081L340.013 54.7121H342.702L334.445 65.2081C333.891 65.8907 333.294 66.4241 332.654 66.8081C332.014 67.1494 331.203 67.3201 330.221 67.3201ZM392.753 67.6401C390.577 67.6401 388.465 67.4267 386.417 67.0001C384.369 66.6161 382.534 66.0401 380.913 65.2721C380.145 64.8881 379.59 64.4187 379.249 63.8641C378.908 63.2667 378.737 62.6694 378.737 62.0721C378.78 61.4321 378.972 60.8774 379.313 60.4081C379.697 59.9387 380.209 59.6401 380.849 59.5121C381.489 59.3841 382.236 59.5334 383.089 59.9601C384.454 60.6001 385.969 61.0907 387.633 61.4321C389.34 61.7307 390.982 61.8801 392.561 61.8801C395.292 61.8801 397.233 61.5601 398.385 60.9201C399.537 60.2374 400.113 59.2134 400.113 57.8481C400.113 56.6107 399.665 55.6721 398.769 55.0321C397.873 54.3921 396.593 54.0721 394.929 54.0721H389.233C388.252 54.0721 387.484 53.8161 386.929 53.3041C386.374 52.7494 386.097 52.0241 386.097 51.1281C386.097 50.2321 386.374 49.5494 386.929 49.0801C387.484 48.5681 388.252 48.3121 389.233 48.3121H394.161C395.654 48.3121 396.828 48.0134 397.681 47.4161C398.534 46.7761 398.961 45.8801 398.961 44.7281C398.961 43.4907 398.449 42.5307 397.425 41.8481C396.444 41.1654 394.652 40.8241 392.049 40.8241C390.556 40.8241 389.105 40.9734 387.697 41.2721C386.289 41.5281 384.902 41.9547 383.537 42.5521C382.513 42.9787 381.638 43.0641 380.913 42.8081C380.23 42.5094 379.74 42.0187 379.441 41.3361C379.142 40.6534 379.121 39.9494 379.377 39.2241C379.633 38.4987 380.209 37.9227 381.105 37.4961C382.982 36.6427 384.924 36.0241 386.929 35.6401C388.977 35.2561 391.132 35.0641 393.393 35.0641C397.574 35.0641 400.753 35.8534 402.929 37.4321C405.148 38.9681 406.257 41.1227 406.257 43.8961C406.257 45.8587 405.596 47.5227 404.273 48.8881C402.95 50.2107 401.18 51.0214 398.961 51.3201V50.4241C401.606 50.5947 403.676 51.3627 405.169 52.7281C406.662 54.0934 407.409 55.9281 407.409 58.2321C407.409 61.0907 406.15 63.3734 403.633 65.0801C401.116 66.7867 397.489 67.6401 392.753 67.6401ZM424.787 67.6401C422.526 67.6401 420.499 67.2134 418.707 66.3601C416.958 65.4641 415.571 64.2694 414.547 62.7761C413.566 61.2827 413.075 59.5974 413.075 57.7201C413.075 55.4161 413.672 53.6027 414.867 52.2801C416.062 50.9147 418.003 49.9334 420.691 49.3361C423.379 48.7387 426.984 48.4401 431.507 48.4401H434.707V53.0481H431.571C428.926 53.0481 426.814 53.1761 425.235 53.4321C423.656 53.6881 422.526 54.1361 421.843 54.7761C421.203 55.3734 420.883 56.2267 420.883 57.3361C420.883 58.7441 421.374 59.8961 422.355 60.7921C423.336 61.6881 424.702 62.1361 426.451 62.1361C427.859 62.1361 429.096 61.8161 430.163 61.1761C431.272 60.4934 432.147 59.5761 432.787 58.4241C433.427 57.2721 433.747 55.9494 433.747 54.4561V47.0961C433.747 44.9627 433.278 43.4267 432.339 42.4881C431.4 41.5494 429.822 41.0801 427.603 41.0801C426.366 41.0801 425.022 41.2294 423.571 41.5281C422.163 41.8267 420.67 42.3387 419.091 43.0641C418.28 43.4481 417.555 43.5547 416.915 43.3841C416.318 43.2134 415.848 42.8721 415.507 42.3601C415.166 41.8054 414.995 41.2081 414.995 40.5681C414.995 39.9281 415.166 39.3094 415.507 38.7121C415.848 38.0721 416.424 37.6027 417.235 37.3041C419.198 36.4934 421.075 35.9174 422.867 35.5761C424.702 35.2347 426.366 35.0641 427.859 35.0641C430.931 35.0641 433.448 35.5334 435.411 36.4721C437.416 37.4107 438.91 38.8401 439.891 40.7601C440.872 42.6374 441.363 45.0694 441.363 48.0561V63.4161C441.363 64.7387 441.043 65.7627 440.403 66.4881C439.763 67.1707 438.846 67.5121 437.651 67.5121C436.456 67.5121 435.518 67.1707 434.835 66.4881C434.195 65.7627 433.875 64.7387 433.875 63.4161V60.3441H434.387C434.088 61.8374 433.491 63.1387 432.595 64.2481C431.742 65.3147 430.654 66.1467 429.331 66.7441C428.008 67.3414 426.494 67.6401 424.787 67.6401ZM450.87 75.8321C449.803 75.8321 448.95 75.5121 448.31 74.8721C447.713 74.2747 447.414 73.4001 447.414 72.2481V64.4401C447.414 61.9654 448.651 60.7281 451.126 60.7281H454.71L449.974 62.3921C451.083 60.8987 451.958 59.3414 452.598 57.7201C453.238 56.0987 453.707 54.2427 454.006 52.1521C454.305 50.0187 454.454 47.5014 454.454 44.6001V40.1841C454.454 38.7334 454.838 37.6241 455.606 36.8561C456.374 36.0881 457.483 35.7041 458.934 35.7041H474.358C475.809 35.7041 476.918 36.0881 477.686 36.8561C478.454 37.6241 478.838 38.7334 478.838 40.1841V64.4401L475.126 60.7281H480.246C481.441 60.7281 482.358 61.0481 482.998 61.6881C483.638 62.2854 483.958 63.2027 483.958 64.4401V72.2481C483.958 74.6374 482.827 75.8321 480.566 75.8321C479.457 75.8321 478.603 75.5121 478.006 74.8721C477.451 74.2747 477.174 73.4001 477.174 72.2481V67.0001H454.198V72.2481C454.198 74.6374 453.089 75.8321 450.87 75.8321ZM458.23 60.7281H471.35V41.8481H461.302V46.4561C461.302 49.1441 461.025 51.7467 460.47 54.2641C459.958 56.7814 459.211 58.9361 458.23 60.7281ZM500.224 67.6401C497.963 67.6401 495.937 67.2134 494.145 66.3601C492.395 65.4641 491.008 64.2694 489.984 62.7761C489.003 61.2827 488.512 59.5974 488.512 57.7201C488.512 55.4161 489.11 53.6027 490.305 52.2801C491.499 50.9147 493.441 49.9334 496.129 49.3361C498.817 48.7387 502.422 48.4401 506.944 48.4401H510.145V53.0481H507.008C504.363 53.0481 502.251 53.1761 500.672 53.4321C499.094 53.6881 497.963 54.1361 497.28 54.7761C496.64 55.3734 496.32 56.2267 496.32 57.3361C496.32 58.7441 496.811 59.8961 497.793 60.7921C498.774 61.6881 500.139 62.1361 501.888 62.1361C503.296 62.1361 504.534 61.8161 505.6 61.1761C506.71 60.4934 507.584 59.5761 508.224 58.4241C508.864 57.2721 509.185 55.9494 509.185 54.4561V47.0961C509.185 44.9627 508.715 43.4267 507.776 42.4881C506.838 41.5494 505.259 41.0801 503.04 41.0801C501.803 41.0801 500.459 41.2294 499.008 41.5281C497.6 41.8267 496.107 42.3387 494.529 43.0641C493.718 43.4481 492.993 43.5547 492.353 43.3841C491.755 43.2134 491.286 42.8721 490.944 42.3601C490.603 41.8054 490.432 41.2081 490.432 40.5681C490.432 39.9281 490.603 39.3094 490.944 38.7121C491.286 38.0721 491.862 37.6027 492.672 37.3041C494.635 36.4934 496.513 35.9174 498.305 35.5761C500.139 35.2347 501.803 35.0641 503.297 35.0641C506.369 35.0641 508.886 35.5334 510.849 36.4721C512.854 37.4107 514.347 38.8401 515.328 40.7601C516.31 42.6374 516.8 45.0694 516.8 48.0561V63.4161C516.8 64.7387 516.48 65.7627 515.84 66.4881C515.2 67.1707 514.283 67.5121 513.089 67.5121C511.894 67.5121 510.955 67.1707 510.272 66.4881C509.632 65.7627 509.312 64.7387 509.312 63.4161V60.3441H509.824C509.526 61.8374 508.929 63.1387 508.033 64.2481C507.179 65.3147 506.091 66.1467 504.768 66.7441C503.446 67.3414 501.931 67.6401 500.224 67.6401ZM549.476 67.5121C548.196 67.5121 547.214 67.1494 546.531 66.4241C545.849 65.6561 545.508 64.5894 545.508 63.2241V55.6721C544.356 56.2267 543.161 56.6534 541.924 56.9521C540.729 57.2081 539.491 57.3361 538.211 57.3361C533.561 57.3361 530.105 56.2267 527.844 54.0081C525.582 51.7467 524.451 48.3547 524.451 43.8321V39.2241C524.451 37.9014 524.793 36.8987 525.476 36.2161C526.158 35.5334 527.139 35.1921 528.419 35.1921C529.699 35.1921 530.681 35.5334 531.364 36.2161C532.089 36.8987 532.451 37.9014 532.451 39.2241V43.1281C532.451 45.8587 533.006 47.8427 534.115 49.0801C535.225 50.2747 537.06 50.8721 539.62 50.8721C540.772 50.8721 541.817 50.7441 542.755 50.4881C543.694 50.2321 544.569 49.8267 545.38 49.2721V39.4161C545.38 36.6001 546.723 35.1921 549.411 35.1921C550.734 35.1921 551.715 35.5547 552.355 36.2801C553.038 37.0054 553.38 38.0507 553.38 39.4161V63.2241C553.38 64.5894 553.059 65.6561 552.419 66.4241C551.779 67.1494 550.798 67.5121 549.476 67.5121Z"/>
</mask>
<path d="M7.544 78.0721C6.34933 78.0721 5.432 77.7521 4.792 77.1121C4.19466 76.4721 3.896 75.5547 3.896 74.3601V64.2481C3.896 61.7307 5.176 60.4721 7.736 60.4721H12.088L7.224 61.7521C9.656 59.3201 11.448 55.8001 12.6 51.1921C13.7947 46.5841 14.392 40.7387 14.392 33.6561V26.2321C14.392 24.8241 14.7547 23.7574 15.48 23.0321C16.248 22.2641 17.336 21.8801 18.744 21.8801H41.976C43.384 21.8801 44.4507 22.2641 45.176 23.0321C45.944 23.7574 46.328 24.8241 46.328 26.2321V63.5441L43.256 60.4721H48.888C50.1253 60.4721 51.064 60.7921 51.704 61.4321C52.3867 62.0721 52.728 63.0107 52.728 64.2481V74.3601C52.728 76.8347 51.5333 78.0721 49.144 78.0721C47.9493 78.0721 47.032 77.7521 46.392 77.1121C45.752 76.4721 45.432 75.5547 45.432 74.3601V67.0001H11.192V74.3601C11.192 76.8347 9.976 78.0721 7.544 78.0721ZM16.696 60.4721H38.072V28.4081H22.008V34.4241C22.008 40.5681 21.56 45.7521 20.664 49.9761C19.8107 54.2001 18.488 57.6987 16.696 60.4721ZM83.757 67.5121C82.477 67.5121 81.4957 67.1707 80.813 66.4881C80.1303 65.7627 79.789 64.7387 79.789 63.4161V41.9761H69.933V45.6241C69.933 48.5681 69.741 51.2134 69.357 53.5601C69.0157 55.9067 68.461 57.9547 67.693 59.7041C66.9677 61.4534 66.0077 62.9254 64.813 64.1201C63.6183 65.3147 62.189 66.2747 60.525 67.0001C59.629 67.3841 58.797 67.4907 58.029 67.3201C57.3037 67.1494 56.685 66.8294 56.173 66.3601C55.7037 65.8481 55.405 65.2507 55.277 64.5681C55.149 63.8427 55.2343 63.1387 55.533 62.4561C55.8317 61.7734 56.4077 61.1974 57.261 60.7281C58.3277 60.1307 59.2023 59.3841 59.885 58.4881C60.5677 57.5921 61.101 56.5254 61.485 55.2881C61.869 54.0081 62.1463 52.5574 62.317 50.9361C62.4877 49.3147 62.573 47.4587 62.573 45.3681V40.1841C62.573 38.7334 62.957 37.6241 63.725 36.8561C64.493 36.0881 65.6023 35.7041 67.053 35.7041H83.309C84.7597 35.7041 85.869 36.0881 86.637 36.8561C87.405 37.6241 87.789 38.7334 87.789 40.1841V63.4161C87.789 64.7387 87.4263 65.7627 86.701 66.4881C86.0183 67.1707 85.037 67.5121 83.757 67.5121ZM119.96 67.5121C118.766 67.5121 117.848 67.1921 117.208 66.5521C116.568 65.8694 116.248 64.9307 116.248 63.7361V56.1841H112.92C111.683 56.1841 110.574 56.5254 109.592 57.2081C108.654 57.8907 107.886 58.7441 107.288 59.7681L104.152 65.2721C103.598 66.2534 102.915 66.8934 102.104 67.1921C101.336 67.5334 100.547 67.5974 99.7365 67.3841C98.9685 67.1707 98.3072 66.7867 97.7525 66.2321C97.1978 65.6347 96.8352 64.9307 96.6645 64.1201C96.5365 63.3094 96.7498 62.4561 97.3045 61.5601L99.2885 58.2321C99.9285 57.1227 100.846 56.1627 102.04 55.3521C103.235 54.5414 104.472 54.1361 105.752 54.1361H107.032V54.8401C103.363 54.8401 100.547 54.0294 98.5845 52.4081C96.6218 50.7867 95.6405 48.4614 95.6405 45.4321C95.6405 43.4267 96.0885 41.6987 96.9845 40.2481C97.9232 38.7974 99.2885 37.6881 101.08 36.9201C102.872 36.1094 105.091 35.7041 107.736 35.7041H119.64C120.92 35.7041 121.902 36.0454 122.584 36.7281C123.31 37.4107 123.672 38.3921 123.672 39.6721V63.7361C123.672 64.9307 123.331 65.8694 122.648 66.5521C121.966 67.1921 121.07 67.5121 119.96 67.5121ZM109.4 50.9361H116.248V40.9521H109.4C107.31 40.9521 105.752 41.4001 104.728 42.2961C103.704 43.1494 103.192 44.3441 103.192 45.8801C103.192 47.4587 103.704 48.6961 104.728 49.5921C105.752 50.4881 107.31 50.9361 109.4 50.9361ZM175.195 67.5121C173.915 67.5121 172.933 67.1707 172.251 66.4881C171.568 65.7627 171.227 64.7387 171.227 63.4161V41.9761H161.37V45.6241C161.37 48.5681 161.178 51.2134 160.794 53.5601C160.453 55.9067 159.898 57.9547 159.13 59.7041C158.405 61.4534 157.445 62.9254 156.251 64.1201C155.056 65.3147 153.626 66.2747 151.962 67.0001C151.066 67.3841 150.234 67.4907 149.466 67.3201C148.741 67.1494 148.122 66.8294 147.61 66.3601C147.141 65.8481 146.842 65.2507 146.714 64.5681C146.586 63.8427 146.672 63.1387 146.97 62.4561C147.269 61.7734 147.845 61.1974 148.699 60.7281C149.765 60.1307 150.64 59.3841 151.322 58.4881C152.005 57.5921 152.539 56.5254 152.923 55.2881C153.307 54.0081 153.584 52.5574 153.755 50.9361C153.925 49.3147 154.01 47.4587 154.01 45.3681V40.1841C154.01 38.7334 154.394 37.6241 155.162 36.8561C155.93 36.0881 157.04 35.7041 158.49 35.7041H174.746C176.197 35.7041 177.306 36.0881 178.074 36.8561C178.842 37.6241 179.227 38.7334 179.227 40.1841V63.4161C179.227 64.7387 178.864 65.7627 178.138 66.4881C177.456 67.1707 176.475 67.5121 175.195 67.5121ZM217.094 67.6401C214.193 67.6401 211.633 67.1067 209.414 66.0401C207.195 64.9307 205.403 63.3521 204.038 61.3041C202.673 59.2561 201.798 56.8454 201.414 54.0721H196.102V63.4161C196.102 64.7387 195.782 65.7627 195.142 66.4881C194.545 67.1707 193.585 67.5121 192.262 67.5121C190.982 67.5121 190.001 67.1707 189.318 66.4881C188.635 65.7627 188.294 64.7387 188.294 63.4161V39.2241C188.294 37.9014 188.635 36.8987 189.318 36.2161C190.001 35.5334 190.982 35.1921 192.262 35.1921C193.542 35.1921 194.502 35.5334 195.142 36.2161C195.782 36.8987 196.102 37.9014 196.102 39.2241V47.8001H201.478C201.947 45.1121 202.865 42.8294 204.23 40.9521C205.638 39.0321 207.43 37.5814 209.606 36.6001C211.782 35.5761 214.278 35.0641 217.094 35.0641C220.337 35.0641 223.153 35.7254 225.542 37.0481C227.931 38.3707 229.787 40.2481 231.11 42.6801C232.433 45.1121 233.094 47.9921 233.094 51.3201C233.094 53.8374 232.71 56.0987 231.942 58.1041C231.217 60.1094 230.15 61.8374 228.742 63.2881C227.334 64.6961 225.649 65.7841 223.686 66.5521C221.723 67.2774 219.526 67.6401 217.094 67.6401ZM217.094 61.5601C218.715 61.5601 220.102 61.1761 221.254 60.4081C222.449 59.6401 223.366 58.5094 224.006 57.0161C224.689 55.4801 225.03 53.5814 225.03 51.3201C225.03 47.9067 224.305 45.3681 222.854 43.7041C221.403 41.9974 219.483 41.1441 217.094 41.1441C215.515 41.1441 214.129 41.5281 212.934 42.2961C211.739 43.0214 210.801 44.1521 210.118 45.6881C209.478 47.1814 209.158 49.0587 209.158 51.3201C209.158 54.6907 209.883 57.2507 211.334 59.0001C212.827 60.7067 214.747 61.5601 217.094 61.5601ZM255.2 67.6401C251.872 67.6401 248.971 66.9574 246.496 65.5921C244.064 64.2267 242.187 62.2001 240.864 59.5121C239.541 56.7814 238.88 53.4321 238.88 49.4641V44.7921C238.88 40.5681 239.499 37.0481 240.736 34.2321C242.016 31.3734 243.893 29.0907 246.368 27.3841C248.885 25.6347 251.979 24.3121 255.648 23.4161L263.968 21.3681C265.077 21.0694 266.016 21.1334 266.784 21.5601C267.552 21.9441 268.043 22.6694 268.256 23.7361C268.469 24.8027 268.299 25.7201 267.744 26.4881C267.189 27.2134 266.336 27.7041 265.184 27.9601L256.224 30.0721C254.091 30.5841 252.299 31.3947 250.848 32.5041C249.397 33.5707 248.288 34.9147 247.52 36.5361C246.795 38.1574 246.432 40.0347 246.432 42.1681V45.6241H245.344C245.771 43.7894 246.496 42.1467 247.52 40.6961C248.587 39.2454 249.952 38.1147 251.616 37.3041C253.28 36.4507 255.221 36.0241 257.44 36.0241C260.043 36.0241 262.347 36.6641 264.352 37.9441C266.4 39.1814 268 40.9521 269.152 43.2561C270.304 45.5601 270.88 48.3121 270.88 51.5121C270.88 54.7974 270.219 57.6561 268.896 60.0881C267.616 62.4774 265.803 64.3334 263.456 65.6561C261.109 66.9787 258.357 67.6401 255.2 67.6401ZM254.88 61.5601C256.587 61.5601 258.016 61.1974 259.168 60.4721C260.363 59.7041 261.259 58.5947 261.856 57.1441C262.496 55.6934 262.816 53.9227 262.816 51.8321C262.816 48.7174 262.112 46.3281 260.704 44.6641C259.339 42.9574 257.397 42.1041 254.88 42.1041C253.216 42.1041 251.787 42.4881 250.592 43.2561C249.397 43.9814 248.48 45.0481 247.84 46.4561C247.243 47.8641 246.944 49.5494 246.944 51.5121C246.944 54.7974 247.627 57.2934 248.992 59.0001C250.4 60.7067 252.363 61.5601 254.88 61.5601ZM282.262 67.0001C280.982 67.0001 280.001 66.6587 279.318 65.9761C278.635 65.2934 278.294 64.3121 278.294 63.0321V39.2241C278.294 37.8587 278.635 36.8561 279.318 36.2161C280.043 35.5334 281.046 35.1921 282.326 35.1921C283.606 35.1921 284.587 35.5334 285.27 36.2161C285.953 36.8561 286.294 37.8587 286.294 39.2241V46.0721H294.55C298.689 46.0721 301.803 46.9467 303.894 48.6961C306.027 50.4454 307.094 53.0054 307.094 56.3761C307.094 58.5094 306.582 60.3867 305.558 62.0081C304.534 63.5867 303.083 64.8241 301.206 65.7201C299.371 66.5734 297.153 67.0001 294.55 67.0001H282.262ZM286.294 61.7521H293.334C295.339 61.7521 296.897 61.3254 298.006 60.4721C299.115 59.5761 299.67 58.2321 299.67 56.4401C299.67 54.6907 299.115 53.4107 298.006 52.6001C296.897 51.7467 295.339 51.3201 293.334 51.3201H286.294V61.7521ZM314.838 67.5121C313.558 67.5121 312.577 67.1707 311.894 66.4881C311.211 65.7627 310.87 64.7387 310.87 63.4161V39.2241C310.87 37.8587 311.211 36.8561 311.894 36.2161C312.577 35.5334 313.558 35.1921 314.838 35.1921C316.118 35.1921 317.099 35.5334 317.782 36.2161C318.507 36.8561 318.87 37.8587 318.87 39.2241V63.4161C318.87 66.1467 317.526 67.5121 314.838 67.5121ZM330.221 67.3201C329.283 67.3201 328.493 67.0641 327.853 66.5521C327.256 65.9974 326.936 65.2934 326.893 64.4401C326.893 63.5867 327.256 62.6907 327.982 61.7521L338.349 48.9521V52.7281L328.621 40.7601C327.853 39.8214 327.491 38.9254 327.534 38.0721C327.576 37.2187 327.896 36.5361 328.493 36.0241C329.133 35.4694 329.923 35.1921 330.862 35.1921C331.843 35.1921 332.653 35.3627 333.293 35.7041C333.976 36.0454 334.595 36.5787 335.15 37.3041L342.829 47.1601H340.013L347.758 37.3041C348.355 36.5787 348.973 36.0454 349.613 35.7041C350.253 35.3627 351.043 35.1921 351.982 35.1921C352.963 35.1921 353.752 35.4694 354.349 36.0241C354.947 36.5787 355.245 37.2827 355.245 38.1361C355.288 38.9894 354.926 39.8854 354.158 40.8241L344.493 52.6641V49.0801L354.862 61.7521C355.63 62.6481 355.992 63.5227 355.949 64.3761C355.907 65.2294 355.566 65.9334 354.926 66.4881C354.328 67.0427 353.539 67.3201 352.557 67.3201C351.619 67.3201 350.829 67.1494 350.189 66.8081C349.549 66.4667 348.931 65.9334 348.333 65.2081L340.013 54.7121H342.702L334.445 65.2081C333.891 65.8907 333.294 66.4241 332.654 66.8081C332.014 67.1494 331.203 67.3201 330.221 67.3201ZM392.753 67.6401C390.577 67.6401 388.465 67.4267 386.417 67.0001C384.369 66.6161 382.534 66.0401 380.913 65.2721C380.145 64.8881 379.59 64.4187 379.249 63.8641C378.908 63.2667 378.737 62.6694 378.737 62.0721C378.78 61.4321 378.972 60.8774 379.313 60.4081C379.697 59.9387 380.209 59.6401 380.849 59.5121C381.489 59.3841 382.236 59.5334 383.089 59.9601C384.454 60.6001 385.969 61.0907 387.633 61.4321C389.34 61.7307 390.982 61.8801 392.561 61.8801C395.292 61.8801 397.233 61.5601 398.385 60.9201C399.537 60.2374 400.113 59.2134 400.113 57.8481C400.113 56.6107 399.665 55.6721 398.769 55.0321C397.873 54.3921 396.593 54.0721 394.929 54.0721H389.233C388.252 54.0721 387.484 53.8161 386.929 53.3041C386.374 52.7494 386.097 52.0241 386.097 51.1281C386.097 50.2321 386.374 49.5494 386.929 49.0801C387.484 48.5681 388.252 48.3121 389.233 48.3121H394.161C395.654 48.3121 396.828 48.0134 397.681 47.4161C398.534 46.7761 398.961 45.8801 398.961 44.7281C398.961 43.4907 398.449 42.5307 397.425 41.8481C396.444 41.1654 394.652 40.8241 392.049 40.8241C390.556 40.8241 389.105 40.9734 387.697 41.2721C386.289 41.5281 384.902 41.9547 383.537 42.5521C382.513 42.9787 381.638 43.0641 380.913 42.8081C380.23 42.5094 379.74 42.0187 379.441 41.3361C379.142 40.6534 379.121 39.9494 379.377 39.2241C379.633 38.4987 380.209 37.9227 381.105 37.4961C382.982 36.6427 384.924 36.0241 386.929 35.6401C388.977 35.2561 391.132 35.0641 393.393 35.0641C397.574 35.0641 400.753 35.8534 402.929 37.4321C405.148 38.9681 406.257 41.1227 406.257 43.8961C406.257 45.8587 405.596 47.5227 404.273 48.8881C402.95 50.2107 401.18 51.0214 398.961 51.3201V50.4241C401.606 50.5947 403.676 51.3627 405.169 52.7281C406.662 54.0934 407.409 55.9281 407.409 58.2321C407.409 61.0907 406.15 63.3734 403.633 65.0801C401.116 66.7867 397.489 67.6401 392.753 67.6401ZM424.787 67.6401C422.526 67.6401 420.499 67.2134 418.707 66.3601C416.958 65.4641 415.571 64.2694 414.547 62.7761C413.566 61.2827 413.075 59.5974 413.075 57.7201C413.075 55.4161 413.672 53.6027 414.867 52.2801C416.062 50.9147 418.003 49.9334 420.691 49.3361C423.379 48.7387 426.984 48.4401 431.507 48.4401H434.707V53.0481H431.571C428.926 53.0481 426.814 53.1761 425.235 53.4321C423.656 53.6881 422.526 54.1361 421.843 54.7761C421.203 55.3734 420.883 56.2267 420.883 57.3361C420.883 58.7441 421.374 59.8961 422.355 60.7921C423.336 61.6881 424.702 62.1361 426.451 62.1361C427.859 62.1361 429.096 61.8161 430.163 61.1761C431.272 60.4934 432.147 59.5761 432.787 58.4241C433.427 57.2721 433.747 55.9494 433.747 54.4561V47.0961C433.747 44.9627 433.278 43.4267 432.339 42.4881C431.4 41.5494 429.822 41.0801 427.603 41.0801C426.366 41.0801 425.022 41.2294 423.571 41.5281C422.163 41.8267 420.67 42.3387 419.091 43.0641C418.28 43.4481 417.555 43.5547 416.915 43.3841C416.318 43.2134 415.848 42.8721 415.507 42.3601C415.166 41.8054 414.995 41.2081 414.995 40.5681C414.995 39.9281 415.166 39.3094 415.507 38.7121C415.848 38.0721 416.424 37.6027 417.235 37.3041C419.198 36.4934 421.075 35.9174 422.867 35.5761C424.702 35.2347 426.366 35.0641 427.859 35.0641C430.931 35.0641 433.448 35.5334 435.411 36.4721C437.416 37.4107 438.91 38.8401 439.891 40.7601C440.872 42.6374 441.363 45.0694 441.363 48.0561V63.4161C441.363 64.7387 441.043 65.7627 440.403 66.4881C439.763 67.1707 438.846 67.5121 437.651 67.5121C436.456 67.5121 435.518 67.1707 434.835 66.4881C434.195 65.7627 433.875 64.7387 433.875 63.4161V60.3441H434.387C434.088 61.8374 433.491 63.1387 432.595 64.2481C431.742 65.3147 430.654 66.1467 429.331 66.7441C428.008 67.3414 426.494 67.6401 424.787 67.6401ZM450.87 75.8321C449.803 75.8321 448.95 75.5121 448.31 74.8721C447.713 74.2747 447.414 73.4001 447.414 72.2481V64.4401C447.414 61.9654 448.651 60.7281 451.126 60.7281H454.71L449.974 62.3921C451.083 60.8987 451.958 59.3414 452.598 57.7201C453.238 56.0987 453.707 54.2427 454.006 52.1521C454.305 50.0187 454.454 47.5014 454.454 44.6001V40.1841C454.454 38.7334 454.838 37.6241 455.606 36.8561C456.374 36.0881 457.483 35.7041 458.934 35.7041H474.358C475.809 35.7041 476.918 36.0881 477.686 36.8561C478.454 37.6241 478.838 38.7334 478.838 40.1841V64.4401L475.126 60.7281H480.246C481.441 60.7281 482.358 61.0481 482.998 61.6881C483.638 62.2854 483.958 63.2027 483.958 64.4401V72.2481C483.958 74.6374 482.827 75.8321 480.566 75.8321C479.457 75.8321 478.603 75.5121 478.006 74.8721C477.451 74.2747 477.174 73.4001 477.174 72.2481V67.0001H454.198V72.2481C454.198 74.6374 453.089 75.8321 450.87 75.8321ZM458.23 60.7281H471.35V41.8481H461.302V46.4561C461.302 49.1441 461.025 51.7467 460.47 54.2641C459.958 56.7814 459.211 58.9361 458.23 60.7281ZM500.224 67.6401C497.963 67.6401 495.937 67.2134 494.145 66.3601C492.395 65.4641 491.008 64.2694 489.984 62.7761C489.003 61.2827 488.512 59.5974 488.512 57.7201C488.512 55.4161 489.11 53.6027 490.305 52.2801C491.499 50.9147 493.441 49.9334 496.129 49.3361C498.817 48.7387 502.422 48.4401 506.944 48.4401H510.145V53.0481H507.008C504.363 53.0481 502.251 53.1761 500.672 53.4321C499.094 53.6881 497.963 54.1361 497.28 54.7761C496.64 55.3734 496.32 56.2267 496.32 57.3361C496.32 58.7441 496.811 59.8961 497.793 60.7921C498.774 61.6881 500.139 62.1361 501.888 62.1361C503.296 62.1361 504.534 61.8161 505.6 61.1761C506.71 60.4934 507.584 59.5761 508.224 58.4241C508.864 57.2721 509.185 55.9494 509.185 54.4561V47.0961C509.185 44.9627 508.715 43.4267 507.776 42.4881C506.838 41.5494 505.259 41.0801 503.04 41.0801C501.803 41.0801 500.459 41.2294 499.008 41.5281C497.6 41.8267 496.107 42.3387 494.529 43.0641C493.718 43.4481 492.993 43.5547 492.353 43.3841C491.755 43.2134 491.286 42.8721 490.944 42.3601C490.603 41.8054 490.432 41.2081 490.432 40.5681C490.432 39.9281 490.603 39.3094 490.944 38.7121C491.286 38.0721 491.862 37.6027 492.672 37.3041C494.635 36.4934 496.513 35.9174 498.305 35.5761C500.139 35.2347 501.803 35.0641 503.297 35.0641C506.369 35.0641 508.886 35.5334 510.849 36.4721C512.854 37.4107 514.347 38.8401 515.328 40.7601C516.31 42.6374 516.8 45.0694 516.8 48.0561V63.4161C516.8 64.7387 516.48 65.7627 515.84 66.4881C515.2 67.1707 514.283 67.5121 513.089 67.5121C511.894 67.5121 510.955 67.1707 510.272 66.4881C509.632 65.7627 509.312 64.7387 509.312 63.4161V60.3441H509.824C509.526 61.8374 508.929 63.1387 508.033 64.2481C507.179 65.3147 506.091 66.1467 504.768 66.7441C503.446 67.3414 501.931 67.6401 500.224 67.6401ZM549.476 67.5121C548.196 67.5121 547.214 67.1494 546.531 66.4241C545.849 65.6561 545.508 64.5894 545.508 63.2241V55.6721C544.356 56.2267 543.161 56.6534 541.924 56.9521C540.729 57.2081 539.491 57.3361 538.211 57.3361C533.561 57.3361 530.105 56.2267 527.844 54.0081C525.582 51.7467 524.451 48.3547 524.451 43.8321V39.2241C524.451 37.9014 524.793 36.8987 525.476 36.2161C526.158 35.5334 527.139 35.1921 528.419 35.1921C529.699 35.1921 530.681 35.5334 531.364 36.2161C532.089 36.8987 532.451 37.9014 532.451 39.2241V43.1281C532.451 45.8587 533.006 47.8427 534.115 49.0801C535.225 50.2747 537.06 50.8721 539.62 50.8721C540.772 50.8721 541.817 50.7441 542.755 50.4881C543.694 50.2321 544.569 49.8267 545.38 49.2721V39.4161C545.38 36.6001 546.723 35.1921 549.411 35.1921C550.734 35.1921 551.715 35.5547 552.355 36.2801C553.038 37.0054 553.38 38.0507 553.38 39.4161V63.2241C553.38 64.5894 553.059 65.6561 552.419 66.4241C551.779 67.1494 550.798 67.5121 549.476 67.5121Z" stroke="#F8F8F8" stroke-width="2" mask="url(#path-1-outside-1_62_465)"/>
<path d="M4.544 76.072C3.34933 76.072 2.432 75.752 1.792 75.112C1.19467 74.472 0.896 73.5547 0.896 72.36V62.248C0.896 59.7307 2.176 58.472 4.736 58.472H9.088L4.224 59.752C6.656 57.32 8.448 53.8 9.6 49.192C10.7947 44.584 11.392 38.7387 11.392 31.656V24.232C11.392 22.824 11.7547 21.7573 12.48 21.032C13.248 20.264 14.336 19.88 15.744 19.88H38.976C40.384 19.88 41.4507 20.264 42.176 21.032C42.944 21.7573 43.328 22.824 43.328 24.232V61.544L40.256 58.472H45.888C47.1253 58.472 48.064 58.792 48.704 59.432C49.3867 60.072 49.728 61.0107 49.728 62.248V72.36C49.728 74.8347 48.5333 76.072 46.144 76.072C44.9493 76.072 44.032 75.752 43.392 75.112C42.752 74.472 42.432 73.5547 42.432 72.36V65H8.192V72.36C8.192 74.8347 6.976 76.072 4.544 76.072ZM13.696 58.472H35.072V26.408H19.008V32.424C19.008 38.568 18.56 43.752 17.664 47.976C16.8107 52.2 15.488 55.6987 13.696 58.472ZM80.757 65.512C79.477 65.512 78.4957 65.1707 77.813 64.488C77.1303 63.7627 76.789 62.7387 76.789 61.416V39.976H66.933V43.624C66.933 46.568 66.741 49.2133 66.357 51.56C66.0157 53.9067 65.461 55.9547 64.693 57.704C63.9677 59.4533 63.0077 60.9253 61.813 62.12C60.6183 63.3147 59.189 64.2747 57.525 65C56.629 65.384 55.797 65.4907 55.029 65.32C54.3037 65.1493 53.685 64.8293 53.173 64.36C52.7037 63.848 52.405 63.2507 52.277 62.568C52.149 61.8427 52.2343 61.1387 52.533 60.456C52.8317 59.7733 53.4077 59.1973 54.261 58.728C55.3277 58.1307 56.2023 57.384 56.885 56.488C57.5677 55.592 58.101 54.5253 58.485 53.288C58.869 52.008 59.1463 50.5573 59.317 48.936C59.4877 47.3147 59.573 45.4587 59.573 43.368V38.184C59.573 36.7333 59.957 35.624 60.725 34.856C61.493 34.088 62.6023 33.704 64.053 33.704H80.309C81.7597 33.704 82.869 34.088 83.637 34.856C84.405 35.624 84.789 36.7333 84.789 38.184V61.416C84.789 62.7387 84.4263 63.7627 83.701 64.488C83.0183 65.1707 82.037 65.512 80.757 65.512ZM116.961 65.512C115.766 65.512 114.849 65.192 114.209 64.552C113.569 63.8693 113.249 62.9307 113.249 61.736V54.184H109.921C108.683 54.184 107.574 54.5253 106.593 55.208C105.654 55.8907 104.886 56.744 104.289 57.768L101.153 63.272C100.598 64.2533 99.9152 64.8933 99.1045 65.192C98.3365 65.5333 97.5472 65.5973 96.7365 65.384C95.9685 65.1707 95.3072 64.7867 94.7525 64.232C94.1978 63.6347 93.8352 62.9307 93.6645 62.12C93.5365 61.3093 93.7498 60.456 94.3045 59.56L96.2885 56.232C96.9285 55.1227 97.8458 54.1627 99.0405 53.352C100.235 52.5413 101.473 52.136 102.753 52.136H104.033V52.84C100.363 52.84 97.5472 52.0293 95.5845 50.408C93.6218 48.7867 92.6405 46.4613 92.6405 43.432C92.6405 41.4267 93.0885 39.6987 93.9845 38.248C94.9232 36.7973 96.2885 35.688 98.0805 34.92C99.8725 34.1093 102.091 33.704 104.737 33.704H116.641C117.921 33.704 118.902 34.0453 119.585 34.728C120.31 35.4107 120.673 36.392 120.673 37.672V61.736C120.673 62.9307 120.331 63.8693 119.649 64.552C118.966 65.192 118.07 65.512 116.961 65.512ZM106.401 48.936H113.249V38.952H106.401C104.31 38.952 102.753 39.4 101.729 40.296C100.705 41.1493 100.193 42.344 100.193 43.88C100.193 45.4587 100.705 46.696 101.729 47.592C102.753 48.488 104.31 48.936 106.401 48.936ZM389.753 65.64C387.577 65.64 385.465 65.4267 383.417 65C381.369 64.616 379.534 64.04 377.913 63.272C377.145 62.888 376.59 62.4187 376.249 61.864C375.908 61.2667 375.737 60.6693 375.737 60.072C375.78 59.432 375.972 58.8773 376.313 58.408C376.697 57.9387 377.209 57.64 377.849 57.512C378.489 57.384 379.236 57.5333 380.089 57.96C381.454 58.6 382.969 59.0907 384.633 59.432C386.34 59.7307 387.982 59.88 389.561 59.88C392.292 59.88 394.233 59.56 395.385 58.92C396.537 58.2373 397.113 57.2133 397.113 55.848C397.113 54.6107 396.665 53.672 395.769 53.032C394.873 52.392 393.593 52.072 391.929 52.072H386.233C385.252 52.072 384.484 51.816 383.929 51.304C383.374 50.7493 383.097 50.024 383.097 49.128C383.097 48.232 383.374 47.5493 383.929 47.08C384.484 46.568 385.252 46.312 386.233 46.312H391.161C392.654 46.312 393.828 46.0133 394.681 45.416C395.534 44.776 395.961 43.88 395.961 42.728C395.961 41.4907 395.449 40.5307 394.425 39.848C393.444 39.1653 391.652 38.824 389.049 38.824C387.556 38.824 386.105 38.9733 384.697 39.272C383.289 39.528 381.902 39.9547 380.537 40.552C379.513 40.9787 378.638 41.064 377.913 40.808C377.23 40.5093 376.74 40.0187 376.441 39.336C376.142 38.6533 376.121 37.9493 376.377 37.224C376.633 36.4987 377.209 35.9227 378.105 35.496C379.982 34.6427 381.924 34.024 383.929 33.64C385.977 33.256 388.132 33.064 390.393 33.064C394.574 33.064 397.753 33.8533 399.929 35.432C402.148 36.968 403.257 39.1227 403.257 41.896C403.257 43.8587 402.596 45.5227 401.273 46.888C399.95 48.2107 398.18 49.0213 395.961 49.32V48.424C398.606 48.5947 400.676 49.3627 402.169 50.728C403.662 52.0933 404.409 53.928 404.409 56.232C404.409 59.0907 403.15 61.3733 400.633 63.08C398.116 64.7867 394.489 65.64 389.753 65.64ZM421.787 65.64C419.526 65.64 417.499 65.2133 415.707 64.36C413.958 63.464 412.571 62.2693 411.547 60.776C410.566 59.2827 410.075 57.5973 410.075 55.72C410.075 53.416 410.672 51.6027 411.867 50.28C413.062 48.9147 415.003 47.9333 417.691 47.336C420.379 46.7387 423.984 46.44 428.507 46.44H431.707V51.048H428.571C425.926 51.048 423.814 51.176 422.235 51.432C420.656 51.688 419.526 52.136 418.843 52.776C418.203 53.3733 417.883 54.2267 417.883 55.336C417.883 56.744 418.374 57.896 419.355 58.792C420.336 59.688 421.702 60.136 423.451 60.136C424.859 60.136 426.096 59.816 427.163 59.176C428.272 58.4933 429.147 57.576 429.787 56.424C430.427 55.272 430.747 53.9493 430.747 52.456V45.096C430.747 42.9627 430.278 41.4267 429.339 40.488C428.4 39.5493 426.822 39.08 424.603 39.08C423.366 39.08 422.022 39.2293 420.571 39.528C419.163 39.8267 417.67 40.3387 416.091 41.064C415.28 41.448 414.555 41.5547 413.915 41.384C413.318 41.2133 412.848 40.872 412.507 40.36C412.166 39.8053 411.995 39.208 411.995 38.568C411.995 37.928 412.166 37.3093 412.507 36.712C412.848 36.072 413.424 35.6027 414.235 35.304C416.198 34.4933 418.075 33.9173 419.867 33.576C421.702 33.2347 423.366 33.064 424.859 33.064C427.931 33.064 430.448 33.5333 432.411 34.472C434.416 35.4107 435.91 36.84 436.891 38.76C437.872 40.6373 438.363 43.0693 438.363 46.056V61.416C438.363 62.7387 438.043 63.7627 437.403 64.488C436.763 65.1707 435.846 65.512 434.651 65.512C433.456 65.512 432.518 65.1707 431.835 64.488C431.195 63.7627 430.875 62.7387 430.875 61.416V58.344H431.387C431.088 59.8373 430.491 61.1387 429.595 62.248C428.742 63.3147 427.654 64.1467 426.331 64.744C425.008 65.3413 423.494 65.64 421.787 65.64ZM447.87 73.832C446.803 73.832 445.95 73.512 445.31 72.872C444.713 72.2747 444.414 71.4 444.414 70.248V62.44C444.414 59.9653 445.651 58.728 448.126 58.728H451.71L446.974 60.392C448.083 58.8987 448.958 57.3413 449.598 55.72C450.238 54.0987 450.707 52.2427 451.006 50.152C451.305 48.0187 451.454 45.5013 451.454 42.6V38.184C451.454 36.7333 451.838 35.624 452.606 34.856C453.374 34.088 454.483 33.704 455.934 33.704H471.358C472.809 33.704 473.918 34.088 474.686 34.856C475.454 35.624 475.838 36.7333 475.838 38.184V62.44L472.126 58.728H477.246C478.441 58.728 479.358 59.048 479.998 59.688C480.638 60.2853 480.958 61.2027 480.958 62.44V70.248C480.958 72.6373 479.827 73.832 477.566 73.832C476.457 73.832 475.603 73.512 475.006 72.872C474.451 72.2747 474.174 71.4 474.174 70.248V65H451.198V70.248C451.198 72.6373 450.089 73.832 447.87 73.832ZM455.23 58.728H468.35V39.848H458.302V44.456C458.302 47.144 458.025 49.7467 457.47 52.264C456.958 54.7813 456.211 56.936 455.23 58.728ZM497.225 65.64C494.963 65.64 492.937 65.2133 491.145 64.36C489.395 63.464 488.009 62.2693 486.985 60.776C486.003 59.2827 485.513 57.5973 485.513 55.72C485.513 53.416 486.11 51.6027 487.305 50.28C488.499 48.9147 490.441 47.9333 493.129 47.336C495.817 46.7387 499.422 46.44 503.945 46.44H507.145V51.048H504.009C501.363 51.048 499.251 51.176 497.673 51.432C496.094 51.688 494.963 52.136 494.281 52.776C493.641 53.3733 493.321 54.2267 493.321 55.336C493.321 56.744 493.811 57.896 494.793 58.792C495.774 59.688 497.139 60.136 498.889 60.136C500.297 60.136 501.534 59.816 502.601 59.176C503.71 58.4933 504.585 57.576 505.225 56.424C505.865 55.272 506.185 53.9493 506.185 52.456V45.096C506.185 42.9627 505.715 41.4267 504.777 40.488C503.838 39.5493 502.259 39.08 500.041 39.08C498.803 39.08 497.459 39.2293 496.009 39.528C494.601 39.8267 493.107 40.3387 491.529 41.064C490.718 41.448 489.993 41.5547 489.353 41.384C488.755 41.2133 488.286 40.872 487.945 40.36C487.603 39.8053 487.433 39.208 487.433 38.568C487.433 37.928 487.603 37.3093 487.945 36.712C488.286 36.072 488.862 35.6027 489.673 35.304C491.635 34.4933 493.513 33.9173 495.305 33.576C497.139 33.2347 498.803 33.064 500.297 33.064C503.369 33.064 505.886 33.5333 507.849 34.472C509.854 35.4107 511.347 36.84 512.329 38.76C513.31 40.6373 513.801 43.0693 513.801 46.056V61.416C513.801 62.7387 513.481 63.7627 512.841 64.488C512.201 65.1707 511.283 65.512 510.089 65.512C508.894 65.512 507.955 65.1707 507.273 64.488C506.633 63.7627 506.313 62.7387 506.313 61.416V58.344H506.825C506.526 59.8373 505.929 61.1387 505.033 62.248C504.179 63.3147 503.091 64.1467 501.769 64.744C500.446 65.3413 498.931 65.64 497.225 65.64ZM546.476 65.512C545.196 65.512 544.214 65.1493 543.532 64.424C542.849 63.656 542.508 62.5893 542.508 61.224V53.672C541.356 54.2267 540.161 54.6533 538.924 54.952C537.729 55.208 536.492 55.336 535.212 55.336C530.561 55.336 527.105 54.2267 524.844 52.008C522.582 49.7467 521.452 46.3547 521.452 41.832V37.224C521.452 35.9013 521.793 34.8987 522.476 34.216C523.158 33.5333 524.14 33.192 525.42 33.192C526.7 33.192 527.681 33.5333 528.364 34.216C529.089 34.8987 529.452 35.9013 529.452 37.224V41.128C529.452 43.8587 530.006 45.8427 531.116 47.08C532.225 48.2747 534.06 48.872 536.62 48.872C537.772 48.872 538.817 48.744 539.756 48.488C540.694 48.232 541.569 47.8267 542.38 47.272V37.416C542.38 34.6 543.724 33.192 546.412 33.192C547.734 33.192 548.716 33.5547 549.356 34.28C550.038 35.0053 550.38 36.0507 550.38 37.416V61.224C550.38 62.5893 550.06 63.656 549.42 64.424C548.78 65.1493 547.798 65.512 546.476 65.512Z" fill="#371A45"/>
<path d="M172.195 65.512C170.915 65.512 169.933 65.1707 169.251 64.488C168.568 63.7627 168.227 62.7387 168.227 61.416V39.976H158.371V43.624C158.371 46.568 158.179 49.2133 157.795 51.56C157.453 53.9067 156.899 55.9547 156.131 57.704C155.405 59.4533 154.445 60.9253 153.251 62.12C152.056 63.3147 150.627 64.2747 148.963 65C148.067 65.384 147.235 65.4907 146.467 65.32C145.741 65.1493 145.123 64.8293 144.611 64.36C144.141 63.848 143.843 63.2507 143.715 62.568C143.587 61.8427 143.672 61.1387 143.971 60.456C144.269 59.7733 144.845 59.1973 145.699 58.728C146.765 58.1307 147.64 57.384 148.323 56.488C149.005 55.592 149.539 54.5253 149.923 53.288C150.307 52.008 150.584 50.5573 150.755 48.936C150.925 47.3147 151.01 45.4587 151.01 43.368V38.184C151.01 36.7333 151.395 35.624 152.163 34.856C152.931 34.088 154.04 33.704 155.491 33.704H171.747C173.197 33.704 174.307 34.088 175.075 34.856C175.843 35.624 176.227 36.7333 176.227 38.184V61.416C176.227 62.7387 175.864 63.7627 175.139 64.488C174.456 65.1707 173.475 65.512 172.195 65.512ZM214.094 65.64C211.193 65.64 208.633 65.1067 206.414 64.04C204.195 62.9307 202.403 61.352 201.038 59.304C199.673 57.256 198.798 54.8453 198.414 52.072H193.102V61.416C193.102 62.7387 192.782 63.7627 192.142 64.488C191.545 65.1707 190.585 65.512 189.262 65.512C187.982 65.512 187.001 65.1707 186.318 64.488C185.635 63.7627 185.294 62.7387 185.294 61.416V37.224C185.294 35.9013 185.635 34.8987 186.318 34.216C187.001 33.5333 187.982 33.192 189.262 33.192C190.542 33.192 191.502 33.5333 192.142 34.216C192.782 34.8987 193.102 35.9013 193.102 37.224V45.8H198.478C198.947 43.112 199.865 40.8293 201.23 38.952C202.638 37.032 204.43 35.5813 206.606 34.6C208.782 33.576 211.278 33.064 214.094 33.064C217.337 33.064 220.153 33.7253 222.542 35.048C224.931 36.3707 226.787 38.248 228.11 40.68C229.433 43.112 230.094 45.992 230.094 49.32C230.094 51.8373 229.71 54.0987 228.942 56.104C228.217 58.1093 227.15 59.8373 225.742 61.288C224.334 62.696 222.649 63.784 220.686 64.552C218.723 65.2773 216.526 65.64 214.094 65.64ZM214.094 59.56C215.715 59.56 217.102 59.176 218.254 58.408C219.449 57.64 220.366 56.5093 221.006 55.016C221.689 53.48 222.03 51.5813 222.03 49.32C222.03 45.9067 221.305 43.368 219.854 41.704C218.403 39.9973 216.483 39.144 214.094 39.144C212.515 39.144 211.129 39.528 209.934 40.296C208.739 41.0213 207.801 42.152 207.118 43.688C206.478 45.1813 206.158 47.0587 206.158 49.32C206.158 52.6907 206.883 55.2507 208.334 57C209.827 58.7067 211.747 59.56 214.094 59.56ZM252.2 65.64C248.872 65.64 245.971 64.9573 243.496 63.592C241.064 62.2267 239.187 60.2 237.864 57.512C236.541 54.7813 235.88 51.432 235.88 47.464V42.792C235.88 38.568 236.499 35.048 237.736 32.232C239.016 29.3733 240.893 27.0907 243.368 25.384C245.885 23.6347 248.979 22.312 252.648 21.416L260.968 19.368C262.077 19.0693 263.016 19.1333 263.784 19.56C264.552 19.944 265.043 20.6693 265.256 21.736C265.469 22.8027 265.299 23.72 264.744 24.488C264.189 25.2133 263.336 25.704 262.184 25.96L253.224 28.072C251.091 28.584 249.299 29.3947 247.848 30.504C246.397 31.5707 245.288 32.9147 244.52 34.536C243.795 36.1573 243.432 38.0347 243.432 40.168V43.624H242.344C242.771 41.7893 243.496 40.1467 244.52 38.696C245.587 37.2453 246.952 36.1147 248.616 35.304C250.28 34.4507 252.221 34.024 254.44 34.024C257.043 34.024 259.347 34.664 261.352 35.944C263.4 37.1813 265 38.952 266.152 41.256C267.304 43.56 267.88 46.312 267.88 49.512C267.88 52.7973 267.219 55.656 265.896 58.088C264.616 60.4773 262.803 62.3333 260.456 63.656C258.109 64.9787 255.357 65.64 252.2 65.64ZM251.88 59.56C253.587 59.56 255.016 59.1973 256.168 58.472C257.363 57.704 258.259 56.5947 258.856 55.144C259.496 53.6933 259.816 51.9227 259.816 49.832C259.816 46.7173 259.112 44.328 257.704 42.664C256.339 40.9573 254.397 40.104 251.88 40.104C250.216 40.104 248.787 40.488 247.592 41.256C246.397 41.9813 245.48 43.048 244.84 44.456C244.243 45.864 243.944 47.5493 243.944 49.512C243.944 52.7973 244.627 55.2933 245.992 57C247.4 58.7067 249.363 59.56 251.88 59.56ZM279.262 65C277.982 65 277.001 64.6587 276.318 63.976C275.635 63.2933 275.294 62.312 275.294 61.032V37.224C275.294 35.8587 275.635 34.856 276.318 34.216C277.043 33.5333 278.046 33.192 279.326 33.192C280.606 33.192 281.587 33.5333 282.27 34.216C282.953 34.856 283.294 35.8587 283.294 37.224V44.072H291.55C295.689 44.072 298.803 44.9467 300.894 46.696C303.027 48.4453 304.094 51.0053 304.094 54.376C304.094 56.5093 303.582 58.3867 302.558 60.008C301.534 61.5867 300.083 62.824 298.206 63.72C296.371 64.5733 294.153 65 291.55 65H279.262ZM283.294 59.752H290.334C292.339 59.752 293.897 59.3253 295.006 58.472C296.115 57.576 296.67 56.232 296.67 54.44C296.67 52.6907 296.115 51.4107 295.006 50.6C293.897 49.7467 292.339 49.32 290.334 49.32H283.294V59.752ZM311.838 65.512C310.558 65.512 309.577 65.1707 308.894 64.488C308.211 63.7627 307.87 62.7387 307.87 61.416V37.224C307.87 35.8587 308.211 34.856 308.894 34.216C309.577 33.5333 310.558 33.192 311.838 33.192C313.118 33.192 314.099 33.5333 314.782 34.216C315.507 34.856 315.87 35.8587 315.87 37.224V61.416C315.87 64.1467 314.526 65.512 311.838 65.512ZM327.222 65.32C326.283 65.32 325.494 65.064 324.854 64.552C324.256 63.9973 323.936 63.2933 323.894 62.44C323.894 61.5867 324.256 60.6907 324.982 59.752L335.35 46.952V50.728L325.622 38.76C324.854 37.8213 324.491 36.9253 324.534 36.072C324.576 35.2187 324.896 34.536 325.494 34.024C326.134 33.4693 326.923 33.192 327.862 33.192C328.843 33.192 329.654 33.3627 330.294 33.704C330.976 34.0453 331.595 34.5787 332.15 35.304L339.83 45.16H337.014L344.758 35.304C345.355 34.5787 345.974 34.0453 346.614 33.704C347.254 33.3627 348.043 33.192 348.982 33.192C349.963 33.192 350.752 33.4693 351.35 34.024C351.947 34.5787 352.246 35.2827 352.246 36.136C352.288 36.9893 351.926 37.8853 351.158 38.824L341.494 50.664V47.08L351.862 59.752C352.63 60.648 352.992 61.5227 352.95 62.376C352.907 63.2293 352.566 63.9333 351.926 64.488C351.328 65.0427 350.539 65.32 349.558 65.32C348.619 65.32 347.83 65.1493 347.19 64.808C346.55 64.4667 345.931 63.9333 345.334 63.208L337.014 52.712H339.702L331.446 63.208C330.891 63.8907 330.294 64.424 329.654 64.808C329.014 65.1493 328.203 65.32 327.222 65.32Z" fill="#F8F8F8"/>
</svg>
