<svg width="544" height="80" viewBox="0 0 544 80" fill="none" xmlns="http://www.w3.org/2000/svg">
<path fill-rule="evenodd" clip-rule="evenodd" d="M7.79999 66V21.312H18.2822L30.4539 38.7893L42.9742 21.312H53.192V66H42.552V37.2624L30.0988 54.1594L18.184 37.4582V66H7.79999ZM17.184 34.3347L30.112 52.456L43.552 34.22V65H52.192V22.312H43.488L30.4424 40.5226L17.76 22.312H8.79999V65H17.184V34.3347ZM63.5151 64.6353L63.5049 64.6288C62.0803 63.7265 60.9427 62.5147 60.0964 61.0102L60.0874 60.9943L60.079 60.9779C59.2612 59.3904 58.88 57.473 58.88 55.272C58.88 52.962 59.3556 50.941 60.3633 49.2589C61.3689 47.5374 62.8307 46.2503 64.7123 45.4025C66.6262 44.5166 68.9101 44.096 71.528 44.096C73.1227 44.096 74.6217 44.2505 76.0211 44.5651C77.3764 44.8284 78.6191 45.2019 79.744 45.691V44.712C79.744 42.8415 79.165 41.6817 78.1812 40.9835L78.1726 40.9774L78.1641 40.9711C77.076 40.1637 75.4597 39.696 73.192 39.696C71.4753 39.696 69.7047 39.9952 67.8762 40.6047L67.8667 40.6078L67.8571 40.6108C66.025 41.1808 64.5926 41.9179 63.5227 42.7967L61.888 44.1395V34.1119L62.3552 33.8177C63.6431 33.0068 65.4943 32.336 67.8379 31.7718C70.2269 31.1966 72.7808 30.912 75.496 30.912C76.6691 30.912 77.8996 31.0248 79.1859 31.2465C80.4933 31.4719 81.7386 31.8334 82.9196 32.3324C84.176 32.8452 85.3157 33.5665 86.3353 34.4915C87.3953 35.4098 88.2222 36.5788 88.8272 37.9729C89.453 39.3719 89.744 41.0328 89.744 42.92V58.216C89.744 60.4536 89.019 62.3219 87.493 63.6953L87.486 63.7015L87.4789 63.7077C86.0275 64.9656 84.0775 65.7884 81.7063 66.237C79.3623 66.7226 76.6274 66.96 73.512 66.96C71.6563 66.96 69.8803 66.7832 68.186 66.4265C66.4677 66.0648 64.9108 65.4726 63.5255 64.6415L63.5151 64.6353ZM81.512 65.256C83.7733 64.8293 85.544 64.0613 86.824 62.952C88.104 61.8 88.744 60.2213 88.744 58.216V42.92C88.744 41.128 88.4667 39.6133 87.912 38.376C87.3573 37.096 86.6107 36.0507 85.672 35.24C84.7333 34.3867 83.688 33.7253 82.536 33.256C81.4267 32.7866 80.2533 32.4453 79.016 32.232C77.7787 32.0187 76.6053 31.912 75.496 31.912C72.8507 31.912 70.376 32.1893 68.072 32.744C65.768 33.2987 64.04 33.9387 62.888 34.664V42.024C63.1971 41.7701 63.5304 41.5291 63.888 41.3009C64.9127 40.6471 66.1367 40.0988 67.56 39.656C69.48 39.016 71.3573 38.696 73.192 38.696C75.5813 38.696 77.4373 39.1866 78.76 40.168C80.0826 41.1067 80.744 42.6213 80.744 44.712V47.3033C80.4339 47.1263 80.1006 46.9545 79.744 46.7879C79.6316 46.7354 79.517 46.6835 79.4 46.632C78.3333 46.1627 77.1386 45.8 75.816 45.544C74.4933 45.2453 73.064 45.096 71.528 45.096C69.0107 45.096 66.8773 45.5013 65.128 46.312C63.4213 47.08 62.12 48.232 61.224 49.768C60.328 51.2613 59.88 53.096 59.88 55.272C59.88 57.3627 60.2427 59.112 60.968 60.52C61.736 61.8853 62.76 62.9733 64.04 63.784C65.32 64.552 66.7707 65.1067 68.392 65.448C70.0133 65.7893 71.72 65.96 73.512 65.96C76.584 65.96 79.2507 65.7253 81.512 65.256ZM80.744 51.7874C80.4284 51.6699 80.0951 51.5613 79.744 51.4616C79.5494 51.4063 79.3494 51.3538 79.144 51.304C77.7787 50.92 76.2853 50.728 74.664 50.728C72.4026 50.728 70.7173 51.0907 69.608 51.816C68.4987 52.5413 67.944 53.672 67.944 55.208C67.944 56.2747 68.2427 57.1707 68.84 57.896C69.4373 58.5787 70.2053 59.112 71.144 59.496C72.0827 59.8373 73.064 60.008 74.088 60.008C76.4347 60.008 78.12 59.8587 79.144 59.56C80.2107 59.2187 80.744 58.5147 80.744 57.448V51.7874ZM78.8512 58.6037C79.2334 58.4794 79.4354 58.3193 79.5469 58.1721C79.6563 58.0277 79.744 57.8098 79.744 57.448V52.5042C79.4796 52.423 79.2012 52.3468 78.9084 52.2758L78.8907 52.2716L78.8732 52.2666C77.6076 51.9107 76.2066 51.728 74.664 51.728C72.4752 51.728 71.0234 52.0853 70.1552 52.653C69.377 53.1618 68.944 53.947 68.944 55.208C68.944 56.0697 69.1784 56.7285 69.6027 57.249C70.0813 57.7922 70.7067 58.2338 71.5044 58.563C72.3251 58.8589 73.1844 59.008 74.088 59.008C76.4142 59.008 77.9721 58.8572 78.8512 58.6037ZM96.73 34.8006L97.3 34.5291C98.2386 34.0822 99.3417 33.6419 100.604 33.2066C101.883 32.7656 103.264 32.393 104.747 32.0873C106.225 31.74 107.704 31.4789 109.185 31.3043C110.714 31.0863 112.166 30.976 113.538 30.976C116.601 30.976 119.212 31.3896 121.332 32.2628C123.52 33.1036 125.197 34.4783 126.301 36.3925C127.448 38.263 127.978 40.657 127.978 43.496V66H117.914V44.904C117.914 44.1819 117.819 43.5095 117.635 42.8821L117.632 42.8749L117.63 42.8676C117.457 42.2439 117.169 41.7256 116.771 41.2943L116.759 41.2807L116.747 41.2668C116.374 40.8323 115.836 40.4736 115.078 40.2207L115.058 40.214L115.038 40.2065C114.296 39.9237 113.276 39.76 111.938 39.76C110.938 39.76 109.914 39.8599 108.863 40.062C108.092 40.2103 107.426 40.3876 106.858 40.5897V66H96.73V34.8006ZM105.858 39.912C106.626 39.5707 107.565 39.2933 108.674 39.08C109.783 38.8666 110.871 38.76 111.938 38.76C113.346 38.76 114.498 38.9306 115.394 39.272C116.29 39.5707 116.994 40.0187 117.506 40.616C118.018 41.1707 118.381 41.832 118.594 42.6C118.807 43.3253 118.914 44.0933 118.914 44.904V65H126.978V43.496C126.978 40.7653 126.466 38.568 125.442 36.904C124.461 35.1973 122.967 33.96 120.962 33.192C118.999 32.3813 116.525 31.976 113.538 31.976C112.215 31.976 110.807 32.0826 109.314 32.296C107.863 32.4667 106.413 32.7227 104.962 33.064C103.511 33.3626 102.167 33.7253 100.93 34.152C99.6926 34.5786 98.626 35.0053 97.73 35.432V65H105.858V39.912ZM137.953 64.6353L137.942 64.6288C136.518 63.7265 135.38 62.5147 134.534 61.0102L134.525 60.9943L134.517 60.9779C133.699 59.3904 133.317 57.473 133.317 55.272C133.317 52.962 133.793 50.941 134.801 49.2589C135.806 47.5375 137.268 46.2504 139.15 45.4025C141.064 44.5166 143.348 44.096 145.965 44.096C147.56 44.096 149.059 44.2504 150.459 44.5651C151.814 44.8284 153.057 45.2019 154.181 45.691V44.712C154.181 42.8415 153.603 41.6817 152.619 40.9835L152.61 40.9774L152.602 40.9711C151.513 40.1637 149.897 39.696 147.629 39.696C145.913 39.696 144.142 39.9952 142.314 40.6047L142.304 40.6078L142.295 40.6108C140.463 41.1808 139.03 41.9179 137.96 42.7967L136.325 44.1395V34.1119L136.793 33.8177C138.081 33.0068 139.932 32.336 142.275 31.7718C144.664 31.1966 147.218 30.912 149.933 30.912C151.107 30.912 152.337 31.0248 153.623 31.2465C154.931 31.4719 156.176 31.8334 157.357 32.3324C158.614 32.8452 159.753 33.5666 160.773 34.4917C161.833 35.4099 162.66 36.5789 163.265 37.9729C163.891 39.3719 164.181 41.0328 164.181 42.92V58.216C164.181 60.4536 163.456 62.3219 161.93 63.6953L161.923 63.7015L161.916 63.7077C160.465 64.9656 158.515 65.7884 156.144 66.237C153.8 66.7226 151.065 66.96 147.949 66.96C146.094 66.96 144.318 66.7832 142.623 66.4265C140.905 66.0648 139.348 65.4726 137.963 64.6415L137.953 64.6353ZM155.949 65.256C158.211 64.8293 159.981 64.0613 161.261 62.952C162.541 61.8 163.181 60.2213 163.181 58.216V42.92C163.181 41.128 162.904 39.6133 162.349 38.376C161.795 37.096 161.048 36.0507 160.109 35.24C159.171 34.3867 158.125 33.7253 156.973 33.256C155.864 32.7866 154.691 32.4453 153.453 32.232C152.216 32.0187 151.043 31.912 149.933 31.912C147.288 31.912 144.813 32.1893 142.509 32.744C140.205 33.2987 138.477 33.9387 137.325 34.664V42.024C137.635 41.7701 137.968 41.5291 138.325 41.3009C139.35 40.6471 140.574 40.0988 141.997 39.656C143.917 39.016 145.795 38.696 147.629 38.696C150.019 38.696 151.875 39.1866 153.197 40.168C154.52 41.1067 155.181 42.6213 155.181 44.712V47.3033C154.871 47.1263 154.538 46.9545 154.181 46.7879C154.069 46.7354 153.954 46.6835 153.837 46.632C152.771 46.1627 151.576 45.8 150.253 45.544C148.931 45.2453 147.501 45.096 145.965 45.096C143.448 45.096 141.315 45.5013 139.565 46.312C137.859 47.08 136.557 48.232 135.661 49.768C134.765 51.2613 134.317 53.096 134.317 55.272C134.317 57.3627 134.68 59.112 135.405 60.52C136.173 61.8853 137.197 62.9733 138.477 63.784C139.757 64.552 141.208 65.1067 142.829 65.448C144.451 65.7893 146.157 65.96 147.949 65.96C151.021 65.96 153.688 65.7253 155.949 65.256ZM155.181 51.7874C154.866 51.6699 154.533 51.5613 154.181 51.4616C153.987 51.4063 153.787 51.3538 153.581 51.304C152.216 50.92 150.723 50.728 149.101 50.728C146.84 50.728 145.155 51.0907 144.045 51.816C142.936 52.5413 142.381 53.672 142.381 55.208C142.381 56.2747 142.68 57.1707 143.277 57.896C143.875 58.5787 144.643 59.112 145.581 59.496C146.52 59.8373 147.501 60.008 148.525 60.008C150.872 60.008 152.557 59.8587 153.581 59.56C154.648 59.2187 155.181 58.5147 155.181 57.448V51.7874ZM153.289 58.6037C153.671 58.4794 153.873 58.3193 153.984 58.1721C154.094 58.0277 154.181 57.8098 154.181 57.448V52.5042C153.917 52.423 153.639 52.3468 153.346 52.2758L153.328 52.2716L153.311 52.2666C152.045 51.9107 150.644 51.728 149.101 51.728C146.913 51.728 145.461 52.0853 144.593 52.653C143.815 53.1618 143.381 53.947 143.381 55.208C143.381 56.0696 143.616 56.7284 144.04 57.2489C144.519 57.7921 145.144 58.2338 145.942 58.5629C146.763 58.8589 147.622 59.008 148.525 59.008C150.852 59.008 152.41 58.8572 153.289 58.6037ZM184.761 66.96L184.747 66.9596C181.589 66.8706 178.837 66.179 176.53 64.841C174.215 63.4984 172.439 61.5536 171.206 59.0407L171.201 59.0309L171.196 59.0211C170.01 56.4654 169.439 53.39 169.439 49.832C169.439 46.1354 169.894 43.036 170.85 40.5762C171.794 38.1056 173.122 36.1337 174.865 34.7202C176.608 33.2984 178.622 32.3168 180.894 31.7716L180.898 31.7706C183.156 31.2394 185.537 30.976 188.039 30.976C190.638 30.976 192.966 31.3059 195.009 31.9863C197.093 32.6666 198.791 33.6851 200.041 35.0771C201.385 36.5239 202.031 38.3553 202.031 40.488V65.704C202.031 67.7744 201.694 69.6738 201 71.3875C200.302 73.1546 199.229 74.6705 197.79 75.925C196.386 77.187 194.633 78.1229 192.564 78.7538C190.477 79.433 188.023 79.76 185.223 79.76C182.658 79.76 180.391 79.5646 178.431 79.1637C176.522 78.7732 174.957 78.3306 173.762 77.825L173.151 77.5667V68.195L174.523 68.7435C175.126 68.9848 175.971 69.2743 177.07 69.6122L177.081 69.6156L177.092 69.6193C178.192 69.986 179.425 70.2951 180.794 70.5441C182.144 70.7896 183.492 70.912 184.839 70.912C187.043 70.912 188.559 70.6158 189.499 70.1282L189.506 70.1248L189.512 70.1216C190.551 69.6024 191.163 68.9661 191.474 68.2493C191.842 67.4031 192.031 66.4734 192.031 65.448V65.2061C191.107 65.6767 190.102 66.0554 189.021 66.345C187.685 66.7573 186.268 66.96 184.775 66.96H184.761ZM188.743 65.384C189.954 65.0612 191.05 64.6239 192.031 64.0722C192.088 64.0405 192.144 64.0084 192.199 63.976C192.489 63.802 192.767 63.6217 193.031 63.4352V65.448C193.031 66.6 192.818 67.6666 192.391 68.648C191.965 69.6293 191.154 70.4187 189.959 71.016C188.807 71.6133 187.101 71.912 184.839 71.912C183.431 71.912 182.023 71.784 180.615 71.528C179.207 71.272 177.927 70.952 176.775 70.568C176.163 70.3794 175.621 70.2038 175.151 70.0412C174.771 69.9096 174.438 69.7865 174.151 69.672V76.904C175.261 77.3733 176.754 77.8 178.631 78.184C180.509 78.568 182.706 78.76 185.223 78.76C187.954 78.76 190.301 78.44 192.263 77.8C194.226 77.2027 195.847 76.328 197.127 75.176C198.45 74.024 199.431 72.6373 200.071 71.016C200.711 69.4373 201.031 67.6666 201.031 65.704V40.488C201.031 38.568 200.455 36.9893 199.303 35.752C198.194 34.5147 196.658 33.576 194.695 32.936C192.775 32.296 190.557 31.976 188.039 31.976C185.607 31.976 183.303 32.232 181.127 32.744C178.994 33.256 177.117 34.1733 175.495 35.496C173.917 36.776 172.679 38.5893 171.783 40.936C170.887 43.24 170.439 46.2053 170.439 49.832C170.439 53.288 170.994 56.2107 172.103 58.6C173.255 60.9467 174.898 62.7387 177.031 63.976C179.165 65.2133 181.746 65.8747 184.775 65.96C186.183 65.96 187.506 65.768 188.743 65.384ZM192.17 58.483C192.466 58.3412 192.754 58.1882 193.031 58.024V42.152C193.031 41.128 192.754 40.3813 192.199 39.912C191.687 39.4 190.983 39.0587 190.087 38.888C189.234 38.6747 188.295 38.568 187.271 38.568C185.01 38.568 183.239 39.0373 181.959 39.976C180.722 40.9146 179.847 42.216 179.335 43.88C178.823 45.544 178.567 47.4 178.567 49.448C178.567 52.5627 179.25 55.0587 180.615 56.936C181.981 58.7707 183.943 59.688 186.503 59.688C187.655 59.688 188.786 59.56 189.895 59.304C190.654 59.1074 191.366 58.8554 192.031 58.5479C192.078 58.5266 192.124 58.5049 192.17 58.483ZM189.657 58.3326C188.627 58.5694 187.576 58.688 186.503 58.688C184.218 58.688 182.573 57.8886 181.421 56.3432C180.218 54.687 179.567 52.4199 179.567 49.448C179.567 47.4826 179.813 45.7277 180.291 44.1741C180.749 42.6879 181.51 41.5741 182.558 40.7775C183.607 40.0109 185.14 39.568 187.271 39.568C188.227 39.568 189.083 39.6675 189.845 39.8581L189.872 39.865L189.9 39.8703C190.651 40.0132 191.155 40.2818 191.492 40.6191L191.522 40.6485L191.554 40.6754C191.803 40.8864 192.031 41.2969 192.031 42.152V57.435C191.311 57.8077 190.521 58.1078 189.657 58.3326ZM215.019 64.9215L215.007 64.915C212.44 63.4936 210.448 61.4277 209.038 58.7451C207.624 56.0534 206.939 52.8563 206.939 49.192C206.939 43.4132 208.318 38.8459 211.233 35.6537C214.193 32.4166 218.305 30.848 223.427 30.848C227.105 30.848 230.167 31.6449 232.52 33.3375C234.886 35.009 236.579 37.3867 237.618 40.4106C238.692 43.3668 239.191 46.8604 239.147 50.8669L239.137 51.856H217.28C217.613 53.5135 218.238 54.8223 219.118 55.8224C220.444 57.2888 222.536 58.112 225.603 58.112C226.857 58.112 228.041 57.9912 229.157 57.7528C230.357 57.463 231.443 57.134 232.42 56.7677L232.433 56.763C233.481 56.3858 234.346 56.0349 235.034 55.7112L236.459 55.0402V64.4434L235.853 64.7031C234.288 65.3738 232.518 65.9034 230.548 66.298C228.585 66.7429 226.358 66.96 223.875 66.96C220.54 66.96 217.578 66.2922 215.019 64.9215ZM230.339 65.32C232.259 64.936 233.966 64.424 235.459 63.784V56.616C235.156 56.7588 234.823 56.9053 234.459 57.0556C233.955 57.2645 233.392 57.4806 232.771 57.704C231.747 58.088 230.617 58.4293 229.379 58.728C228.185 58.984 226.926 59.112 225.603 59.112C222.361 59.112 219.95 58.2373 218.371 56.488C217.315 55.2882 216.611 53.7442 216.262 51.856C216.202 51.5327 216.153 51.1994 216.114 50.856H238.147C238.151 50.542 238.151 50.2315 238.147 49.9246C238.147 49.9017 238.147 49.8788 238.147 49.856C238.102 46.3552 237.611 43.3179 236.675 40.744C235.694 37.8853 234.115 35.688 231.939 34.152C229.806 32.616 226.969 31.848 223.427 31.848C218.521 31.848 214.702 33.3413 211.971 36.328C209.283 39.272 207.939 43.56 207.939 49.192C207.939 52.7333 208.601 55.7626 209.923 58.28C211.246 60.7973 213.102 62.7173 215.491 64.04C217.881 65.32 220.675 65.96 223.875 65.96C226.307 65.96 228.462 65.7467 230.339 65.32ZM229.85 44.352C229.559 42.6551 229.06 41.3457 228.355 40.424C227.289 38.9306 225.561 38.184 223.171 38.184C221.721 38.184 220.441 38.5253 219.331 39.208C218.265 39.848 217.433 40.936 216.835 42.472C216.636 43.0242 216.473 43.6509 216.345 44.352C216.287 44.67 216.236 45.0033 216.193 45.352H229.993C229.952 45.0049 229.905 44.6716 229.85 44.352ZM228.834 44.352C228.559 42.853 228.121 41.763 227.561 41.0314L227.551 41.0185L227.542 41.0052C226.718 39.8515 225.345 39.184 223.171 39.184C221.884 39.184 220.79 39.4847 219.856 40.0596L219.846 40.0655C219.026 40.5577 218.315 41.4331 217.772 42.8227C217.612 43.2692 217.474 43.7783 217.362 44.352H228.834ZM265.265 64.6353L265.255 64.6288C263.83 63.7265 262.693 62.5147 261.846 61.0102L261.837 60.9943L261.829 60.9779C261.011 59.3904 260.63 57.473 260.63 55.272C260.63 52.962 261.106 50.941 262.113 49.2589C263.119 47.5371 264.581 46.2499 266.463 45.402C268.377 44.5164 270.661 44.096 273.278 44.096C274.873 44.096 276.372 44.2505 277.771 44.5651C279.126 44.8284 280.369 45.2019 281.494 45.691V44.712C281.494 42.8415 280.915 41.6817 279.931 40.9835L279.923 40.9774L279.914 40.9711C278.826 40.1637 277.21 39.696 274.942 39.696C273.225 39.696 271.455 39.9952 269.626 40.6047L269.617 40.6078L269.607 40.6108C267.775 41.1808 266.343 41.9179 265.273 42.7967L263.638 44.1395V34.1119L264.105 33.8177C265.393 33.0068 267.244 32.336 269.588 31.7718C271.977 31.1966 274.531 30.912 277.246 30.912C278.419 30.912 279.65 31.0248 280.936 31.2465C282.243 31.4719 283.488 31.8333 284.669 32.3323C285.926 32.845 287.066 33.5664 288.085 34.4915C289.145 35.4095 289.972 36.5781 290.577 37.9718C291.203 39.3711 291.494 41.0323 291.494 42.92V58.216C291.494 60.4536 290.769 62.3219 289.243 63.6953L289.236 63.7015L289.229 63.7077C287.777 64.9656 285.827 65.7885 283.456 66.237C281.112 66.7226 278.377 66.96 275.262 66.96C273.406 66.96 271.63 66.7832 269.936 66.4265C268.218 66.0648 266.661 65.4726 265.276 64.6415L265.265 64.6353ZM289.662 38.376C289.107 37.096 288.361 36.0507 287.422 35.24C286.483 34.3867 285.438 33.7253 284.286 33.256C283.177 32.7866 282.003 32.4453 280.766 32.232C279.529 32.0187 278.355 31.912 277.246 31.912C274.601 31.912 272.126 32.1893 269.822 32.744C267.518 33.2987 265.79 33.9387 264.638 34.664V42.024C264.947 41.7701 265.28 41.5291 265.638 41.3009C266.663 40.6471 267.887 40.0988 269.31 39.656C271.23 39.016 273.107 38.696 274.942 38.696C277.331 38.696 279.187 39.1866 280.51 40.168C281.833 41.1067 282.494 42.6213 282.494 44.712V47.3032C282.184 47.1263 281.851 46.9545 281.494 46.7879C281.382 46.7354 281.267 46.6835 281.15 46.632C280.083 46.1627 278.889 45.8 277.566 45.544C276.243 45.2453 274.814 45.096 273.278 45.096C270.761 45.096 268.627 45.5013 266.878 46.312C265.171 47.08 263.87 48.232 262.974 49.768C262.078 51.2613 261.63 53.096 261.63 55.272C261.63 57.3627 261.993 59.112 262.718 60.52C263.486 61.8853 264.51 62.9733 265.79 63.784C267.07 64.552 268.521 65.1067 270.142 65.448C271.763 65.7893 273.47 65.96 275.262 65.96C278.334 65.96 281.001 65.7253 283.262 65.256C285.523 64.8293 287.294 64.0613 288.574 62.952C289.854 61.8 290.494 60.2213 290.494 58.216V42.92C290.494 41.128 290.217 39.6133 289.662 38.376ZM282.494 51.7873C282.178 51.6699 281.845 51.5613 281.494 51.4616C281.299 51.4063 281.099 51.3538 280.894 51.304C279.529 50.92 278.035 50.728 276.414 50.728C274.153 50.728 272.467 51.0907 271.358 51.816C270.249 52.5413 269.694 53.672 269.694 55.208C269.694 56.2747 269.993 57.1707 270.59 57.896C271.187 58.5787 271.955 59.112 272.894 59.496C273.833 59.8373 274.814 60.008 275.838 60.008C278.185 60.008 279.87 59.8587 280.894 59.56C281.961 59.2187 282.494 58.5147 282.494 57.448V51.7873ZM280.601 58.6037C280.983 58.4795 281.185 58.3193 281.297 58.1721C281.406 58.0277 281.494 57.8098 281.494 57.448V52.5042C281.23 52.423 280.951 52.3468 280.658 52.2758L280.641 52.2716L280.623 52.2666C279.358 51.9107 277.957 51.728 276.414 51.728C274.225 51.728 272.773 52.0853 271.905 52.653C271.127 53.1618 270.694 53.947 270.694 55.208C270.694 56.0696 270.928 56.7284 271.353 57.2489C271.831 57.7921 272.457 58.2338 273.254 58.563C274.075 58.8589 274.934 59.008 275.838 59.008C278.164 59.008 279.722 58.8572 280.601 58.6037ZM298.48 34.8006L299.05 34.5291C299.989 34.0822 301.092 33.6419 302.354 33.2066C303.633 32.7656 305.014 32.393 306.497 32.0873C307.975 31.74 309.454 31.4789 310.935 31.3043C312.464 31.0863 313.916 30.976 315.288 30.976C318.35 30.976 320.962 31.3896 323.082 32.2628C325.27 33.1035 326.947 34.478 328.051 36.3921C329.198 38.2627 329.728 40.6568 329.728 43.496V66H319.664V44.904C319.664 44.1819 319.569 43.5095 319.385 42.8821L319.383 42.8749L319.38 42.8676C319.207 42.2439 318.919 41.7256 318.521 41.2943L318.509 41.2807L318.497 41.2668C318.124 40.8323 317.586 40.4736 316.828 40.2207L316.808 40.214L316.788 40.2065C316.046 39.9237 315.026 39.76 313.688 39.76C312.688 39.76 311.664 39.8599 310.613 40.062C309.842 40.2103 309.176 40.3876 308.608 40.5897V66H298.48V34.8006ZM307.608 39.912C308.376 39.5707 309.315 39.2933 310.424 39.08C311.533 38.8666 312.621 38.76 313.688 38.76C315.096 38.76 316.248 38.9306 317.144 39.272C318.04 39.5707 318.744 40.0187 319.256 40.616C319.768 41.1707 320.131 41.832 320.344 42.6C320.557 43.3253 320.664 44.0933 320.664 44.904V65H328.728V43.496C328.728 40.7653 328.216 38.568 327.192 36.904C326.211 35.1973 324.717 33.96 322.712 33.192C320.749 32.3813 318.275 31.976 315.288 31.976C313.965 31.976 312.557 32.0826 311.064 32.296C309.613 32.4667 308.163 32.7227 306.712 33.064C305.261 33.3626 303.917 33.7253 302.68 34.152C301.443 34.5786 300.376 35.0053 299.48 35.432V65H307.608V39.912ZM339.807 78.2063L339.798 78.2046C338.884 78.0217 338.058 77.7653 337.331 77.4262L336.754 77.1568V68.381L338.09 68.8582C338.635 69.0529 339.15 69.1851 339.634 69.2596L339.671 69.2653L339.707 69.2736C340.184 69.3838 340.685 69.44 341.21 69.44C342.232 69.44 343.016 69.1873 343.625 68.7389L343.639 68.7286L343.653 68.7187C344.265 68.3004 344.847 67.5775 345.353 66.4469L345.359 66.434L345.365 66.4212C345.599 65.9378 345.814 65.3937 346.01 64.787L332.555 31.744H343.97L351.092 52.3435L358.16 31.744H368.91L355.39 66.6412C354.261 69.5523 353.023 71.8922 351.659 73.6196C350.315 75.3214 348.861 76.587 347.283 77.3534C345.798 78.0952 344.282 78.48 342.746 78.48C341.746 78.48 340.766 78.3891 339.807 78.2063ZM351.096 55.4143L343.258 32.744H334.042L347.071 64.7419C346.978 65.0537 346.879 65.3528 346.775 65.6391C346.71 65.8201 346.642 65.996 346.572 66.1669C346.474 66.4066 346.372 66.6364 346.266 66.856C345.711 68.0933 345.029 68.9893 344.218 69.544C343.407 70.1413 342.405 70.44 341.21 70.44C340.613 70.44 340.037 70.376 339.482 70.248C339.243 70.2113 339.001 70.1627 338.754 70.1022C338.428 70.0223 338.094 69.9215 337.754 69.8V76.52C338.394 76.8186 339.141 77.0533 339.994 77.224C340.89 77.3947 341.807 77.48 342.746 77.48C344.111 77.48 345.477 77.1386 346.842 76.456C348.25 75.7733 349.594 74.6213 350.874 73C352.154 71.3787 353.349 69.1386 354.458 66.28L367.45 32.744H358.874L351.096 55.4143ZM395.724 64.3254L395.714 64.3166C393.713 62.413 392.78 59.7289 392.78 56.424V40.144H387.788V31.744H392.78V22.848H403.164V31.744H410.651V40.144H403.164V55.144C403.164 56.3692 403.406 57.0806 403.712 57.4633C403.948 57.7582 404.471 58.048 405.62 58.048C406.192 58.048 406.795 57.9594 407.432 57.7736C408.133 57.5389 408.681 57.277 409.097 56.9999L410.651 55.9635V65.49L410.099 65.7664C409.15 66.241 408.116 66.5682 407.003 66.7539C405.973 66.9329 404.978 67.024 404.02 67.024C400.54 67.024 397.72 66.1758 395.724 64.3254ZM407.732 58.728C407.006 58.9413 406.302 59.048 405.62 59.048C404.34 59.048 403.444 58.728 402.931 58.088C402.419 57.448 402.164 56.4667 402.164 55.144V39.144H409.651V32.744H402.164V23.848H393.78V32.744H388.788V39.144H393.78V56.424C393.78 59.5387 394.654 61.928 396.404 63.592C398.153 65.2133 400.691 66.024 404.02 66.024C404.915 66.024 405.854 65.9387 406.836 65.768C407.859 65.5973 408.798 65.2987 409.651 64.872V57.832C409.36 58.0265 409.026 58.2072 408.651 58.374C408.368 58.4999 408.062 58.6179 407.732 58.728ZM419.203 64.6353L419.192 64.6288C417.768 63.7265 416.63 62.5147 415.784 61.0102L415.775 60.9943L415.767 60.9779C414.949 59.3904 414.568 57.473 414.568 55.272C414.568 52.962 415.043 50.941 416.051 49.2589C417.057 47.5371 418.519 46.2499 420.401 45.402C422.315 44.5164 424.598 44.096 427.216 44.096C428.81 44.096 430.309 44.2505 431.709 44.5651C433.064 44.8284 434.307 45.2019 435.431 45.691V44.712C435.431 42.8415 434.853 41.6817 433.869 40.9835L433.86 40.9774L433.852 40.9711C432.763 40.1637 431.147 39.696 428.88 39.696C427.163 39.696 425.392 39.9952 423.564 40.6047L423.554 40.6078L423.545 40.6108C421.713 41.1808 420.28 41.9179 419.21 42.7967L417.576 44.1395V34.1119L418.043 33.8177C419.331 33.0068 421.182 32.336 423.525 31.7718C425.914 31.1966 428.468 30.912 431.184 30.912C432.357 30.912 433.587 31.0248 434.873 31.2465C436.181 31.4719 437.426 31.8333 438.607 32.3323C439.863 32.845 441.003 33.5664 442.023 34.4915C443.083 35.4095 443.909 36.5781 444.514 37.9718C445.14 39.3711 445.431 41.0323 445.431 42.92V58.216C445.431 60.4536 444.706 62.3219 443.18 63.6953L443.173 63.7015L443.166 63.7077C441.715 64.9656 439.765 65.7885 437.394 66.237C435.05 66.7226 432.315 66.96 429.199 66.96C427.344 66.96 425.568 66.7832 423.874 66.4265C422.155 66.0648 420.598 65.4726 419.213 64.6415L419.203 64.6353ZM443.599 38.376C443.045 37.096 442.298 36.0507 441.359 35.24C440.421 34.3867 439.375 33.7253 438.224 33.256C437.114 32.7866 435.941 32.4453 434.703 32.232C433.466 32.0187 432.293 31.912 431.184 31.912C428.538 31.912 426.064 32.1893 423.759 32.744C421.456 33.2987 419.728 33.9387 418.576 34.664V42.024C418.885 41.7701 419.218 41.5291 419.576 41.3009C420.6 40.6471 421.824 40.0988 423.247 39.656C425.168 39.016 427.045 38.696 428.88 38.696C431.269 38.696 433.125 39.1866 434.448 40.168C435.77 41.1067 436.431 42.6213 436.431 44.712V47.3032C436.121 47.1263 435.788 46.9545 435.431 46.7879C435.319 46.7354 435.204 46.6835 435.087 46.632C434.021 46.1627 432.826 45.8 431.504 45.544C430.181 45.2453 428.751 45.096 427.216 45.096C424.698 45.096 422.565 45.5013 420.815 46.312C419.109 47.08 417.807 48.232 416.911 49.768C416.016 51.2613 415.568 53.096 415.568 55.272C415.568 57.3627 415.93 59.112 416.655 60.52C417.423 61.8853 418.448 62.9733 419.728 63.784C421.008 64.552 422.458 65.1067 424.079 65.448C425.701 65.7893 427.408 65.96 429.199 65.96C432.272 65.96 434.938 65.7253 437.199 65.256C439.461 64.8293 441.232 64.0613 442.512 62.952C443.792 61.8 444.431 60.2213 444.431 58.216V42.92C444.431 41.128 444.154 39.6133 443.599 38.376ZM436.431 51.7873C436.116 51.6699 435.783 51.5613 435.431 51.4616C435.237 51.4063 435.037 51.3538 434.832 51.304C433.466 50.92 431.973 50.728 430.352 50.728C428.09 50.728 426.405 51.0907 425.296 51.816C424.186 52.5413 423.632 53.672 423.632 55.208C423.632 56.2747 423.93 57.1707 424.527 57.896C425.125 58.5787 425.893 59.112 426.832 59.496C427.77 59.8373 428.751 60.008 429.776 60.008C432.122 60.008 433.807 59.8587 434.832 59.56C435.898 59.2187 436.431 58.5147 436.431 57.448V51.7873ZM434.539 58.6037C434.921 58.4795 435.123 58.3193 435.234 58.1721C435.344 58.0277 435.431 57.8098 435.431 57.448V52.5042C435.167 52.423 434.889 52.3468 434.596 52.2758L434.578 52.2716L434.561 52.2666C433.295 51.9107 431.894 51.728 430.352 51.728C428.163 51.728 426.711 52.0853 425.843 52.653C425.065 53.1618 424.632 53.947 424.632 55.208C424.632 56.0696 424.866 56.7284 425.29 57.2489C425.769 57.7921 426.394 58.2338 427.192 58.563C428.013 58.8589 428.872 59.008 429.776 59.008C432.102 59.008 433.659 58.8572 434.539 58.6037ZM473.98 40.9118C472.839 40.314 471.724 39.7674 470.634 39.272C469.225 38.5893 467.625 38.248 465.833 38.248C464.169 38.248 462.868 38.5466 461.93 39.144C461.034 39.6987 460.586 40.488 460.586 41.512C460.586 42.408 460.863 43.1333 461.418 43.688C461.972 44.2426 462.698 44.6693 463.594 44.968C464.49 45.2667 465.471 45.5653 466.538 45.864C467.604 46.1627 468.714 46.504 469.866 46.888C471.017 47.2293 472.084 47.7413 473.065 48.424C474.047 49.1067 474.836 50.024 475.434 51.176C476.073 52.2853 476.393 53.7787 476.393 55.656C476.351 58.1306 475.69 60.136 474.41 61.672C473.13 63.1653 471.444 64.2533 469.354 64.936C467.306 65.6187 465.151 65.96 462.889 65.96C460.586 65.96 458.623 65.704 457.001 65.192C455.38 64.7227 453.823 64.1467 452.329 63.464V56.168C452.658 56.3823 452.991 56.5941 453.329 56.8036C454.001 57.2199 454.692 57.6266 455.401 58.024C456.511 58.5787 457.684 59.0266 458.922 59.368C460.202 59.7093 461.567 59.88 463.017 59.88C464.724 59.88 465.983 59.56 466.793 58.92C467.647 58.2373 468.073 57.4267 468.073 56.488C468.073 55.592 467.754 54.9093 467.113 54.44C466.474 53.928 465.642 53.5013 464.617 53.16C463.594 52.8186 462.505 52.4773 461.354 52.136C460.287 51.88 459.199 51.5387 458.09 51.112C457.023 50.6853 456.042 50.1093 455.146 49.384C454.25 48.6586 453.524 47.7413 452.97 46.632C452.457 45.48 452.202 44.0933 452.202 42.472C452.202 40.552 452.586 38.9306 453.354 37.608C454.121 36.2853 455.124 35.2187 456.362 34.408C457.599 33.5973 458.964 33.0213 460.457 32.68C461.951 32.296 463.401 32.104 464.81 32.104C467.241 32.1893 469.204 32.488 470.698 33C472.191 33.4693 473.599 34.088 474.922 34.856L474.986 41.448C474.648 41.2649 474.313 41.0862 473.98 40.9118ZM471.01 32.0498C472.567 32.5403 474.039 33.1873 475.424 33.9912L475.916 34.277L476.002 43.1376L474.508 42.3268C473.034 41.5263 471.604 40.8117 470.22 40.1824L470.208 40.1772L470.197 40.1718C468.944 39.564 467.496 39.248 465.833 39.248C464.272 39.248 463.184 39.5312 462.466 39.9876L462.456 39.9943C461.844 40.3731 461.586 40.8464 461.586 41.512C461.586 42.1838 461.785 42.6409 462.125 42.9809C462.549 43.4056 463.131 43.7598 463.91 44.0193C464.788 44.312 465.754 44.606 466.807 44.901C467.886 45.2031 469.006 45.5475 470.166 45.9341C471.414 46.3056 472.572 46.8623 473.637 47.6031C474.757 48.3823 475.647 49.4216 476.311 50.6962C477.062 52.0093 477.393 53.6895 477.393 55.656V55.6646L477.393 55.6732C477.348 58.3202 476.636 60.5625 475.178 62.3122L475.169 62.3228C473.756 63.9705 471.909 65.1529 469.667 65.8856C467.513 66.6032 465.252 66.96 462.889 66.96C460.522 66.96 458.456 66.6982 456.712 66.1492C455.049 65.6672 453.449 65.0755 451.914 64.3735L451.329 64.1064V54.3219L452.876 55.3304C453.831 55.9535 454.829 56.5567 455.869 57.1399C456.911 57.6592 458.016 58.0805 459.183 58.4029C460.371 58.719 461.647 58.88 463.017 58.88C464.631 58.88 465.618 58.5717 466.171 58.1377C466.829 57.6103 467.073 57.0705 467.073 56.488C467.073 55.8633 466.869 55.501 466.522 55.2464L466.505 55.234L466.489 55.2209C465.965 54.8018 465.247 54.4239 464.301 54.1087C463.296 53.7737 462.227 53.4382 461.094 53.1021C459.99 52.8358 458.869 52.483 457.731 52.0453L457.718 52.0405C456.558 51.5765 455.49 50.9494 454.516 50.1612C453.501 49.3394 452.689 48.3064 452.075 47.0792L452.065 47.0589L452.056 47.0381C451.473 45.7273 451.202 44.1948 451.202 42.472C451.202 40.4201 451.612 38.6154 452.489 37.1058C453.332 35.6533 454.441 34.4704 455.813 33.5715C457.15 32.6959 458.622 32.0753 460.222 31.7081C461.784 31.3074 463.314 31.104 464.81 31.104H464.827L464.845 31.1046C467.322 31.1915 469.389 31.4962 471.01 32.0498ZM491.823 44.7866L502.546 32.744H512.466L498.5 46.7593L513.682 65H503.378L491.814 51.0897L491.794 65H483.73V20.584H491.858L491.823 44.7866ZM492.81 53.8521L492.793 66H482.73V19.584H492.859L492.827 42.1555L502.097 31.744H514.874L499.851 46.8199L515.815 66H502.909L492.81 53.8521ZM540.543 40.9118C539.402 40.314 538.286 39.7674 537.196 39.272C535.788 38.5893 534.188 38.248 532.396 38.248C530.732 38.248 529.431 38.5466 528.492 39.144C527.596 39.6987 527.148 40.488 527.148 41.512C527.148 42.408 527.425 43.1333 527.98 43.688C528.535 44.2426 529.26 44.6693 530.156 44.968C531.052 45.2667 532.033 45.5653 533.1 45.864C534.167 46.1627 535.276 46.504 536.428 46.888C537.58 47.2293 538.647 47.7413 539.628 48.424C540.609 49.1067 541.399 50.024 541.996 51.176C542.636 52.2853 542.956 53.7787 542.956 55.656C542.913 58.1306 542.252 60.136 540.972 61.672C539.692 63.1653 538.007 64.2533 535.916 64.936C533.868 65.6187 531.713 65.96 529.452 65.96C527.148 65.96 525.185 65.704 523.564 65.192C521.943 64.7227 520.385 64.1467 518.892 63.464V56.168C519.221 56.3823 519.554 56.5941 519.892 56.8036C520.564 57.2199 521.254 57.6266 521.964 58.024C523.073 58.5787 524.247 59.0266 525.484 59.368C526.764 59.7093 528.129 59.88 529.58 59.88C531.287 59.88 532.545 59.56 533.356 58.92C534.209 58.2373 534.636 57.4267 534.636 56.488C534.636 55.592 534.316 54.9093 533.676 54.44C533.036 53.928 532.204 53.5013 531.18 53.16C530.156 52.8186 529.068 52.4773 527.916 52.136C526.849 51.88 525.761 51.5387 524.652 51.112C523.585 50.6853 522.604 50.1093 521.708 49.384C520.812 48.6586 520.087 47.7413 519.532 46.632C519.02 45.48 518.764 44.0933 518.764 42.472C518.764 40.552 519.148 38.9306 519.916 37.608C520.684 36.2853 521.687 35.2187 522.924 34.408C524.161 33.5973 525.527 33.0213 527.02 32.68C528.513 32.296 529.964 32.104 531.372 32.104C533.804 32.1893 535.767 32.488 537.26 33C538.753 33.4693 540.161 34.088 541.484 34.856L541.548 41.448C541.211 41.2649 540.876 41.0862 540.543 40.9118ZM537.573 32.05C539.13 32.5405 540.602 33.1873 541.986 33.9912L542.478 34.277L542.564 43.1376L541.071 42.3268C539.596 41.5263 538.167 40.8117 536.782 40.1824L536.771 40.1772L536.76 40.1718C535.506 39.564 534.059 39.248 532.396 39.248C530.834 39.248 529.746 39.5312 529.029 39.9876L529.018 39.9943C528.406 40.3731 528.148 40.8464 528.148 41.512C528.148 42.1838 528.347 42.6409 528.687 42.9809C529.112 43.4056 529.694 43.7598 530.472 44.0193C531.35 44.312 532.316 44.606 533.37 44.901C534.448 45.2031 535.568 45.5475 536.728 45.934C537.976 46.3055 539.134 46.8623 540.199 47.6031C541.319 48.3822 542.209 49.4213 542.873 50.6957C543.625 52.0088 543.956 53.6892 543.956 55.656V55.6646L543.956 55.6732C543.91 58.3202 543.198 60.5625 541.74 62.3122L541.731 62.3228C540.319 63.9702 538.473 65.1523 536.231 65.8851C536.231 65.8849 536.232 65.8848 536.232 65.8847M537.573 32.05C535.952 31.4962 533.884 31.1915 531.407 31.1046L531.39 31.104H531.372C529.876 31.104 528.346 31.3074 526.784 31.7082C525.184 32.0754 523.712 32.6959 522.376 33.5715C521.004 34.4704 519.895 35.6533 519.051 37.1058C518.175 38.6154 517.764 40.4201 517.764 42.472C517.764 44.1948 518.036 45.7273 518.618 47.0381L518.627 47.0589L518.638 47.0792C519.251 48.3064 520.064 49.3394 521.079 50.1612C522.052 50.9494 523.121 51.5765 524.281 52.0405L524.293 52.0453C525.431 52.483 526.552 52.8358 527.657 53.1021C528.79 53.4382 529.859 53.7737 530.864 54.1087C531.809 54.4239 532.527 54.8018 533.051 55.2209L533.068 55.234L533.085 55.2464C533.432 55.501 533.636 55.8633 533.636 56.488C533.636 57.0695 533.392 57.6085 532.736 58.1351C532.185 58.5705 531.197 58.88 529.58 58.88C528.21 58.88 526.933 58.719 525.746 58.403C524.578 58.0806 523.474 57.6593 522.432 57.1399C521.391 56.5567 520.394 55.9535 519.438 55.3304L517.892 54.3219V64.1064L518.476 64.3735C520.012 65.0755 521.611 65.6672 523.274 66.1492C525.018 66.6982 527.085 66.96 529.452 66.96C531.815 66.96 534.077 66.603 536.231 65.8851" fill="#F8F8F8"/>
<path d="M4.8 62V19.312H13.76L28.736 40.816L23.808 41.2L39.488 19.312H48.192V62H39.552V26.224L41.536 28.528L26.112 49.456L11.136 28.464L13.184 26.672V62H4.8ZM69.512 62.96C67.72 62.96 66.0133 62.7893 64.392 62.448C62.7707 62.1067 61.32 61.552 60.04 60.784C58.76 59.9733 57.736 58.8853 56.968 57.52C56.2427 56.112 55.88 54.3627 55.88 52.272C55.88 50.096 56.328 48.2613 57.224 46.768C58.12 45.232 59.4213 44.08 61.128 43.312C62.8773 42.5013 65.0107 42.096 67.528 42.096C69.064 42.096 70.4933 42.2453 71.816 42.544C73.1387 42.8 74.3333 43.1627 75.4 43.632C76.4667 44.1013 77.3413 44.6133 78.024 45.168L78.6 49.712C77.704 49.1147 76.552 48.6453 75.144 48.304C73.7787 47.92 72.2853 47.728 70.664 47.728C68.4027 47.728 66.7173 48.0907 65.608 48.816C64.4987 49.5413 63.944 50.672 63.944 52.208C63.944 53.2747 64.2427 54.1707 64.84 54.896C65.4373 55.5787 66.2053 56.112 67.144 56.496C68.0827 56.8373 69.064 57.008 70.088 57.008C72.4347 57.008 74.12 56.8587 75.144 56.56C76.2107 56.2187 76.744 55.5147 76.744 54.448V41.712C76.744 39.6213 76.0827 38.1067 74.76 37.168C73.4373 36.1867 71.5813 35.696 69.192 35.696C67.3573 35.696 65.48 36.016 63.56 36.656C61.64 37.2533 60.0827 38.0427 58.888 39.024V31.664C60.04 30.9387 61.768 30.2987 64.072 29.744C66.376 29.1893 68.8507 28.912 71.496 28.912C72.6053 28.912 73.7787 29.0187 75.016 29.232C76.2533 29.4453 77.4267 29.7867 78.536 30.256C79.688 30.7253 80.7333 31.3867 81.672 32.24C82.6107 33.0507 83.3573 34.096 83.912 35.376C84.4667 36.6133 84.744 38.128 84.744 39.92V55.216C84.744 57.2213 84.104 58.8 82.824 59.952C81.544 61.0613 79.7733 61.8293 77.512 62.256C75.2507 62.7253 72.584 62.96 69.512 62.96ZM93.73 32.432C94.626 32.0053 95.6927 31.5787 96.93 31.152C98.1673 30.7253 99.5113 30.3627 100.962 30.064C102.413 29.7227 103.863 29.4667 105.314 29.296C106.807 29.0827 108.215 28.976 109.538 28.976C112.525 28.976 114.999 29.3813 116.962 30.192C118.967 30.96 120.461 32.1973 121.442 33.904C122.466 35.568 122.978 37.7653 122.978 40.496V62H114.914V41.904C114.914 41.0933 114.807 40.3253 114.594 39.6C114.381 38.832 114.018 38.1707 113.506 37.616C112.994 37.0187 112.29 36.5707 111.394 36.272C110.498 35.9307 109.346 35.76 107.938 35.76C106.871 35.76 105.783 35.8667 104.674 36.08C103.565 36.2933 102.626 36.5707 101.858 36.912V62H93.73V32.432ZM143.95 62.96C142.158 62.96 140.451 62.7893 138.83 62.448C137.208 62.1067 135.758 61.552 134.478 60.784C133.198 59.9733 132.174 58.8853 131.406 57.52C130.68 56.112 130.318 54.3627 130.318 52.272C130.318 50.096 130.766 48.2613 131.661 46.768C132.558 45.232 133.859 44.08 135.566 43.312C137.315 42.5013 139.448 42.096 141.966 42.096C143.502 42.096 144.931 42.2453 146.253 42.544C147.576 42.8 148.771 43.1627 149.838 43.632C150.904 44.1013 151.779 44.6133 152.462 45.168L153.038 49.712C152.142 49.1147 150.99 48.6453 149.582 48.304C148.216 47.92 146.723 47.728 145.102 47.728C142.84 47.728 141.155 48.0907 140.046 48.816C138.936 49.5413 138.382 50.672 138.382 52.208C138.382 53.2747 138.68 54.1707 139.278 54.896C139.875 55.5787 140.643 56.112 141.582 56.496C142.52 56.8373 143.502 57.008 144.526 57.008C146.872 57.008 148.558 56.8587 149.582 56.56C150.648 56.2187 151.182 55.5147 151.182 54.448V41.712C151.182 39.6213 150.52 38.1067 149.198 37.168C147.875 36.1867 146.019 35.696 143.63 35.696C141.795 35.696 139.918 36.016 137.998 36.656C136.078 37.2533 134.52 38.0427 133.326 39.024V31.664C134.478 30.9387 136.206 30.2987 138.51 29.744C140.814 29.1893 143.288 28.912 145.934 28.912C147.043 28.912 148.216 29.0187 149.454 29.232C150.691 29.4453 151.864 29.7867 152.974 30.256C154.126 30.7253 155.171 31.3867 156.11 32.24C157.048 33.0507 157.795 34.096 158.35 35.376C158.904 36.6133 159.182 38.128 159.182 39.92V55.216C159.182 57.2213 158.542 58.8 157.262 59.952C155.982 61.0613 154.211 61.8293 151.95 62.256C149.688 62.7253 147.022 62.96 143.95 62.96ZM180.776 62.96C177.746 62.8747 175.165 62.2133 173.032 60.976C170.898 59.7387 169.256 57.9467 168.104 55.6C166.994 53.2107 166.44 50.288 166.44 46.832C166.44 43.2053 166.888 40.24 167.784 37.936C168.68 35.5893 169.917 33.776 171.496 32.496C173.117 31.1733 174.994 30.256 177.128 29.744C179.304 29.232 181.608 28.976 184.04 28.976C186.557 28.976 188.776 29.296 190.696 29.936C192.658 30.576 194.194 31.5147 195.304 32.752C196.456 33.9893 197.032 35.568 197.032 37.488V62.704C197.032 64.6667 196.712 66.4373 196.072 68.016C195.432 69.6373 194.45 71.024 193.128 72.176C191.848 73.328 190.226 74.2027 188.264 74.8C186.301 75.44 183.954 75.76 181.224 75.76C178.706 75.76 176.509 75.568 174.632 75.184C172.754 74.8 171.261 74.3733 170.152 73.904V66.672C170.792 66.928 171.666 67.2267 172.776 67.568C173.928 67.952 175.208 68.272 176.616 68.528C178.024 68.784 179.432 68.912 180.84 68.912C183.101 68.912 184.808 68.6133 185.96 68.016C187.154 67.4187 187.965 66.6293 188.392 65.648C188.818 64.6667 189.032 63.6 189.032 62.448V57.392L190.888 58.8C190.162 59.6107 189.266 60.336 188.2 60.976C187.176 61.5733 186.024 62.0427 184.744 62.384C183.506 62.768 182.184 62.96 180.776 62.96ZM182.503 56.688C183.656 56.688 184.786 56.56 185.896 56.304C187.048 56.0053 188.093 55.5787 189.032 55.024V39.152C189.032 38.128 188.754 37.3813 188.2 36.912C187.688 36.4 186.984 36.0587 186.088 35.888C185.234 35.6747 184.296 35.568 183.272 35.568C181.01 35.568 179.24 36.0373 177.96 36.976C176.722 37.9147 175.848 39.216 175.336 40.88C174.824 42.544 174.568 44.4 174.568 46.448C174.568 49.5627 175.25 52.0587 176.616 53.936C177.981 55.7707 179.944 56.688 182.503 56.688ZM219.876 62.96C216.676 62.96 213.881 62.32 211.492 61.04C209.102 59.7173 207.246 57.7973 205.924 55.28C204.601 52.7627 203.94 49.7333 203.94 46.192C203.94 40.56 205.284 36.272 207.972 33.328C210.702 30.3413 214.521 28.848 219.428 28.848C222.969 28.848 225.806 29.616 227.94 31.152C230.116 32.688 231.694 34.8853 232.676 37.744C233.7 40.56 234.19 43.9307 234.148 47.856H209.188L208.548 42.352H227.684L226.148 44.656C226.062 41.2853 225.465 38.8747 224.356 37.424C223.289 35.9307 221.561 35.184 219.172 35.184C217.721 35.184 216.441 35.5253 215.332 36.208C214.265 36.848 213.433 37.936 212.836 39.472C212.281 41.008 212.004 43.12 212.004 45.808C212.004 49.136 212.793 51.696 214.372 53.488C215.95 55.2373 218.361 56.112 221.604 56.112C222.926 56.112 224.185 55.984 225.38 55.728C226.617 55.4293 227.748 55.088 228.772 54.704C229.838 54.32 230.734 53.9573 231.46 53.616V60.784C229.966 61.424 228.26 61.936 226.34 62.32C224.462 62.7467 222.308 62.96 219.876 62.96ZM400.02 63.024C396.692 63.024 394.153 62.2133 392.404 60.592C390.654 58.928 389.78 56.5387 389.78 53.424V36.144H384.788V29.744H389.78V20.848H398.164V29.744H405.652V36.144H398.164V52.144C398.164 53.4667 398.42 54.448 398.932 55.088C399.444 55.728 400.34 56.048 401.62 56.048C402.302 56.048 403.006 55.9413 403.732 55.728C404.5 55.472 405.14 55.1733 405.652 54.832V61.872C404.798 62.2987 403.86 62.5973 402.836 62.768C401.854 62.9387 400.916 63.024 400.02 63.024ZM425.2 62.96C423.408 62.96 421.701 62.7893 420.08 62.448C418.458 62.1067 417.008 61.552 415.728 60.784C414.448 59.9733 413.424 58.8853 412.656 57.52C411.93 56.112 411.568 54.3627 411.568 52.272C411.568 50.096 412.016 48.2613 412.911 46.768C413.808 45.232 415.109 44.08 416.816 43.312C418.565 42.5013 420.698 42.096 423.216 42.096C424.752 42.096 426.181 42.2453 427.503 42.544C428.826 42.8 430.021 43.1627 431.088 43.632C432.154 44.1013 433.029 44.6133 433.712 45.168L434.288 49.712C433.392 49.1147 432.24 48.6453 430.832 48.304C429.466 47.92 427.973 47.728 426.352 47.728C424.09 47.728 422.405 48.0907 421.296 48.816C420.186 49.5413 419.632 50.672 419.632 52.208C419.632 53.2747 419.93 54.1707 420.528 54.896C421.125 55.5787 421.893 56.112 422.832 56.496C423.77 56.8373 424.752 57.008 425.776 57.008C428.122 57.008 429.808 56.8587 430.832 56.56C431.898 56.2187 432.432 55.5147 432.432 54.448V41.712C432.432 39.6213 431.77 38.1067 430.448 37.168C429.125 36.1867 427.269 35.696 424.88 35.696C423.045 35.696 421.168 36.016 419.248 36.656C417.328 37.2533 415.77 38.0427 414.576 39.024V31.664C415.728 30.9387 417.456 30.2987 419.76 29.744C422.064 29.1893 424.538 28.912 427.184 28.912C428.293 28.912 429.466 29.0187 430.704 29.232C431.941 29.4453 433.114 29.7867 434.224 30.256C435.376 30.7253 436.421 31.3867 437.36 32.24C438.298 33.0507 439.045 34.096 439.6 35.376C440.154 36.6133 440.432 38.128 440.432 39.92V55.216C440.432 57.2213 439.792 58.8 438.512 59.952C437.232 61.0613 435.461 61.8293 433.2 62.256C430.938 62.7253 428.272 62.96 425.2 62.96ZM458.89 62.96C456.586 62.96 454.623 62.704 453.002 62.192C451.38 61.7227 449.823 61.1467 448.33 60.464V53.168C449.311 53.808 450.335 54.4267 451.402 55.024C452.511 55.5787 453.684 56.0267 454.922 56.368C456.202 56.7093 457.567 56.88 459.018 56.88C460.724 56.88 461.983 56.56 462.794 55.92C463.647 55.2373 464.074 54.4267 464.074 53.488C464.074 52.592 463.754 51.9093 463.114 51.44C462.474 50.928 461.642 50.5013 460.618 50.16C459.594 49.8187 458.506 49.4773 457.354 49.136C456.287 48.88 455.199 48.5387 454.09 48.112C453.023 47.6853 452.042 47.1093 451.146 46.384C450.25 45.6587 449.524 44.7413 448.97 43.632C448.458 42.48 448.202 41.0933 448.202 39.472C448.202 37.552 448.586 35.9307 449.354 34.608C450.122 33.2853 451.124 32.2187 452.362 31.408C453.599 30.5973 454.964 30.0213 456.458 29.68C457.951 29.296 459.402 29.104 460.81 29.104C463.242 29.1893 465.204 29.488 466.698 30C468.191 30.4693 469.599 31.088 470.922 31.856L470.986 38.448C469.492 37.6373 468.042 36.912 466.634 36.272C465.226 35.5893 463.626 35.248 461.833 35.248C460.17 35.248 458.868 35.5467 457.93 36.144C457.034 36.6987 456.586 37.488 456.586 38.512C456.586 39.408 456.863 40.1333 457.418 40.688C457.972 41.2427 458.698 41.6693 459.594 41.968C460.49 42.2667 461.471 42.5653 462.538 42.864C463.604 43.1627 464.714 43.504 465.866 43.888C467.018 44.2293 468.084 44.7413 469.066 45.424C470.047 46.1067 470.836 47.024 471.434 48.176C472.074 49.2853 472.394 50.7787 472.394 52.656C472.351 55.1307 471.69 57.136 470.41 58.672C469.13 60.1653 467.444 61.2533 465.354 61.936C463.306 62.6187 461.151 62.96 458.89 62.96ZM486.066 43.76L498.546 29.744H508.466L490.226 48.048L486.066 43.76ZM487.794 62H479.73V17.584H487.858L487.794 62ZM491.89 40.624L509.682 62H499.378L486.13 46.064L491.89 40.624ZM525.452 62.96C523.148 62.96 521.185 62.704 519.564 62.192C517.943 61.7227 516.385 61.1467 514.892 60.464V53.168C515.873 53.808 516.897 54.4267 517.964 55.024C519.073 55.5787 520.247 56.0267 521.484 56.368C522.764 56.7093 524.129 56.88 525.58 56.88C527.287 56.88 528.545 56.56 529.356 55.92C530.209 55.2373 530.636 54.4267 530.636 53.488C530.636 52.592 530.316 51.9093 529.676 51.44C529.036 50.928 528.204 50.5013 527.18 50.16C526.156 49.8187 525.068 49.4773 523.916 49.136C522.849 48.88 521.761 48.5387 520.652 48.112C519.585 47.6853 518.604 47.1093 517.708 46.384C516.812 45.6587 516.087 44.7413 515.532 43.632C515.02 42.48 514.764 41.0933 514.764 39.472C514.764 37.552 515.148 35.9307 515.916 34.608C516.684 33.2853 517.687 32.2187 518.924 31.408C520.161 30.5973 521.527 30.0213 523.02 29.68C524.513 29.296 525.964 29.104 527.372 29.104C529.804 29.1893 531.767 29.488 533.26 30C534.753 30.4693 536.161 31.088 537.484 31.856L537.548 38.448C536.055 37.6373 534.604 36.912 533.196 36.272C531.788 35.5893 530.188 35.248 528.396 35.248C526.732 35.248 525.431 35.5467 524.492 36.144C523.596 36.6987 523.148 37.488 523.148 38.512C523.148 39.408 523.425 40.1333 523.98 40.688C524.535 41.2427 525.26 41.6693 526.156 41.968C527.052 42.2667 528.033 42.5653 529.1 42.864C530.167 43.1627 531.276 43.504 532.428 43.888C533.58 44.2293 534.647 44.7413 535.628 45.424C536.609 46.1067 537.399 47.024 537.996 48.176C538.636 49.2853 538.956 50.7787 538.956 52.656C538.913 55.1307 538.252 57.136 536.972 58.672C535.692 60.1653 534.007 61.2533 531.916 61.936C529.868 62.6187 527.713 62.96 525.452 62.96Z" fill="#371A45"/>
<path d="M271.262 62.96C269.47 62.96 267.763 62.7893 266.142 62.448C264.521 62.1067 263.07 61.552 261.79 60.784C260.51 59.9733 259.486 58.8853 258.718 57.52C257.993 56.112 257.63 54.3627 257.63 52.272C257.63 50.096 258.078 48.2613 258.974 46.768C259.87 45.232 261.171 44.08 262.878 43.312C264.627 42.5013 266.761 42.096 269.278 42.096C270.814 42.096 272.243 42.2453 273.566 42.544C274.889 42.8 276.083 43.1627 277.15 43.632C278.217 44.1013 279.091 44.6133 279.774 45.168L280.35 49.712C279.454 49.1147 278.302 48.6453 276.894 48.304C275.529 47.92 274.035 47.728 272.414 47.728C270.153 47.728 268.467 48.0907 267.358 48.816C266.249 49.5413 265.694 50.672 265.694 52.208C265.694 53.2747 265.993 54.1707 266.59 54.896C267.187 55.5787 267.955 56.112 268.894 56.496C269.833 56.8373 270.814 57.008 271.838 57.008C274.185 57.008 275.87 56.8587 276.894 56.56C277.961 56.2187 278.494 55.5147 278.494 54.448V41.712C278.494 39.6213 277.833 38.1067 276.51 37.168C275.187 36.1867 273.331 35.696 270.942 35.696C269.107 35.696 267.23 36.016 265.31 36.656C263.39 37.2533 261.833 38.0427 260.638 39.024V31.664C261.79 30.9387 263.518 30.2987 265.822 29.744C268.126 29.1893 270.601 28.912 273.246 28.912C274.355 28.912 275.529 29.0187 276.766 29.232C278.003 29.4453 279.177 29.7867 280.286 30.256C281.438 30.7253 282.483 31.3867 283.422 32.24C284.361 33.0507 285.107 34.096 285.662 35.376C286.217 36.6133 286.494 38.128 286.494 39.92V55.216C286.494 57.2213 285.854 58.8 284.574 59.952C283.294 61.0613 281.523 61.8293 279.262 62.256C277.001 62.7253 274.334 62.96 271.262 62.96ZM295.48 32.432C296.376 32.0053 297.443 31.5787 298.68 31.152C299.917 30.7253 301.261 30.3627 302.712 30.064C304.163 29.7227 305.613 29.4667 307.064 29.296C308.557 29.0827 309.965 28.976 311.288 28.976C314.275 28.976 316.749 29.3813 318.712 30.192C320.717 30.96 322.211 32.1973 323.192 33.904C324.216 35.568 324.728 37.7653 324.728 40.496V62H316.664V41.904C316.664 41.0933 316.557 40.3253 316.344 39.6C316.131 38.832 315.768 38.1707 315.256 37.616C314.744 37.0187 314.04 36.5707 313.144 36.272C312.248 35.9307 311.096 35.76 309.688 35.76C308.621 35.76 307.533 35.8667 306.424 36.08C305.315 36.2933 304.376 36.5707 303.608 36.912V62H295.48V32.432ZM338.746 74.48C337.807 74.48 336.89 74.3947 335.994 74.224C335.141 74.0533 334.394 73.8187 333.754 73.52V66.8C334.351 67.0133 334.927 67.1627 335.482 67.248C336.037 67.376 336.613 67.44 337.21 67.44C338.405 67.44 339.407 67.1413 340.218 66.544C341.029 65.9893 341.711 65.0933 342.266 63.856C342.863 62.6187 343.333 61.0613 343.674 59.184L343.802 63.536L330.042 29.744H339.258L347.578 53.808H346.618L354.874 29.744H363.45L350.458 63.28C349.349 66.1387 348.154 68.3787 346.874 70C345.594 71.6213 344.25 72.7733 342.842 73.456C341.477 74.1387 340.111 74.48 338.746 74.48Z" fill="#F8F8F8"/>
</svg>
