<svg width="102" height="38" viewBox="0 0 102 38" fill="none" xmlns="http://www.w3.org/2000/svg">
<g clip-path="url(#clip0_71_14)">
<path d="M24.5876 31.0604L29.0528 32.4116C28.813 33.5407 28.3148 34.6142 27.6321 35.5582C27.0047 36.3912 26.1744 37.039 25.2334 37.4647C24.2739 37.8904 23.0561 38.1125 21.58 38.1125C19.7902 38.1125 18.314 37.8534 17.1885 37.3351C16.0445 36.8169 15.0666 35.8914 14.2363 34.5772C13.4059 33.2631 13 31.5787 13 29.5241C13 26.7847 13.7196 24.6746 15.1773 23.2124C16.635 21.7501 18.6831 21.0098 21.3401 21.0098C23.4251 21.0098 25.0488 21.4355 26.2482 22.2684C27.4291 23.1198 28.3148 24.4155 28.9052 26.1554L24.403 27.1549C24.2923 26.7662 24.1263 26.3775 23.9049 26.0443C23.6281 25.6557 23.2775 25.3595 22.8531 25.1374C22.4287 24.9153 21.949 24.8227 21.4692 24.8227C20.3068 24.8227 19.4211 25.2855 18.8122 26.2294C18.3509 26.9143 18.1111 28.0064 18.1111 29.4871C18.1111 31.3196 18.3878 32.5782 18.9414 33.2631C19.4949 33.9479 20.2699 34.2811 21.2847 34.2811C22.2627 34.2811 23.0007 34.0034 23.4989 33.4667C23.9971 32.8929 24.3661 32.097 24.5876 31.0604ZM35.0127 21.2874H40.1053V27.0809H45.6776V21.2874H50.8072V37.8349H45.6776V31.1345H40.1053V37.8349H35.0127V21.2874Z" fill="#007FFF"/>
<path d="M88.9547 21.1748H94.0474V33.6502H102V37.7223H88.9363V21.1748H88.9547Z" fill="#007FFF"/>
<path fill-rule="evenodd" clip-rule="evenodd" d="M74.7472 23.0283C77.2593 23.2272 80.0102 22.5475 82.4779 20.967C84.4789 21.2032 86.0751 21.9142 87.2572 23.1C88.7333 24.5808 89.4899 26.6539 89.4899 29.3192C89.4899 31.2627 89.1577 32.836 88.5119 34.0762C87.8846 35.2978 86.9066 36.2973 85.7073 36.9637C84.471 37.6485 82.9396 38.0002 81.1129 38.0002C79.2493 38.0002 77.7178 37.704 76.5 37.1117C75.2453 36.4824 74.212 35.5014 73.5293 34.2983C72.7728 33.0026 72.3853 31.3923 72.3853 29.4488C72.3853 26.7464 73.1418 24.6363 74.6364 23.1371C74.673 23.1004 74.7099 23.0641 74.7472 23.0283ZM52.31 23.1371C50.8155 24.6363 50.059 26.7464 50.059 29.4488C50.059 31.3923 50.4464 33.0026 51.203 34.2983C51.8857 35.5014 52.9189 36.4824 54.1737 37.1117C55.3915 37.704 56.9229 38.0002 58.7865 38.0002C60.6132 38.0002 62.1447 37.6485 63.381 36.9637C64.5803 36.2973 65.5582 35.2978 66.1856 34.0762C66.8314 32.836 67.1635 31.2627 67.1635 29.3192C67.1635 26.6539 66.4255 24.5808 64.9309 23.1C63.4363 21.6193 61.3328 20.8789 58.5836 20.8789C55.9081 20.8789 53.8046 21.6378 52.31 23.1371ZM56.0742 33.0767C55.4653 32.3363 55.1516 31.1332 55.1516 29.4673C55.1516 27.7829 55.4653 26.5798 56.0926 25.858C56.72 25.1361 57.6241 24.7289 58.5651 24.7659C59.6353 24.7659 60.4841 25.1176 61.1114 25.8395C61.7388 26.5428 62.0524 27.6904 62.0524 29.2452C62.0524 31.0961 61.7572 32.3733 61.1483 33.0952C60.5394 33.817 59.6907 34.1687 58.602 34.1687C57.5318 34.1687 56.6831 33.7985 56.0742 33.0767ZM78.4005 33.0767C77.7916 32.3363 77.4779 31.1332 77.4779 29.4673C77.4779 27.7829 77.7916 26.5798 78.4189 25.858C79.0278 25.1361 79.9504 24.7289 80.8914 24.7659C81.9616 24.7659 82.8104 25.1176 83.4378 25.8395C84.0651 26.5428 84.3788 27.6904 84.3788 29.2452C84.3788 31.0961 84.0836 32.3733 83.4747 33.0952C82.8658 33.817 82.017 34.1687 80.9284 34.1687C79.8582 34.1687 79.0094 33.7985 78.4005 33.0767Z" fill="#007FFF"/>
<path fill-rule="evenodd" clip-rule="evenodd" d="M57.5134 12.2719L52.6606 12.5865C52.7898 14.2524 53.4356 15.6221 54.5242 16.7141C55.6129 17.8062 57.5503 18.343 60.3549 18.343C61.9418 18.343 63.2703 18.1023 64.322 17.6396C65.3136 17.216 66.1589 16.5173 66.7671 15.6168C66.603 14.1039 66.8188 12.5131 67.3839 10.9718C67.2863 10.7041 67.1634 10.4453 67.0159 10.1988C66.5915 9.47692 65.8904 8.8661 64.9124 8.36635C63.9345 7.86659 62.3477 7.38534 60.115 6.9041C59.2109 6.719 58.6389 6.5154 58.3991 6.29328C58.1776 6.1267 58.03 5.86756 58.03 5.58992C58.0116 5.21973 58.1961 4.88656 58.4729 4.66445C58.7681 4.42382 59.2109 4.29426 59.8014 4.29426C60.521 4.29426 61.0745 4.46084 61.4989 4.81252C61.9233 5.1642 62.1816 5.70098 62.3108 6.44136L67.1082 6.16372C66.9052 4.44233 66.241 3.18369 65.1339 2.40629C64.0268 1.61038 62.4215 1.22168 60.318 1.22168C58.602 1.22168 57.2366 1.44379 56.2587 1.86951C55.3546 2.22119 54.598 2.85052 54.0445 3.64642C53.5648 4.34978 53.3064 5.20122 53.3064 6.05266C53.2695 7.2928 53.8046 8.45889 54.7457 9.2548C55.6867 10.1062 57.292 10.7726 59.5246 11.2723C60.89 11.5685 61.7572 11.9017 62.1263 12.2348C62.4768 12.5125 62.6798 12.9382 62.6798 13.3824C62.6798 13.8452 62.4584 14.2894 62.0894 14.567C61.7019 14.9187 61.1299 15.0853 60.4103 15.0853C59.4323 15.0853 58.6943 14.7521 58.1592 14.0858C57.8271 13.6601 57.6241 13.0678 57.5134 12.2719ZM1.16245 1.51783V18.0468H6.27352V11.3279H6.71635C7.15919 11.3279 7.60203 11.4574 7.97106 11.7166C8.24783 11.9202 8.54305 12.3459 8.89363 12.9937L11.6245 18.0838H17.4182L14.9457 13.2899C14.7428 12.9197 14.5029 12.568 14.2261 12.2533C13.9863 11.9387 13.7279 11.6425 13.4143 11.3834C13.0083 11.1243 12.547 10.9021 12.0857 10.7726C12.7131 10.6615 13.322 10.4394 13.8755 10.1247C15.2963 9.31033 16.1266 7.75553 16.0713 6.1267C16.0897 5.1642 15.8314 4.23873 15.2963 3.44282C14.8166 2.72095 14.097 2.18417 13.2851 1.92504C12.4548 1.6474 11.237 1.51783 9.6686 1.51783H1.16245ZM8.43234 8.21827H6.27352V4.86805H8.5246C9.44718 4.86805 10.093 5.01613 10.4251 5.29377C11.034 5.86756 11.1078 6.81155 10.6096 7.47789C10.4067 7.75553 10.1114 7.94063 9.77931 7.99616C9.33647 8.10721 8.89363 8.18125 8.43234 8.21827ZM4.85275 31.9289L0 32.2436C0.147612 33.9095 0.756512 35.2792 1.84515 36.3897C2.93379 37.4818 4.8712 38.0186 7.67583 38.0186C9.26266 38.0186 10.5912 37.7779 11.6429 37.3152C12.6393 36.8895 13.4881 36.1861 14.097 35.2792C14.669 34.4092 14.9826 33.3912 14.9826 32.3547C14.9826 31.5032 14.7612 30.6518 14.3184 29.9114C13.894 29.1895 13.1928 28.5787 12.2149 28.079C11.237 27.5792 9.65014 27.098 7.41751 26.6167C6.51339 26.4316 5.94139 26.228 5.70152 26.0059C5.4801 25.8393 5.33249 25.5802 5.33249 25.3025C5.31404 24.9323 5.4801 24.5992 5.77533 24.3771C6.07055 24.1179 6.51339 23.9884 7.10384 23.9884C7.82344 23.9699 8.39544 24.1364 8.80137 24.4881C9.22576 24.8398 9.48408 25.3766 9.61324 26.117L14.4106 25.8393C14.2077 24.1179 13.5619 22.8778 12.4548 22.0819C11.3477 21.286 9.7424 20.8973 7.63893 20.8973C5.92294 20.8973 4.55753 21.1194 3.57959 21.5451C2.67547 21.8968 1.91896 22.5261 1.36541 23.322C0.885673 24.0254 0.627352 24.8768 0.627352 25.7283C0.590449 26.9684 1.12554 28.1345 2.06657 28.9304C3.0076 29.7818 4.61288 30.4482 6.84551 30.9479C8.22938 31.2441 9.0966 31.5773 9.46563 31.9104C9.81621 32.1881 10.0192 32.6138 10.0192 33.058C10.0192 33.5208 9.79776 33.9465 9.42873 34.2426C9.04124 34.5943 8.46925 34.7609 7.74964 34.7609C6.77171 34.7609 6.0152 34.4092 5.49855 33.7429C5.16643 33.3172 4.96346 32.7248 4.85275 31.9289Z" fill="#007FFF"/>
<path d="M83.3886 20.3324C88.5158 16.4565 90.0968 9.88633 86.92 5.6574C83.7431 1.42847 77.0113 1.14228 71.8842 5.01817C66.757 8.89405 65.1759 15.4643 68.3528 19.6932C71.5297 23.9221 78.2614 24.2083 83.3886 20.3324Z" stroke="#007FFF" stroke-miterlimit="10"/>
<path d="M72.4508 11.4581L74.2959 10.1624L76.5654 13.4016C76.9529 13.9198 77.2481 14.4751 77.4696 15.0859C77.5987 15.5487 77.5618 16.0484 77.3773 16.4927C77.1374 17.0479 76.75 17.5107 76.2333 17.8438C75.6244 18.2696 75.1078 18.5102 74.6649 18.5842C74.2405 18.6583 73.7977 18.5842 73.3918 18.3991C72.9489 18.177 72.5615 17.8624 72.2662 17.4551L73.8531 15.9744C73.9822 16.178 74.1483 16.3631 74.3328 16.5112C74.462 16.6037 74.6096 16.6592 74.7756 16.6592C74.9048 16.6592 75.034 16.6037 75.1262 16.5297C75.3107 16.4186 75.4399 16.1965 75.4214 15.9744C75.3661 15.6597 75.2369 15.3451 75.034 15.1044L72.4508 11.4581ZM77.9862 13.5126L79.6653 12.1799C79.8498 12.4021 80.0897 12.5686 80.348 12.6612C80.717 12.7722 81.1045 12.6982 81.4182 12.4576C81.6396 12.3095 81.8241 12.1059 81.8979 11.8468C82.0086 11.5136 81.8241 11.1434 81.492 11.0323C81.4366 11.0138 81.3813 10.9953 81.3259 10.9953C81.1045 10.9768 80.717 11.0694 80.145 11.31C79.204 11.6987 78.4659 11.8468 77.9124 11.7912C77.3773 11.7357 76.8791 11.4581 76.5839 10.9953C76.3625 10.6807 76.2518 10.3105 76.2333 9.94029C76.2333 9.51457 76.344 9.08885 76.5839 8.73717C76.9345 8.23741 77.3589 7.8117 77.8755 7.47853C78.6505 6.94175 79.3332 6.68262 79.9236 6.68262C80.5141 6.68262 81.0676 6.96026 81.5843 7.53405L79.9236 8.84823C79.5915 8.42251 78.9641 8.32996 78.5398 8.66313L78.4844 8.71866C78.2999 8.82972 78.1707 8.9963 78.0969 9.19991C78.0416 9.34798 78.0785 9.51457 78.1707 9.64414C78.2445 9.73668 78.3552 9.81072 78.4844 9.81072C78.632 9.82923 78.8903 9.75519 79.2594 9.58861C80.1819 9.19991 80.8831 8.97779 81.3628 8.90376C81.7688 8.82972 82.1932 8.86674 82.5806 9.03332C82.9312 9.1814 83.2264 9.44053 83.4294 9.75519C83.6877 10.1254 83.8353 10.5696 83.8538 11.0323C83.8722 11.5136 83.7431 11.9763 83.4848 12.3835C83.1526 12.8833 82.7282 13.309 82.2301 13.6422C81.2152 14.3455 80.3849 14.6417 79.7206 14.5306C79.001 14.4196 78.4106 14.0494 77.9862 13.5126Z" fill="#007FFF"/>
</g>
<defs>
<clipPath id="clip0_71_14">
<rect width="102" height="38" fill="white"/>
</clipPath>
</defs>
</svg>
