<svg width="102" height="37" viewBox="0 0 102 37" fill="none" xmlns="http://www.w3.org/2000/svg">
<path d="M52.6606 11.5865L57.5134 11.2719C57.6241 12.0678 57.8271 12.6601 58.1592 13.0858C58.6943 13.7521 59.4323 14.0853 60.4103 14.0853C61.1299 14.0853 61.7019 13.9187 62.0894 13.567C62.4584 13.2894 62.6798 12.8452 62.6798 12.3824C62.6798 11.9382 62.4768 11.5125 62.1263 11.2348C61.7572 10.9017 60.89 10.5685 59.5246 10.2723C57.292 9.7726 55.6867 9.1062 54.7457 8.2548C53.8046 7.45889 53.2695 6.2928 53.3064 5.05266C53.3064 4.20122 53.5648 3.34978 54.0445 2.64642C54.598 1.85052 55.3546 1.22119 56.2587 0.86951C57.2366 0.44379 58.602 0.22168 60.318 0.22168C62.4215 0.22168 64.0268 0.61038 65.1339 1.40629C66.241 2.18369 66.9052 3.44233 67.1082 5.16372L62.3108 5.44136C62.1816 4.70098 61.9233 4.1642 61.4989 3.81252C61.0745 3.46084 60.521 3.29426 59.8014 3.29426C59.2109 3.29426 58.7681 3.42382 58.4729 3.66445C58.1961 3.88656 58.0116 4.21973 58.03 4.58992C58.03 4.86756 58.1776 5.1267 58.3991 5.29328C58.6389 5.5154 59.2109 5.719 60.115 5.9041C62.3477 6.38534 63.9345 6.86659 64.9124 7.36635C65.8904 7.8661 66.5915 8.47692 67.0159 9.1988C67.4588 9.9392 67.6802 10.7906 67.6617 11.6606C67.6617 12.6971 67.3665 13.7336 66.776 14.6036C66.1671 15.5105 65.3184 16.2139 64.322 16.6396C63.2703 17.1023 61.9418 17.343 60.3549 17.343C57.5503 17.343 55.6129 16.8062 54.5242 15.7141C53.4356 14.6221 52.7898 13.2524 52.6606 11.5865ZM1.16245 17.0653V0.51783H9.6686C11.237 0.51783 12.4548 0.6474 13.2851 0.92504C14.097 1.18417 14.8166 1.72095 15.2963 2.44282C15.8314 3.23873 16.0897 4.1642 16.0713 5.1267C16.1266 6.75553 15.2963 8.31033 13.8755 9.1247C13.322 9.4394 12.7131 9.6615 12.0857 9.7726C12.547 9.9021 13.0083 10.1243 13.4143 10.3834C13.7279 10.6425 13.9863 10.9387 14.2261 11.2533C14.5029 11.568 14.7428 11.9197 14.9457 12.2899L17.4182 17.0838H11.6245L8.89363 11.9937C8.54305 11.3459 8.24783 10.9202 7.97106 10.7166C7.60203 10.4574 7.15919 10.3279 6.71635 10.3279H6.27352V17.0468H1.16245V17.0653ZM6.27352 7.21827H8.43234C8.89363 7.18125 9.33647 7.10721 9.77931 6.99616C10.1114 6.94063 10.4067 6.75553 10.6096 6.47789C11.1078 5.81155 11.034 4.86756 10.4251 4.29377C10.093 4.01613 9.44718 3.86805 8.5246 3.86805H6.27352V7.21827ZM0 31.2436L4.85275 30.9289C4.96346 31.7248 5.16643 32.3172 5.49855 32.7429C6.0152 33.4092 6.77171 33.7609 7.74964 33.7609C8.46925 33.7609 9.04124 33.5943 9.42873 33.2426C9.79776 32.9465 10.0192 32.5208 10.0192 32.058C10.0192 31.6138 9.81621 31.1881 9.46563 30.9104C9.0966 30.5773 8.22938 30.2441 6.84551 29.9479C4.61288 29.4482 3.0076 28.7818 2.06657 27.9304C1.12554 27.1345 0.590449 25.9684 0.627352 24.7283C0.627352 23.8768 0.885673 23.0254 1.36541 22.322C1.91896 21.5261 2.67547 20.8968 3.57959 20.5451C4.55753 20.1194 5.92294 19.8973 7.63893 19.8973C9.7424 19.8973 11.3477 20.286 12.4548 21.0819C13.5619 21.8778 14.2077 23.1179 14.4106 24.8393L9.61324 25.117C9.48408 24.3766 9.22576 23.8398 8.80137 23.4881C8.39544 23.1364 7.82344 22.9699 7.10384 22.9884C6.51339 22.9884 6.07055 23.1179 5.77533 23.3771C5.4801 23.5992 5.31404 23.9323 5.33249 24.3025C5.33249 24.5802 5.4801 24.8393 5.70152 25.0059C5.94139 25.228 6.51339 25.4316 7.41751 25.6167C9.65014 26.098 11.237 26.5792 12.2149 27.079C13.1928 27.5787 13.894 28.1895 14.3184 28.9114C14.7612 29.6518 14.9826 30.5032 14.9826 31.3547C14.9826 32.3912 14.669 33.4092 14.097 34.2792C13.4881 35.1861 12.6393 35.8895 11.6429 36.3152C10.5912 36.7779 9.26266 37.0186 7.67583 37.0186C4.8712 37.0186 2.93379 36.4818 1.84515 35.3897C0.756512 34.2792 0.147612 32.9095 0 31.2436Z" fill="#1976D2"/>
<path d="M24.5876 30.0604L29.0528 31.4116C28.813 32.5407 28.3148 33.6142 27.6321 34.5582C27.0047 35.3912 26.1744 36.039 25.2334 36.4647C24.2739 36.8904 23.0561 37.1125 21.58 37.1125C19.7902 37.1125 18.314 36.8534 17.1885 36.3351C16.0445 35.8169 15.0666 34.8914 14.2363 33.5772C13.4059 32.2631 13 30.5787 13 28.5241C13 25.7847 13.7196 23.6746 15.1773 22.2124C16.635 20.7501 18.6831 20.0098 21.3401 20.0098C23.4251 20.0098 25.0488 20.4355 26.2482 21.2684C27.4291 22.1198 28.3148 23.4155 28.9052 25.1554L24.403 26.1549C24.2923 25.7662 24.1263 25.3775 23.9049 25.0443C23.6281 24.6557 23.2775 24.3595 22.8531 24.1374C22.4287 23.9153 21.949 23.8227 21.4692 23.8227C20.3068 23.8227 19.4211 24.2855 18.8122 25.2294C18.3509 25.9143 18.1111 27.0064 18.1111 28.4871C18.1111 30.3196 18.3878 31.5782 18.9414 32.2631C19.4949 32.9479 20.2699 33.2811 21.2847 33.2811C22.2627 33.2811 23.0007 33.0034 23.4989 32.4667C23.9971 31.8929 24.3661 31.097 24.5876 30.0604ZM35.0127 20.2874H40.1053V26.0809H45.6776V20.2874H50.8072V36.8349H45.6776V30.1345H40.1053V36.8349H35.0127V20.2874Z" fill="#1976D2"/>
<path d="M50.059 28.4488C50.059 25.7464 50.8155 23.6363 52.31 22.1371C53.8046 20.6378 55.9081 19.8789 58.5836 19.8789C61.3328 19.8789 63.4363 20.6193 64.9309 22.1C66.4255 23.5808 67.1635 25.6539 67.1635 28.3192C67.1635 30.2627 66.8314 31.836 66.1856 33.0762C65.5582 34.2978 64.5803 35.2973 63.381 35.9637C62.1447 36.6485 60.6132 37.0002 58.7865 37.0002C56.9229 37.0002 55.3915 36.704 54.1737 36.1117C52.9189 35.4824 51.8857 34.5014 51.203 33.2983C50.4464 32.0026 50.059 30.3923 50.059 28.4488ZM55.1516 28.4673C55.1516 30.1332 55.4653 31.3363 56.0742 32.0767C56.6831 32.7985 57.5318 33.1687 58.602 33.1687C59.6907 33.1687 60.5394 32.817 61.1483 32.0952C61.7572 31.3733 62.0524 30.0961 62.0524 28.2452C62.0524 26.6904 61.7388 25.5428 61.1114 24.8395C60.4841 24.1176 59.6353 23.7659 58.5651 23.7659C57.6241 23.7289 56.72 24.1361 56.0926 24.858C55.4653 25.5798 55.1516 26.7829 55.1516 28.4673ZM72.3853 28.4488C72.3853 25.7464 73.1418 23.6363 74.6364 22.1371C76.131 20.6378 78.2344 19.8789 80.9099 19.8789C83.6592 19.8789 85.7811 20.6193 87.2572 22.1C88.7333 23.5808 89.4899 25.6539 89.4899 28.3192C89.4899 30.2627 89.1577 31.836 88.5119 33.0762C87.8846 34.2978 86.9066 35.2973 85.7073 35.9637C84.471 36.6485 82.9396 37.0002 81.1129 37.0002C79.2493 37.0002 77.7178 36.704 76.5 36.1117C75.2453 35.4824 74.212 34.5014 73.5293 33.2983C72.7728 32.0026 72.3853 30.3923 72.3853 28.4488ZM77.4779 28.4673C77.4779 30.1332 77.7916 31.3363 78.4005 32.0767C79.0094 32.7985 79.8582 33.1687 80.9284 33.1687C82.017 33.1687 82.8658 32.817 83.4747 32.0952C84.0836 31.3733 84.3788 30.0961 84.3788 28.2452C84.3788 26.6904 84.0651 25.5428 83.4378 24.8395C82.8104 24.1176 81.9616 23.7659 80.8914 23.7659C79.9504 23.7289 79.0278 24.1361 78.4189 24.858C77.7916 25.5798 77.4779 26.7829 77.4779 28.4673Z" fill="#1976D2"/>
<path d="M88.9547 20.1748H94.0474V32.6502H102V36.7223H88.9363V20.1748H88.9547Z" fill="#1976D2"/>
<path d="M83.3416 19.2201C88.4688 15.3442 90.0498 8.77403 86.873 4.5451C83.6961 0.316168 76.9644 0.0299685 71.8372 3.90586C66.71 7.78175 65.1289 14.352 68.3058 18.5809C71.4827 22.8098 78.2144 23.096 83.3416 19.2201Z" fill="#1976D2"/>
<path d="M83.3886 19.3324C88.5158 15.4565 90.0968 8.88633 86.92 4.6574C83.7431 0.428468 77.0113 0.142278 71.8842 4.01817C66.757 7.89405 65.1759 14.4643 68.3528 18.6932C71.5297 22.9221 78.2614 23.2083 83.3886 19.3324Z" fill="white"/>
<path d="M83.3886 19.3324C88.5158 15.4565 90.0968 8.88633 86.92 4.6574C83.7431 0.428468 77.0113 0.142278 71.8842 4.01817C66.757 7.89405 65.1759 14.4643 68.3528 18.6932C71.5297 22.9221 78.2614 23.2083 83.3886 19.3324Z" stroke="#1976D2" stroke-miterlimit="10"/>
<path d="M72.4508 10.4581L74.2959 9.1624L76.5654 12.4016C76.9529 12.9198 77.2481 13.4751 77.4696 14.0859C77.5987 14.5487 77.5618 15.0484 77.3773 15.4927C77.1374 16.0479 76.75 16.5107 76.2333 16.8438C75.6244 17.2696 75.1078 17.5102 74.6649 17.5842C74.2405 17.6583 73.7977 17.5842 73.3918 17.3991C72.9489 17.177 72.5615 16.8624 72.2662 16.4551L73.8531 14.9744C73.9822 15.178 74.1483 15.3631 74.3328 15.5112C74.462 15.6037 74.6096 15.6592 74.7756 15.6592C74.9048 15.6592 75.034 15.6037 75.1262 15.5297C75.3107 15.4186 75.4399 15.1965 75.4214 14.9744C75.3661 14.6597 75.2369 14.3451 75.034 14.1044L72.4508 10.4581ZM77.9862 12.5126L79.6653 11.1799C79.8498 11.4021 80.0897 11.5686 80.348 11.6612C80.717 11.7722 81.1045 11.6982 81.4182 11.4576C81.6396 11.3095 81.8241 11.1059 81.8979 10.8468C82.0086 10.5136 81.8241 10.1434 81.492 10.0323C81.4366 10.0138 81.3813 9.9953 81.3259 9.9953C81.1045 9.9768 80.717 10.0694 80.145 10.31C79.204 10.6987 78.4659 10.8468 77.9124 10.7912C77.3773 10.7357 76.8791 10.4581 76.5839 9.9953C76.3625 9.6807 76.2518 9.3105 76.2333 8.94029C76.2333 8.51457 76.344 8.08885 76.5839 7.73717C76.9345 7.23741 77.3589 6.8117 77.8755 6.47853C78.6505 5.94175 79.3332 5.68262 79.9236 5.68262C80.5141 5.68262 81.0676 5.96026 81.5843 6.53405L79.9236 7.84823C79.5915 7.42251 78.9641 7.32996 78.5398 7.66313L78.4844 7.71866C78.2999 7.82972 78.1707 7.9963 78.0969 8.19991C78.0416 8.34798 78.0785 8.51457 78.1707 8.64414C78.2445 8.73668 78.3552 8.81072 78.4844 8.81072C78.632 8.82923 78.8903 8.75519 79.2594 8.58861C80.1819 8.19991 80.8831 7.97779 81.3628 7.90376C81.7688 7.82972 82.1932 7.86674 82.5806 8.03332C82.9312 8.1814 83.2264 8.44053 83.4294 8.75519C83.6877 9.1254 83.8353 9.5696 83.8538 10.0323C83.8722 10.5136 83.7431 10.9763 83.4848 11.3835C83.1526 11.8833 82.7282 12.309 82.2301 12.6422C81.2152 13.3455 80.3849 13.6417 79.7206 13.5306C79.001 13.4196 78.4106 13.0494 77.9862 12.5126Z" fill="#1976D2"/>
</svg>
