<svg width="100" height="89" viewBox="0 0 100 89" fill="none" xmlns="http://www.w3.org/2000/svg">
<g clip-path="url(#clip0_88_3737)">
<path d="M50 53.3993C54.9226 53.3993 58.9131 49.4088 58.9131 44.4863C58.9131 39.5637 54.9226 35.5732 50 35.5732C45.0775 35.5732 41.087 39.5637 41.087 44.4863C41.087 49.4088 45.0775 53.3993 50 53.3993Z" fill="#61DAFB"/>
<path d="M50 62.7464C76.4136 62.7464 97.8261 54.5707 97.8261 44.4855C97.8261 34.4003 76.4136 26.2247 50 26.2247C23.5864 26.2247 2.17389 34.4003 2.17389 44.4855C2.17389 54.5707 23.5864 62.7464 50 62.7464Z" stroke="#61DAFB" stroke-width="4"/>
<path d="M34.1856 53.616C47.3924 76.4908 65.179 90.9467 73.913 85.9041C82.6471 80.8615 79.0212 58.23 65.8143 35.3551C52.6075 12.4802 34.821 -1.97567 26.0869 3.06693C17.3529 8.10953 20.9788 30.7411 34.1856 53.616Z" stroke="#61DAFB" stroke-width="4"/>
<path d="M34.1856 35.3551C20.9788 58.23 17.3529 80.8615 26.0869 85.9041C34.821 90.9467 52.6075 76.4908 65.8143 53.616C79.0212 30.7411 82.6471 8.10953 73.913 3.06693C65.179 -1.97568 47.3924 12.4802 34.1856 35.3551Z" stroke="#61DAFB" stroke-width="4"/>
</g>
<defs>
<clipPath id="clip0_88_3737">
<rect width="100" height="88.9716" fill="white"/>
</clipPath>
</defs>
</svg>
