<svg width="100" height="100" viewBox="0 0 100 100" fill="none" xmlns="http://www.w3.org/2000/svg">
<g clip-path="url(#clip0_88_3718)">
<path fill-rule="evenodd" clip-rule="evenodd" d="M77.8301 4.18752C82.7956 4.18752 87.2911 6.20082 90.5453 9.45451C93.7995 12.7082 95.8128 17.2043 95.8128 22.1693V77.3387C95.8128 82.3043 93.8 86.7998 90.5458 90.054C88.8778 91.7263 86.8957 93.0524 84.7135 93.9562C82.5313 94.8601 80.192 95.3237 77.8301 95.3205V95.3205H22.17C17.2044 95.3205 12.7089 93.3072 9.45468 90.0535C6.2005 86.7998 4.18719 82.3038 4.18719 77.3387V22.1693C4.18719 17.2038 6.2 12.7082 9.45419 9.45402C11.1222 7.78175 13.1043 6.4556 15.2865 5.5518C17.4687 4.64799 19.808 4.18435 22.17 4.18752V4.18752H77.8301Z" fill="#EC5990" stroke="white" stroke-width="17"/>
<path fill-rule="evenodd" clip-rule="evenodd" d="M65.7069 25.4209H55.4271C54.6734 23.0731 52.4808 21.4795 50.0039 21.4795C47.5271 21.4795 45.3345 23.0731 44.5808 25.4209H34.2936C30.2433 25.4209 26.9601 28.6879 26.9601 32.7179V70.7361C26.9601 74.7662 30.2433 78.0332 34.2936 78.0332H65.7069C69.7571 78.0332 73.0404 74.7662 73.0404 70.7361V32.7179C73.0404 28.6879 69.7571 25.4209 65.7069 25.4209ZM45.0936 26.7475C45.2483 26.7513 45.3995 26.7011 45.5212 26.6054C45.6429 26.5097 45.7273 26.3746 45.7601 26.2233C46.1965 24.2302 47.9699 22.8086 50.0202 22.8086C52.0704 22.8086 53.8438 24.2297 54.2803 26.2233C54.313 26.3746 54.3975 26.5097 54.5192 26.6054C54.6408 26.7011 54.7921 26.7513 54.9468 26.7475H58.5335V31.0928C58.5335 32.1918 57.6379 33.0829 56.5335 33.0829H43.5C42.3956 33.0829 41.5 32.1918 41.5 31.0928V26.7475H45.0931H45.0936ZM71.7069 70.7361C71.7069 74.0337 69.0207 76.7066 65.7069 76.7066H34.2936C30.9798 76.7066 28.2936 74.0337 28.2936 70.7361V32.7179C28.2936 29.4204 30.9798 26.7475 34.2936 26.7475H40.167V31.0928C40.167 32.9248 41.6596 34.4095 43.5005 34.4095H56.5005C58.3414 34.4095 59.834 32.9243 59.834 31.0928V26.7475H65.7074C69.0212 26.7475 71.7074 29.4204 71.7074 32.7179V70.7361H71.7069ZM64.4 47.1002H52.6665C52.5792 47.1 52.4926 47.117 52.4119 47.1502C52.3311 47.1835 52.2577 47.2323 52.1958 47.2939C52.1339 47.3555 52.0848 47.4287 52.0512 47.5093C52.0176 47.59 52.0002 47.6764 52 47.7637C52.0002 47.8511 52.0176 47.9375 52.0512 48.0181C52.0848 48.0987 52.1339 48.1719 52.1958 48.2335C52.2577 48.2952 52.3311 48.344 52.4119 48.3772C52.4926 48.4105 52.5792 48.4275 52.6665 48.4273H64.4C64.4873 48.4275 64.5738 48.4105 64.6546 48.3772C64.7354 48.344 64.8088 48.2952 64.8707 48.2335C64.9325 48.1719 64.9817 48.0987 65.0153 48.0181C65.0489 47.9375 65.0663 47.8511 65.0665 47.7637C65.0663 47.6764 65.0489 47.59 65.0153 47.5093C64.9817 47.4287 64.9325 47.3555 64.8707 47.2939C64.8088 47.2323 64.7354 47.1835 64.6546 47.1502C64.5738 47.117 64.4873 47.1 64.4 47.1002ZM47.067 47.1002H35.3335C35.2461 47.1 35.1596 47.117 35.0789 47.1502C34.9981 47.1835 34.9247 47.2323 34.8628 47.2939C34.8009 47.3555 34.7518 47.4287 34.7182 47.5093C34.6846 47.59 34.6672 47.6764 34.667 47.7637C34.6672 47.8511 34.6846 47.9375 34.7182 48.0181C34.7518 48.0987 34.8009 48.1719 34.8628 48.2335C34.9247 48.2952 34.9981 48.344 35.0789 48.3772C35.1596 48.4105 35.2461 48.4275 35.3335 48.4273H47.067C47.1543 48.4275 47.2408 48.4105 47.3216 48.3772C47.4023 48.344 47.4758 48.2952 47.5377 48.2335C47.5995 48.1719 47.6487 48.0987 47.6823 48.0181C47.7159 47.9375 47.7333 47.8511 47.7335 47.7637C47.7333 47.6764 47.7159 47.59 47.6823 47.5093C47.6487 47.4287 47.5995 47.3555 47.5377 47.2939C47.4758 47.2323 47.4023 47.1835 47.3216 47.1502C47.2408 47.117 47.1543 47.1 47.067 47.1002V47.1002V47.1002ZM64.4335 63.1539H52.667C52.5796 63.1537 52.4931 63.1707 52.4124 63.2039C52.3316 63.2372 52.2582 63.286 52.1963 63.3476C52.1344 63.4092 52.0853 63.4824 52.0517 63.563C52.0181 63.6437 52.0007 63.7301 52.0005 63.8174C52.0007 63.9048 52.0181 63.9912 52.0517 64.0718C52.0853 64.1524 52.1344 64.2256 52.1963 64.2872C52.2582 64.3489 52.3316 64.3977 52.4124 64.4309C52.4931 64.4642 52.5796 64.4812 52.667 64.481H64.4335C64.5208 64.4812 64.6073 64.4642 64.6881 64.4309C64.7688 64.3977 64.8423 64.3489 64.9042 64.2872C64.966 64.2256 65.0152 64.1524 65.0488 64.0718C65.0824 63.9912 65.0998 63.9048 65.1 63.8174C65.0998 63.7301 65.0824 63.6437 65.0488 63.563C65.0152 63.4824 64.966 63.4092 64.9042 63.3476C64.8423 63.286 64.7688 63.2372 64.6881 63.2039C64.6073 63.1707 64.5208 63.1537 64.4335 63.1539V63.1539V63.1539ZM47.1 63.1539H35.3335C35.2461 63.1537 35.1596 63.1707 35.0789 63.2039C34.9981 63.2372 34.9247 63.286 34.8628 63.3476C34.8009 63.4092 34.7518 63.4824 34.7182 63.563C34.6846 63.6437 34.6672 63.7301 34.667 63.8174C34.6672 63.9048 34.6846 63.9912 34.7182 64.0718C34.7518 64.1524 34.8009 64.2256 34.8628 64.2872C34.9247 64.3489 34.9981 64.3977 35.0789 64.4309C35.1596 64.4642 35.2461 64.4812 35.3335 64.481H47.1C47.1873 64.4812 47.2738 64.4642 47.3546 64.4309C47.4354 64.3977 47.5088 64.3489 47.5707 64.2872C47.6326 64.2256 47.6817 64.1524 47.7153 64.0718C47.7489 63.9912 47.7663 63.9048 47.7665 63.8174C47.7663 63.7301 47.7489 63.6437 47.7153 63.563C47.6817 63.4824 47.6326 63.4092 47.5707 63.3476C47.5088 63.286 47.4354 63.2372 47.3546 63.2039C47.2738 63.1707 47.1873 63.1537 47.1 63.1539V63.1539V63.1539Z" fill="white"/>
</g>
<defs>
<clipPath id="clip0_88_3718">
<rect width="100" height="99.5074" fill="white"/>
</clipPath>
</defs>
</svg>
